<svg width="736" height="434" viewBox="0 0 736 434" fill="none" xmlns="http://www.w3.org/2000/svg">
<g filter="url(#filter0_dd_210_5371)">
<g clip-path="url(#clip0_210_5371)">
<rect x="5" y="1" width="726" height="424" rx="8" fill="white" style="fill:white;fill-opacity:1;"/>
<mask id="path-3-inside-1_210_5371" fill="white">
<path d="M5 357H731V425H5V357Z"/>
</mask>
<path d="M5 357H731V425H5V357Z" fill="#F3F4F6" style="fill:#F3F4F6;fill:color(display-p3 0.9529 0.9569 0.9647);fill-opacity:1;"/>
<path d="M5 358H731V356H5V358Z" fill="#E5E7EB" style="fill:#E5E7EB;fill:color(display-p3 0.8980 0.9059 0.9216);fill-opacity:1;" mask="url(#path-3-inside-1_210_5371)"/>
<path d="M24.334 394.334L28.1555 390.512C28.8063 389.862 29.8616 389.862 30.5125 390.512L34.334 394.334M32.6673 392.667L33.9888 391.346C34.6397 390.695 35.695 390.695 36.3458 391.346L37.6673 392.667M32.6673 387.667H32.6757M26.0007 397.667H36.0007C36.9211 397.667 37.6673 396.921 37.6673 396.001V386.001C37.6673 385.08 36.9211 384.334 36.0007 384.334H26.0007C25.0802 384.334 24.334 385.08 24.334 386.001V396.001C24.334 396.921 25.0802 397.667 26.0007 397.667Z" stroke="#9CA3AF" style="stroke:#9CA3AF;stroke:color(display-p3 0.6118 0.6392 0.6863);stroke-opacity:1;" stroke-width="1.25" stroke-linecap="round" stroke-linejoin="round"/>
<path d="M47.1553 396.5H45.5247L49.1887 386.318H50.9636L54.6276 396.5H52.997L50.1184 388.168H50.0389L47.1553 396.5ZM47.4288 392.513H52.7185V393.805H47.4288V392.513ZM58.4343 396.649C57.8178 396.649 57.2676 396.492 56.7837 396.177C56.3031 395.859 55.9253 395.406 55.6502 394.82C55.3784 394.23 55.2425 393.522 55.2425 392.697C55.2425 391.871 55.3801 391.165 55.6552 390.579C55.9336 389.992 56.3147 389.543 56.7986 389.232C57.2825 388.92 57.8311 388.764 58.4442 388.764C58.9182 388.764 59.2993 388.844 59.5877 389.003C59.8794 389.159 60.1047 389.341 60.2638 389.55C60.4262 389.759 60.5522 389.942 60.6417 390.102H60.7312V386.318H62.2177V396.5H60.766V395.312H60.6417C60.5522 395.474 60.4229 395.66 60.2539 395.869C60.0882 396.077 59.8595 396.26 59.5678 396.415C59.2761 396.571 58.8983 396.649 58.4343 396.649ZM58.7624 395.381C59.19 395.381 59.5512 395.269 59.8462 395.043C60.1445 394.815 60.3699 394.498 60.5224 394.094C60.6781 393.689 60.756 393.219 60.756 392.682C60.756 392.152 60.6798 391.687 60.5273 391.29C60.3749 390.892 60.1511 390.582 59.8562 390.36C59.5612 390.138 59.1966 390.027 58.7624 390.027C58.315 390.027 57.9421 390.143 57.6438 390.375C57.3455 390.607 57.1201 390.924 56.9677 391.325C56.8185 391.726 56.7439 392.178 56.7439 392.682C56.7439 393.192 56.8202 393.651 56.9726 394.059C57.1251 394.467 57.3505 394.79 57.6488 395.028C57.9504 395.264 58.3216 395.381 58.7624 395.381ZM66.918 396.649C66.3015 396.649 65.7513 396.492 65.2674 396.177C64.7868 395.859 64.409 395.406 64.1339 394.82C63.8621 394.23 63.7262 393.522 63.7262 392.697C63.7262 391.871 63.8637 391.165 64.1388 390.579C64.4172 389.992 64.7984 389.543 65.2823 389.232C65.7662 388.92 66.3147 388.764 66.9279 388.764C67.4019 388.764 67.783 388.844 68.0714 389.003C68.363 389.159 68.5884 389.341 68.7475 389.55C68.9099 389.759 69.0359 389.942 69.1253 390.102H69.2148V386.318H70.7013V396.5H69.2496V395.312H69.1253C69.0359 395.474 68.9066 395.66 68.7376 395.869C68.5718 396.077 68.3431 396.26 68.0515 396.415C67.7598 396.571 67.382 396.649 66.918 396.649ZM67.2461 395.381C67.6736 395.381 68.0349 395.269 68.3299 395.043C68.6282 394.815 68.8536 394.498 69.006 394.094C69.1618 393.689 69.2397 393.219 69.2397 392.682C69.2397 392.152 69.1635 391.687 69.011 391.29C68.8585 390.892 68.6348 390.582 68.3398 390.36C68.0448 390.138 67.6803 390.027 67.2461 390.027C66.7986 390.027 66.4258 390.143 66.1275 390.375C65.8292 390.607 65.6038 390.924 65.4513 391.325C65.3022 391.726 65.2276 392.178 65.2276 392.682C65.2276 393.192 65.3038 393.651 65.4563 394.059C65.6088 394.467 65.8341 394.79 66.1324 395.028C66.4341 395.264 66.8053 395.381 67.2461 395.381ZM77.6236 386.318V396.5H76.0874V386.318H77.6236ZM79.4615 396.5V388.864H80.8883V390.107H80.9828C81.1419 389.686 81.4021 389.357 81.7633 389.122C82.1246 388.884 82.5571 388.764 83.0609 388.764C83.5713 388.764 83.9989 388.884 84.3436 389.122C84.6916 389.361 84.9485 389.689 85.1142 390.107H85.1937C85.376 389.699 85.666 389.374 86.0637 389.132C86.4615 388.887 86.9354 388.764 87.4856 388.764C88.1783 388.764 88.7434 388.981 89.1809 389.415C89.6217 389.85 89.8422 390.504 89.8422 391.379V396.5H88.3557V391.518C88.3557 391.001 88.2148 390.627 87.9331 390.395C87.6513 390.163 87.3149 390.047 86.9238 390.047C86.4399 390.047 86.0637 390.196 85.7953 390.494C85.5268 390.789 85.3926 391.169 85.3926 391.633V396.5H83.911V391.424C83.911 391.01 83.7818 390.677 83.5233 390.425C83.2647 390.173 82.9283 390.047 82.514 390.047C82.2323 390.047 81.9721 390.121 81.7335 390.271C81.4982 390.416 81.3076 390.62 81.1618 390.882C81.0192 391.144 80.948 391.447 80.948 391.792V396.5H79.4615ZM93.7768 396.669C93.2929 396.669 92.8554 396.58 92.4643 396.401C92.0732 396.218 91.7633 395.955 91.5346 395.61C91.3093 395.265 91.1966 394.843 91.1966 394.342C91.1966 393.911 91.2794 393.557 91.4451 393.278C91.6109 393 91.8346 392.78 92.1163 392.617C92.398 392.455 92.7129 392.332 93.0609 392.249C93.4089 392.166 93.7636 392.103 94.1248 392.06C94.5822 392.007 94.9534 391.964 95.2385 391.931C95.5235 391.895 95.7307 391.837 95.8599 391.757C95.9892 391.678 96.0538 391.548 96.0538 391.369V391.335C96.0538 390.9 95.9312 390.564 95.6859 390.325C95.444 390.087 95.0827 389.967 94.6021 389.967C94.1016 389.967 93.7072 390.078 93.4189 390.3C93.1338 390.519 92.9366 390.763 92.8273 391.031L91.4302 390.713C91.596 390.249 91.8379 389.875 92.1561 389.589C92.4776 389.301 92.8471 389.092 93.2648 388.963C93.6824 388.83 94.1215 388.764 94.5822 388.764C94.8871 388.764 95.2103 388.801 95.5517 388.874C95.8964 388.943 96.2179 389.072 96.5162 389.261C96.8178 389.45 97.0647 389.72 97.2569 390.072C97.4492 390.42 97.5453 390.872 97.5453 391.429V396.5H96.0936V395.456H96.0339C95.9378 395.648 95.7936 395.837 95.6014 396.023C95.4092 396.208 95.1622 396.362 94.8606 396.485C94.559 396.608 94.1978 396.669 93.7768 396.669ZM94.1 395.476C94.511 395.476 94.8623 395.395 95.154 395.232C95.4489 395.07 95.6727 394.858 95.8251 394.596C95.9809 394.331 96.0588 394.047 96.0588 393.746V392.761C96.0058 392.814 95.903 392.864 95.7505 392.911C95.6014 392.954 95.4307 392.992 95.2385 393.025C95.0462 393.055 94.859 393.083 94.6767 393.109C94.4944 393.133 94.3419 393.152 94.2193 393.169C93.9309 393.205 93.6674 393.267 93.4288 393.353C93.1935 393.439 93.0046 393.563 92.8621 393.726C92.7228 393.885 92.6532 394.097 92.6532 394.362C92.6532 394.73 92.7891 395.009 93.0609 395.197C93.3327 395.383 93.679 395.476 94.1 395.476ZM102.447 399.523C101.84 399.523 101.318 399.443 100.881 399.284C100.447 399.125 100.092 398.915 99.817 398.653C99.5419 398.391 99.3364 398.104 99.2005 397.793L100.478 397.266C100.568 397.411 100.687 397.566 100.836 397.728C100.989 397.894 101.194 398.035 101.453 398.151C101.714 398.267 102.051 398.325 102.462 398.325C103.025 398.325 103.491 398.187 103.859 397.912C104.227 397.64 104.411 397.206 104.411 396.609V395.108H104.316C104.227 395.27 104.097 395.451 103.928 395.65C103.763 395.849 103.534 396.021 103.242 396.167C102.951 396.313 102.571 396.386 102.104 396.386C101.501 396.386 100.957 396.245 100.473 395.963C99.9926 395.678 99.6115 395.259 99.3297 394.705C99.0513 394.148 98.9121 393.464 98.9121 392.652C98.9121 391.84 99.0497 391.144 99.3248 390.564C99.6032 389.984 99.9843 389.54 100.468 389.232C100.952 388.92 101.501 388.764 102.114 388.764C102.588 388.764 102.971 388.844 103.262 389.003C103.554 389.159 103.781 389.341 103.943 389.55C104.109 389.759 104.237 389.942 104.326 390.102H104.436V388.864H105.892V396.669C105.892 397.325 105.74 397.864 105.435 398.285C105.13 398.706 104.717 399.017 104.197 399.219C103.68 399.422 103.097 399.523 102.447 399.523ZM102.432 395.153C102.86 395.153 103.221 395.053 103.516 394.854C103.814 394.652 104.039 394.364 104.192 393.989C104.348 393.612 104.426 393.159 104.426 392.632C104.426 392.118 104.349 391.666 104.197 391.275C104.044 390.884 103.821 390.579 103.526 390.36C103.231 390.138 102.866 390.027 102.432 390.027C101.985 390.027 101.612 390.143 101.313 390.375C101.015 390.604 100.79 390.915 100.637 391.31C100.488 391.704 100.414 392.145 100.414 392.632C100.414 393.133 100.49 393.572 100.642 393.95C100.795 394.327 101.02 394.622 101.318 394.835C101.62 395.047 101.991 395.153 102.432 395.153ZM110.897 396.654C110.145 396.654 109.497 396.493 108.953 396.172C108.413 395.847 107.995 395.391 107.7 394.805C107.409 394.215 107.263 393.524 107.263 392.732C107.263 391.949 107.409 391.26 107.7 390.663C107.995 390.067 108.406 389.601 108.933 389.266C109.464 388.932 110.083 388.764 110.793 388.764C111.224 388.764 111.641 388.835 112.045 388.978C112.45 389.121 112.813 389.344 113.134 389.649C113.456 389.954 113.709 390.35 113.895 390.837C114.081 391.321 114.173 391.91 114.173 392.602V393.129H108.103V392.016H112.717C112.717 391.625 112.637 391.278 112.478 390.977C112.319 390.672 112.095 390.431 111.807 390.256C111.522 390.08 111.187 389.992 110.803 389.992C110.385 389.992 110.02 390.095 109.709 390.3C109.401 390.503 109.162 390.768 108.993 391.096C108.827 391.421 108.744 391.774 108.744 392.155V393.025C108.744 393.535 108.834 393.969 109.013 394.327C109.195 394.685 109.449 394.959 109.773 395.148C110.098 395.333 110.478 395.426 110.912 395.426C111.194 395.426 111.451 395.386 111.683 395.307C111.915 395.224 112.115 395.101 112.284 394.939C112.453 394.777 112.582 394.576 112.672 394.337L114.079 394.591C113.966 395.005 113.764 395.368 113.472 395.68C113.184 395.988 112.821 396.228 112.384 396.401C111.949 396.57 111.454 396.654 110.897 396.654Z" fill="#9CA3AF" style="fill:#9CA3AF;fill:color(display-p3 0.6118 0.6392 0.6863);fill-opacity:1;"/>
<path d="M136.833 384.334V397.667M145.167 384.334V397.667M133.5 387.667H136.833M145.167 387.667H148.5M133.5 391.001H148.5M133.5 394.334H136.833M145.167 394.334H148.5M134.333 397.667H147.667C148.127 397.667 148.5 397.294 148.5 396.834V385.167C148.5 384.707 148.127 384.334 147.667 384.334H134.333C133.873 384.334 133.5 384.707 133.5 385.167V396.834C133.5 397.294 133.873 397.667 134.333 397.667Z" stroke="#9CA3AF" style="stroke:#9CA3AF;stroke:color(display-p3 0.6118 0.6392 0.6863);stroke-opacity:1;" stroke-width="1.25"/>
<path d="M157.29 396.5H155.659L159.323 386.318H161.098L164.762 396.5H163.132L160.253 388.168H160.174L157.29 396.5ZM157.564 392.513H162.853V393.805H157.564V392.513ZM168.569 396.649C167.953 396.649 167.402 396.492 166.918 396.177C166.438 395.859 166.06 395.406 165.785 394.82C165.513 394.23 165.377 393.522 165.377 392.697C165.377 391.871 165.515 391.165 165.79 390.579C166.068 389.992 166.449 389.543 166.933 389.232C167.417 388.92 167.966 388.764 168.579 388.764C169.053 388.764 169.434 388.844 169.722 389.003C170.014 389.159 170.24 389.341 170.399 389.55C170.561 389.759 170.687 389.942 170.776 390.102H170.866V386.318H172.352V396.5H170.901V395.312H170.776C170.687 395.474 170.558 395.66 170.389 395.869C170.223 396.077 169.994 396.26 169.703 396.415C169.411 396.571 169.033 396.649 168.569 396.649ZM168.897 395.381C169.325 395.381 169.686 395.269 169.981 395.043C170.279 394.815 170.505 394.498 170.657 394.094C170.813 393.689 170.891 393.219 170.891 392.682C170.891 392.152 170.815 391.687 170.662 391.29C170.51 390.892 170.286 390.582 169.991 390.36C169.696 390.138 169.331 390.027 168.897 390.027C168.45 390.027 168.077 390.143 167.779 390.375C167.48 390.607 167.255 390.924 167.102 391.325C166.953 391.726 166.879 392.178 166.879 392.682C166.879 393.192 166.955 393.651 167.107 394.059C167.26 394.467 167.485 394.79 167.784 395.028C168.085 395.264 168.456 395.381 168.897 395.381ZM177.053 396.649C176.436 396.649 175.886 396.492 175.402 396.177C174.922 395.859 174.544 395.406 174.269 394.82C173.997 394.23 173.861 393.522 173.861 392.697C173.861 391.871 173.999 391.165 174.274 390.579C174.552 389.992 174.933 389.543 175.417 389.232C175.901 388.92 176.449 388.764 177.063 388.764C177.537 388.764 177.918 388.844 178.206 389.003C178.498 389.159 178.723 389.341 178.882 389.55C179.045 389.759 179.171 389.942 179.26 390.102H179.35V386.318H180.836V396.5H179.384V395.312H179.26C179.171 395.474 179.041 395.66 178.872 395.869C178.707 396.077 178.478 396.26 178.186 396.415C177.895 396.571 177.517 396.649 177.053 396.649ZM177.381 395.381C177.808 395.381 178.17 395.269 178.465 395.043C178.763 394.815 178.988 394.498 179.141 394.094C179.297 393.689 179.374 393.219 179.374 392.682C179.374 392.152 179.298 391.687 179.146 391.29C178.993 390.892 178.77 390.582 178.475 390.36C178.18 390.138 177.815 390.027 177.381 390.027C176.933 390.027 176.561 390.143 176.262 390.375C175.964 390.607 175.739 390.924 175.586 391.325C175.437 391.726 175.362 392.178 175.362 392.682C175.362 393.192 175.439 393.651 175.591 394.059C175.744 394.467 175.969 394.79 176.267 395.028C176.569 395.264 176.94 395.381 177.381 395.381ZM187.112 386.318L189.946 394.611H190.06L192.894 386.318H194.555L190.89 396.5H189.116L185.452 386.318H187.112ZM195.626 396.5V388.864H197.112V396.5H195.626ZM196.376 387.685C196.118 387.685 195.896 387.599 195.71 387.427C195.528 387.251 195.437 387.042 195.437 386.8C195.437 386.555 195.528 386.346 195.71 386.174C195.896 385.998 196.118 385.911 196.376 385.911C196.635 385.911 196.855 385.998 197.037 386.174C197.223 386.346 197.316 386.555 197.316 386.8C197.316 387.042 197.223 387.251 197.037 387.427C196.855 387.599 196.635 387.685 196.376 387.685ZM201.691 396.649C201.074 396.649 200.524 396.492 200.04 396.177C199.559 395.859 199.182 395.406 198.906 394.82C198.635 394.23 198.499 393.522 198.499 392.697C198.499 391.871 198.636 391.165 198.911 390.579C199.19 389.992 199.571 389.543 200.055 389.232C200.539 388.92 201.087 388.764 201.7 388.764C202.174 388.764 202.556 388.844 202.844 389.003C203.136 389.159 203.361 389.341 203.52 389.55C203.682 389.759 203.808 389.942 203.898 390.102H203.987V386.318H205.474V396.5H204.022V395.312H203.898C203.808 395.474 203.679 395.66 203.51 395.869C203.344 396.077 203.116 396.26 202.824 396.415C202.532 396.571 202.155 396.649 201.691 396.649ZM202.019 395.381C202.446 395.381 202.807 395.269 203.102 395.043C203.401 394.815 203.626 394.498 203.779 394.094C203.934 393.689 204.012 393.219 204.012 392.682C204.012 392.152 203.936 391.687 203.784 391.29C203.631 390.892 203.407 390.582 203.112 390.36C202.817 390.138 202.453 390.027 202.019 390.027C201.571 390.027 201.198 390.143 200.9 390.375C200.602 390.607 200.376 390.924 200.224 391.325C200.075 391.726 200 392.178 200 392.682C200 393.192 200.076 393.651 200.229 394.059C200.381 394.467 200.607 394.79 200.905 395.028C201.207 395.264 201.578 395.381 202.019 395.381ZM210.607 396.654C209.854 396.654 209.206 396.493 208.663 396.172C208.123 395.847 207.705 395.391 207.41 394.805C207.118 394.215 206.972 393.524 206.972 392.732C206.972 391.949 207.118 391.26 207.41 390.663C207.705 390.067 208.116 389.601 208.643 389.266C209.173 388.932 209.793 388.764 210.502 388.764C210.933 388.764 211.351 388.835 211.755 388.978C212.16 389.121 212.522 389.344 212.844 389.649C213.165 389.954 213.419 390.35 213.605 390.837C213.79 391.321 213.883 391.91 213.883 392.602V393.129H207.813V392.016H212.426C212.426 391.625 212.347 391.278 212.188 390.977C212.029 390.672 211.805 390.431 211.517 390.256C211.231 390.08 210.897 389.992 210.512 389.992C210.095 389.992 209.73 390.095 209.419 390.3C209.11 390.503 208.872 390.768 208.703 391.096C208.537 391.421 208.454 391.774 208.454 392.155V393.025C208.454 393.535 208.544 393.969 208.722 394.327C208.905 394.685 209.158 394.959 209.483 395.148C209.808 395.333 210.187 395.426 210.622 395.426C210.903 395.426 211.16 395.386 211.392 395.307C211.624 395.224 211.825 395.101 211.994 394.939C212.163 394.777 212.292 394.576 212.382 394.337L213.789 394.591C213.676 395.005 213.474 395.368 213.182 395.68C212.894 395.988 212.531 396.228 212.093 396.401C211.659 396.57 211.164 396.654 210.607 396.654ZM218.469 396.654C217.753 396.654 217.128 396.49 216.595 396.162C216.061 395.834 215.647 395.375 215.352 394.785C215.057 394.195 214.909 393.505 214.909 392.717C214.909 391.924 215.057 391.232 215.352 390.638C215.647 390.045 216.061 389.585 216.595 389.256C217.128 388.928 217.753 388.764 218.469 388.764C219.185 388.764 219.81 388.928 220.343 389.256C220.877 389.585 221.291 390.045 221.586 390.638C221.881 391.232 222.029 391.924 222.029 392.717C222.029 393.505 221.881 394.195 221.586 394.785C221.291 395.375 220.877 395.834 220.343 396.162C219.81 396.49 219.185 396.654 218.469 396.654ZM218.474 395.406C218.938 395.406 219.322 395.284 219.627 395.038C219.932 394.793 220.158 394.467 220.303 394.059C220.453 393.651 220.527 393.202 220.527 392.712C220.527 392.224 220.453 391.777 220.303 391.369C220.158 390.958 219.932 390.629 219.627 390.38C219.322 390.131 218.938 390.007 218.474 390.007C218.007 390.007 217.619 390.131 217.311 390.38C217.006 390.629 216.779 390.958 216.629 391.369C216.484 391.777 216.411 392.224 216.411 392.712C216.411 393.202 216.484 393.651 216.629 394.059C216.779 394.467 217.006 394.793 217.311 395.038C217.619 395.284 218.007 395.406 218.474 395.406Z" fill="#9CA3AF" style="fill:#9CA3AF;fill:color(display-p3 0.6118 0.6392 0.6863);fill-opacity:1;"/>
<rect x="485.5" y="373.5" width="79" height="35" rx="3.5" stroke="#D1D5DB" style="stroke:#D1D5DB;stroke:color(display-p3 0.8200 0.8360 0.8600);stroke-opacity:1;"/>
<path d="M509.989 396V385.818H513.886C514.622 385.818 515.234 385.934 515.721 386.166C516.212 386.395 516.578 386.708 516.82 387.106C517.065 387.504 517.188 387.954 517.188 388.458C517.188 388.872 517.108 389.227 516.949 389.522C516.79 389.814 516.576 390.051 516.308 390.233C516.039 390.415 515.739 390.546 515.408 390.626V390.725C515.769 390.745 516.115 390.856 516.447 391.058C516.782 391.257 517.055 391.539 517.267 391.903C517.479 392.268 517.585 392.709 517.585 393.226C517.585 393.753 517.458 394.227 517.203 394.648C516.947 395.065 516.563 395.395 516.049 395.637C515.535 395.879 514.889 396 514.11 396H509.989ZM511.833 394.459H513.817C514.486 394.459 514.969 394.331 515.264 394.076C515.562 393.817 515.711 393.486 515.711 393.082C515.711 392.78 515.636 392.508 515.487 392.266C515.338 392.021 515.126 391.829 514.851 391.69C514.576 391.547 514.248 391.476 513.867 391.476H511.833V394.459ZM511.833 390.148H513.658C513.976 390.148 514.263 390.09 514.518 389.974C514.773 389.855 514.974 389.688 515.119 389.472C515.269 389.254 515.343 388.995 515.343 388.697C515.343 388.302 515.204 387.978 514.926 387.722C514.65 387.467 514.241 387.339 513.698 387.339H511.833V390.148ZM520.888 396.154C520.404 396.154 519.968 396.068 519.58 395.896C519.196 395.72 518.891 395.461 518.666 395.12C518.443 394.779 518.332 394.358 518.332 393.857C518.332 393.426 518.412 393.07 518.571 392.788C518.73 392.507 518.947 392.281 519.222 392.112C519.497 391.943 519.807 391.816 520.152 391.729C520.5 391.64 520.86 391.575 521.231 391.536C521.678 391.489 522.041 391.448 522.32 391.411C522.598 391.371 522.8 391.312 522.926 391.232C523.055 391.149 523.12 391.022 523.12 390.849V390.82C523.12 390.445 523.009 390.155 522.787 389.95C522.565 389.744 522.245 389.641 521.827 389.641C521.387 389.641 521.037 389.737 520.778 389.93C520.523 390.122 520.351 390.349 520.261 390.611L518.581 390.372C518.714 389.908 518.932 389.52 519.237 389.209C519.542 388.894 519.915 388.659 520.356 388.503C520.797 388.344 521.284 388.264 521.818 388.264C522.185 388.264 522.552 388.307 522.916 388.393C523.281 388.48 523.614 388.622 523.916 388.821C524.217 389.017 524.459 389.283 524.641 389.621C524.827 389.96 524.92 390.382 524.92 390.889V396H523.19V394.951H523.13C523.021 395.163 522.867 395.362 522.668 395.548C522.472 395.73 522.225 395.877 521.927 395.99C521.632 396.099 521.286 396.154 520.888 396.154ZM521.355 394.832C521.716 394.832 522.03 394.76 522.295 394.618C522.56 394.472 522.764 394.28 522.906 394.041C523.052 393.803 523.125 393.542 523.125 393.261V392.361C523.069 392.407 522.973 392.45 522.837 392.49C522.704 392.53 522.555 392.565 522.389 392.594C522.224 392.624 522.059 392.651 521.897 392.674C521.735 392.697 521.594 392.717 521.474 392.734C521.206 392.77 520.966 392.83 520.754 392.913C520.541 392.996 520.374 393.112 520.251 393.261C520.129 393.406 520.068 393.595 520.068 393.827C520.068 394.159 520.188 394.409 520.43 394.578C520.672 394.747 520.981 394.832 521.355 394.832ZM529.64 396.149C528.878 396.149 528.224 395.982 527.677 395.647C527.133 395.312 526.714 394.85 526.419 394.26C526.127 393.667 525.981 392.984 525.981 392.212C525.981 391.436 526.13 390.752 526.429 390.158C526.727 389.562 527.148 389.098 527.692 388.766C528.238 388.432 528.885 388.264 529.63 388.264C530.25 388.264 530.799 388.379 531.276 388.607C531.757 388.833 532.139 389.152 532.424 389.567C532.71 389.978 532.872 390.458 532.912 391.009H531.192C531.122 390.641 530.956 390.334 530.694 390.089C530.436 389.84 530.09 389.716 529.655 389.716C529.287 389.716 528.964 389.815 528.686 390.014C528.407 390.21 528.19 390.491 528.035 390.859C527.882 391.227 527.806 391.668 527.806 392.182C527.806 392.702 527.882 393.15 528.035 393.524C528.187 393.895 528.401 394.182 528.676 394.384C528.954 394.583 529.281 394.683 529.655 394.683C529.92 394.683 530.157 394.633 530.366 394.533C530.578 394.431 530.756 394.283 530.898 394.091C531.041 393.899 531.139 393.665 531.192 393.39H532.912C532.869 393.93 532.71 394.409 532.434 394.827C532.159 395.241 531.785 395.566 531.311 395.801C530.837 396.033 530.28 396.149 529.64 396.149ZM535.61 393.604L535.605 391.431H535.894L538.638 388.364H540.741L537.365 392.122H536.992L535.61 393.604ZM533.97 396V385.818H535.769V396H533.97ZM538.762 396L536.276 392.525L537.489 391.257L540.915 396H538.762Z" fill="#1F2937" style="fill:#1F2937;fill:color(display-p3 0.1216 0.1608 0.2157);fill-opacity:1;"/>
<g opacity="0.5" filter="url(#filter1_d_210_5371)">
<rect x="581" y="373" width="134" height="36" rx="4" fill="#4F46E5" style="fill:#4F46E5;fill:color(display-p3 0.3098 0.2745 0.8980);fill-opacity:1;"/>
<path d="M609.41 396V385.818H613.228C614.01 385.818 614.667 385.964 615.197 386.256C615.731 386.547 616.133 386.948 616.405 387.459C616.68 387.966 616.818 388.543 616.818 389.189C616.818 389.842 616.68 390.422 616.405 390.929C616.13 391.436 615.724 391.835 615.187 392.127C614.65 392.415 613.989 392.56 613.203 392.56H610.673V391.043H612.955C613.412 391.043 613.787 390.964 614.078 390.805C614.37 390.646 614.585 390.427 614.725 390.148C614.867 389.87 614.938 389.55 614.938 389.189C614.938 388.828 614.867 388.509 614.725 388.234C614.585 387.959 614.368 387.746 614.073 387.593C613.782 387.437 613.405 387.359 612.945 387.359H611.254V396H609.41ZM622.787 392.788V388.364H624.587V396H622.842V394.643H622.763C622.59 395.07 622.307 395.42 621.912 395.692C621.521 395.964 621.039 396.099 620.466 396.099C619.965 396.099 619.523 395.988 619.138 395.766C618.757 395.541 618.459 395.214 618.243 394.787C618.028 394.356 617.92 393.836 617.92 393.226V388.364H619.72V392.947C619.72 393.431 619.852 393.816 620.118 394.101C620.383 394.386 620.731 394.528 621.162 394.528C621.427 394.528 621.684 394.464 621.932 394.335C622.181 394.205 622.385 394.013 622.544 393.758C622.706 393.499 622.787 393.176 622.787 392.788ZM626.097 396V385.818H627.897V389.626H627.972C628.064 389.441 628.195 389.244 628.364 389.035C628.533 388.823 628.762 388.642 629.05 388.493C629.339 388.34 629.707 388.264 630.154 388.264C630.744 388.264 631.276 388.415 631.75 388.717C632.227 389.015 632.605 389.457 632.884 390.044C633.165 390.627 633.306 391.343 633.306 392.192C633.306 393.03 633.169 393.743 632.893 394.33C632.618 394.916 632.244 395.364 631.77 395.672C631.296 395.98 630.759 396.134 630.159 396.134C629.722 396.134 629.359 396.061 629.07 395.915C628.782 395.77 628.55 395.594 628.374 395.388C628.202 395.18 628.068 394.982 627.972 394.797H627.867V396H626.097ZM627.862 392.182C627.862 392.676 627.932 393.108 628.071 393.479C628.214 393.851 628.417 394.141 628.683 394.349C628.951 394.555 629.276 394.658 629.657 394.658C630.055 394.658 630.388 394.552 630.656 394.339C630.925 394.124 631.127 393.831 631.263 393.46C631.402 393.085 631.472 392.659 631.472 392.182C631.472 391.708 631.404 391.287 631.268 390.919C631.132 390.551 630.93 390.263 630.661 390.054C630.393 389.845 630.058 389.741 629.657 389.741C629.272 389.741 628.946 389.842 628.678 390.044C628.409 390.246 628.205 390.53 628.066 390.894C627.93 391.259 627.862 391.688 627.862 392.182ZM636.216 385.818V396H634.416V385.818H636.216ZM637.647 396V388.364H639.446V396H637.647ZM638.551 387.28C638.266 387.28 638.021 387.185 637.816 386.996C637.61 386.804 637.507 386.574 637.507 386.305C637.507 386.034 637.61 385.803 637.816 385.614C638.021 385.422 638.266 385.326 638.551 385.326C638.84 385.326 639.085 385.422 639.287 385.614C639.493 385.803 639.595 386.034 639.595 386.305C639.595 386.574 639.493 386.804 639.287 386.996C639.085 387.185 638.84 387.28 638.551 387.28ZM646.912 390.382L645.272 390.561C645.225 390.395 645.144 390.24 645.028 390.094C644.915 389.948 644.763 389.83 644.571 389.741C644.379 389.651 644.143 389.607 643.865 389.607C643.49 389.607 643.175 389.688 642.92 389.85C642.668 390.013 642.544 390.223 642.547 390.482C642.544 390.704 642.625 390.884 642.791 391.023C642.96 391.163 643.238 391.277 643.626 391.366L644.929 391.645C645.651 391.801 646.188 392.048 646.54 392.386C646.894 392.724 647.073 393.166 647.076 393.713C647.073 394.194 646.932 394.618 646.654 394.986C646.379 395.35 645.996 395.635 645.505 395.841C645.015 396.046 644.451 396.149 643.815 396.149C642.88 396.149 642.128 395.954 641.558 395.562C640.988 395.168 640.648 394.62 640.539 393.917L642.294 393.748C642.373 394.093 642.542 394.353 642.801 394.528C643.059 394.704 643.396 394.792 643.81 394.792C644.238 394.792 644.581 394.704 644.839 394.528C645.101 394.353 645.232 394.136 645.232 393.877C645.232 393.658 645.148 393.478 644.978 393.335C644.813 393.193 644.554 393.083 644.203 393.007L642.9 392.734C642.168 392.581 641.626 392.324 641.275 391.963C640.923 391.598 640.749 391.138 640.753 390.581C640.749 390.11 640.877 389.703 641.135 389.358C641.397 389.01 641.76 388.741 642.224 388.553C642.692 388.36 643.23 388.264 643.84 388.264C644.735 388.264 645.439 388.455 645.953 388.836C646.47 389.217 646.79 389.732 646.912 390.382ZM649.94 391.526V396H648.14V385.818H649.9V389.661H649.99C650.169 389.23 650.446 388.891 650.82 388.642C651.198 388.39 651.679 388.264 652.262 388.264C652.792 388.264 653.255 388.375 653.649 388.597C654.043 388.819 654.348 389.144 654.564 389.572C654.783 389.999 654.892 390.521 654.892 391.138V396H653.092V391.416C653.092 390.902 652.96 390.503 652.694 390.218C652.433 389.93 652.065 389.786 651.591 389.786C651.273 389.786 650.988 389.855 650.736 389.994C650.487 390.13 650.292 390.327 650.149 390.586C650.01 390.844 649.94 391.158 649.94 391.526ZM659.439 396V385.818H663.257C664.039 385.818 664.695 385.964 665.226 386.256C665.759 386.547 666.162 386.948 666.434 387.459C666.709 387.966 666.846 388.543 666.846 389.189C666.846 389.842 666.709 390.422 666.434 390.929C666.159 391.436 665.753 391.835 665.216 392.127C664.679 392.415 664.017 392.56 663.232 392.56H660.701V391.043H662.983C663.441 391.043 663.815 390.964 664.107 390.805C664.399 390.646 664.614 390.427 664.753 390.148C664.896 389.87 664.967 389.55 664.967 389.189C664.967 388.828 664.896 388.509 664.753 388.234C664.614 387.959 664.397 387.746 664.102 387.593C663.81 387.437 663.434 387.359 662.973 387.359H661.283V396H659.439ZM671.17 396.149C670.425 396.149 669.778 395.985 669.232 395.657C668.685 395.329 668.26 394.87 667.959 394.28C667.661 393.69 667.511 393 667.511 392.212C667.511 391.423 667.661 390.732 667.959 390.138C668.26 389.545 668.685 389.085 669.232 388.756C669.778 388.428 670.425 388.264 671.17 388.264C671.916 388.264 672.562 388.428 673.109 388.756C673.656 389.085 674.079 389.545 674.377 390.138C674.679 390.732 674.83 391.423 674.83 392.212C674.83 393 674.679 393.69 674.377 394.28C674.079 394.87 673.656 395.329 673.109 395.657C672.562 395.985 671.916 396.149 671.17 396.149ZM671.18 394.707C671.585 394.707 671.923 394.596 672.195 394.374C672.466 394.149 672.669 393.847 672.801 393.469C672.937 393.092 673.005 392.671 673.005 392.207C673.005 391.739 672.937 391.317 672.801 390.939C672.669 390.558 672.466 390.254 672.195 390.029C671.923 389.804 671.585 389.691 671.18 389.691C670.766 389.691 670.421 389.804 670.146 390.029C669.875 390.254 669.671 390.558 669.535 390.939C669.402 391.317 669.336 391.739 669.336 392.207C669.336 392.671 669.402 393.092 669.535 393.469C669.671 393.847 669.875 394.149 670.146 394.374C670.421 394.596 670.766 394.707 671.18 394.707ZM681.973 390.382L680.332 390.561C680.286 390.395 680.204 390.24 680.088 390.094C679.976 389.948 679.823 389.83 679.631 389.741C679.439 389.651 679.203 389.607 678.925 389.607C678.55 389.607 678.236 389.688 677.98 389.85C677.728 390.013 677.604 390.223 677.608 390.482C677.604 390.704 677.685 390.884 677.851 391.023C678.02 391.163 678.299 391.277 678.686 391.366L679.989 391.645C680.711 391.801 681.248 392.048 681.6 392.386C681.954 392.724 682.133 393.166 682.137 393.713C682.133 394.194 681.992 394.618 681.714 394.986C681.439 395.35 681.056 395.635 680.566 395.841C680.075 396.046 679.512 396.149 678.875 396.149C677.941 396.149 677.188 395.954 676.618 395.562C676.048 395.168 675.708 394.62 675.599 393.917L677.354 393.748C677.434 394.093 677.603 394.353 677.861 394.528C678.12 394.704 678.456 394.792 678.87 394.792C679.298 394.792 679.641 394.704 679.899 394.528C680.161 394.353 680.292 394.136 680.292 393.877C680.292 393.658 680.208 393.478 680.039 393.335C679.873 393.193 679.614 393.083 679.263 393.007L677.96 392.734C677.228 392.581 676.686 392.324 676.335 391.963C675.983 391.598 675.809 391.138 675.813 390.581C675.809 390.11 675.937 389.703 676.196 389.358C676.457 389.01 676.82 388.741 677.284 388.553C677.752 388.36 678.29 388.264 678.9 388.264C679.795 388.264 680.499 388.455 681.013 388.836C681.53 389.217 681.85 389.732 681.973 390.382ZM687.014 388.364V389.756H682.624V388.364H687.014ZM683.708 386.534H685.507V393.703C685.507 393.945 685.544 394.131 685.617 394.26C685.693 394.386 685.793 394.472 685.915 394.518C686.038 394.565 686.174 394.588 686.323 394.588C686.436 394.588 686.538 394.58 686.631 394.563C686.727 394.547 686.8 394.532 686.85 394.518L687.153 395.925C687.057 395.959 686.919 395.995 686.74 396.035C686.565 396.075 686.349 396.098 686.094 396.104C685.643 396.118 685.237 396.05 684.876 395.901C684.515 395.748 684.228 395.513 684.016 395.195C683.807 394.876 683.704 394.479 683.708 394.001V386.534Z" fill="white" style="fill:white;fill-opacity:1;"/>
</g>
<mask id="path-13-inside-2_210_5371" fill="white">
<path d="M5 1H731V61H5V1Z"/>
</mask>
<path d="M5 1H731V61H5V1Z" fill="#F9FAFB" style="fill:#F9FAFB;fill:color(display-p3 0.9765 0.9804 0.9843);fill-opacity:1;"/>
<path d="M731 60H5V62H731V60Z" fill="#E5E7EB" style="fill:#E5E7EB;fill:color(display-p3 0.8980 0.9059 0.9216);fill-opacity:1;" mask="url(#path-13-inside-2_210_5371)"/>
<path d="M25 27V23M25 23H29M25 23L30 28M41 27V23M41 23H37M41 23L36 28M25 35V39M25 39H29M25 39L30 34M41 39L36 34M41 39V35M41 39H37" stroke="#9CA3AF" style="stroke:#9CA3AF;stroke:color(display-p3 0.6118 0.6392 0.6863);stroke-opacity:1;" stroke-width="1.25" stroke-linecap="round" stroke-linejoin="round"/>
<path d="M217.219 29.2536H215.36C215.307 28.9486 215.209 28.6785 215.067 28.4432C214.924 28.2045 214.747 28.0024 214.535 27.8366C214.323 27.6709 214.081 27.5466 213.809 27.4638C213.54 27.3776 213.25 27.3345 212.939 27.3345C212.385 27.3345 211.895 27.4737 211.467 27.7521C211.04 28.0272 210.705 28.4316 210.463 28.9652C210.221 29.4955 210.1 30.1435 210.1 30.9091C210.1 31.688 210.221 32.3442 210.463 32.8778C210.708 33.4081 211.043 33.8092 211.467 34.081C211.895 34.3494 212.384 34.4837 212.934 34.4837C213.239 34.4837 213.524 34.4439 213.789 34.3643C214.058 34.2815 214.298 34.1605 214.51 34.0014C214.725 33.8423 214.906 33.6468 215.052 33.4148C215.201 33.1828 215.304 32.9176 215.36 32.6193L217.219 32.6293C217.15 33.1132 216.999 33.5672 216.767 33.9915C216.538 34.4157 216.238 34.7902 215.867 35.1151C215.496 35.4366 215.062 35.6884 214.565 35.8707C214.067 36.0497 213.516 36.1392 212.909 36.1392C212.014 36.1392 211.215 35.9321 210.513 35.5178C209.81 35.1035 209.257 34.5052 208.852 33.723C208.448 32.9408 208.246 32.0028 208.246 30.9091C208.246 29.812 208.45 28.8741 208.857 28.0952C209.265 27.313 209.82 26.7147 210.523 26.3004C211.225 25.8861 212.021 25.679 212.909 25.679C213.476 25.679 214.003 25.7585 214.49 25.9176C214.977 26.0767 215.411 26.3104 215.793 26.6186C216.174 26.9235 216.487 27.2981 216.732 27.7422C216.981 28.183 217.143 28.6868 217.219 29.2536ZM218.829 36V28.3636H220.574V29.6364H220.654C220.793 29.1955 221.031 28.8558 221.369 28.6172C221.711 28.3752 222.1 28.2543 222.538 28.2543C222.637 28.2543 222.748 28.2592 222.871 28.2692C222.997 28.2758 223.101 28.2874 223.184 28.304V29.9595C223.108 29.933 222.987 29.9098 222.821 29.8899C222.659 29.8667 222.501 29.8551 222.349 29.8551C222.021 29.8551 221.726 29.9264 221.464 30.0689C221.205 30.2081 221.002 30.402 220.852 30.6506C220.703 30.8991 220.629 31.1858 220.629 31.5107V36H218.829ZM227.446 36.1491C226.68 36.1491 226.019 35.9901 225.462 35.6719C224.909 35.3504 224.483 34.8963 224.185 34.3097C223.886 33.7197 223.737 33.0253 223.737 32.2266C223.737 31.4411 223.886 30.7517 224.185 30.1584C224.486 29.5618 224.907 29.0978 225.447 28.7663C225.988 28.4316 226.622 28.2642 227.352 28.2642C227.822 28.2642 228.266 28.3404 228.684 28.4929C229.105 28.642 229.476 28.8741 229.798 29.1889C230.122 29.5038 230.378 29.9048 230.563 30.392C230.749 30.8759 230.842 31.4527 230.842 32.1222V32.674H224.582V31.4609H229.116C229.113 31.1162 229.039 30.8097 228.893 30.5412C228.747 30.2694 228.543 30.0556 228.281 29.8999C228.023 29.7441 227.721 29.6662 227.376 29.6662C227.009 29.6662 226.685 29.7557 226.407 29.9347C226.129 30.1103 225.911 30.3423 225.756 30.6307C225.603 30.9157 225.525 31.2289 225.522 31.5703V32.6293C225.522 33.0734 225.603 33.4545 225.766 33.7727C225.928 34.0876 226.155 34.3295 226.447 34.4986C226.738 34.6643 227.08 34.7472 227.471 34.7472C227.733 34.7472 227.97 34.7107 228.182 34.6378C228.394 34.5616 228.578 34.4505 228.734 34.3047C228.889 34.1589 229.007 33.9782 229.087 33.7628L230.767 33.9517C230.661 34.3958 230.459 34.7836 230.161 35.1151C229.866 35.4432 229.488 35.6984 229.027 35.8807C228.566 36.0597 228.039 36.1491 227.446 36.1491ZM234.562 36.1541C234.078 36.1541 233.642 36.0679 233.254 35.8956C232.87 35.7199 232.565 35.4614 232.339 35.12C232.117 34.7786 232.006 34.3577 232.006 33.8572C232.006 33.4264 232.086 33.0701 232.245 32.7884C232.404 32.5066 232.621 32.2812 232.896 32.1122C233.171 31.9432 233.481 31.8156 233.826 31.7294C234.174 31.6399 234.533 31.5753 234.905 31.5355C235.352 31.4891 235.715 31.4477 235.993 31.4112C236.272 31.3714 236.474 31.3118 236.6 31.2322C236.729 31.1494 236.794 31.0218 236.794 30.8494V30.8196C236.794 30.4451 236.683 30.1551 236.461 29.9496C236.239 29.7441 235.919 29.6413 235.501 29.6413C235.06 29.6413 234.711 29.7375 234.452 29.9297C234.197 30.1219 234.025 30.349 233.935 30.6108L232.255 30.3722C232.387 29.9081 232.606 29.5204 232.911 29.2088C233.216 28.8939 233.589 28.6586 234.03 28.5028C234.47 28.3438 234.958 28.2642 235.491 28.2642C235.859 28.2642 236.225 28.3073 236.59 28.3935C236.955 28.4796 237.288 28.6222 237.589 28.821C237.891 29.0166 238.133 29.2834 238.315 29.6214C238.501 29.9595 238.594 30.3821 238.594 30.8892V36H236.863V34.951H236.804C236.694 35.1631 236.54 35.362 236.341 35.5476C236.146 35.7299 235.899 35.8774 235.601 35.9901C235.306 36.0994 234.959 36.1541 234.562 36.1541ZM235.029 34.8317C235.39 34.8317 235.703 34.7604 235.969 34.6179C236.234 34.4721 236.438 34.2798 236.58 34.0412C236.726 33.8026 236.799 33.5424 236.799 33.2607V32.3608C236.742 32.4072 236.646 32.4503 236.51 32.4901C236.378 32.5298 236.229 32.5646 236.063 32.5945C235.897 32.6243 235.733 32.6508 235.571 32.674C235.408 32.6972 235.268 32.7171 235.148 32.7337C234.88 32.7701 234.64 32.8298 234.427 32.9126C234.215 32.9955 234.048 33.1115 233.925 33.2607C233.803 33.4065 233.741 33.5954 233.741 33.8274C233.741 34.1589 233.862 34.4091 234.104 34.5781C234.346 34.7472 234.654 34.8317 235.029 34.8317ZM244.216 28.3636V29.7557H239.827V28.3636H244.216ZM240.91 26.5341H242.71V33.7031C242.71 33.9451 242.747 34.1307 242.819 34.2599C242.896 34.3859 242.995 34.4721 243.118 34.5185C243.24 34.5649 243.376 34.5881 243.525 34.5881C243.638 34.5881 243.741 34.5798 243.834 34.5632C243.93 34.5466 244.003 34.5317 244.052 34.5185L244.356 35.9254C244.26 35.9586 244.122 35.995 243.943 36.0348C243.767 36.0746 243.552 36.0978 243.297 36.1044C242.846 36.1177 242.44 36.0497 242.079 35.9006C241.717 35.7481 241.431 35.5128 241.219 35.1946C241.01 34.8764 240.907 34.4787 240.91 34.0014V26.5341ZM249.02 36.1491C248.255 36.1491 247.593 35.9901 247.037 35.6719C246.483 35.3504 246.057 34.8963 245.759 34.3097C245.461 33.7197 245.311 33.0253 245.311 32.2266C245.311 31.4411 245.461 30.7517 245.759 30.1584C246.06 29.5618 246.481 29.0978 247.022 28.7663C247.562 28.4316 248.197 28.2642 248.926 28.2642C249.396 28.2642 249.841 28.3404 250.258 28.4929C250.679 28.642 251.05 28.8741 251.372 29.1889C251.697 29.5038 251.952 29.9048 252.137 30.392C252.323 30.8759 252.416 31.4527 252.416 32.1222V32.674H246.157V31.4609H250.691C250.687 31.1162 250.613 30.8097 250.467 30.5412C250.321 30.2694 250.117 30.0556 249.855 29.8999C249.597 29.7441 249.295 29.6662 248.951 29.6662C248.583 29.6662 248.26 29.7557 247.981 29.9347C247.703 30.1103 247.486 30.3423 247.33 30.6307C247.177 30.9157 247.1 31.2289 247.096 31.5703V32.6293C247.096 33.0734 247.177 33.4545 247.34 33.7727C247.502 34.0876 247.729 34.3295 248.021 34.4986C248.313 34.6643 248.654 34.7472 249.045 34.7472C249.307 34.7472 249.544 34.7107 249.756 34.6378C249.968 34.5616 250.152 34.4505 250.308 34.3047C250.464 34.1589 250.581 33.9782 250.661 33.7628L252.341 33.9517C252.235 34.3958 252.033 34.7836 251.735 35.1151C251.44 35.4432 251.062 35.6984 250.601 35.8807C250.141 36.0597 249.614 36.1491 249.02 36.1491ZM261.284 32.5795H262.954L263.944 33.8622L264.65 34.6974L266.345 36.875H264.555L263.402 35.4134L262.91 34.7173L261.284 32.5795ZM266.589 30.9091C266.589 32.0062 266.383 32.9458 265.972 33.728C265.564 34.5069 265.008 35.1035 264.302 35.5178C263.599 35.9321 262.802 36.1392 261.91 36.1392C261.019 36.1392 260.22 35.9321 259.514 35.5178C258.811 35.1001 258.255 34.5019 257.844 33.723C257.436 32.9408 257.232 32.0028 257.232 30.9091C257.232 29.812 257.436 28.8741 257.844 28.0952C258.255 27.313 258.811 26.7147 259.514 26.3004C260.22 25.8861 261.019 25.679 261.91 25.679C262.802 25.679 263.599 25.8861 264.302 26.3004C265.008 26.7147 265.564 27.313 265.972 28.0952C266.383 28.8741 266.589 29.812 266.589 30.9091ZM264.734 30.9091C264.734 30.1368 264.613 29.4856 264.371 28.9553C264.133 28.4216 263.801 28.0189 263.377 27.7472C262.953 27.4721 262.464 27.3345 261.91 27.3345C261.357 27.3345 260.868 27.4721 260.444 27.7472C260.019 28.0189 259.686 28.4216 259.444 28.9553C259.206 29.4856 259.086 30.1368 259.086 30.9091C259.086 31.6813 259.206 32.3343 259.444 32.8679C259.686 33.3982 260.019 33.8009 260.444 34.076C260.868 34.3478 261.357 34.4837 261.91 34.4837C262.464 34.4837 262.953 34.3478 263.377 34.076C263.801 33.8009 264.133 33.3982 264.371 32.8679C264.613 32.3343 264.734 31.6813 264.734 30.9091ZM273.134 32.7884V28.3636H274.933V36H273.188V34.6428H273.109C272.936 35.0703 272.653 35.42 272.259 35.6918C271.868 35.9635 271.385 36.0994 270.812 36.0994C270.311 36.0994 269.869 35.9884 269.485 35.7663C269.103 35.541 268.805 35.2145 268.59 34.7869C268.374 34.3561 268.267 33.8357 268.267 33.2259V28.3636H270.066V32.9474C270.066 33.4313 270.199 33.8158 270.464 34.1009C270.729 34.3859 271.077 34.5284 271.508 34.5284C271.773 34.5284 272.03 34.4638 272.279 34.3345C272.527 34.2053 272.731 34.013 272.89 33.7578C273.052 33.4993 273.134 33.1761 273.134 32.7884ZM276.784 36V28.3636H278.584V36H276.784ZM277.689 27.2798C277.404 27.2798 277.159 27.1854 276.953 26.9964C276.748 26.8042 276.645 26.5739 276.645 26.3054C276.645 26.0336 276.748 25.8033 276.953 25.6143C277.159 25.4221 277.404 25.326 277.689 25.326C277.977 25.326 278.223 25.4221 278.425 25.6143C278.63 25.8033 278.733 26.0336 278.733 26.3054C278.733 26.5739 278.63 26.8042 278.425 26.9964C278.223 27.1854 277.977 27.2798 277.689 27.2798ZM283.765 36.1491C283.003 36.1491 282.349 35.9818 281.802 35.647C281.258 35.3123 280.839 34.8499 280.544 34.2599C280.252 33.6667 280.106 32.9839 280.106 32.2116C280.106 31.4361 280.256 30.7517 280.554 30.1584C280.852 29.5618 281.273 29.0978 281.817 28.7663C282.363 28.4316 283.01 28.2642 283.756 28.2642C284.375 28.2642 284.924 28.3786 285.401 28.6072C285.882 28.8326 286.265 29.1525 286.55 29.5668C286.835 29.9777 286.997 30.4583 287.037 31.0085H285.317C285.247 30.6406 285.081 30.334 284.819 30.0888C284.561 29.8402 284.215 29.7159 283.78 29.7159C283.412 29.7159 283.089 29.8153 282.811 30.0142C282.532 30.2098 282.315 30.4915 282.16 30.8594C282.007 31.2273 281.931 31.6681 281.931 32.1818C281.931 32.7022 282.007 33.1496 282.16 33.5241C282.312 33.8954 282.526 34.1821 282.801 34.3842C283.079 34.5831 283.406 34.6825 283.78 34.6825C284.046 34.6825 284.282 34.6328 284.491 34.5334C284.703 34.4306 284.881 34.2831 285.023 34.0909C285.166 33.8987 285.264 33.665 285.317 33.3899H287.037C286.994 33.9302 286.835 34.4091 286.559 34.8267C286.284 35.241 285.91 35.5658 285.436 35.8011C284.962 36.0331 284.405 36.1491 283.765 36.1491ZM290.155 33.6037L290.15 31.4311H290.439L293.183 28.3636H295.286L291.91 32.1222H291.537L290.155 33.6037ZM288.515 36V25.8182H290.314V36H288.515ZM293.307 36L290.821 32.5249L292.034 31.2571L295.46 36H293.307ZM308.405 25.8182V36H306.764L301.966 29.0646H301.882V36H300.037V25.8182H301.688L306.481 32.7585H306.57V25.8182H308.405ZM313.716 36.1491C312.95 36.1491 312.289 35.9901 311.732 35.6719C311.178 35.3504 310.752 34.8963 310.454 34.3097C310.156 33.7197 310.007 33.0253 310.007 32.2266C310.007 31.4411 310.156 30.7517 310.454 30.1584C310.756 29.5618 311.177 29.0978 311.717 28.7663C312.257 28.4316 312.892 28.2642 313.621 28.2642C314.092 28.2642 314.536 28.3404 314.953 28.4929C315.374 28.642 315.746 28.8741 316.067 29.1889C316.392 29.5038 316.647 29.9048 316.833 30.392C317.018 30.8759 317.111 31.4527 317.111 32.1222V32.674H310.852V31.4609H315.386C315.383 31.1162 315.308 30.8097 315.162 30.5412C315.016 30.2694 314.813 30.0556 314.551 29.8999C314.292 29.7441 313.991 29.6662 313.646 29.6662C313.278 29.6662 312.955 29.7557 312.676 29.9347C312.398 30.1103 312.181 30.3423 312.025 30.6307C311.873 30.9157 311.795 31.2289 311.792 31.5703V32.6293C311.792 33.0734 311.873 33.4545 312.035 33.7727C312.198 34.0876 312.425 34.3295 312.716 34.4986C313.008 34.6643 313.349 34.7472 313.74 34.7472C314.002 34.7472 314.239 34.7107 314.451 34.6378C314.663 34.5616 314.847 34.4505 315.003 34.3047C315.159 34.1589 315.277 33.9782 315.356 33.7628L317.037 33.9517C316.931 34.3958 316.728 34.7836 316.43 35.1151C316.135 35.4432 315.757 35.6984 315.297 35.8807C314.836 36.0597 314.309 36.1491 313.716 36.1491ZM320.169 36L318.011 28.3636H319.846L321.188 33.733H321.257L322.63 28.3636H324.444L325.816 33.7031H325.891L327.213 28.3636H329.053L326.89 36H325.016L323.584 30.8395H323.48L322.048 36H320.169ZM333.862 36V25.8182H337.68C338.462 25.8182 339.118 25.964 339.649 26.2557C340.182 26.5473 340.585 26.9484 340.857 27.4588C341.132 27.9659 341.269 28.5426 341.269 29.1889C341.269 29.8419 341.132 30.4219 340.857 30.929C340.582 31.4361 340.176 31.8355 339.639 32.1271C339.102 32.4155 338.441 32.5597 337.655 32.5597H335.124V31.0433H337.406C337.864 31.0433 338.238 30.9638 338.53 30.8047C338.822 30.6456 339.037 30.4268 339.176 30.1484C339.319 29.87 339.39 29.5502 339.39 29.1889C339.39 28.8277 339.319 28.5095 339.176 28.2344C339.037 27.9593 338.82 27.7455 338.525 27.593C338.233 27.4373 337.857 27.3594 337.396 27.3594H335.706V36H333.862ZM346.013 36.1491C345.268 36.1491 344.621 35.9851 344.075 35.657C343.528 35.3288 343.103 34.8698 342.802 34.2798C342.504 33.6899 342.354 33.0005 342.354 32.2116C342.354 31.4228 342.504 30.7318 342.802 30.1385C343.103 29.5452 343.528 29.0845 344.075 28.7564C344.621 28.4283 345.268 28.2642 346.013 28.2642C346.759 28.2642 347.406 28.4283 347.952 28.7564C348.499 29.0845 348.922 29.5452 349.22 30.1385C349.522 30.7318 349.673 31.4228 349.673 32.2116C349.673 33.0005 349.522 33.6899 349.22 34.2798C348.922 34.8698 348.499 35.3288 347.952 35.657C347.406 35.9851 346.759 36.1491 346.013 36.1491ZM346.023 34.7074C346.428 34.7074 346.766 34.5964 347.038 34.3743C347.309 34.1489 347.512 33.8473 347.644 33.4695C347.78 33.0916 347.848 32.6707 347.848 32.2067C347.848 31.7393 347.78 31.3168 347.644 30.9389C347.512 30.5578 347.309 30.2545 347.038 30.0291C346.766 29.8037 346.428 29.6911 346.023 29.6911C345.609 29.6911 345.264 29.8037 344.989 30.0291C344.718 30.2545 344.514 30.5578 344.378 30.9389C344.245 31.3168 344.179 31.7393 344.179 32.2067C344.179 32.6707 344.245 33.0916 344.378 33.4695C344.514 33.8473 344.718 34.1489 344.989 34.3743C345.264 34.5964 345.609 34.7074 346.023 34.7074ZM357.236 30.3821L355.595 30.5611C355.549 30.3954 355.467 30.2396 355.351 30.0938C355.239 29.9479 355.086 29.8303 354.894 29.7408C354.702 29.6513 354.466 29.6065 354.188 29.6065C353.814 29.6065 353.499 29.6877 353.243 29.8501C352.992 30.0125 352.867 30.223 352.871 30.4815C352.867 30.7036 352.948 30.8842 353.114 31.0234C353.283 31.1626 353.562 31.277 353.949 31.3665L355.252 31.6449C355.974 31.8007 356.511 32.0476 356.863 32.3857C357.217 32.7237 357.396 33.1662 357.4 33.7131C357.396 34.1937 357.256 34.6179 356.977 34.9858C356.702 35.3504 356.319 35.6354 355.829 35.8409C355.338 36.0464 354.775 36.1491 354.138 36.1491C353.204 36.1491 352.451 35.9536 351.881 35.5625C351.311 35.1681 350.971 34.6196 350.862 33.9169L352.617 33.7479C352.697 34.0926 352.866 34.3527 353.124 34.5284C353.383 34.7041 353.719 34.7919 354.133 34.7919C354.561 34.7919 354.904 34.7041 355.162 34.5284C355.424 34.3527 355.555 34.1357 355.555 33.8771C355.555 33.6584 355.471 33.4777 355.302 33.3352C355.136 33.1927 354.877 33.0833 354.526 33.0071L353.224 32.7337C352.491 32.5812 351.949 32.3243 351.598 31.9631C351.247 31.5985 351.073 31.1378 351.076 30.581C351.073 30.1103 351.2 29.7027 351.459 29.358C351.72 29.0099 352.083 28.7415 352.547 28.5526C353.015 28.3603 353.553 28.2642 354.163 28.2642C355.058 28.2642 355.762 28.4548 356.276 28.8359C356.793 29.2171 357.113 29.7325 357.236 30.3821ZM362.697 28.3636V29.7557H358.307V28.3636H362.697ZM359.391 26.5341H361.191V33.7031C361.191 33.9451 361.227 34.1307 361.3 34.2599C361.376 34.3859 361.476 34.4721 361.598 34.5185C361.721 34.5649 361.857 34.5881 362.006 34.5881C362.119 34.5881 362.221 34.5798 362.314 34.5632C362.41 34.5466 362.483 34.5317 362.533 34.5185L362.836 35.9254C362.74 35.9586 362.602 35.995 362.423 36.0348C362.248 36.0746 362.032 36.0978 361.777 36.1044C361.326 36.1177 360.92 36.0497 360.559 35.9006C360.198 35.7481 359.911 35.5128 359.699 35.1946C359.49 34.8764 359.387 34.4787 359.391 34.0014V26.5341Z" fill="#1F2937" style="fill:#1F2937;fill:color(display-p3 0.1216 0.1608 0.2157);fill-opacity:1;"/>
<path d="M376.581 25.3409L373.3 37.5312H371.724L375.005 25.3409H376.581Z" fill="#9CA3AF" style="fill:#9CA3AF;fill:color(display-p3 0.6118 0.6392 0.6863);fill-opacity:1;"/>
<path d="M392.972 28.5625C392.919 28.0663 392.695 27.6799 392.301 27.4034C391.911 27.1269 391.403 26.9886 390.778 26.9886C390.339 26.9886 389.962 27.0549 389.648 27.1875C389.333 27.3201 389.093 27.5 388.926 27.7273C388.759 27.9545 388.674 28.214 388.67 28.5057C388.67 28.7481 388.725 28.9583 388.835 29.1364C388.949 29.3144 389.102 29.4659 389.295 29.5909C389.489 29.7121 389.703 29.8144 389.938 29.8977C390.172 29.9811 390.409 30.0511 390.648 30.108L391.739 30.3807C392.178 30.483 392.6 30.6212 393.006 30.7955C393.415 30.9697 393.78 31.1894 394.102 31.4545C394.428 31.7197 394.686 32.0398 394.875 32.4148C395.064 32.7898 395.159 33.2292 395.159 33.733C395.159 34.4148 394.985 35.0152 394.636 35.5341C394.288 36.0492 393.784 36.4527 393.125 36.7443C392.47 37.0322 391.676 37.1761 390.744 37.1761C389.839 37.1761 389.053 37.036 388.386 36.7557C387.723 36.4754 387.205 36.0663 386.83 35.5284C386.458 34.9905 386.258 34.3352 386.227 33.5625H388.301C388.331 33.9678 388.456 34.3049 388.676 34.5739C388.896 34.8428 389.182 35.0436 389.534 35.1761C389.89 35.3087 390.288 35.375 390.727 35.375C391.186 35.375 391.587 35.3068 391.932 35.1705C392.28 35.0303 392.553 34.8371 392.75 34.5909C392.947 34.3409 393.047 34.0492 393.051 33.7159C393.047 33.4129 392.958 33.1629 392.784 32.9659C392.61 32.7652 392.366 32.5985 392.051 32.4659C391.741 32.3295 391.377 32.2083 390.96 32.1023L389.636 31.7614C388.678 31.5152 387.92 31.142 387.364 30.642C386.811 30.1383 386.534 29.4697 386.534 28.6364C386.534 27.9508 386.72 27.3504 387.091 26.8352C387.466 26.3201 387.975 25.9205 388.619 25.6364C389.263 25.3485 389.992 25.2045 390.807 25.2045C391.633 25.2045 392.356 25.3485 392.977 25.6364C393.602 25.9205 394.093 26.3163 394.449 26.8239C394.805 27.3277 394.989 27.9072 395 28.5625H392.972ZM400.331 37.1705C399.456 37.1705 398.7 36.9886 398.064 36.625C397.431 36.2576 396.945 35.7386 396.604 35.0682C396.263 34.3939 396.092 33.6004 396.092 32.6875C396.092 31.7898 396.263 31.0019 396.604 30.3239C396.949 29.642 397.43 29.1117 398.047 28.733C398.664 28.3504 399.39 28.1591 400.223 28.1591C400.761 28.1591 401.269 28.2462 401.746 28.4205C402.227 28.5909 402.651 28.8561 403.019 29.2159C403.39 29.5758 403.681 30.0341 403.894 30.5909C404.106 31.1439 404.212 31.803 404.212 32.5682V33.1989H397.058V31.8125H402.24C402.236 31.4186 402.151 31.0682 401.984 30.7614C401.818 30.4508 401.585 30.2064 401.286 30.0284C400.99 29.8504 400.645 29.7614 400.252 29.7614C399.831 29.7614 399.462 29.8636 399.144 30.0682C398.825 30.2689 398.577 30.5341 398.399 30.8636C398.225 31.1894 398.136 31.5473 398.132 31.9375V33.1477C398.132 33.6553 398.225 34.0909 398.411 34.4545C398.596 34.8144 398.856 35.0909 399.189 35.2841C399.522 35.4735 399.913 35.5682 400.359 35.5682C400.659 35.5682 400.93 35.5265 401.172 35.4432C401.414 35.3561 401.625 35.2292 401.803 35.0625C401.981 34.8958 402.115 34.6894 402.206 34.4432L404.127 34.6591C404.005 35.1667 403.774 35.6098 403.433 35.9886C403.096 36.3636 402.664 36.6553 402.138 36.8636C401.611 37.0682 401.009 37.1705 400.331 37.1705ZM407.529 25.3636V37H405.472V25.3636H407.529ZM413.027 37.1705C412.152 37.1705 411.397 36.9886 410.76 36.625C410.128 36.2576 409.641 35.7386 409.3 35.0682C408.959 34.3939 408.789 33.6004 408.789 32.6875C408.789 31.7898 408.959 31.0019 409.3 30.3239C409.645 29.642 410.126 29.1117 410.743 28.733C411.361 28.3504 412.086 28.1591 412.919 28.1591C413.457 28.1591 413.965 28.2462 414.442 28.4205C414.923 28.5909 415.347 28.8561 415.715 29.2159C416.086 29.5758 416.378 30.0341 416.59 30.5909C416.802 31.1439 416.908 31.803 416.908 32.5682V33.1989H409.755V31.8125H414.936C414.933 31.4186 414.847 31.0682 414.681 30.7614C414.514 30.4508 414.281 30.2064 413.982 30.0284C413.686 29.8504 413.342 29.7614 412.948 29.7614C412.527 29.7614 412.158 29.8636 411.84 30.0682C411.522 30.2689 411.274 30.5341 411.096 30.8636C410.921 31.1894 410.832 31.5473 410.828 31.9375V33.1477C410.828 33.6553 410.921 34.0909 411.107 34.4545C411.292 34.8144 411.552 35.0909 411.885 35.2841C412.219 35.4735 412.609 35.5682 413.056 35.5682C413.355 35.5682 413.626 35.5265 413.868 35.4432C414.111 35.3561 414.321 35.2292 414.499 35.0625C414.677 34.8958 414.811 34.6894 414.902 34.4432L416.823 34.6591C416.702 35.1667 416.471 35.6098 416.13 35.9886C415.792 36.3636 415.361 36.6553 414.834 36.8636C414.308 37.0682 413.705 37.1705 413.027 37.1705ZM421.975 37.1705C421.104 37.1705 420.356 36.9792 419.731 36.5966C419.109 36.214 418.63 35.6856 418.293 35.0114C417.96 34.3333 417.793 33.553 417.793 32.6705C417.793 31.7841 417.964 31.0019 418.304 30.3239C418.645 29.642 419.126 29.1117 419.748 28.733C420.373 28.3504 421.111 28.1591 421.964 28.1591C422.672 28.1591 423.299 28.2898 423.844 28.5511C424.393 28.8087 424.831 29.1742 425.157 29.6477C425.482 30.1174 425.668 30.6667 425.714 31.2955H423.748C423.668 30.875 423.479 30.5246 423.179 30.2443C422.884 29.9602 422.488 29.8182 421.992 29.8182C421.571 29.8182 421.202 29.9318 420.884 30.1591C420.566 30.3826 420.318 30.7045 420.14 31.125C419.965 31.5455 419.878 32.0492 419.878 32.6364C419.878 33.2311 419.965 33.7424 420.14 34.1705C420.314 34.5947 420.558 34.9223 420.873 35.1534C421.191 35.3807 421.564 35.4943 421.992 35.4943C422.295 35.4943 422.566 35.4375 422.804 35.3239C423.047 35.2064 423.25 35.0379 423.412 34.8182C423.575 34.5985 423.687 34.3314 423.748 34.017H425.714C425.664 34.6345 425.482 35.1818 425.168 35.6591C424.854 36.1326 424.426 36.5038 423.884 36.7727C423.342 37.0379 422.706 37.1705 421.975 37.1705ZM431.28 28.2727V29.8636H426.263V28.2727H431.28ZM427.502 26.1818H429.559V34.375C429.559 34.6515 429.6 34.8636 429.684 35.0114C429.771 35.1553 429.885 35.2538 430.025 35.3068C430.165 35.3598 430.32 35.3864 430.491 35.3864C430.619 35.3864 430.737 35.3769 430.843 35.358C430.953 35.339 431.036 35.322 431.093 35.3068L431.439 36.9148C431.33 36.9527 431.172 36.9943 430.968 37.0398C430.767 37.0852 430.521 37.1117 430.229 37.1193C429.714 37.1345 429.25 37.0568 428.837 36.8864C428.424 36.7121 428.097 36.4432 427.854 36.0795C427.616 35.7159 427.498 35.2614 427.502 34.7159V26.1818ZM438.521 37.1761C437.968 37.1761 437.47 37.0777 437.026 36.8807C436.587 36.6799 436.238 36.3845 435.981 35.9943C435.727 35.6042 435.6 35.1231 435.6 34.5511C435.6 34.0587 435.691 33.6515 435.873 33.3295C436.055 33.0076 436.303 32.75 436.617 32.5568C436.932 32.3636 437.286 32.2178 437.68 32.1193C438.077 32.017 438.488 31.9432 438.913 31.8977C439.424 31.8447 439.839 31.7973 440.157 31.7557C440.475 31.7102 440.706 31.642 440.85 31.5511C440.998 31.4564 441.072 31.3106 441.072 31.1136V31.0795C441.072 30.6515 440.945 30.3201 440.691 30.0852C440.437 29.8504 440.072 29.733 439.595 29.733C439.091 29.733 438.691 29.8428 438.396 30.0625C438.104 30.2822 437.907 30.5417 437.805 30.8409L435.884 30.5682C436.036 30.0379 436.286 29.5947 436.634 29.2386C436.983 28.8788 437.409 28.6098 437.913 28.4318C438.417 28.25 438.973 28.1591 439.583 28.1591C440.004 28.1591 440.422 28.2083 440.839 28.3068C441.256 28.4053 441.636 28.5682 441.981 28.7955C442.326 29.0189 442.602 29.3239 442.81 29.7102C443.023 30.0966 443.129 30.5795 443.129 31.1591V37H441.151V35.8011H441.083C440.958 36.0436 440.782 36.2708 440.555 36.483C440.331 36.6913 440.049 36.8598 439.708 36.9886C439.371 37.1136 438.975 37.1761 438.521 37.1761ZM439.055 35.6648C439.468 35.6648 439.826 35.5833 440.129 35.4205C440.432 35.2538 440.665 35.0341 440.827 34.7614C440.994 34.4886 441.077 34.1913 441.077 33.8693V32.8409C441.013 32.8939 440.903 32.9432 440.748 32.9886C440.596 33.0341 440.426 33.0739 440.237 33.108C440.047 33.142 439.86 33.1723 439.674 33.1989C439.488 33.2254 439.327 33.2481 439.191 33.267C438.884 33.3087 438.61 33.3769 438.367 33.4716C438.125 33.5663 437.934 33.6989 437.793 33.8693C437.653 34.036 437.583 34.2519 437.583 34.517C437.583 34.8958 437.721 35.1818 437.998 35.375C438.274 35.5682 438.627 35.6648 439.055 35.6648ZM452.012 37.1705C451.141 37.1705 450.393 36.9792 449.768 36.5966C449.147 36.214 448.668 35.6856 448.331 35.0114C447.997 34.3333 447.831 33.553 447.831 32.6705C447.831 31.7841 448.001 31.0019 448.342 30.3239C448.683 29.642 449.164 29.1117 449.785 28.733C450.41 28.3504 451.149 28.1591 452.001 28.1591C452.709 28.1591 453.336 28.2898 453.882 28.5511C454.431 28.8087 454.868 29.1742 455.194 29.6477C455.52 30.1174 455.706 30.6667 455.751 31.2955H453.785C453.706 30.875 453.516 30.5246 453.217 30.2443C452.921 29.9602 452.526 29.8182 452.029 29.8182C451.609 29.8182 451.24 29.9318 450.921 30.1591C450.603 30.3826 450.355 30.7045 450.177 31.125C450.003 31.5455 449.916 32.0492 449.916 32.6364C449.916 33.2311 450.003 33.7424 450.177 34.1705C450.351 34.5947 450.596 34.9223 450.91 35.1534C451.228 35.3807 451.601 35.4943 452.029 35.4943C452.332 35.4943 452.603 35.4375 452.842 35.3239C453.084 35.2064 453.287 35.0379 453.45 34.8182C453.613 34.5985 453.725 34.3314 453.785 34.017H455.751C455.702 34.6345 455.52 35.1818 455.206 35.6591C454.891 36.1326 454.463 36.5038 453.921 36.7727C453.38 37.0379 452.743 37.1705 452.012 37.1705ZM459.017 31.8864V37H456.96V25.3636H458.971V29.7557H459.074C459.278 29.2633 459.594 28.875 460.022 28.5909C460.454 28.303 461.004 28.1591 461.67 28.1591C462.276 28.1591 462.805 28.286 463.255 28.5398C463.706 28.7936 464.055 29.1648 464.301 29.6534C464.551 30.142 464.676 30.7386 464.676 31.4432V37H462.619V31.7614C462.619 31.1742 462.468 30.7178 462.164 30.392C461.865 30.0625 461.445 29.8977 460.903 29.8977C460.539 29.8977 460.214 29.9773 459.926 30.1364C459.642 30.2917 459.418 30.517 459.255 30.8125C459.096 31.108 459.017 31.4659 459.017 31.8864ZM468.804 37.1761C468.251 37.1761 467.753 37.0777 467.309 36.8807C466.87 36.6799 466.522 36.3845 466.264 35.9943C466.01 35.6042 465.883 35.1231 465.883 34.5511C465.883 34.0587 465.974 33.6515 466.156 33.3295C466.338 33.0076 466.586 32.75 466.9 32.5568C467.215 32.3636 467.569 32.2178 467.963 32.1193C468.361 32.017 468.772 31.9432 469.196 31.8977C469.707 31.8447 470.122 31.7973 470.44 31.7557C470.758 31.7102 470.989 31.642 471.133 31.5511C471.281 31.4564 471.355 31.3106 471.355 31.1136V31.0795C471.355 30.6515 471.228 30.3201 470.974 30.0852C470.72 29.8504 470.355 29.733 469.878 29.733C469.374 29.733 468.974 29.8428 468.679 30.0625C468.387 30.2822 468.19 30.5417 468.088 30.8409L466.167 30.5682C466.319 30.0379 466.569 29.5947 466.917 29.2386C467.266 28.8788 467.692 28.6098 468.196 28.4318C468.7 28.25 469.256 28.1591 469.866 28.1591C470.287 28.1591 470.705 28.2083 471.122 28.3068C471.539 28.4053 471.919 28.5682 472.264 28.7955C472.609 29.0189 472.885 29.3239 473.094 29.7102C473.306 30.0966 473.412 30.5795 473.412 31.1591V37H471.434V35.8011H471.366C471.241 36.0436 471.065 36.2708 470.838 36.483C470.614 36.6913 470.332 36.8598 469.991 36.9886C469.654 37.1136 469.258 37.1761 468.804 37.1761ZM469.338 35.6648C469.751 35.6648 470.109 35.5833 470.412 35.4205C470.715 35.2538 470.948 35.0341 471.111 34.7614C471.277 34.4886 471.361 34.1913 471.361 33.8693V32.8409C471.296 32.8939 471.186 32.9432 471.031 32.9886C470.88 33.0341 470.709 33.0739 470.52 33.108C470.33 33.142 470.143 33.1723 469.957 33.1989C469.772 33.2254 469.611 33.2481 469.474 33.267C469.167 33.3087 468.893 33.3769 468.65 33.4716C468.408 33.5663 468.217 33.6989 468.077 33.8693C467.936 34.036 467.866 34.2519 467.866 34.517C467.866 34.8958 468.005 35.1818 468.281 35.375C468.558 35.5682 468.91 35.6648 469.338 35.6648ZM477.057 31.8864V37H475V28.2727H476.966V29.7557H477.068C477.269 29.267 477.589 28.8788 478.028 28.5909C478.472 28.303 479.019 28.1591 479.67 28.1591C480.273 28.1591 480.797 28.2879 481.244 28.5455C481.695 28.803 482.044 29.1761 482.29 29.6648C482.54 30.1534 482.663 30.7462 482.659 31.4432V37H480.602V31.7614C480.602 31.178 480.451 30.7216 480.148 30.392C479.848 30.0625 479.434 29.8977 478.903 29.8977C478.544 29.8977 478.223 29.9773 477.943 30.1364C477.667 30.2917 477.449 30.517 477.29 30.8125C477.134 31.108 477.057 31.4659 477.057 31.8864ZM486.327 31.8864V37H484.27V28.2727H486.236V29.7557H486.338C486.539 29.267 486.859 28.8788 487.298 28.5909C487.742 28.303 488.289 28.1591 488.94 28.1591C489.543 28.1591 490.067 28.2879 490.514 28.5455C490.965 28.803 491.314 29.1761 491.56 29.6648C491.81 30.1534 491.933 30.7462 491.929 31.4432V37H489.872V31.7614C489.872 31.178 489.721 30.7216 489.418 30.392C489.118 30.0625 488.704 29.8977 488.173 29.8977C487.814 29.8977 487.493 29.9773 487.213 30.1364C486.937 30.2917 486.719 30.517 486.56 30.8125C486.404 31.108 486.327 31.4659 486.327 31.8864ZM497.404 37.1705C496.529 37.1705 495.773 36.9886 495.137 36.625C494.504 36.2576 494.017 35.7386 493.676 35.0682C493.335 34.3939 493.165 33.6004 493.165 32.6875C493.165 31.7898 493.335 31.0019 493.676 30.3239C494.021 29.642 494.502 29.1117 495.119 28.733C495.737 28.3504 496.462 28.1591 497.296 28.1591C497.834 28.1591 498.341 28.2462 498.818 28.4205C499.299 28.5909 499.724 28.8561 500.091 29.2159C500.462 29.5758 500.754 30.0341 500.966 30.5909C501.178 31.1439 501.284 31.803 501.284 32.5682V33.1989H494.131V31.8125H499.313C499.309 31.4186 499.224 31.0682 499.057 30.7614C498.89 30.4508 498.657 30.2064 498.358 30.0284C498.063 29.8504 497.718 29.7614 497.324 29.7614C496.904 29.7614 496.534 29.8636 496.216 30.0682C495.898 30.2689 495.65 30.5341 495.472 30.8636C495.298 31.1894 495.209 31.5473 495.205 31.9375V33.1477C495.205 33.6553 495.298 34.0909 495.483 34.4545C495.669 34.8144 495.928 35.0909 496.262 35.2841C496.595 35.4735 496.985 35.5682 497.432 35.5682C497.731 35.5682 498.002 35.5265 498.244 35.4432C498.487 35.3561 498.697 35.2292 498.875 35.0625C499.053 34.8958 499.188 34.6894 499.279 34.4432L501.199 34.6591C501.078 35.1667 500.847 35.6098 500.506 35.9886C500.169 36.3636 499.737 36.6553 499.21 36.8636C498.684 37.0682 498.082 37.1705 497.404 37.1705ZM504.601 25.3636V37H502.544V25.3636H504.601Z" fill="#4F46E5" style="fill:#4F46E5;fill:color(display-p3 0.3098 0.2745 0.8980);fill-opacity:1;"/>
<path d="M525.167 29L520.501 33.6667L515.834 29" stroke="#9CA3AF" style="stroke:#9CA3AF;stroke:color(display-p3 0.6118 0.6392 0.6863);stroke-opacity:1;" stroke-width="1.25" stroke-linecap="round" stroke-linejoin="round"/>
<g clip-path="url(#clip1_210_5371)">
<rect x="691" y="19" width="24" height="24" rx="12" fill="#F9FAFB" style="fill:#F9FAFB;fill:color(display-p3 0.9765 0.9804 0.9843);fill-opacity:1;"/>
<path d="M699 35L707 27M699 27L707 35" stroke="#6B7280" style="stroke:#6B7280;stroke:color(display-p3 0.4196 0.4471 0.5020);stroke-opacity:1;" stroke-width="1.25" stroke-linecap="round" stroke-linejoin="round"/>
</g>
<rect x="691.5" y="19.5" width="23" height="23" rx="11.5" stroke="#9CA3AF" style="stroke:#9CA3AF;stroke:color(display-p3 0.6118 0.6392 0.6863);stroke-opacity:1;"/>
<rect x="21.5" y="77.5" width="95" height="27" rx="13.5" stroke="#E5E7EB" style="stroke:#E5E7EB;stroke:color(display-p3 0.8980 0.9059 0.9216);stroke-opacity:1;"/>
<path d="M36.5 87V95M40.5 91L32.5 91" stroke="#9CA3AF" style="stroke:#9CA3AF;stroke:color(display-p3 0.6118 0.6392 0.6863);stroke-opacity:1;" stroke-width="1.25" stroke-linecap="round" stroke-linejoin="round"/>
<path d="M48.1506 96H46.858L50.5966 85.8182H51.8693L55.608 96H54.3153L51.2727 87.429H51.1932L48.1506 96ZM48.6278 92.0227H53.8381V93.1165H48.6278V92.0227ZM59.6383 96.1591C59.002 96.1591 58.4402 95.9983 57.953 95.6768C57.4657 95.352 57.0846 94.8946 56.8095 94.3047C56.5344 93.7114 56.3968 93.0104 56.3968 92.2017C56.3968 91.3996 56.5344 90.7036 56.8095 90.1136C57.0846 89.5237 57.4674 89.0679 57.9579 88.7464C58.4485 88.425 59.0152 88.2642 59.6582 88.2642C60.1554 88.2642 60.5481 88.3471 60.8365 88.5128C61.1281 88.6752 61.3502 88.8608 61.5027 89.0696C61.6584 89.2751 61.7794 89.4441 61.8656 89.5767H61.965V85.8182H63.1383V96H62.0048V94.8267H61.8656C61.7794 94.9659 61.6568 95.1416 61.4977 95.3537C61.3386 95.5625 61.1116 95.7498 60.8166 95.9155C60.5216 96.0779 60.1289 96.1591 59.6383 96.1591ZM59.7974 95.1051C60.2681 95.1051 60.6658 94.9825 60.9906 94.7372C61.3154 94.4886 61.5623 94.1456 61.7314 93.7081C61.9004 93.2673 61.9849 92.7585 61.9849 92.1818C61.9849 91.6117 61.9021 91.1129 61.7363 90.6854C61.5706 90.2545 61.3254 89.9197 61.0005 89.6811C60.6757 89.4392 60.2747 89.3182 59.7974 89.3182C59.3003 89.3182 58.886 89.4458 58.5545 89.701C58.2264 89.9529 57.9795 90.2959 57.8138 90.7301C57.6513 91.161 57.5701 91.6449 57.5701 92.1818C57.5701 92.7254 57.653 93.2192 57.8187 93.6634C57.9878 94.1042 58.2363 94.4555 58.5645 94.7173C58.8959 94.9759 59.3069 95.1051 59.7974 95.1051ZM68.0536 96.1591C67.4173 96.1591 66.8555 95.9983 66.3683 95.6768C65.8811 95.352 65.4999 94.8946 65.2248 94.3047C64.9497 93.7114 64.8122 93.0104 64.8122 92.2017C64.8122 91.3996 64.9497 90.7036 65.2248 90.1136C65.4999 89.5237 65.8827 89.0679 66.3732 88.7464C66.8638 88.425 67.4305 88.2642 68.0735 88.2642C68.5707 88.2642 68.9634 88.3471 69.2518 88.5128C69.5435 88.6752 69.7655 88.8608 69.918 89.0696C70.0738 89.2751 70.1947 89.4441 70.2809 89.5767H70.3803V85.8182H71.5536V96H70.4201V94.8267H70.2809C70.1947 94.9659 70.0721 95.1416 69.913 95.3537C69.7539 95.5625 69.5269 95.7498 69.2319 95.9155C68.9369 96.0779 68.5442 96.1591 68.0536 96.1591ZM68.2127 95.1051C68.6834 95.1051 69.0811 94.9825 69.4059 94.7372C69.7307 94.4886 69.9776 94.1456 70.1467 93.7081C70.3157 93.2673 70.4002 92.7585 70.4002 92.1818C70.4002 91.6117 70.3174 91.1129 70.1516 90.6854C69.9859 90.2545 69.7407 89.9197 69.4159 89.6811C69.091 89.4392 68.69 89.3182 68.2127 89.3182C67.7156 89.3182 67.3013 89.4458 66.9698 89.701C66.6417 89.9529 66.3948 90.2959 66.2291 90.7301C66.0667 91.161 65.9855 91.6449 65.9855 92.1818C65.9855 92.7254 66.0683 93.2192 66.234 93.6634C66.4031 94.1042 66.6516 94.4555 66.9798 94.7173C67.3112 94.9759 67.7222 95.1051 68.2127 95.1051ZM76.8452 86.9119V85.8182H84.4816V86.9119H81.2799V96H80.0469V86.9119H76.8452ZM87.1534 96.179C86.6695 96.179 86.2304 96.0878 85.836 95.9055C85.4416 95.7199 85.1283 95.4531 84.8963 95.1051C84.6643 94.7538 84.5483 94.3295 84.5483 93.8324C84.5483 93.3949 84.6345 93.0402 84.8069 92.7685C84.9792 92.4934 85.2096 92.2779 85.4979 92.1222C85.7863 91.9664 86.1044 91.8504 86.4524 91.7741C86.8038 91.6946 87.1568 91.6316 87.5114 91.5852C87.9754 91.5256 88.3516 91.4808 88.6399 91.451C88.9316 91.4179 89.1437 91.3632 89.2763 91.2869C89.4122 91.2107 89.4801 91.0781 89.4801 90.8892V90.8494C89.4801 90.3589 89.3459 89.9777 89.0774 89.706C88.8123 89.4342 88.4096 89.2983 87.8694 89.2983C87.3092 89.2983 86.8701 89.4209 86.5519 89.6662C86.2337 89.9115 86.01 90.1733 85.8807 90.4517L84.7671 90.054C84.9659 89.59 85.2311 89.2287 85.5625 88.9702C85.8973 88.7083 86.2619 88.526 86.6563 88.4233C87.054 88.3172 87.4451 88.2642 87.8296 88.2642C88.0748 88.2642 88.3566 88.294 88.6747 88.3537C88.9962 88.41 89.3061 88.5277 89.6044 88.7067C89.906 88.8857 90.1563 89.1558 90.3551 89.517C90.554 89.8783 90.6534 90.3622 90.6534 90.9688V96H89.4801V94.9659H89.4205C89.3409 95.1316 89.2084 95.3089 89.0228 95.4979C88.8372 95.6868 88.5902 95.8475 88.282 95.9801C87.9738 96.1127 87.5976 96.179 87.1534 96.179ZM87.3324 95.125C87.7964 95.125 88.1875 95.0339 88.5057 94.8516C88.8272 94.6693 89.0692 94.4339 89.2316 94.1456C89.3973 93.8572 89.4801 93.554 89.4801 93.2358V92.1619C89.4304 92.2216 89.3211 92.2763 89.152 92.326C88.9863 92.3724 88.7941 92.4138 88.5753 92.4503C88.3599 92.4834 88.1494 92.5133 87.9439 92.5398C87.7417 92.563 87.5777 92.5829 87.4517 92.5994C87.1468 92.6392 86.8618 92.7038 86.5966 92.7933C86.3348 92.8795 86.1227 93.0104 85.9603 93.1861C85.8012 93.3584 85.7216 93.5937 85.7216 93.892C85.7216 94.2997 85.8724 94.608 86.174 94.8168C86.479 95.0223 86.8651 95.125 87.3324 95.125ZM95.5973 99.0227C95.0306 99.0227 94.5434 98.9498 94.1357 98.804C93.728 98.6615 93.3883 98.4725 93.1165 98.2372C92.8481 98.0052 92.6343 97.7566 92.4752 97.4915L93.4098 96.8352C93.5159 96.9744 93.6501 97.1335 93.8125 97.3125C93.9749 97.4948 94.197 97.6522 94.4787 97.7848C94.7638 97.9207 95.1366 97.9886 95.5973 97.9886C96.2138 97.9886 96.7226 97.8395 97.1236 97.5412C97.5247 97.2429 97.7252 96.7756 97.7252 96.1392V94.5881H97.6258C97.5396 94.7273 97.4169 94.8996 97.2579 95.1051C97.1021 95.3073 96.8767 95.4879 96.5817 95.647C96.2901 95.8028 95.8956 95.8807 95.3985 95.8807C94.782 95.8807 94.2285 95.7348 93.738 95.4432C93.2508 95.1515 92.8646 94.7273 92.5796 94.1705C92.2979 93.6136 92.157 92.9375 92.157 92.142C92.157 91.3598 92.2945 90.6787 92.5696 90.0987C92.8447 89.5154 93.2276 89.0646 93.7181 88.7464C94.2086 88.425 94.7754 88.2642 95.4184 88.2642C95.9155 88.2642 96.3099 88.3471 96.6016 88.5128C96.8966 88.6752 97.122 88.8608 97.2777 89.0696C97.4368 89.2751 97.5595 89.4441 97.6456 89.5767H97.765V88.3636H98.8985V96.2188C98.8985 96.875 98.7493 97.4086 98.451 97.8196C98.1561 98.2339 97.7583 98.5372 97.2579 98.7294C96.7607 98.925 96.2072 99.0227 95.5973 99.0227ZM95.5576 94.8267C96.0282 94.8267 96.4259 94.719 96.7508 94.5036C97.0756 94.2881 97.3225 93.9782 97.4915 93.5739C97.6606 93.1695 97.7451 92.6856 97.7451 92.1222C97.7451 91.572 97.6622 91.0864 97.4965 90.6655C97.3308 90.2446 97.0855 89.9148 96.7607 89.6761C96.4359 89.4375 96.0348 89.3182 95.5576 89.3182C95.0604 89.3182 94.6461 89.4441 94.3147 89.696C93.9865 89.9479 93.7396 90.286 93.5739 90.7102C93.4115 91.1345 93.3303 91.6051 93.3303 92.1222C93.3303 92.6525 93.4132 93.1214 93.5789 93.5291C93.7479 93.9335 93.9965 94.2517 94.3246 94.4837C94.6561 94.7124 95.067 94.8267 95.5576 94.8267ZM106.175 90.0739L105.121 90.3722C105.055 90.1965 104.957 90.0258 104.828 89.8601C104.702 89.6911 104.53 89.5518 104.311 89.4425C104.092 89.3331 103.812 89.2784 103.471 89.2784C103.003 89.2784 102.614 89.3861 102.302 89.6016C101.994 89.8137 101.84 90.0838 101.84 90.4119C101.84 90.7036 101.946 90.9339 102.158 91.103C102.37 91.272 102.702 91.4129 103.153 91.5256L104.286 91.804C104.969 91.9697 105.478 92.2232 105.812 92.5646C106.147 92.9027 106.315 93.3385 106.315 93.8722C106.315 94.3097 106.189 94.7008 105.937 95.0455C105.688 95.3902 105.34 95.6619 104.893 95.8608C104.445 96.0597 103.925 96.1591 103.332 96.1591C102.553 96.1591 101.908 95.9901 101.398 95.652C100.887 95.3139 100.564 94.8201 100.428 94.1705L101.542 93.892C101.648 94.303 101.848 94.6113 102.143 94.8168C102.442 95.0223 102.831 95.125 103.312 95.125C103.859 95.125 104.293 95.009 104.614 94.777C104.939 94.5417 105.101 94.2599 105.101 93.9318C105.101 93.6667 105.009 93.4446 104.823 93.2656C104.637 93.0833 104.352 92.9474 103.968 92.858L102.695 92.5597C101.996 92.3939 101.482 92.1371 101.154 91.7891C100.829 91.4377 100.667 90.9986 100.667 90.4716C100.667 90.0407 100.788 89.6596 101.03 89.3281C101.275 88.9967 101.608 88.7365 102.029 88.5476C102.453 88.3587 102.934 88.2642 103.471 88.2642C104.226 88.2642 104.82 88.4299 105.251 88.7614C105.685 89.0928 105.993 89.5303 106.175 90.0739Z" fill="#9CA3AF" style="fill:#9CA3AF;fill:color(display-p3 0.6118 0.6392 0.6863);fill-opacity:1;"/>
<path d="M24.5568 136L21.3295 124.364H23.1761L25.4432 133.375H25.5511L27.9091 124.364H29.7386L32.0966 133.381H32.2045L34.4659 124.364H36.3182L33.0852 136H31.3182L28.8693 127.284H28.7784L26.3295 136H24.5568ZM39.0015 130.818V136H37.3027V124.364H38.9788V128.693H39.0868C39.2913 128.223 39.6038 127.85 40.0243 127.574C40.4447 127.297 40.994 127.159 41.672 127.159C42.2705 127.159 42.7932 127.282 43.2402 127.528C43.6909 127.775 44.0394 128.142 44.2856 128.631C44.5356 129.116 44.6606 129.722 44.6606 130.449V136H42.9618V130.653C42.9618 130.013 42.797 129.517 42.4674 129.165C42.1379 128.809 41.6796 128.631 41.0924 128.631C40.6909 128.631 40.3311 128.716 40.0129 128.886C39.6985 129.057 39.4504 129.307 39.2686 129.636C39.0905 129.962 39.0015 130.356 39.0015 130.818ZM48.9874 136.193C48.4344 136.193 47.9344 136.091 47.4874 135.886C47.0405 135.678 46.6863 135.377 46.4249 134.983C46.1674 134.589 46.0386 134.106 46.0386 133.534C46.0386 133.042 46.1333 132.636 46.3227 132.318C46.5121 132 46.7677 131.748 47.0897 131.562C47.4117 131.377 47.7715 131.237 48.1693 131.142C48.567 131.047 48.9723 130.975 49.3852 130.926C49.9079 130.866 50.3321 130.816 50.6579 130.778C50.9837 130.737 51.2204 130.67 51.3681 130.58C51.5159 130.489 51.5897 130.341 51.5897 130.136V130.097C51.5897 129.6 51.4496 129.216 51.1693 128.943C50.8927 128.67 50.4799 128.534 49.9306 128.534C49.3587 128.534 48.9079 128.661 48.5784 128.915C48.2526 129.165 48.0272 129.443 47.9022 129.75L46.3056 129.386C46.495 128.856 46.7715 128.428 47.1352 128.102C47.5026 127.773 47.9249 127.534 48.4022 127.386C48.8795 127.235 49.3814 127.159 49.9079 127.159C50.2564 127.159 50.6257 127.201 51.0159 127.284C51.4098 127.364 51.7772 127.511 52.1181 127.727C52.4628 127.943 52.745 128.252 52.9647 128.653C53.1844 129.051 53.2943 129.568 53.2943 130.205V136H51.6352V134.807H51.567C51.4571 135.027 51.2924 135.242 51.0727 135.455C50.853 135.667 50.5708 135.843 50.2261 135.983C49.8814 136.123 49.4685 136.193 48.9874 136.193ZM49.3568 134.83C49.8265 134.83 50.228 134.737 50.5613 134.551C50.8984 134.366 51.1541 134.123 51.3284 133.824C51.5064 133.521 51.5954 133.197 51.5954 132.852V131.727C51.5348 131.788 51.4174 131.845 51.2431 131.898C51.0727 131.947 50.8776 131.991 50.6579 132.028C50.4382 132.062 50.2242 132.095 50.0159 132.125C49.8075 132.152 49.6333 132.174 49.4931 132.193C49.1636 132.235 48.8624 132.305 48.5897 132.403C48.3208 132.502 48.1049 132.644 47.942 132.83C47.7829 133.011 47.7034 133.254 47.7034 133.557C47.7034 133.977 47.8587 134.295 48.1693 134.511C48.4799 134.723 48.8757 134.83 49.3568 134.83ZM59.1509 127.273V128.636H54.3839V127.273H59.1509ZM55.6623 125.182H57.3611V133.438C57.3611 133.767 57.4104 134.015 57.5089 134.182C57.6073 134.345 57.7342 134.456 57.8895 134.517C58.0486 134.574 58.221 134.602 58.4066 134.602C58.543 134.602 58.6623 134.593 58.7645 134.574C58.8668 134.555 58.9464 134.54 59.0032 134.528L59.31 135.932C59.2115 135.97 59.0714 136.008 58.8895 136.045C58.7077 136.087 58.4805 136.11 58.2077 136.114C57.7608 136.121 57.3441 136.042 56.9577 135.875C56.5714 135.708 56.2589 135.451 56.0202 135.102C55.7816 134.754 55.6623 134.316 55.6623 133.79V125.182ZM62.4479 124.364V125.455C62.4479 125.777 62.3873 126.116 62.2661 126.472C62.1487 126.824 61.982 127.163 61.7661 127.489C61.5502 127.814 61.2964 128.095 61.0047 128.33L60.1638 127.727C60.3873 127.402 60.5805 127.055 60.7434 126.688C60.91 126.32 60.9934 125.915 60.9934 125.472V124.364H62.4479ZM69.0474 129.403L67.5077 129.676C67.4433 129.479 67.341 129.292 67.2009 129.114C67.0645 128.936 66.8789 128.79 66.644 128.676C66.4092 128.562 66.1156 128.506 65.7634 128.506C65.2823 128.506 64.8808 128.614 64.5588 128.83C64.2368 129.042 64.0759 129.316 64.0759 129.653C64.0759 129.945 64.1838 130.18 64.3997 130.358C64.6156 130.536 64.9641 130.682 65.4452 130.795L66.8315 131.114C67.6346 131.299 68.233 131.585 68.627 131.972C69.0209 132.358 69.2179 132.86 69.2179 133.477C69.2179 134 69.0664 134.466 68.7634 134.875C68.4641 135.28 68.0455 135.598 67.5077 135.83C66.9736 136.061 66.3543 136.176 65.6497 136.176C64.6724 136.176 63.8751 135.968 63.2577 135.551C62.6402 135.131 62.2615 134.534 62.1213 133.761L63.7634 133.511C63.8656 133.939 64.0759 134.263 64.394 134.483C64.7122 134.699 65.127 134.807 65.6384 134.807C66.1952 134.807 66.6402 134.691 66.9736 134.46C67.3069 134.225 67.4736 133.939 67.4736 133.602C67.4736 133.33 67.3713 133.1 67.1668 132.915C66.966 132.729 66.6573 132.589 66.2406 132.494L64.7634 132.17C63.949 131.985 63.3467 131.689 62.9565 131.284C62.5702 130.879 62.377 130.366 62.377 129.744C62.377 129.229 62.5209 128.778 62.8088 128.392C63.0967 128.006 63.4944 127.705 64.002 127.489C64.5096 127.269 65.091 127.159 65.7463 127.159C66.6895 127.159 67.4319 127.364 67.9736 127.773C68.5152 128.178 68.8732 128.722 69.0474 129.403ZM78.0363 136.176C77.2181 136.176 76.5041 135.989 75.8943 135.614C75.2844 135.239 74.8109 134.714 74.4738 134.04C74.1367 133.366 73.9681 132.578 73.9681 131.676C73.9681 130.771 74.1367 129.979 74.4738 129.301C74.8109 128.623 75.2844 128.097 75.8943 127.722C76.5041 127.347 77.2181 127.159 78.0363 127.159C78.8545 127.159 79.5685 127.347 80.1784 127.722C80.7882 128.097 81.2617 128.623 81.5988 129.301C81.9359 129.979 82.1045 130.771 82.1045 131.676C82.1045 132.578 81.9359 133.366 81.5988 134.04C81.2617 134.714 80.7882 135.239 80.1784 135.614C79.5685 135.989 78.8545 136.176 78.0363 136.176ZM78.042 134.75C78.5723 134.75 79.0117 134.61 79.3602 134.33C79.7087 134.049 79.9662 133.676 80.1329 133.21C80.3034 132.744 80.3886 132.231 80.3886 131.67C80.3886 131.114 80.3034 130.602 80.1329 130.136C79.9662 129.667 79.7087 129.29 79.3602 129.006C79.0117 128.722 78.5723 128.58 78.042 128.58C77.5079 128.58 77.0647 128.722 76.7124 129.006C76.364 129.29 76.1045 129.667 75.934 130.136C75.7674 130.602 75.684 131.114 75.684 131.67C75.684 132.231 75.7674 132.744 75.934 133.21C76.1045 133.676 76.364 134.049 76.7124 134.33C77.0647 134.61 77.5079 134.75 78.042 134.75ZM85.2197 130.818V136H83.5208V127.273H85.1515V128.693H85.2594C85.4602 128.231 85.7746 127.86 86.2026 127.58C86.6344 127.299 87.178 127.159 87.8333 127.159C88.428 127.159 88.9488 127.284 89.3958 127.534C89.8428 127.78 90.1894 128.148 90.4356 128.636C90.6818 129.125 90.8049 129.729 90.8049 130.449V136H89.106V130.653C89.106 130.021 88.9413 129.527 88.6117 129.17C88.2822 128.811 87.8295 128.631 87.2537 128.631C86.8598 128.631 86.5094 128.716 86.2026 128.886C85.8996 129.057 85.6591 129.307 85.481 129.636C85.3068 129.962 85.2197 130.356 85.2197 130.818ZM97.4315 139.273C97.1777 139.273 96.9467 139.252 96.7383 139.21C96.53 139.172 96.3747 139.131 96.2724 139.085L96.6815 137.693C96.9921 137.777 97.2687 137.813 97.5111 137.801C97.7535 137.79 97.9675 137.699 98.1531 137.528C98.3425 137.358 98.5092 137.08 98.6531 136.693L98.8633 136.114L95.6702 127.273H97.4883L99.6986 134.045H99.7895L102 127.273H103.824L100.227 137.165C100.06 137.619 99.8482 138.004 99.5906 138.318C99.333 138.636 99.0262 138.875 98.6702 139.034C98.3141 139.193 97.9012 139.273 97.4315 139.273ZM108.319 136.176C107.501 136.176 106.787 135.989 106.177 135.614C105.568 135.239 105.094 134.714 104.757 134.04C104.42 133.366 104.251 132.578 104.251 131.676C104.251 130.771 104.42 129.979 104.757 129.301C105.094 128.623 105.568 128.097 106.177 127.722C106.787 127.347 107.501 127.159 108.319 127.159C109.138 127.159 109.852 127.347 110.461 127.722C111.071 128.097 111.545 128.623 111.882 129.301C112.219 129.979 112.388 130.771 112.388 131.676C112.388 132.578 112.219 133.366 111.882 134.04C111.545 134.714 111.071 135.239 110.461 135.614C109.852 135.989 109.138 136.176 108.319 136.176ZM108.325 134.75C108.855 134.75 109.295 134.61 109.643 134.33C109.992 134.049 110.249 133.676 110.416 133.21C110.586 132.744 110.672 132.231 110.672 131.67C110.672 131.114 110.586 130.602 110.416 130.136C110.249 129.667 109.992 129.29 109.643 129.006C109.295 128.722 108.855 128.58 108.325 128.58C107.791 128.58 107.348 128.722 106.996 129.006C106.647 129.29 106.388 129.667 106.217 130.136C106.05 130.602 105.967 131.114 105.967 131.67C105.967 132.231 106.05 132.744 106.217 133.21C106.388 133.676 106.647 134.049 106.996 134.33C107.348 134.61 107.791 134.75 108.325 134.75ZM119.332 132.381V127.273H121.037V136H119.366V134.489H119.276C119.075 134.955 118.753 135.343 118.31 135.653C117.87 135.96 117.323 136.114 116.668 136.114C116.107 136.114 115.611 135.991 115.179 135.744C114.751 135.494 114.414 135.125 114.168 134.636C113.925 134.148 113.804 133.544 113.804 132.824V127.273H115.503V132.619C115.503 133.214 115.668 133.687 115.997 134.04C116.327 134.392 116.755 134.568 117.281 134.568C117.599 134.568 117.916 134.489 118.23 134.33C118.548 134.17 118.811 133.93 119.02 133.608C119.232 133.286 119.336 132.877 119.332 132.381ZM122.84 136V127.273H124.482V128.659H124.573C124.732 128.189 125.012 127.82 125.413 127.551C125.819 127.278 126.277 127.142 126.788 127.142C126.894 127.142 127.019 127.146 127.163 127.153C127.311 127.161 127.427 127.17 127.51 127.182V128.807C127.442 128.788 127.321 128.767 127.146 128.744C126.972 128.718 126.798 128.705 126.624 128.705C126.222 128.705 125.864 128.79 125.55 128.96C125.239 129.127 124.993 129.36 124.811 129.659C124.629 129.955 124.538 130.292 124.538 130.67V136H122.84ZM132.255 136V127.273H133.885V128.693H133.993C134.175 128.212 134.472 127.837 134.885 127.568C135.298 127.295 135.792 127.159 136.368 127.159C136.952 127.159 137.44 127.295 137.834 127.568C138.232 127.841 138.525 128.216 138.715 128.693H138.806C139.014 128.227 139.345 127.856 139.8 127.58C140.255 127.299 140.796 127.159 141.425 127.159C142.217 127.159 142.863 127.407 143.363 127.903C143.866 128.4 144.118 129.148 144.118 130.148V136H142.419V130.307C142.419 129.716 142.258 129.288 141.936 129.023C141.614 128.758 141.23 128.625 140.783 128.625C140.23 128.625 139.8 128.795 139.493 129.136C139.186 129.473 139.033 129.907 139.033 130.438V136H137.34V130.199C137.34 129.725 137.192 129.345 136.897 129.057C136.601 128.769 136.217 128.625 135.743 128.625C135.421 128.625 135.124 128.71 134.851 128.881C134.582 129.047 134.364 129.28 134.198 129.58C134.035 129.879 133.953 130.225 133.953 130.619V136H132.255ZM145.915 136V127.273H147.614V136H145.915ZM146.773 125.926C146.478 125.926 146.224 125.828 146.012 125.631C145.803 125.43 145.699 125.191 145.699 124.915C145.699 124.634 145.803 124.396 146.012 124.199C146.224 123.998 146.478 123.898 146.773 123.898C147.069 123.898 147.32 123.998 147.529 124.199C147.741 124.396 147.847 124.634 147.847 124.915C147.847 125.191 147.741 125.43 147.529 125.631C147.32 125.828 147.069 125.926 146.773 125.926ZM151.118 130.818V136H149.42V127.273H151.05V128.693H151.158C151.359 128.231 151.673 127.86 152.101 127.58C152.533 127.299 153.077 127.159 153.732 127.159C154.327 127.159 154.848 127.284 155.295 127.534C155.742 127.78 156.088 128.148 156.334 128.636C156.581 129.125 156.704 129.729 156.704 130.449V136H155.005V130.653C155.005 130.021 154.84 129.527 154.51 129.17C154.181 128.811 153.728 128.631 153.153 128.631C152.759 128.631 152.408 128.716 152.101 128.886C151.798 129.057 151.558 129.307 151.38 129.636C151.206 129.962 151.118 130.356 151.118 130.818ZM161.769 136.17C161.065 136.17 160.436 135.991 159.883 135.631C159.333 135.267 158.902 134.75 158.587 134.08C158.277 133.405 158.121 132.597 158.121 131.653C158.121 130.71 158.279 129.903 158.593 129.233C158.911 128.562 159.347 128.049 159.9 127.693C160.453 127.337 161.08 127.159 161.78 127.159C162.322 127.159 162.758 127.25 163.087 127.432C163.421 127.61 163.678 127.818 163.86 128.057C164.046 128.295 164.19 128.506 164.292 128.688H164.394V124.364H166.093V136H164.434V134.642H164.292C164.19 134.828 164.042 135.04 163.849 135.278C163.659 135.517 163.398 135.725 163.065 135.903C162.731 136.081 162.299 136.17 161.769 136.17ZM162.144 134.722C162.633 134.722 163.046 134.593 163.383 134.335C163.724 134.074 163.981 133.712 164.155 133.25C164.333 132.788 164.423 132.25 164.423 131.636C164.423 131.03 164.335 130.5 164.161 130.045C163.987 129.591 163.731 129.237 163.394 128.983C163.057 128.729 162.64 128.602 162.144 128.602C161.633 128.602 161.207 128.735 160.866 129C160.525 129.265 160.267 129.627 160.093 130.085C159.923 130.544 159.837 131.061 159.837 131.636C159.837 132.22 159.924 132.744 160.099 133.21C160.273 133.676 160.53 134.045 160.871 134.318C161.216 134.587 161.64 134.722 162.144 134.722ZM175.866 127.273V128.636H171.099V127.273H175.866ZM172.377 125.182H174.076V133.438C174.076 133.767 174.125 134.015 174.224 134.182C174.322 134.345 174.449 134.456 174.605 134.517C174.764 134.574 174.936 134.602 175.122 134.602C175.258 134.602 175.377 134.593 175.48 134.574C175.582 134.555 175.661 134.54 175.718 134.528L176.025 135.932C175.927 135.97 175.786 136.008 175.605 136.045C175.423 136.087 175.195 136.11 174.923 136.114C174.476 136.121 174.059 136.042 173.673 135.875C173.286 135.708 172.974 135.451 172.735 135.102C172.497 134.754 172.377 134.316 172.377 133.79V125.182ZM180.848 136.176C180.029 136.176 179.315 135.989 178.706 135.614C178.096 135.239 177.622 134.714 177.285 134.04C176.948 133.366 176.779 132.578 176.779 131.676C176.779 130.771 176.948 129.979 177.285 129.301C177.622 128.623 178.096 128.097 178.706 127.722C179.315 127.347 180.029 127.159 180.848 127.159C181.666 127.159 182.38 127.347 182.99 127.722C183.599 128.097 184.073 128.623 184.41 129.301C184.747 129.979 184.916 130.771 184.916 131.676C184.916 132.578 184.747 133.366 184.41 134.04C184.073 134.714 183.599 135.239 182.99 135.614C182.38 135.989 181.666 136.176 180.848 136.176ZM180.853 134.75C181.384 134.75 181.823 134.61 182.171 134.33C182.52 134.049 182.777 133.676 182.944 133.21C183.115 132.744 183.2 132.231 183.2 131.67C183.2 131.114 183.115 130.602 182.944 130.136C182.777 129.667 182.52 129.29 182.171 129.006C181.823 128.722 181.384 128.58 180.853 128.58C180.319 128.58 179.876 128.722 179.524 129.006C179.175 129.29 178.916 129.667 178.745 130.136C178.579 130.602 178.495 131.114 178.495 131.67C178.495 132.231 178.579 132.744 178.745 133.21C178.916 133.676 179.175 134.049 179.524 134.33C179.876 134.61 180.319 134.75 180.853 134.75ZM189.599 136.17C188.895 136.17 188.266 135.991 187.713 135.631C187.163 135.267 186.732 134.75 186.417 134.08C186.107 133.405 185.951 132.597 185.951 131.653C185.951 130.71 186.109 129.903 186.423 129.233C186.741 128.562 187.177 128.049 187.73 127.693C188.283 127.337 188.91 127.159 189.61 127.159C190.152 127.159 190.588 127.25 190.917 127.432C191.251 127.61 191.508 127.818 191.69 128.057C191.876 128.295 192.02 128.506 192.122 128.688H192.224V124.364H193.923V136H192.264V134.642H192.122C192.02 134.828 191.872 135.04 191.679 135.278C191.489 135.517 191.228 135.725 190.895 135.903C190.561 136.081 190.129 136.17 189.599 136.17ZM189.974 134.722C190.463 134.722 190.876 134.593 191.213 134.335C191.554 134.074 191.811 133.712 191.985 133.25C192.163 132.788 192.253 132.25 192.253 131.636C192.253 131.03 192.165 130.5 191.991 130.045C191.817 129.591 191.561 129.237 191.224 128.983C190.887 128.729 190.47 128.602 189.974 128.602C189.463 128.602 189.037 128.735 188.696 129C188.355 129.265 188.097 129.627 187.923 130.085C187.753 130.544 187.667 131.061 187.667 131.636C187.667 132.22 187.754 132.744 187.929 133.21C188.103 133.676 188.36 134.045 188.701 134.318C189.046 134.587 189.47 134.722 189.974 134.722ZM198.407 136.193C197.854 136.193 197.354 136.091 196.907 135.886C196.46 135.678 196.106 135.377 195.845 134.983C195.587 134.589 195.459 134.106 195.459 133.534C195.459 133.042 195.553 132.636 195.743 132.318C195.932 132 196.188 131.748 196.51 131.562C196.832 131.377 197.192 131.237 197.589 131.142C197.987 131.047 198.392 130.975 198.805 130.926C199.328 130.866 199.752 130.816 200.078 130.778C200.404 130.737 200.64 130.67 200.788 130.58C200.936 130.489 201.01 130.341 201.01 130.136V130.097C201.01 129.6 200.87 129.216 200.589 128.943C200.313 128.67 199.9 128.534 199.351 128.534C198.779 128.534 198.328 128.661 197.998 128.915C197.673 129.165 197.447 129.443 197.322 129.75L195.726 129.386C195.915 128.856 196.192 128.428 196.555 128.102C196.923 127.773 197.345 127.534 197.822 127.386C198.299 127.235 198.801 127.159 199.328 127.159C199.676 127.159 200.046 127.201 200.436 127.284C200.83 127.364 201.197 127.511 201.538 127.727C201.883 127.943 202.165 128.252 202.385 128.653C202.604 129.051 202.714 129.568 202.714 130.205V136H201.055V134.807H200.987C200.877 135.027 200.712 135.242 200.493 135.455C200.273 135.667 199.991 135.843 199.646 135.983C199.301 136.123 198.889 136.193 198.407 136.193ZM198.777 134.83C199.246 134.83 199.648 134.737 199.981 134.551C200.318 134.366 200.574 134.123 200.748 133.824C200.926 133.521 201.015 133.197 201.015 132.852V131.727C200.955 131.788 200.837 131.845 200.663 131.898C200.493 131.947 200.298 131.991 200.078 132.028C199.858 132.062 199.644 132.095 199.436 132.125C199.228 132.152 199.053 132.174 198.913 132.193C198.584 132.235 198.282 132.305 198.01 132.403C197.741 132.502 197.525 132.644 197.362 132.83C197.203 133.011 197.123 133.254 197.123 133.557C197.123 133.977 197.279 134.295 197.589 134.511C197.9 134.723 198.296 134.83 198.777 134.83ZM205.258 139.273C205.005 139.273 204.774 139.252 204.565 139.21C204.357 139.172 204.202 139.131 204.099 139.085L204.508 137.693C204.819 137.777 205.096 137.813 205.338 137.801C205.58 137.79 205.794 137.699 205.98 137.528C206.169 137.358 206.336 137.08 206.48 136.693L206.69 136.114L203.497 127.273H205.315L207.525 134.045H207.616L209.827 127.273H211.65L208.054 137.165C207.887 137.619 207.675 138.004 207.417 138.318C207.16 138.636 206.853 138.875 206.497 139.034C206.141 139.193 205.728 139.273 205.258 139.273ZM214.625 132.653V132.545C214.633 131.841 214.703 131.28 214.835 130.864C214.972 130.447 215.165 130.11 215.415 129.852C215.665 129.595 215.966 129.36 216.318 129.148C216.545 129.004 216.75 128.843 216.932 128.665C217.114 128.487 217.258 128.282 217.364 128.051C217.47 127.82 217.523 127.564 217.523 127.284C217.523 126.947 217.443 126.655 217.284 126.409C217.125 126.163 216.913 125.973 216.648 125.841C216.386 125.705 216.095 125.636 215.773 125.636C215.481 125.636 215.203 125.697 214.938 125.818C214.672 125.939 214.453 126.129 214.278 126.386C214.104 126.64 214.004 126.968 213.977 127.369H212.25C212.277 126.688 212.449 126.112 212.767 125.642C213.085 125.169 213.506 124.811 214.028 124.568C214.555 124.326 215.136 124.205 215.773 124.205C216.47 124.205 217.08 124.335 217.602 124.597C218.125 124.854 218.53 125.216 218.818 125.682C219.11 126.144 219.256 126.684 219.256 127.301C219.256 127.725 219.189 128.108 219.057 128.449C218.924 128.786 218.735 129.087 218.489 129.352C218.246 129.617 217.955 129.852 217.614 130.057C217.292 130.258 217.03 130.466 216.83 130.682C216.633 130.898 216.489 131.153 216.398 131.449C216.307 131.744 216.258 132.11 216.25 132.545V132.653H214.625ZM215.483 136.108C215.172 136.108 214.905 135.998 214.682 135.778C214.458 135.555 214.347 135.286 214.347 134.972C214.347 134.661 214.458 134.396 214.682 134.176C214.905 133.953 215.172 133.841 215.483 133.841C215.79 133.841 216.055 133.953 216.278 134.176C216.506 134.396 216.619 134.661 216.619 134.972C216.619 135.18 216.566 135.371 216.46 135.545C216.358 135.716 216.222 135.852 216.051 135.955C215.881 136.057 215.691 136.108 215.483 136.108Z" fill="#9CA3AF" style="fill:#9CA3AF;fill:color(display-p3 0.6118 0.6392 0.6863);fill-opacity:1;"/>
</g>
<rect x="5.5" y="1.5" width="725" height="423" rx="7.5" stroke="#E1E1E2" style="stroke:#E1E1E2;stroke:color(display-p3 0.8824 0.8824 0.8863);stroke-opacity:1;"/>
</g>
<defs>
<filter id="filter0_dd_210_5371" x="0" y="0" width="736" height="434" filterUnits="userSpaceOnUse" color-interpolation-filters="sRGB">
<feFlood flood-opacity="0" result="BackgroundImageFix"/>
<feColorMatrix in="SourceAlpha" type="matrix" values="0 0 0 0 0 0 0 0 0 0 0 0 0 0 0 0 0 0 127 0" result="hardAlpha"/>
<feMorphology radius="1" operator="erode" in="SourceAlpha" result="effect1_dropShadow_210_5371"/>
<feOffset dy="4"/>
<feGaussianBlur stdDeviation="3"/>
<feComposite in2="hardAlpha" operator="out"/>
<feColorMatrix type="matrix" values="0 0 0 0 0 0 0 0 0 0 0 0 0 0 0 0 0 0 0.1 0"/>
<feBlend mode="normal" in2="BackgroundImageFix" result="effect1_dropShadow_210_5371"/>
<feColorMatrix in="SourceAlpha" type="matrix" values="0 0 0 0 0 0 0 0 0 0 0 0 0 0 0 0 0 0 127 0" result="hardAlpha"/>
<feMorphology radius="2" operator="erode" in="SourceAlpha" result="effect2_dropShadow_210_5371"/>
<feOffset dy="2"/>
<feGaussianBlur stdDeviation="2"/>
<feComposite in2="hardAlpha" operator="out"/>
<feColorMatrix type="matrix" values="0 0 0 0 0 0 0 0 0 0 0 0 0 0 0 0 0 0 0.1 0"/>
<feBlend mode="normal" in2="effect1_dropShadow_210_5371" result="effect2_dropShadow_210_5371"/>
<feBlend mode="normal" in="SourceGraphic" in2="effect2_dropShadow_210_5371" result="shape"/>
</filter>
<filter id="filter1_d_210_5371" x="579" y="372" width="138" height="40" filterUnits="userSpaceOnUse" color-interpolation-filters="sRGB">
<feFlood flood-opacity="0" result="BackgroundImageFix"/>
<feColorMatrix in="SourceAlpha" type="matrix" values="0 0 0 0 0 0 0 0 0 0 0 0 0 0 0 0 0 0 127 0" result="hardAlpha"/>
<feOffset dy="1"/>
<feGaussianBlur stdDeviation="1"/>
<feColorMatrix type="matrix" values="0 0 0 0 0 0 0 0 0 0 0 0 0 0 0 0 0 0 0.05 0"/>
<feBlend mode="normal" in2="BackgroundImageFix" result="effect1_dropShadow_210_5371"/>
<feBlend mode="normal" in="SourceGraphic" in2="effect1_dropShadow_210_5371" result="shape"/>
</filter>
<clipPath id="clip0_210_5371">
<rect x="5" y="1" width="726" height="424" rx="8" fill="white" style="fill:white;fill-opacity:1;"/>
</clipPath>
<clipPath id="clip1_210_5371">
<rect x="691" y="19" width="24" height="24" rx="12" fill="white" style="fill:white;fill-opacity:1;"/>
</clipPath>
</defs>
</svg>
