<svg width="590" height="285" viewBox="0 0 590 285" fill="none" xmlns="http://www.w3.org/2000/svg">
<g filter="url(#filter0_dii_349_15759)">
<g clip-path="url(#clip0_349_15759)">
<rect x="1" y="1" width="588" height="283" rx="8" fill="white"/>
<g filter="url(#filter1_f_349_15759)">
<path d="M53.6333 -51L152.496 53.7005L178.604 93.0024L140.862 64.6852L41.9999 -40.0153L53.6333 -51Z" fill="#E7C8FF"/>
</g>
<g filter="url(#filter2_f_349_15759)">
<path d="M-6.3667 -91L92.4959 13.7005L118.604 53.0024L80.8625 24.6852L-18.0001 -80.0153L-6.3667 -91Z" fill="#FFE8BB"/>
</g>
<g filter="url(#filter3_f_349_15759)">
<path d="M105.633 -34L204.496 70.7005L230.604 110.002L192.862 81.6852L93.9999 -23.0153L105.633 -34Z" fill="#C1C8FF"/>
</g>
<g filter="url(#filter4_f_349_15759)">
<path d="M179.633 -91L278.496 13.7005L304.604 53.0024L266.862 24.6852L168 -80.0153L179.633 -91Z" fill="#A3E3FF"/>
</g>
<g filter="url(#filter5_d_349_15759)">
<g clip-path="url(#clip1_349_15759)">
<rect x="174" y="78" width="240" height="480" rx="2" fill="white"/>
<rect width="240" height="40" transform="translate(174 78)" fill="white"/>
<g filter="url(#filter6_d_349_15759)">
<path d="M196.437 96.0942C196.639 94.4773 196.74 93.6688 197.142 93.0904C197.495 92.5816 198.006 92.1949 198.601 91.9857C199.278 91.7479 200.111 91.8485 201.779 92.0497L204.162 92.3371C205.829 92.5383 206.663 92.6389 207.261 93.0305C207.787 93.3749 208.187 93.8715 208.405 94.4492C208.652 95.1059 208.551 95.9144 208.349 97.5313L208.108 99.456C207.889 101.208 207.78 102.083 207.345 102.71C206.962 103.261 206.409 103.68 205.764 103.907C205.031 104.164 204.128 104.055 202.321 103.838L200.336 103.598C198.668 103.397 197.834 103.296 197.236 102.905C196.711 102.56 196.31 102.064 196.093 101.486C195.845 100.829 195.946 100.021 196.148 98.4038L196.437 96.0942Z" fill="url(#paint0_linear_349_15759)"/>
<path d="M196.437 96.0942C196.639 94.4773 196.74 93.6688 197.142 93.0904C197.495 92.5816 198.006 92.1949 198.601 91.9857C199.278 91.7479 200.111 91.8485 201.779 92.0497L204.162 92.3371C205.829 92.5383 206.663 92.6389 207.261 93.0305C207.787 93.3749 208.187 93.8715 208.405 94.4492C208.652 95.1059 208.551 95.9144 208.349 97.5313L208.108 99.456C207.889 101.208 207.78 102.083 207.345 102.71C206.962 103.261 206.409 103.68 205.764 103.907C205.031 104.164 204.128 104.055 202.321 103.838L200.336 103.598C198.668 103.397 197.834 103.296 197.236 102.905C196.711 102.56 196.31 102.064 196.093 101.486C195.845 100.829 195.946 100.021 196.148 98.4038L196.437 96.0942Z" fill="url(#paint1_linear_349_15759)"/>
</g>
<g filter="url(#filter7_d_349_15759)">
<path d="M204.3 90.89L198.308 90.576C196.654 90.4892 195.244 91.7196 195.16 93.324L194.856 99.1343C194.771 100.739 196.045 102.11 197.699 102.196L203.691 102.51C205.346 102.597 206.755 101.367 206.839 99.7623L207.144 93.9521C207.228 92.3476 205.955 90.9767 204.3 90.89Z" fill="url(#paint2_linear_349_15759)"/>
<path d="M204.3 90.89L198.308 90.576C196.654 90.4892 195.244 91.7196 195.16 93.324L194.856 99.1343C194.771 100.739 196.045 102.11 197.699 102.196L203.691 102.51C205.346 102.597 206.755 101.367 206.839 99.7623L207.144 93.9521C207.228 92.3476 205.955 90.9767 204.3 90.89Z" fill="url(#paint3_linear_349_15759)"/>
</g>
<g filter="url(#filter8_d_349_15759)">
<path d="M202.324 89.1119L196.338 89.5178C194.686 89.6298 193.439 91.02 193.555 92.6227L193.974 98.4267C194.089 100.029 195.523 101.238 197.175 101.126L203.161 100.72C204.814 100.608 206.06 99.2177 205.944 97.615L205.526 91.811C205.41 90.2083 203.977 88.9998 202.324 89.1119Z" fill="url(#paint4_linear_349_15759)"/>
<path d="M202.324 89.1119L196.338 89.5178C194.686 89.6298 193.439 91.02 193.555 92.6227L193.974 98.4267C194.089 100.029 195.523 101.238 197.175 101.126L203.161 100.72C204.814 100.608 206.06 99.2177 205.944 97.615L205.526 91.811C205.41 90.2083 203.977 88.9998 202.324 89.1119Z" fill="url(#paint5_linear_349_15759)"/>
</g>
<path d="M197.702 92.6026C197.74 92.0684 197.325 91.605 196.774 91.5676C196.223 91.5303 195.745 91.9331 195.707 92.4673C195.668 93.0016 196.083 93.465 196.634 93.5023C197.185 93.5397 197.663 93.1369 197.702 92.6026Z" fill="white" fill-opacity="0.8"/>
<path d="M202.357 93.6215L196.136 94.2118C195.861 94.2379 195.658 94.4753 195.682 94.742C195.706 95.0087 195.949 95.2038 196.224 95.1777L202.445 94.5874C202.72 94.5613 202.923 94.324 202.899 94.0572C202.875 93.7905 202.632 93.5954 202.357 93.6215Z" fill="white" fill-opacity="0.4"/>
<path d="M200.696 95.7945L196.467 96.2097C196.192 96.2367 195.989 96.4747 196.014 96.7413C196.039 97.008 196.282 97.2023 196.557 97.1753L200.786 96.7601C201.061 96.7332 201.263 96.4951 201.238 96.2285C201.213 95.9618 200.97 95.7676 200.696 95.7945Z" fill="white" fill-opacity="0.4"/>
<path d="M225.116 98.3636C225.116 99.1402 224.974 99.8078 224.69 100.366C224.406 100.923 224.017 101.351 223.522 101.652C223.03 101.95 222.47 102.099 221.842 102.099C221.213 102.099 220.65 101.95 220.156 101.652C219.663 101.351 219.275 100.922 218.991 100.363C218.707 99.8042 218.565 99.1378 218.565 98.3636C218.565 97.5871 218.707 96.9207 218.991 96.3643C219.275 95.8056 219.663 95.3771 220.156 95.0788C220.65 94.7782 221.213 94.6278 221.842 94.6278C222.47 94.6278 223.03 94.7782 223.522 95.0788C224.017 95.3771 224.406 95.8056 224.69 96.3643C224.974 96.9207 225.116 97.5871 225.116 98.3636ZM224.03 98.3636C224.03 97.7718 223.934 97.2734 223.742 96.8686C223.553 96.4614 223.292 96.1536 222.961 95.9453C222.632 95.7346 222.259 95.6293 221.842 95.6293C221.423 95.6293 221.049 95.7346 220.72 95.9453C220.391 96.1536 220.131 96.4614 219.939 96.8686C219.75 97.2734 219.655 97.7718 219.655 98.3636C219.655 98.9555 219.75 99.455 219.939 99.8622C220.131 100.267 220.391 100.575 220.72 100.786C221.049 100.994 221.423 101.098 221.842 101.098C222.259 101.098 222.632 100.994 222.961 100.786C223.292 100.575 223.553 100.267 223.742 99.8622C223.934 99.455 224.03 98.9555 224.03 98.3636ZM226.199 102V96.5455H227.226V97.4119H227.282C227.382 97.1184 227.557 96.8875 227.808 96.7195C228.061 96.549 228.348 96.4638 228.667 96.4638C228.734 96.4638 228.812 96.4661 228.902 96.4709C228.994 96.4756 229.066 96.4815 229.118 96.4886V97.5043C229.076 97.4924 229 97.4794 228.891 97.4652C228.782 97.4486 228.673 97.4403 228.564 97.4403C228.313 97.4403 228.09 97.4936 227.893 97.6001C227.699 97.7043 227.545 97.8499 227.432 98.0369C227.318 98.2216 227.261 98.4323 227.261 98.669V102H226.199ZM231.929 104.159C231.496 104.159 231.123 104.102 230.81 103.989C230.5 103.875 230.247 103.725 230.05 103.538C229.854 103.351 229.707 103.146 229.61 102.923L230.523 102.547C230.587 102.651 230.672 102.761 230.778 102.877C230.887 102.996 231.034 103.096 231.219 103.179C231.406 103.262 231.646 103.303 231.939 103.303C232.342 103.303 232.675 103.205 232.937 103.009C233.2 102.814 233.332 102.504 233.332 102.078V101.006H233.264C233.2 101.122 233.108 101.251 232.987 101.393C232.869 101.535 232.705 101.658 232.497 101.762C232.289 101.866 232.018 101.918 231.684 101.918C231.253 101.918 230.865 101.818 230.519 101.616C230.176 101.413 229.904 101.113 229.702 100.718C229.503 100.32 229.404 99.8314 229.404 99.2514C229.404 98.6714 229.502 98.1742 229.699 97.7599C229.898 97.3456 230.17 97.0284 230.515 96.8082C230.861 96.5857 231.253 96.4744 231.691 96.4744C232.029 96.4744 232.303 96.5312 232.511 96.6449C232.72 96.7562 232.882 96.8864 232.998 97.0355C233.116 97.1847 233.207 97.3161 233.271 97.4297H233.349V96.5455H234.39V102.121C234.39 102.589 234.281 102.974 234.063 103.275C233.845 103.576 233.551 103.798 233.179 103.942C232.81 104.087 232.393 104.159 231.929 104.159ZM231.918 101.038C232.224 101.038 232.482 100.967 232.692 100.825C232.905 100.68 233.066 100.474 233.175 100.207C233.287 99.9368 233.342 99.6136 233.342 99.2372C233.342 98.8703 233.288 98.5471 233.179 98.2678C233.07 97.9884 232.91 97.7706 232.699 97.6143C232.489 97.4557 232.228 97.3764 231.918 97.3764C231.599 97.3764 231.332 97.4593 231.119 97.625C230.906 97.7884 230.745 98.0109 230.636 98.2926C230.53 98.5743 230.476 98.8892 230.476 99.2372C230.476 99.5947 230.531 99.9084 230.64 100.178C230.749 100.448 230.91 100.659 231.123 100.81C231.338 100.962 231.603 101.038 231.918 101.038ZM237.201 102.121C236.855 102.121 236.543 102.057 236.264 101.929C235.984 101.799 235.763 101.611 235.6 101.364C235.439 101.118 235.358 100.816 235.358 100.459C235.358 100.151 235.417 99.8977 235.536 99.6989C235.654 99.5 235.814 99.3426 236.015 99.2266C236.216 99.1106 236.441 99.023 236.69 98.9638C236.938 98.9046 237.192 98.8596 237.45 98.8288C237.776 98.791 238.042 98.7602 238.245 98.7365C238.449 98.7105 238.597 98.669 238.689 98.6122C238.781 98.5554 238.828 98.4631 238.828 98.3352V98.3104C238.828 98.0002 238.74 97.7599 238.565 97.5895C238.392 97.419 238.134 97.3338 237.791 97.3338C237.433 97.3338 237.151 97.4131 236.945 97.5717C236.742 97.728 236.601 97.902 236.523 98.0938L235.525 97.8665C235.643 97.535 235.816 97.2675 236.043 97.0639C236.273 96.858 236.537 96.7088 236.835 96.6165C237.134 96.5218 237.447 96.4744 237.776 96.4744C237.994 96.4744 238.225 96.5005 238.469 96.5526C238.715 96.6023 238.945 96.6946 239.158 96.8295C239.373 96.9645 239.55 97.1574 239.687 97.4084C239.824 97.657 239.893 97.9801 239.893 98.3778V102H238.856V101.254H238.813C238.745 101.392 238.642 101.527 238.504 101.659C238.367 101.792 238.191 101.902 237.975 101.989C237.76 102.077 237.502 102.121 237.201 102.121ZM237.432 101.268C237.726 101.268 237.976 101.21 238.185 101.094C238.396 100.978 238.555 100.827 238.664 100.64C238.775 100.451 238.831 100.248 238.831 100.033V99.3295C238.793 99.3674 238.72 99.4029 238.611 99.4361C238.504 99.4669 238.382 99.4941 238.245 99.5178C238.108 99.5391 237.974 99.5592 237.844 99.5781C237.714 99.5947 237.605 99.6089 237.517 99.6207C237.311 99.6468 237.123 99.6906 236.953 99.7521C236.784 99.8137 236.65 99.9025 236.548 100.018C236.448 100.132 236.399 100.284 236.399 100.473C236.399 100.736 236.496 100.935 236.69 101.07C236.884 101.202 237.131 101.268 237.432 101.268ZM242.169 98.7614V102H241.107V96.5455H242.126V97.4332H242.194C242.319 97.1444 242.516 96.9124 242.783 96.7372C243.053 96.562 243.393 96.4744 243.802 96.4744C244.174 96.4744 244.5 96.5526 244.779 96.7088C245.058 96.8627 245.275 97.0923 245.429 97.3977C245.583 97.7031 245.66 98.0807 245.66 98.5305V102H244.598V98.6584C244.598 98.263 244.495 97.9541 244.289 97.7315C244.083 97.5066 243.8 97.3942 243.44 97.3942C243.194 97.3942 242.975 97.4474 242.783 97.554C242.594 97.6605 242.444 97.8168 242.332 98.0227C242.223 98.2263 242.169 98.4725 242.169 98.7614ZM246.884 102V96.5455H247.945V102H246.884ZM247.42 95.7038C247.235 95.7038 247.077 95.6423 246.944 95.5192C246.814 95.3937 246.749 95.2446 246.749 95.0717C246.749 94.8965 246.814 94.7474 246.944 94.6243C247.077 94.4988 247.235 94.4361 247.42 94.4361C247.605 94.4361 247.762 94.4988 247.892 94.6243C248.025 94.7474 248.091 94.8965 248.091 95.0717C248.091 95.2446 248.025 95.3937 247.892 95.5192C247.762 95.6423 247.605 95.7038 247.42 95.7038ZM253.261 97.8771L252.299 98.0476C252.259 97.9245 252.195 97.8073 252.107 97.696C252.022 97.5848 251.906 97.4936 251.759 97.4226C251.612 97.3516 251.429 97.3161 251.209 97.3161C250.908 97.3161 250.657 97.3835 250.456 97.5185C250.255 97.651 250.154 97.8227 250.154 98.0334C250.154 98.2157 250.222 98.3625 250.356 98.4737C250.491 98.585 250.709 98.6761 251.01 98.7472L251.876 98.946C252.378 99.062 252.752 99.2408 252.999 99.4822C253.245 99.7237 253.368 100.037 253.368 100.423C253.368 100.75 253.273 101.041 253.084 101.297C252.897 101.55 252.635 101.749 252.299 101.893C251.965 102.038 251.578 102.11 251.138 102.11C250.527 102.11 250.029 101.98 249.643 101.719C249.257 101.457 249.02 101.084 248.932 100.601L249.959 100.445C250.023 100.712 250.154 100.915 250.353 101.052C250.552 101.187 250.811 101.254 251.131 101.254C251.479 101.254 251.757 101.182 251.965 101.038C252.173 100.891 252.278 100.712 252.278 100.501C252.278 100.331 252.214 100.188 252.086 100.072C251.96 99.9557 251.767 99.8681 251.507 99.8089L250.584 99.6065C250.075 99.4905 249.698 99.3059 249.454 99.0526C249.213 98.7992 249.092 98.4785 249.092 98.0902C249.092 97.7682 249.182 97.4865 249.362 97.245C249.542 97.0036 249.791 96.8153 250.108 96.6804C250.425 96.5431 250.789 96.4744 251.198 96.4744C251.788 96.4744 252.252 96.6023 252.59 96.858C252.929 97.1113 253.152 97.451 253.261 97.8771ZM256.686 102.11C256.149 102.11 255.686 101.995 255.298 101.766C254.912 101.534 254.613 101.208 254.403 100.789C254.194 100.368 254.09 99.8741 254.09 99.3082C254.09 98.7495 254.194 98.2571 254.403 97.831C254.613 97.4048 254.907 97.0722 255.283 96.8331C255.662 96.594 256.105 96.4744 256.612 96.4744C256.919 96.4744 257.218 96.5253 257.506 96.6271C257.795 96.7289 258.054 96.8887 258.284 97.1065C258.514 97.3243 258.695 97.6072 258.827 97.9553C258.96 98.3009 259.026 98.7211 259.026 99.2159V99.5923H254.69V98.7969H257.986C257.986 98.5175 257.929 98.2701 257.815 98.0547C257.702 97.8369 257.542 97.6652 257.336 97.5398C257.132 97.4143 256.893 97.3516 256.619 97.3516C256.32 97.3516 256.06 97.425 255.837 97.5717C255.617 97.7161 255.447 97.9055 255.326 98.1399C255.208 98.3719 255.148 98.6241 255.148 98.8963V99.5178C255.148 99.8823 255.212 100.192 255.34 100.448C255.47 100.704 255.652 100.899 255.884 101.034C256.116 101.167 256.387 101.233 256.697 101.233C256.898 101.233 257.081 101.205 257.247 101.148C257.413 101.089 257.556 101.001 257.677 100.885C257.798 100.769 257.89 100.626 257.954 100.455L258.959 100.636C258.878 100.932 258.734 101.192 258.526 101.414C258.32 101.634 258.06 101.806 257.748 101.929C257.438 102.05 257.084 102.11 256.686 102.11ZM263.96 102L261.943 94.7273H263.097L264.514 100.359H264.582L266.055 94.7273H267.199L268.672 100.363H268.74L270.153 94.7273H271.311L269.29 102H268.186L266.655 96.5526H266.599L265.068 102H263.96ZM272.026 102V96.5455H273.088V102H272.026ZM272.562 95.7038C272.378 95.7038 272.219 95.6423 272.087 95.5192C271.956 95.3937 271.891 95.2446 271.891 95.0717C271.891 94.8965 271.956 94.7474 272.087 94.6243C272.219 94.4988 272.378 94.4361 272.562 94.4361C272.747 94.4361 272.905 94.4988 273.035 94.6243C273.167 94.7474 273.234 94.8965 273.234 95.0717C273.234 95.2446 273.167 95.3937 273.035 95.5192C272.905 95.6423 272.747 95.7038 272.562 95.7038ZM274.203 102V101.272L277.157 97.5185V97.4688H274.299V96.5455H278.482V97.3196L275.641 101.027V101.077H278.581V102H274.203Z" fill="black" fill-opacity="0.8"/>
<path d="M394.765 102.235C394.802 102.269 394.831 102.311 394.852 102.357C394.872 102.403 394.883 102.452 394.884 102.503C394.885 102.553 394.876 102.603 394.857 102.65C394.838 102.696 394.81 102.739 394.774 102.774C394.739 102.81 394.696 102.838 394.65 102.857C394.603 102.876 394.553 102.885 394.503 102.884C394.452 102.883 394.403 102.872 394.357 102.852C394.311 102.831 394.269 102.802 394.235 102.765L390 98.5305L385.765 102.765C385.694 102.831 385.6 102.867 385.503 102.866C385.406 102.864 385.313 102.824 385.244 102.756C385.175 102.687 385.136 102.594 385.134 102.497C385.133 102.4 385.169 102.306 385.235 102.235L389.469 97.9999L385.235 93.7649C385.169 93.6938 385.133 93.5998 385.134 93.5027C385.136 93.4055 385.175 93.3128 385.244 93.2441C385.313 93.1754 385.406 93.136 385.503 93.1343C385.6 93.1326 385.694 93.1687 385.765 93.2349L390 97.4693L394.235 93.2349C394.306 93.1687 394.4 93.1326 394.497 93.1343C394.594 93.136 394.687 93.1754 394.756 93.2441C394.824 93.3128 394.864 93.4055 394.866 93.5027C394.867 93.5998 394.831 93.6938 394.765 93.7649L390.531 97.9999L394.765 102.235Z" fill="#343330"/>
<mask id="path-19-outside-1_349_15759" maskUnits="userSpaceOnUse" x="174" y="117" width="240" height="41" fill="black">
<rect fill="white" x="174" y="117" width="240" height="41"/>
<path d="M174 118H414V158H174V118Z"/>
</mask>
<path d="M174 118H414V158H174V118Z" fill="white"/>
<path d="M197.637 137.199H196.176C196.134 136.96 196.057 136.747 195.945 136.562C195.833 136.375 195.694 136.216 195.527 136.086C195.361 135.956 195.171 135.858 194.957 135.793C194.746 135.725 194.518 135.691 194.273 135.691C193.839 135.691 193.453 135.801 193.117 136.02C192.781 136.236 192.518 136.553 192.328 136.973C192.138 137.389 192.043 137.898 192.043 138.5C192.043 139.112 192.138 139.628 192.328 140.047C192.521 140.464 192.784 140.779 193.117 140.992C193.453 141.203 193.837 141.309 194.27 141.309C194.509 141.309 194.733 141.277 194.941 141.215C195.152 141.15 195.341 141.055 195.508 140.93C195.677 140.805 195.819 140.651 195.934 140.469C196.051 140.286 196.132 140.078 196.176 139.844L197.637 139.852C197.582 140.232 197.464 140.589 197.281 140.922C197.102 141.255 196.866 141.549 196.574 141.805C196.283 142.057 195.941 142.255 195.551 142.398C195.16 142.539 194.727 142.609 194.25 142.609C193.547 142.609 192.919 142.447 192.367 142.121C191.815 141.796 191.38 141.326 191.063 140.711C190.745 140.096 190.586 139.359 190.586 138.5C190.586 137.638 190.746 136.901 191.066 136.289C191.387 135.674 191.823 135.204 192.375 134.879C192.927 134.553 193.552 134.391 194.25 134.391C194.695 134.391 195.109 134.453 195.492 134.578C195.875 134.703 196.216 134.887 196.516 135.129C196.815 135.368 197.061 135.663 197.254 136.012C197.449 136.358 197.577 136.754 197.637 137.199ZM202.506 139.977V136.5H203.92V142.5H202.549V141.434H202.486C202.351 141.77 202.128 142.044 201.818 142.258C201.511 142.471 201.132 142.578 200.681 142.578C200.288 142.578 199.94 142.491 199.638 142.316C199.339 142.139 199.105 141.883 198.935 141.547C198.766 141.208 198.681 140.799 198.681 140.32V136.5H200.095V140.102C200.095 140.482 200.2 140.784 200.408 141.008C200.616 141.232 200.89 141.344 201.228 141.344C201.437 141.344 201.638 141.293 201.834 141.191C202.029 141.09 202.189 140.939 202.314 140.738C202.442 140.535 202.506 140.281 202.506 139.977ZM209.896 138.086L208.607 138.227C208.57 138.096 208.507 137.974 208.415 137.859C208.327 137.745 208.207 137.652 208.056 137.582C207.905 137.512 207.72 137.477 207.501 137.477C207.207 137.477 206.96 137.54 206.759 137.668C206.561 137.796 206.464 137.961 206.466 138.164C206.464 138.339 206.527 138.48 206.658 138.59C206.79 138.699 207.009 138.789 207.314 138.859L208.337 139.078C208.905 139.201 209.327 139.395 209.603 139.66C209.882 139.926 210.022 140.273 210.025 140.703C210.022 141.081 209.912 141.414 209.693 141.703C209.477 141.99 209.176 142.214 208.79 142.375C208.405 142.536 207.962 142.617 207.462 142.617C206.728 142.617 206.137 142.464 205.689 142.156C205.241 141.846 204.974 141.415 204.888 140.863L206.267 140.73C206.33 141.001 206.462 141.206 206.665 141.344C206.869 141.482 207.133 141.551 207.458 141.551C207.794 141.551 208.064 141.482 208.267 141.344C208.473 141.206 208.576 141.035 208.576 140.832C208.576 140.66 208.509 140.518 208.376 140.406C208.246 140.294 208.043 140.208 207.767 140.148L206.744 139.934C206.168 139.814 205.742 139.612 205.466 139.328C205.19 139.042 205.053 138.68 205.056 138.242C205.053 137.872 205.154 137.552 205.357 137.281C205.563 137.008 205.848 136.797 206.212 136.648C206.58 136.497 207.003 136.422 207.482 136.422C208.185 136.422 208.738 136.572 209.142 136.871C209.548 137.171 209.8 137.576 209.896 138.086ZM213.967 136.5V137.594H210.518V136.5H213.967ZM211.369 135.062H212.783V140.695C212.783 140.885 212.812 141.031 212.869 141.133C212.929 141.232 213.007 141.299 213.104 141.336C213.2 141.372 213.307 141.391 213.424 141.391C213.513 141.391 213.593 141.384 213.666 141.371C213.742 141.358 213.799 141.346 213.838 141.336L214.076 142.441C214.001 142.467 213.893 142.496 213.752 142.527C213.614 142.559 213.445 142.577 213.244 142.582C212.89 142.592 212.571 142.539 212.287 142.422C212.003 142.302 211.778 142.117 211.611 141.867C211.447 141.617 211.367 141.305 211.369 140.93V135.062ZM217.482 142.617C216.896 142.617 216.389 142.488 215.959 142.23C215.529 141.973 215.196 141.612 214.959 141.148C214.724 140.685 214.607 140.143 214.607 139.523C214.607 138.904 214.724 138.361 214.959 137.895C215.196 137.428 215.529 137.066 215.959 136.809C216.389 136.551 216.896 136.422 217.482 136.422C218.068 136.422 218.576 136.551 219.006 136.809C219.435 137.066 219.767 137.428 220.002 137.895C220.239 138.361 220.357 138.904 220.357 139.523C220.357 140.143 220.239 140.685 220.002 141.148C219.767 141.612 219.435 141.973 219.006 142.23C218.576 142.488 218.068 142.617 217.482 142.617ZM217.49 141.484C217.808 141.484 218.073 141.397 218.287 141.223C218.501 141.046 218.659 140.809 218.764 140.512C218.87 140.215 218.924 139.884 218.924 139.52C218.924 139.152 218.87 138.82 218.764 138.523C218.659 138.224 218.501 137.986 218.287 137.809C218.073 137.632 217.808 137.543 217.49 137.543C217.165 137.543 216.894 137.632 216.678 137.809C216.464 137.986 216.304 138.224 216.197 138.523C216.093 138.82 216.041 139.152 216.041 139.52C216.041 139.884 216.093 140.215 216.197 140.512C216.304 140.809 216.464 141.046 216.678 141.223C216.894 141.397 217.165 141.484 217.49 141.484ZM221.337 142.5V136.5H222.689V137.52H222.759C222.884 137.176 223.091 136.908 223.38 136.715C223.67 136.52 224.015 136.422 224.416 136.422C224.822 136.422 225.164 136.521 225.443 136.719C225.724 136.914 225.922 137.181 226.037 137.52H226.099C226.232 137.186 226.456 136.921 226.771 136.723C227.089 136.522 227.465 136.422 227.9 136.422C228.452 136.422 228.903 136.596 229.252 136.945C229.601 137.294 229.775 137.803 229.775 138.473V142.5H228.357V138.691C228.357 138.319 228.258 138.047 228.06 137.875C227.862 137.701 227.62 137.613 227.334 137.613C226.992 137.613 226.726 137.72 226.533 137.934C226.343 138.145 226.248 138.419 226.248 138.758V142.5H224.861V138.633C224.861 138.323 224.767 138.076 224.58 137.891C224.395 137.706 224.153 137.613 223.853 137.613C223.65 137.613 223.465 137.665 223.298 137.77C223.132 137.871 222.999 138.016 222.9 138.203C222.801 138.388 222.752 138.604 222.752 138.852V142.5H221.337Z" fill="black" fill-opacity="0.8"/>
<path d="M247.484 135.539V134.5H253.676V135.539H251.18V142.5H249.977V135.539H247.484ZM256.446 142.621C255.855 142.621 255.346 142.495 254.919 142.242C254.494 141.987 254.166 141.629 253.934 141.168C253.705 140.704 253.591 140.161 253.591 139.539C253.591 138.924 253.705 138.383 253.934 137.914C254.166 137.445 254.489 137.079 254.903 136.816C255.32 136.553 255.807 136.422 256.364 136.422C256.703 136.422 257.031 136.478 257.348 136.59C257.666 136.702 257.951 136.878 258.204 137.117C258.456 137.357 258.656 137.668 258.801 138.051C258.947 138.431 259.02 138.893 259.02 139.437V139.852H254.251V138.977H257.876C257.876 138.669 257.813 138.397 257.688 138.16C257.563 137.921 257.387 137.732 257.161 137.594C256.937 137.456 256.674 137.387 256.372 137.387C256.044 137.387 255.757 137.467 255.512 137.629C255.27 137.788 255.083 137.996 254.95 138.254C254.82 138.509 254.755 138.786 254.755 139.086V139.77C254.755 140.171 254.825 140.512 254.966 140.793C255.109 141.074 255.308 141.289 255.563 141.437C255.818 141.583 256.117 141.656 256.458 141.656C256.679 141.656 256.881 141.625 257.063 141.562C257.245 141.497 257.403 141.401 257.536 141.273C257.669 141.146 257.77 140.988 257.841 140.801L258.946 141C258.857 141.326 258.699 141.611 258.469 141.855C258.243 142.098 257.958 142.286 257.614 142.422C257.273 142.555 256.884 142.621 256.446 142.621ZM260.096 142.5V136.5H261.217V137.477H261.291C261.416 137.146 261.621 136.888 261.905 136.703C262.189 136.516 262.528 136.422 262.924 136.422C263.325 136.422 263.661 136.516 263.932 136.703C264.206 136.891 264.407 137.148 264.538 137.477H264.6C264.743 137.156 264.971 136.901 265.284 136.711C265.596 136.518 265.969 136.422 266.401 136.422C266.945 136.422 267.389 136.592 267.733 136.934C268.079 137.275 268.252 137.789 268.252 138.477V142.5H267.084V138.586C267.084 138.18 266.974 137.885 266.752 137.703C266.531 137.521 266.267 137.43 265.959 137.43C265.579 137.43 265.284 137.547 265.073 137.781C264.862 138.013 264.756 138.311 264.756 138.676V142.5H263.592V138.512C263.592 138.186 263.491 137.924 263.288 137.727C263.084 137.529 262.82 137.43 262.495 137.43C262.273 137.43 262.069 137.488 261.881 137.605C261.696 137.72 261.547 137.88 261.432 138.086C261.32 138.292 261.264 138.53 261.264 138.801V142.5H260.096ZM269.598 144.75V136.5H270.738V137.473H270.836C270.904 137.348 271.001 137.203 271.129 137.039C271.257 136.875 271.434 136.732 271.66 136.609C271.887 136.484 272.186 136.422 272.559 136.422C273.043 136.422 273.475 136.544 273.856 136.789C274.236 137.034 274.534 137.387 274.75 137.848C274.969 138.309 275.078 138.863 275.078 139.512C275.078 140.16 274.97 140.716 274.754 141.18C274.538 141.641 274.241 141.996 273.863 142.246C273.486 142.493 273.055 142.617 272.57 142.617C272.206 142.617 271.908 142.556 271.676 142.434C271.447 142.311 271.267 142.168 271.137 142.004C271.007 141.84 270.906 141.694 270.836 141.566H270.766V144.75H269.598ZM270.742 139.5C270.742 139.922 270.804 140.292 270.926 140.609C271.048 140.927 271.225 141.176 271.457 141.355C271.689 141.533 271.973 141.621 272.309 141.621C272.658 141.621 272.949 141.529 273.184 141.344C273.418 141.156 273.595 140.902 273.715 140.582C273.837 140.262 273.899 139.901 273.899 139.5C273.899 139.104 273.839 138.749 273.719 138.434C273.602 138.118 273.425 137.87 273.188 137.688C272.953 137.505 272.66 137.414 272.309 137.414C271.97 137.414 271.684 137.501 271.449 137.676C271.218 137.85 271.042 138.094 270.922 138.406C270.802 138.719 270.742 139.083 270.742 139.5ZM277.335 134.5V142.5H276.167V134.5H277.335ZM280.432 142.633C280.052 142.633 279.708 142.563 279.401 142.422C279.094 142.279 278.85 142.072 278.671 141.801C278.493 141.53 278.405 141.198 278.405 140.805C278.405 140.466 278.47 140.187 278.6 139.969C278.73 139.75 278.906 139.577 279.128 139.449C279.349 139.322 279.596 139.225 279.87 139.16C280.143 139.095 280.422 139.046 280.706 139.012C281.065 138.97 281.357 138.936 281.581 138.91C281.805 138.882 281.967 138.836 282.069 138.773C282.171 138.711 282.221 138.609 282.221 138.469V138.441C282.221 138.1 282.125 137.836 281.932 137.648C281.742 137.461 281.458 137.367 281.081 137.367C280.687 137.367 280.378 137.454 280.151 137.629C279.927 137.801 279.772 137.992 279.686 138.203L278.588 137.953C278.719 137.589 278.909 137.294 279.159 137.07C279.411 136.844 279.702 136.68 280.03 136.578C280.358 136.474 280.703 136.422 281.065 136.422C281.305 136.422 281.559 136.451 281.827 136.508C282.098 136.562 282.35 136.664 282.585 136.812C282.822 136.961 283.016 137.173 283.167 137.449C283.318 137.723 283.393 138.078 283.393 138.516V142.5H282.253V141.68H282.206C282.13 141.831 282.017 141.979 281.866 142.125C281.715 142.271 281.521 142.392 281.284 142.488C281.047 142.585 280.763 142.633 280.432 142.633ZM280.686 141.695C281.009 141.695 281.285 141.632 281.514 141.504C281.746 141.376 281.922 141.21 282.042 141.004C282.164 140.796 282.225 140.573 282.225 140.336V139.562C282.184 139.604 282.103 139.643 281.983 139.68C281.866 139.714 281.732 139.743 281.581 139.77C281.43 139.793 281.282 139.815 281.139 139.836C280.996 139.854 280.876 139.87 280.78 139.883C280.553 139.911 280.346 139.96 280.159 140.027C279.974 140.095 279.825 140.193 279.713 140.32C279.604 140.445 279.549 140.612 279.549 140.82C279.549 141.109 279.656 141.328 279.87 141.477C280.083 141.622 280.355 141.695 280.686 141.695ZM287.53 136.5V137.437H284.252V136.5H287.53ZM285.131 135.062H286.299V140.738C286.299 140.965 286.333 141.135 286.401 141.25C286.468 141.362 286.556 141.439 286.662 141.48C286.772 141.52 286.89 141.539 287.018 141.539C287.112 141.539 287.194 141.533 287.264 141.52C287.334 141.507 287.389 141.496 287.428 141.488L287.639 142.453C287.571 142.479 287.475 142.505 287.35 142.531C287.225 142.56 287.069 142.576 286.881 142.578C286.574 142.583 286.287 142.529 286.022 142.414C285.756 142.299 285.541 142.122 285.377 141.883C285.213 141.643 285.131 141.342 285.131 140.98V135.062ZM291.123 142.621C290.532 142.621 290.023 142.495 289.596 142.242C289.171 141.987 288.843 141.629 288.611 141.168C288.382 140.704 288.268 140.161 288.268 139.539C288.268 138.924 288.382 138.383 288.611 137.914C288.843 137.445 289.166 137.079 289.58 136.816C289.997 136.553 290.484 136.422 291.041 136.422C291.38 136.422 291.708 136.478 292.025 136.59C292.343 136.702 292.628 136.878 292.881 137.117C293.134 137.357 293.333 137.668 293.479 138.051C293.624 138.431 293.697 138.893 293.697 139.437V139.852H288.928V138.977H292.553C292.553 138.669 292.49 138.397 292.365 138.16C292.24 137.921 292.064 137.732 291.838 137.594C291.614 137.456 291.351 137.387 291.049 137.387C290.721 137.387 290.434 137.467 290.189 137.629C289.947 137.788 289.76 137.996 289.627 138.254C289.497 138.509 289.432 138.786 289.432 139.086V139.77C289.432 140.171 289.502 140.512 289.643 140.793C289.786 141.074 289.985 141.289 290.24 141.437C290.495 141.583 290.794 141.656 291.135 141.656C291.356 141.656 291.558 141.625 291.74 141.562C291.923 141.497 292.08 141.401 292.213 141.273C292.346 141.146 292.447 140.988 292.518 140.801L293.623 141C293.535 141.326 293.376 141.611 293.147 141.855C292.92 142.098 292.635 142.286 292.291 142.422C291.95 142.555 291.561 142.621 291.123 142.621ZM299.269 137.965L298.211 138.152C298.166 138.017 298.096 137.888 298 137.766C297.906 137.643 297.778 137.543 297.617 137.465C297.455 137.387 297.254 137.348 297.011 137.348C296.681 137.348 296.405 137.422 296.183 137.57C295.962 137.716 295.851 137.905 295.851 138.137C295.851 138.337 295.926 138.499 296.074 138.621C296.222 138.743 296.462 138.844 296.793 138.922L297.746 139.141C298.298 139.268 298.709 139.465 298.98 139.73C299.251 139.996 299.386 140.341 299.386 140.766C299.386 141.125 299.282 141.445 299.074 141.727C298.868 142.005 298.58 142.224 298.211 142.383C297.844 142.542 297.418 142.621 296.933 142.621C296.261 142.621 295.713 142.478 295.289 142.191C294.864 141.902 294.604 141.492 294.508 140.961L295.636 140.789C295.707 141.083 295.851 141.306 296.07 141.457C296.289 141.605 296.574 141.68 296.926 141.68C297.308 141.68 297.614 141.6 297.844 141.441C298.073 141.28 298.187 141.083 298.187 140.852C298.187 140.664 298.117 140.507 297.976 140.379C297.838 140.251 297.626 140.155 297.34 140.09L296.324 139.867C295.764 139.74 295.35 139.536 295.082 139.258C294.816 138.979 294.683 138.626 294.683 138.199C294.683 137.845 294.782 137.535 294.98 137.27C295.178 137.004 295.452 136.797 295.801 136.648C296.15 136.497 296.549 136.422 297 136.422C297.648 136.422 298.159 136.562 298.531 136.844C298.903 137.122 299.15 137.496 299.269 137.965Z" fill="black" fill-opacity="0.3"/>
<path d="M306 132.25C305.357 132.25 304.729 132.441 304.194 132.798C303.66 133.155 303.243 133.662 302.997 134.256C302.751 134.85 302.687 135.504 302.812 136.134C302.938 136.764 303.247 137.344 303.702 137.798C304.156 138.253 304.736 138.562 305.366 138.688C305.996 138.813 306.65 138.749 307.244 138.503C307.838 138.257 308.345 137.84 308.702 137.306C309.059 136.771 309.25 136.143 309.25 135.5C309.249 134.638 308.906 133.812 308.297 133.203C307.688 132.594 306.862 132.251 306 132.25ZM306 138.25C305.456 138.25 304.924 138.089 304.472 137.787C304.02 137.484 303.667 137.055 303.459 136.552C303.251 136.05 303.197 135.497 303.303 134.964C303.409 134.43 303.671 133.94 304.055 133.555C304.44 133.171 304.93 132.909 305.464 132.803C305.997 132.697 306.55 132.751 307.052 132.959C307.555 133.167 307.984 133.52 308.287 133.972C308.589 134.424 308.75 134.956 308.75 135.5C308.749 136.229 308.459 136.928 307.944 137.444C307.428 137.959 306.729 138.249 306 138.25ZM306.5 137C306.5 137.066 306.474 137.13 306.427 137.177C306.38 137.224 306.316 137.25 306.25 137.25C306.117 137.25 305.99 137.197 305.896 137.104C305.803 137.01 305.75 136.883 305.75 136.75V135.5C305.684 135.5 305.62 135.474 305.573 135.427C305.526 135.38 305.5 135.316 305.5 135.25C305.5 135.184 305.526 135.12 305.573 135.073C305.62 135.026 305.684 135 305.75 135C305.883 135 306.01 135.053 306.104 135.146C306.197 135.24 306.25 135.367 306.25 135.5V136.75C306.316 136.75 306.38 136.776 306.427 136.823C306.474 136.87 306.5 136.934 306.5 137ZM305.5 134.125C305.5 134.051 305.522 133.978 305.563 133.917C305.604 133.855 305.663 133.807 305.731 133.779C305.8 133.75 305.875 133.743 305.948 133.757C306.021 133.772 306.088 133.807 306.14 133.86C306.193 133.912 306.228 133.979 306.243 134.052C306.257 134.125 306.25 134.2 306.221 134.269C306.193 134.337 306.145 134.396 306.083 134.437C306.022 134.478 305.949 134.5 305.875 134.5C305.776 134.5 305.68 134.46 305.61 134.39C305.54 134.32 305.5 134.224 305.5 134.125Z" fill="#3F8AE2"/>
<path d="M174 119H414V117H174V119Z" fill="black" fill-opacity="0.1" mask="url(#path-19-outside-1_349_15759)"/>
<mask id="path-24-outside-2_349_15759" maskUnits="userSpaceOnUse" x="174" y="159" width="240" height="41" fill="black">
<rect fill="white" x="174" y="159" width="240" height="41"/>
<path d="M174 160H414V200H174V160Z"/>
</mask>
<path d="M174 160H414V200H174V160Z" fill="white"/>
<path d="M190.789 184.5V176.5H193.789C194.404 176.5 194.919 176.615 195.336 176.844C195.755 177.073 196.072 177.388 196.285 177.789C196.501 178.187 196.609 178.641 196.609 179.148C196.609 179.661 196.501 180.117 196.285 180.516C196.069 180.914 195.75 181.228 195.328 181.457C194.906 181.684 194.387 181.797 193.77 181.797H191.781V180.605H193.574C193.934 180.605 194.228 180.543 194.457 180.418C194.686 180.293 194.855 180.121 194.965 179.902C195.077 179.684 195.133 179.432 195.133 179.148C195.133 178.865 195.077 178.615 194.965 178.398C194.855 178.182 194.685 178.014 194.453 177.895C194.224 177.772 193.928 177.711 193.566 177.711H192.238V184.5H190.789ZM199.205 184.621C198.825 184.621 198.482 184.553 198.177 184.418C197.875 184.28 197.636 184.077 197.459 183.809C197.284 183.54 197.197 183.21 197.197 182.816C197.197 182.478 197.259 182.198 197.384 181.977C197.509 181.755 197.68 181.578 197.896 181.445C198.112 181.312 198.356 181.212 198.627 181.145C198.9 181.074 199.183 181.023 199.474 180.992C199.826 180.956 200.111 180.923 200.33 180.895C200.549 180.863 200.707 180.816 200.806 180.754C200.908 180.689 200.959 180.589 200.959 180.453V180.43C200.959 180.135 200.871 179.908 200.697 179.746C200.523 179.585 200.271 179.504 199.943 179.504C199.597 179.504 199.322 179.579 199.119 179.73C198.918 179.882 198.783 180.06 198.713 180.266L197.392 180.078C197.496 179.714 197.668 179.409 197.908 179.164C198.148 178.917 198.44 178.732 198.787 178.609C199.133 178.484 199.516 178.422 199.935 178.422C200.224 178.422 200.512 178.456 200.799 178.523C201.085 178.591 201.347 178.703 201.584 178.859C201.821 179.013 202.011 179.223 202.154 179.488C202.3 179.754 202.373 180.086 202.373 180.484V184.5H201.013V183.676H200.967C200.881 183.842 200.759 183.999 200.603 184.145C200.45 184.288 200.256 184.404 200.021 184.492C199.789 184.578 199.517 184.621 199.205 184.621ZM199.572 183.582C199.856 183.582 200.102 183.526 200.31 183.414C200.519 183.299 200.679 183.148 200.791 182.961C200.905 182.773 200.963 182.569 200.963 182.348V181.641C200.918 181.677 200.843 181.711 200.736 181.742C200.632 181.773 200.515 181.801 200.384 181.824C200.254 181.848 200.125 181.868 199.998 181.887C199.87 181.905 199.759 181.921 199.666 181.934C199.455 181.962 199.266 182.009 199.099 182.074C198.933 182.139 198.801 182.23 198.705 182.348C198.608 182.462 198.56 182.611 198.56 182.793C198.56 183.053 198.655 183.25 198.845 183.383C199.036 183.516 199.278 183.582 199.572 183.582ZM206.184 186.875C205.676 186.875 205.24 186.806 204.875 186.668C204.511 186.533 204.218 186.35 203.997 186.121C203.775 185.892 203.622 185.638 203.536 185.359L204.809 185.051C204.866 185.168 204.95 185.284 205.059 185.398C205.168 185.516 205.316 185.612 205.5 185.688C205.688 185.766 205.924 185.805 206.207 185.805C206.609 185.805 206.941 185.707 207.204 185.512C207.467 185.319 207.598 185.001 207.598 184.559V183.422H207.528C207.455 183.568 207.348 183.717 207.207 183.871C207.069 184.025 206.886 184.154 206.657 184.258C206.43 184.362 206.145 184.414 205.801 184.414C205.34 184.414 204.922 184.306 204.547 184.09C204.175 183.871 203.878 183.546 203.657 183.113C203.438 182.678 203.329 182.134 203.329 181.48C203.329 180.822 203.438 180.266 203.657 179.812C203.878 179.357 204.176 179.012 204.551 178.777C204.926 178.54 205.344 178.422 205.805 178.422C206.157 178.422 206.446 178.482 206.672 178.602C206.901 178.719 207.084 178.861 207.219 179.027C207.355 179.191 207.457 179.346 207.528 179.492H207.606V178.5H209V184.598C209 185.111 208.878 185.535 208.633 185.871C208.388 186.207 208.054 186.458 207.629 186.625C207.205 186.792 206.723 186.875 206.184 186.875ZM206.196 183.305C206.495 183.305 206.75 183.232 206.961 183.086C207.172 182.94 207.332 182.73 207.442 182.457C207.551 182.184 207.606 181.855 207.606 181.473C207.606 181.095 207.551 180.764 207.442 180.48C207.335 180.197 207.176 179.977 206.965 179.82C206.757 179.661 206.5 179.582 206.196 179.582C205.881 179.582 205.618 179.664 205.407 179.828C205.196 179.992 205.037 180.217 204.93 180.504C204.823 180.788 204.77 181.111 204.77 181.473C204.77 181.84 204.823 182.161 204.93 182.438C205.039 182.711 205.2 182.924 205.411 183.078C205.624 183.229 205.886 183.305 206.196 183.305ZM212.886 184.617C212.284 184.617 211.765 184.492 211.327 184.242C210.892 183.99 210.558 183.633 210.323 183.172C210.089 182.708 209.972 182.163 209.972 181.535C209.972 180.918 210.089 180.376 210.323 179.91C210.56 179.441 210.891 179.077 211.316 178.816C211.74 178.553 212.239 178.422 212.812 178.422C213.181 178.422 213.53 178.482 213.859 178.602C214.189 178.719 214.481 178.901 214.734 179.148C214.989 179.396 215.189 179.711 215.335 180.094C215.481 180.474 215.554 180.927 215.554 181.453V181.887H210.636V180.934H214.198C214.196 180.663 214.137 180.422 214.023 180.211C213.908 179.997 213.748 179.829 213.542 179.707C213.339 179.585 213.102 179.523 212.831 179.523C212.542 179.523 212.288 179.594 212.069 179.734C211.851 179.872 211.68 180.055 211.558 180.281C211.438 180.505 211.377 180.751 211.374 181.02V181.852C211.374 182.201 211.438 182.5 211.566 182.75C211.693 182.997 211.872 183.187 212.101 183.32C212.33 183.451 212.598 183.516 212.905 183.516C213.111 183.516 213.297 183.487 213.464 183.43C213.631 183.37 213.775 183.283 213.898 183.168C214.02 183.053 214.112 182.911 214.175 182.742L215.495 182.891C215.412 183.24 215.253 183.544 215.019 183.805C214.787 184.062 214.49 184.263 214.128 184.406C213.766 184.547 213.352 184.617 212.886 184.617ZM221.272 180.086L219.983 180.227C219.947 180.096 219.883 179.974 219.792 179.859C219.703 179.745 219.584 179.652 219.433 179.582C219.281 179.512 219.097 179.477 218.878 179.477C218.584 179.477 218.336 179.54 218.136 179.668C217.938 179.796 217.84 179.961 217.843 180.164C217.84 180.339 217.904 180.48 218.034 180.59C218.167 180.699 218.386 180.789 218.69 180.859L219.714 181.078C220.281 181.201 220.703 181.395 220.979 181.66C221.258 181.926 221.399 182.273 221.401 182.703C221.399 183.081 221.288 183.414 221.069 183.703C220.853 183.99 220.552 184.214 220.167 184.375C219.781 184.536 219.339 184.617 218.839 184.617C218.104 184.617 217.513 184.464 217.065 184.156C216.617 183.846 216.35 183.415 216.265 182.863L217.643 182.73C217.706 183.001 217.839 183.206 218.042 183.344C218.245 183.482 218.509 183.551 218.835 183.551C219.171 183.551 219.44 183.482 219.643 183.344C219.849 183.206 219.952 183.035 219.952 182.832C219.952 182.66 219.886 182.518 219.753 182.406C219.623 182.294 219.419 182.208 219.143 182.148L218.12 181.934C217.544 181.814 217.119 181.612 216.843 181.328C216.567 181.042 216.43 180.68 216.433 180.242C216.43 179.872 216.53 179.552 216.733 179.281C216.939 179.008 217.224 178.797 217.589 178.648C217.956 178.497 218.379 178.422 218.858 178.422C219.561 178.422 220.115 178.572 220.518 178.871C220.925 179.171 221.176 179.576 221.272 180.086Z" fill="black" fill-opacity="0.8"/>
<path d="M392 180C392 180.133 391.947 180.26 391.854 180.354C391.76 180.447 391.633 180.5 391.5 180.5H386.5V185.5C386.5 185.633 386.447 185.76 386.354 185.854C386.26 185.947 386.133 186 386 186C385.867 186 385.74 185.947 385.646 185.854C385.553 185.76 385.5 185.633 385.5 185.5V180.5H380.5C380.367 180.5 380.24 180.447 380.146 180.354C380.053 180.26 380 180.133 380 180C380 179.867 380.053 179.74 380.146 179.646C380.24 179.553 380.367 179.5 380.5 179.5H385.5V174.5C385.5 174.367 385.553 174.24 385.646 174.146C385.74 174.053 385.867 174 386 174C386.133 174 386.26 174.053 386.354 174.146C386.447 174.24 386.5 174.367 386.5 174.5V179.5H391.5C391.633 179.5 391.76 179.553 391.854 179.646C391.947 179.74 392 179.867 392 180Z" fill="black" fill-opacity="0.8"/>
<path d="M174 161H414V159H174V161Z" fill="black" fill-opacity="0.1" mask="url(#path-24-outside-2_349_15759)"/>
<rect width="240" height="50" transform="translate(174 202)" fill="white"/>
<path d="M192.5 222.75C192.5 222.898 192.456 223.043 192.374 223.167C192.291 223.29 192.174 223.386 192.037 223.443C191.9 223.5 191.749 223.515 191.604 223.486C191.458 223.457 191.325 223.385 191.22 223.28C191.115 223.175 191.043 223.042 191.014 222.896C190.985 222.751 191 222.6 191.057 222.463C191.114 222.326 191.21 222.209 191.333 222.126C191.457 222.044 191.602 222 191.75 222C191.949 222 192.14 222.079 192.28 222.22C192.421 222.36 192.5 222.551 192.5 222.75ZM196.25 223.5C196.398 223.5 196.543 223.456 196.667 223.374C196.79 223.291 196.886 223.174 196.943 223.037C197 222.9 197.015 222.749 196.986 222.604C196.957 222.458 196.885 222.325 196.78 222.22C196.675 222.115 196.542 222.043 196.396 222.014C196.251 221.985 196.1 222 195.963 222.057C195.826 222.114 195.709 222.21 195.626 222.333C195.544 222.457 195.5 222.602 195.5 222.75C195.5 222.949 195.579 223.14 195.72 223.28C195.86 223.421 196.051 223.5 196.25 223.5ZM191.75 226.25C191.602 226.25 191.457 226.294 191.333 226.376C191.21 226.459 191.114 226.576 191.057 226.713C191 226.85 190.985 227.001 191.014 227.146C191.043 227.292 191.115 227.425 191.22 227.53C191.325 227.635 191.458 227.707 191.604 227.736C191.749 227.765 191.9 227.75 192.037 227.693C192.174 227.636 192.291 227.54 192.374 227.417C192.456 227.293 192.5 227.148 192.5 227C192.5 226.801 192.421 226.61 192.28 226.47C192.14 226.329 191.949 226.25 191.75 226.25ZM196.25 226.25C196.102 226.25 195.957 226.294 195.833 226.376C195.71 226.459 195.614 226.576 195.557 226.713C195.5 226.85 195.485 227.001 195.514 227.146C195.543 227.292 195.615 227.425 195.72 227.53C195.825 227.635 195.958 227.707 196.104 227.736C196.249 227.765 196.4 227.75 196.537 227.693C196.674 227.636 196.791 227.54 196.874 227.417C196.956 227.293 197 227.148 197 227C197 226.801 196.921 226.61 196.78 226.47C196.64 226.329 196.449 226.25 196.25 226.25ZM191.75 230.5C191.602 230.5 191.457 230.544 191.333 230.626C191.21 230.709 191.114 230.826 191.057 230.963C191 231.1 190.985 231.251 191.014 231.396C191.043 231.542 191.115 231.675 191.22 231.78C191.325 231.885 191.458 231.957 191.604 231.986C191.749 232.015 191.9 232 192.037 231.943C192.174 231.886 192.291 231.79 192.374 231.667C192.456 231.543 192.5 231.398 192.5 231.25C192.5 231.051 192.421 230.86 192.28 230.72C192.14 230.579 191.949 230.5 191.75 230.5ZM196.25 230.5C196.102 230.5 195.957 230.544 195.833 230.626C195.71 230.709 195.614 230.826 195.557 230.963C195.5 231.1 195.485 231.251 195.514 231.396C195.543 231.542 195.615 231.675 195.72 231.78C195.825 231.885 195.958 231.957 196.104 231.986C196.249 232.015 196.4 232 196.537 231.943C196.674 231.886 196.791 231.79 196.874 231.667C196.956 231.543 197 231.398 197 231.25C197 231.051 196.921 230.86 196.78 230.72C196.64 230.579 196.449 230.5 196.25 230.5Z" fill="black" fill-opacity="0.3"/>
<path d="M214.969 231V223H217.672C218.299 223 218.813 223.113 219.211 223.34C219.612 223.564 219.909 223.867 220.102 224.25C220.294 224.633 220.391 225.06 220.391 225.531C220.391 226.003 220.294 226.431 220.102 226.816C219.911 227.202 219.617 227.509 219.219 227.738C218.82 227.965 218.31 228.078 217.688 228.078H215.75V227.219H217.656C218.086 227.219 218.431 227.145 218.691 226.996C218.952 226.848 219.141 226.647 219.258 226.395C219.378 226.139 219.438 225.852 219.438 225.531C219.438 225.211 219.378 224.924 219.258 224.672C219.141 224.419 218.951 224.221 218.688 224.078C218.424 223.932 218.076 223.859 217.641 223.859H215.938V231H214.969ZM223.647 231.141C223.267 231.141 222.922 231.069 222.612 230.926C222.302 230.78 222.056 230.57 221.873 230.297C221.691 230.021 221.6 229.687 221.6 229.297C221.6 228.953 221.668 228.674 221.803 228.461C221.938 228.245 222.119 228.076 222.346 227.953C222.573 227.831 222.823 227.74 223.096 227.68C223.372 227.617 223.649 227.568 223.928 227.531C224.293 227.484 224.588 227.449 224.815 227.426C225.044 227.4 225.211 227.357 225.315 227.297C225.422 227.237 225.475 227.133 225.475 226.984V226.953C225.475 226.568 225.369 226.268 225.159 226.055C224.95 225.841 224.634 225.734 224.209 225.734C223.769 225.734 223.424 225.831 223.174 226.023C222.924 226.216 222.748 226.422 222.647 226.641L221.772 226.328C221.928 225.964 222.136 225.68 222.397 225.477C222.66 225.271 222.946 225.128 223.256 225.047C223.569 224.964 223.876 224.922 224.178 224.922C224.371 224.922 224.592 224.945 224.842 224.992C225.095 225.036 225.338 225.129 225.573 225.27C225.81 225.41 226.006 225.622 226.162 225.906C226.319 226.19 226.397 226.57 226.397 227.047V231H225.475V230.187H225.428C225.366 230.318 225.261 230.457 225.116 230.605C224.97 230.754 224.776 230.88 224.534 230.984C224.291 231.089 223.996 231.141 223.647 231.141ZM223.787 230.312C224.152 230.312 224.459 230.241 224.709 230.098C224.962 229.954 225.152 229.77 225.28 229.543C225.41 229.316 225.475 229.078 225.475 228.828V227.984C225.436 228.031 225.35 228.074 225.217 228.113C225.087 228.15 224.936 228.182 224.764 228.211C224.595 228.237 224.429 228.26 224.268 228.281C224.109 228.299 223.98 228.315 223.881 228.328C223.642 228.359 223.418 228.41 223.209 228.48C223.004 228.548 222.837 228.651 222.709 228.789C222.584 228.924 222.522 229.109 222.522 229.344C222.522 229.664 222.64 229.906 222.877 230.07C223.117 230.232 223.42 230.312 223.787 230.312ZM230.556 233.375C230.111 233.375 229.728 233.318 229.408 233.203C229.088 233.091 228.821 232.943 228.607 232.758C228.396 232.576 228.228 232.38 228.103 232.172L228.838 231.656C228.921 231.766 229.026 231.891 229.154 232.031C229.282 232.174 229.456 232.298 229.677 232.402C229.901 232.509 230.194 232.562 230.556 232.562C231.041 232.562 231.44 232.445 231.756 232.211C232.071 231.977 232.228 231.609 232.228 231.109V229.891H232.15C232.082 230 231.986 230.135 231.861 230.297C231.739 230.456 231.561 230.598 231.33 230.723C231.101 230.845 230.791 230.906 230.4 230.906C229.916 230.906 229.481 230.792 229.095 230.563C228.713 230.333 228.409 230 228.185 229.562C227.964 229.125 227.853 228.594 227.853 227.969C227.853 227.354 227.961 226.819 228.177 226.363C228.394 225.905 228.694 225.551 229.08 225.301C229.465 225.048 229.91 224.922 230.416 224.922C230.806 224.922 231.116 224.987 231.345 225.117C231.577 225.245 231.754 225.391 231.877 225.555C232.002 225.716 232.098 225.849 232.166 225.953H232.259V225H233.15V231.172C233.15 231.688 233.033 232.107 232.798 232.43C232.567 232.755 232.254 232.993 231.861 233.145C231.47 233.298 231.035 233.375 230.556 233.375ZM230.525 230.078C230.895 230.078 231.207 229.993 231.463 229.824C231.718 229.655 231.912 229.411 232.045 229.094C232.177 228.776 232.244 228.396 232.244 227.953C232.244 227.521 232.179 227.139 232.048 226.809C231.918 226.478 231.726 226.219 231.47 226.031C231.215 225.844 230.9 225.75 230.525 225.75C230.134 225.75 229.809 225.849 229.548 226.047C229.291 226.245 229.097 226.51 228.966 226.844C228.839 227.177 228.775 227.547 228.775 227.953C228.775 228.37 228.84 228.738 228.97 229.059C229.103 229.376 229.298 229.626 229.556 229.809C229.817 229.988 230.14 230.078 230.525 230.078ZM237.408 231.125C236.83 231.125 236.331 230.997 235.912 230.742C235.495 230.484 235.174 230.125 234.947 229.664C234.723 229.201 234.611 228.661 234.611 228.047C234.611 227.432 234.723 226.891 234.947 226.422C235.174 225.951 235.489 225.583 235.893 225.32C236.299 225.055 236.773 224.922 237.314 224.922C237.627 224.922 237.936 224.974 238.24 225.078C238.545 225.182 238.822 225.352 239.072 225.586C239.322 225.818 239.521 226.125 239.67 226.508C239.818 226.891 239.893 227.362 239.893 227.922V228.312H235.268V227.516H238.955C238.955 227.177 238.887 226.875 238.752 226.609C238.619 226.344 238.429 226.134 238.182 225.98C237.937 225.827 237.648 225.75 237.314 225.75C236.947 225.75 236.63 225.841 236.361 226.023C236.096 226.203 235.891 226.437 235.748 226.727C235.605 227.016 235.533 227.326 235.533 227.656V228.188C235.533 228.641 235.611 229.025 235.768 229.34C235.926 229.652 236.146 229.891 236.428 230.055C236.709 230.216 237.036 230.297 237.408 230.297C237.65 230.297 237.869 230.263 238.064 230.195C238.262 230.125 238.433 230.021 238.576 229.883C238.719 229.742 238.83 229.568 238.908 229.359L239.799 229.609C239.705 229.911 239.547 230.177 239.326 230.406C239.105 230.633 238.831 230.81 238.506 230.937C238.18 231.063 237.814 231.125 237.408 231.125ZM244.186 223.859V223H250.186V223.859H247.671V231H246.702V223.859H244.186ZM251.611 231V225H252.533V231H251.611ZM252.08 224C251.9 224 251.745 223.939 251.615 223.816C251.488 223.694 251.424 223.547 251.424 223.375C251.424 223.203 251.488 223.056 251.615 222.934C251.745 222.811 251.9 222.75 252.08 222.75C252.26 222.75 252.413 222.811 252.541 222.934C252.671 223.056 252.736 223.203 252.736 223.375C252.736 223.547 252.671 223.694 252.541 223.816C252.413 223.939 252.26 224 252.08 224ZM256.886 225V225.781H253.777V225H256.886ZM254.683 223.562H255.605V229.281C255.605 229.542 255.642 229.737 255.718 229.867C255.796 229.995 255.895 230.081 256.015 230.125C256.137 230.167 256.266 230.187 256.402 230.187C256.503 230.187 256.586 230.182 256.652 230.172C256.717 230.159 256.769 230.148 256.808 230.141L256.995 230.969C256.933 230.992 256.846 231.016 256.734 231.039C256.622 231.065 256.48 231.078 256.308 231.078C256.047 231.078 255.792 231.022 255.542 230.91C255.295 230.798 255.089 230.628 254.925 230.398C254.764 230.169 254.683 229.88 254.683 229.531V223.562ZM259.378 223V231H258.457V223H259.378ZM263.638 231.125C263.059 231.125 262.561 230.997 262.141 230.742C261.725 230.484 261.403 230.125 261.177 229.664C260.953 229.201 260.841 228.661 260.841 228.047C260.841 227.432 260.953 226.891 261.177 226.422C261.403 225.951 261.718 225.583 262.122 225.32C262.528 225.055 263.002 224.922 263.544 224.922C263.856 224.922 264.165 224.974 264.47 225.078C264.774 225.182 265.052 225.352 265.302 225.586C265.552 225.818 265.751 226.125 265.899 226.508C266.048 226.891 266.122 227.362 266.122 227.922V228.312H261.497V227.516H265.184C265.184 227.177 265.117 226.875 264.981 226.609C264.849 226.344 264.658 226.134 264.411 225.98C264.166 225.827 263.877 225.75 263.544 225.75C263.177 225.75 262.859 225.841 262.591 226.023C262.325 226.203 262.121 226.437 261.977 226.727C261.834 227.016 261.763 227.326 261.763 227.656V228.188C261.763 228.641 261.841 229.025 261.997 229.34C262.156 229.652 262.376 229.891 262.657 230.055C262.938 230.216 263.265 230.297 263.638 230.297C263.88 230.297 264.099 230.263 264.294 230.195C264.492 230.125 264.662 230.021 264.806 229.883C264.949 229.742 265.059 229.568 265.138 229.359L266.028 229.609C265.934 229.911 265.777 230.177 265.556 230.406C265.334 230.633 265.061 230.81 264.735 230.937C264.41 231.063 264.044 231.125 263.638 231.125Z" fill="black" fill-opacity="0.3"/>
<rect x="206.5" y="212.5" width="167" height="29" rx="1.5" stroke="black" stroke-opacity="0.1"/>
<path d="M395.5 222.5H393V222C393 221.602 392.842 221.221 392.561 220.939C392.279 220.658 391.898 220.5 391.5 220.5H388.5C388.102 220.5 387.721 220.658 387.439 220.939C387.158 221.221 387 221.602 387 222V222.5H384.5C384.367 222.5 384.24 222.553 384.146 222.646C384.053 222.74 384 222.867 384 223C384 223.133 384.053 223.26 384.146 223.354C384.24 223.447 384.367 223.5 384.5 223.5H385V232.5C385 232.765 385.105 233.02 385.293 233.207C385.48 233.395 385.735 233.5 386 233.5H394C394.265 233.5 394.52 233.395 394.707 233.207C394.895 233.02 395 232.765 395 232.5V223.5H395.5C395.633 223.5 395.76 223.447 395.854 223.354C395.947 223.26 396 223.133 396 223C396 222.867 395.947 222.74 395.854 222.646C395.76 222.553 395.633 222.5 395.5 222.5ZM388 222C388 221.867 388.053 221.74 388.146 221.646C388.24 221.553 388.367 221.5 388.5 221.5H391.5C391.633 221.5 391.76 221.553 391.854 221.646C391.947 221.74 392 221.867 392 222V222.5H388V222ZM394 232.5H386V223.5H394V232.5ZM389 226V230C389 230.133 388.947 230.26 388.854 230.354C388.76 230.447 388.633 230.5 388.5 230.5C388.367 230.5 388.24 230.447 388.146 230.354C388.053 230.26 388 230.133 388 230V226C388 225.867 388.053 225.74 388.146 225.646C388.24 225.553 388.367 225.5 388.5 225.5C388.633 225.5 388.76 225.553 388.854 225.646C388.947 225.74 389 225.867 389 226ZM392 226V230C392 230.133 391.947 230.26 391.854 230.354C391.76 230.447 391.633 230.5 391.5 230.5C391.367 230.5 391.24 230.447 391.146 230.354C391.053 230.26 391 230.133 391 230V226C391 225.867 391.053 225.74 391.146 225.646C391.24 225.553 391.367 225.5 391.5 225.5C391.633 225.5 391.76 225.553 391.854 225.646C391.947 225.74 392 225.867 392 226Z" fill="black" fill-opacity="0.3"/>
<rect width="240" height="50" transform="translate(174 252)" fill="white"/>
<path d="M192.5 272.75C192.5 272.898 192.456 273.043 192.374 273.167C192.291 273.29 192.174 273.386 192.037 273.443C191.9 273.5 191.749 273.515 191.604 273.486C191.458 273.457 191.325 273.385 191.22 273.28C191.115 273.175 191.043 273.042 191.014 272.896C190.985 272.751 191 272.6 191.057 272.463C191.114 272.326 191.21 272.209 191.333 272.126C191.457 272.044 191.602 272 191.75 272C191.949 272 192.14 272.079 192.28 272.22C192.421 272.36 192.5 272.551 192.5 272.75ZM196.25 273.5C196.398 273.5 196.543 273.456 196.667 273.374C196.79 273.291 196.886 273.174 196.943 273.037C197 272.9 197.015 272.749 196.986 272.604C196.957 272.458 196.885 272.325 196.78 272.22C196.675 272.115 196.542 272.043 196.396 272.014C196.251 271.985 196.1 272 195.963 272.057C195.826 272.114 195.709 272.21 195.626 272.333C195.544 272.457 195.5 272.602 195.5 272.75C195.5 272.949 195.579 273.14 195.72 273.28C195.86 273.421 196.051 273.5 196.25 273.5ZM191.75 276.25C191.602 276.25 191.457 276.294 191.333 276.376C191.21 276.459 191.114 276.576 191.057 276.713C191 276.85 190.985 277.001 191.014 277.146C191.043 277.292 191.115 277.425 191.22 277.53C191.325 277.635 191.458 277.707 191.604 277.736C191.749 277.765 191.9 277.75 192.037 277.693C192.174 277.636 192.291 277.54 192.374 277.417C192.456 277.293 192.5 277.148 192.5 277C192.5 276.801 192.421 276.61 192.28 276.47C192.14 276.329 191.949 276.25 191.75 276.25ZM196.25 276.25C196.102 276.25 195.957 276.294 195.833 276.376C195.71 276.459 195.614 276.576 195.557 276.713C195.5 276.85 195.485 277.001 195.514 277.146C195.543 277.292 195.615 277.425 195.72 277.53C195.825 277.635 195.958 277.707 196.104 277.736C196.249 277.765 196.4 277.75 196.537 277.693C196.674 277.636 196.791 277.54 196.874 277.417C196.956 277.293 197 277.148 197 277C197 276.801 196.921 276.61 196.78 276.47C196.64 276.329 196.449 276.25 196.25 276.25ZM191.75 280.5C191.602 280.5 191.457 280.544 191.333 280.626C191.21 280.709 191.114 280.826 191.057 280.963C191 281.1 190.985 281.251 191.014 281.396C191.043 281.542 191.115 281.675 191.22 281.78C191.325 281.885 191.458 281.957 191.604 281.986C191.749 282.015 191.9 282 192.037 281.943C192.174 281.886 192.291 281.79 192.374 281.667C192.456 281.543 192.5 281.398 192.5 281.25C192.5 281.051 192.421 280.86 192.28 280.72C192.14 280.579 191.949 280.5 191.75 280.5ZM196.25 280.5C196.102 280.5 195.957 280.544 195.833 280.626C195.71 280.709 195.614 280.826 195.557 280.963C195.5 281.1 195.485 281.251 195.514 281.396C195.543 281.542 195.615 281.675 195.72 281.78C195.825 281.885 195.958 281.957 196.104 281.986C196.249 282.015 196.4 282 196.537 281.943C196.674 281.886 196.791 281.79 196.874 281.667C196.956 281.543 197 281.398 197 281.25C197 281.051 196.921 280.86 196.78 280.72C196.64 280.579 196.449 280.5 196.25 280.5Z" fill="black" fill-opacity="0.3"/>
<path d="M214.969 281V273H217.672C218.299 273 218.813 273.113 219.211 273.34C219.612 273.564 219.909 273.867 220.102 274.25C220.294 274.633 220.391 275.06 220.391 275.531C220.391 276.003 220.294 276.431 220.102 276.816C219.911 277.202 219.617 277.509 219.219 277.738C218.82 277.965 218.31 278.078 217.688 278.078H215.75V277.219H217.656C218.086 277.219 218.431 277.145 218.691 276.996C218.952 276.848 219.141 276.647 219.258 276.395C219.378 276.139 219.438 275.852 219.438 275.531C219.438 275.211 219.378 274.924 219.258 274.672C219.141 274.419 218.951 274.221 218.688 274.078C218.424 273.932 218.076 273.859 217.641 273.859H215.938V281H214.969ZM223.647 281.141C223.267 281.141 222.922 281.069 222.612 280.926C222.302 280.78 222.056 280.57 221.873 280.297C221.691 280.021 221.6 279.687 221.6 279.297C221.6 278.953 221.668 278.674 221.803 278.461C221.938 278.245 222.119 278.076 222.346 277.953C222.573 277.831 222.823 277.74 223.096 277.68C223.372 277.617 223.649 277.568 223.928 277.531C224.293 277.484 224.588 277.449 224.815 277.426C225.044 277.4 225.211 277.357 225.315 277.297C225.422 277.237 225.475 277.133 225.475 276.984V276.953C225.475 276.568 225.369 276.268 225.159 276.055C224.95 275.841 224.634 275.734 224.209 275.734C223.769 275.734 223.424 275.831 223.174 276.023C222.924 276.216 222.748 276.422 222.647 276.641L221.772 276.328C221.928 275.964 222.136 275.68 222.397 275.477C222.66 275.271 222.946 275.128 223.256 275.047C223.569 274.964 223.876 274.922 224.178 274.922C224.371 274.922 224.592 274.945 224.842 274.992C225.095 275.036 225.338 275.129 225.573 275.27C225.81 275.41 226.006 275.622 226.162 275.906C226.319 276.19 226.397 276.57 226.397 277.047V281H225.475V280.187H225.428C225.366 280.318 225.261 280.457 225.116 280.605C224.97 280.754 224.776 280.88 224.534 280.984C224.291 281.089 223.996 281.141 223.647 281.141ZM223.787 280.312C224.152 280.312 224.459 280.241 224.709 280.098C224.962 279.954 225.152 279.77 225.28 279.543C225.41 279.316 225.475 279.078 225.475 278.828V277.984C225.436 278.031 225.35 278.074 225.217 278.113C225.087 278.15 224.936 278.182 224.764 278.211C224.595 278.237 224.429 278.26 224.268 278.281C224.109 278.299 223.98 278.315 223.881 278.328C223.642 278.359 223.418 278.41 223.209 278.48C223.004 278.548 222.837 278.651 222.709 278.789C222.584 278.924 222.522 279.109 222.522 279.344C222.522 279.664 222.64 279.906 222.877 280.07C223.117 280.232 223.42 280.312 223.787 280.312ZM230.556 283.375C230.111 283.375 229.728 283.318 229.408 283.203C229.088 283.091 228.821 282.943 228.607 282.758C228.396 282.576 228.228 282.38 228.103 282.172L228.838 281.656C228.921 281.766 229.026 281.891 229.154 282.031C229.282 282.174 229.456 282.298 229.677 282.402C229.901 282.509 230.194 282.562 230.556 282.562C231.041 282.562 231.44 282.445 231.756 282.211C232.071 281.977 232.228 281.609 232.228 281.109V279.891H232.15C232.082 280 231.986 280.135 231.861 280.297C231.739 280.456 231.561 280.598 231.33 280.723C231.101 280.845 230.791 280.906 230.4 280.906C229.916 280.906 229.481 280.792 229.095 280.563C228.713 280.333 228.409 280 228.185 279.562C227.964 279.125 227.853 278.594 227.853 277.969C227.853 277.354 227.961 276.819 228.177 276.363C228.394 275.905 228.694 275.551 229.08 275.301C229.465 275.048 229.91 274.922 230.416 274.922C230.806 274.922 231.116 274.987 231.345 275.117C231.577 275.245 231.754 275.391 231.877 275.555C232.002 275.716 232.098 275.849 232.166 275.953H232.259V275H233.15V281.172C233.15 281.688 233.033 282.107 232.798 282.43C232.567 282.755 232.254 282.993 231.861 283.145C231.47 283.298 231.035 283.375 230.556 283.375ZM230.525 280.078C230.895 280.078 231.207 279.993 231.463 279.824C231.718 279.655 231.912 279.411 232.045 279.094C232.177 278.776 232.244 278.396 232.244 277.953C232.244 277.521 232.179 277.139 232.048 276.809C231.918 276.478 231.726 276.219 231.47 276.031C231.215 275.844 230.9 275.75 230.525 275.75C230.134 275.75 229.809 275.849 229.548 276.047C229.291 276.245 229.097 276.51 228.966 276.844C228.839 277.177 228.775 277.547 228.775 277.953C228.775 278.37 228.84 278.738 228.97 279.059C229.103 279.376 229.298 279.626 229.556 279.809C229.817 279.988 230.14 280.078 230.525 280.078ZM237.408 281.125C236.83 281.125 236.331 280.997 235.912 280.742C235.495 280.484 235.174 280.125 234.947 279.664C234.723 279.201 234.611 278.661 234.611 278.047C234.611 277.432 234.723 276.891 234.947 276.422C235.174 275.951 235.489 275.583 235.893 275.32C236.299 275.055 236.773 274.922 237.314 274.922C237.627 274.922 237.936 274.974 238.24 275.078C238.545 275.182 238.822 275.352 239.072 275.586C239.322 275.818 239.521 276.125 239.67 276.508C239.818 276.891 239.893 277.362 239.893 277.922V278.312H235.268V277.516H238.955C238.955 277.177 238.887 276.875 238.752 276.609C238.619 276.344 238.429 276.134 238.182 275.98C237.937 275.827 237.648 275.75 237.314 275.75C236.947 275.75 236.63 275.841 236.361 276.023C236.096 276.203 235.891 276.437 235.748 276.727C235.605 277.016 235.533 277.326 235.533 277.656V278.188C235.533 278.641 235.611 279.025 235.768 279.34C235.926 279.652 236.146 279.891 236.428 280.055C236.709 280.216 237.036 280.297 237.408 280.297C237.65 280.297 237.869 280.263 238.064 280.195C238.262 280.125 238.433 280.021 238.576 279.883C238.719 279.742 238.83 279.568 238.908 279.359L239.799 279.609C239.705 279.911 239.547 280.177 239.326 280.406C239.105 280.633 238.831 280.81 238.506 280.937C238.18 281.063 237.814 281.125 237.408 281.125ZM244.186 273.859V273H250.186V273.859H247.671V281H246.702V273.859H244.186ZM251.611 281V275H252.533V281H251.611ZM252.08 274C251.9 274 251.745 273.939 251.615 273.816C251.488 273.694 251.424 273.547 251.424 273.375C251.424 273.203 251.488 273.056 251.615 272.934C251.745 272.811 251.9 272.75 252.08 272.75C252.26 272.75 252.413 272.811 252.541 272.934C252.671 273.056 252.736 273.203 252.736 273.375C252.736 273.547 252.671 273.694 252.541 273.816C252.413 273.939 252.26 274 252.08 274ZM256.886 275V275.781H253.777V275H256.886ZM254.683 273.562H255.605V279.281C255.605 279.542 255.642 279.737 255.718 279.867C255.796 279.995 255.895 280.081 256.015 280.125C256.137 280.167 256.266 280.187 256.402 280.187C256.503 280.187 256.586 280.182 256.652 280.172C256.717 280.159 256.769 280.148 256.808 280.141L256.995 280.969C256.933 280.992 256.846 281.016 256.734 281.039C256.622 281.065 256.48 281.078 256.308 281.078C256.047 281.078 255.792 281.022 255.542 280.91C255.295 280.798 255.089 280.628 254.925 280.398C254.764 280.169 254.683 279.88 254.683 279.531V273.562ZM259.378 273V281H258.457V273H259.378ZM263.638 281.125C263.059 281.125 262.561 280.997 262.141 280.742C261.725 280.484 261.403 280.125 261.177 279.664C260.953 279.201 260.841 278.661 260.841 278.047C260.841 277.432 260.953 276.891 261.177 276.422C261.403 275.951 261.718 275.583 262.122 275.32C262.528 275.055 263.002 274.922 263.544 274.922C263.856 274.922 264.165 274.974 264.47 275.078C264.774 275.182 265.052 275.352 265.302 275.586C265.552 275.818 265.751 276.125 265.899 276.508C266.048 276.891 266.122 277.362 266.122 277.922V278.312H261.497V277.516H265.184C265.184 277.177 265.117 276.875 264.981 276.609C264.849 276.344 264.658 276.134 264.411 275.98C264.166 275.827 263.877 275.75 263.544 275.75C263.177 275.75 262.859 275.841 262.591 276.023C262.325 276.203 262.121 276.437 261.977 276.727C261.834 277.016 261.763 277.326 261.763 277.656V278.188C261.763 278.641 261.841 279.025 261.997 279.34C262.156 279.652 262.376 279.891 262.657 280.055C262.938 280.216 263.265 280.297 263.638 280.297C263.88 280.297 264.099 280.263 264.294 280.195C264.492 280.125 264.662 280.021 264.806 279.883C264.949 279.742 265.059 279.568 265.138 279.359L266.028 279.609C265.934 279.911 265.777 280.177 265.556 280.406C265.334 280.633 265.061 280.81 264.735 280.937C264.41 281.063 264.044 281.125 263.638 281.125Z" fill="black" fill-opacity="0.3"/>
<rect x="206.5" y="262.5" width="167" height="29" rx="1.5" stroke="black" stroke-opacity="0.1"/>
<path d="M395.5 272.5H393V272C393 271.602 392.842 271.221 392.561 270.939C392.279 270.658 391.898 270.5 391.5 270.5H388.5C388.102 270.5 387.721 270.658 387.439 270.939C387.158 271.221 387 271.602 387 272V272.5H384.5C384.367 272.5 384.24 272.553 384.146 272.646C384.053 272.74 384 272.867 384 273C384 273.133 384.053 273.26 384.146 273.354C384.24 273.447 384.367 273.5 384.5 273.5H385V282.5C385 282.765 385.105 283.02 385.293 283.207C385.48 283.395 385.735 283.5 386 283.5H394C394.265 283.5 394.52 283.395 394.707 283.207C394.895 283.02 395 282.765 395 282.5V273.5H395.5C395.633 273.5 395.76 273.447 395.854 273.354C395.947 273.26 396 273.133 396 273C396 272.867 395.947 272.74 395.854 272.646C395.76 272.553 395.633 272.5 395.5 272.5ZM388 272C388 271.867 388.053 271.74 388.146 271.646C388.24 271.553 388.367 271.5 388.5 271.5H391.5C391.633 271.5 391.76 271.553 391.854 271.646C391.947 271.74 392 271.867 392 272V272.5H388V272ZM394 282.5H386V273.5H394V282.5ZM389 276V280C389 280.133 388.947 280.26 388.854 280.354C388.76 280.447 388.633 280.5 388.5 280.5C388.367 280.5 388.24 280.447 388.146 280.354C388.053 280.26 388 280.133 388 280V276C388 275.867 388.053 275.74 388.146 275.646C388.24 275.553 388.367 275.5 388.5 275.5C388.633 275.5 388.76 275.553 388.854 275.646C388.947 275.74 389 275.867 389 276ZM392 276V280C392 280.133 391.947 280.26 391.854 280.354C391.76 280.447 391.633 280.5 391.5 280.5C391.367 280.5 391.24 280.447 391.146 280.354C391.053 280.26 391 280.133 391 280V276C391 275.867 391.053 275.74 391.146 275.646C391.24 275.553 391.367 275.5 391.5 275.5C391.633 275.5 391.76 275.553 391.854 275.646C391.947 275.74 392 275.867 392 276Z" fill="black" fill-opacity="0.3"/>
</g>
<rect x="173.75" y="77.75" width="240.5" height="480.5" rx="2.25" stroke="black" stroke-opacity="0.2" stroke-width="0.5"/>
</g>
</g>
</g>
<defs>
<filter id="filter0_dii_349_15759" x="0" y="0" width="590" height="286" filterUnits="userSpaceOnUse" color-interpolation-filters="sRGB">
<feFlood flood-opacity="0" result="BackgroundImageFix"/>
<feColorMatrix in="SourceAlpha" type="matrix" values="0 0 0 0 0 0 0 0 0 0 0 0 0 0 0 0 0 0 127 0" result="hardAlpha"/>
<feMorphology radius="1" operator="dilate" in="SourceAlpha" result="effect1_dropShadow_349_15759"/>
<feOffset/>
<feComposite in2="hardAlpha" operator="out"/>
<feColorMatrix type="matrix" values="0 0 0 0 0.988235 0 0 0 0 0.988235 0 0 0 0 0.988235 0 0 0 0.32 0"/>
<feBlend mode="normal" in2="BackgroundImageFix" result="effect1_dropShadow_349_15759"/>
<feBlend mode="normal" in="SourceGraphic" in2="effect1_dropShadow_349_15759" result="shape"/>
<feColorMatrix in="SourceAlpha" type="matrix" values="0 0 0 0 0 0 0 0 0 0 0 0 0 0 0 0 0 0 127 0" result="hardAlpha"/>
<feOffset dy="2"/>
<feGaussianBlur stdDeviation="2"/>
<feComposite in2="hardAlpha" operator="arithmetic" k2="-1" k3="1"/>
<feColorMatrix type="matrix" values="0 0 0 0 0 0 0 0 0 0 0 0 0 0 0 0 0 0 0.16 0"/>
<feBlend mode="normal" in2="shape" result="effect2_innerShadow_349_15759"/>
<feColorMatrix in="SourceAlpha" type="matrix" values="0 0 0 0 0 0 0 0 0 0 0 0 0 0 0 0 0 0 127 0" result="hardAlpha"/>
<feOffset dy="1"/>
<feGaussianBlur stdDeviation="0.5"/>
<feComposite in2="hardAlpha" operator="arithmetic" k2="-1" k3="1"/>
<feColorMatrix type="matrix" values="0 0 0 0 0 0 0 0 0 0 0 0 0 0 0 0 0 0 0.12 0"/>
<feBlend mode="normal" in2="effect2_innerShadow_349_15759" result="effect3_innerShadow_349_15759"/>
</filter>
<filter id="filter1_f_349_15759" x="6" y="-87" width="208.604" height="216.002" filterUnits="userSpaceOnUse" color-interpolation-filters="sRGB">
<feFlood flood-opacity="0" result="BackgroundImageFix"/>
<feBlend mode="normal" in="SourceGraphic" in2="BackgroundImageFix" result="shape"/>
<feGaussianBlur stdDeviation="18" result="effect1_foregroundBlur_349_15759"/>
</filter>
<filter id="filter2_f_349_15759" x="-54" y="-127" width="208.604" height="216.002" filterUnits="userSpaceOnUse" color-interpolation-filters="sRGB">
<feFlood flood-opacity="0" result="BackgroundImageFix"/>
<feBlend mode="normal" in="SourceGraphic" in2="BackgroundImageFix" result="shape"/>
<feGaussianBlur stdDeviation="18" result="effect1_foregroundBlur_349_15759"/>
</filter>
<filter id="filter3_f_349_15759" x="58" y="-70" width="208.604" height="216.002" filterUnits="userSpaceOnUse" color-interpolation-filters="sRGB">
<feFlood flood-opacity="0" result="BackgroundImageFix"/>
<feBlend mode="normal" in="SourceGraphic" in2="BackgroundImageFix" result="shape"/>
<feGaussianBlur stdDeviation="18" result="effect1_foregroundBlur_349_15759"/>
</filter>
<filter id="filter4_f_349_15759" x="132" y="-127" width="208.604" height="216.002" filterUnits="userSpaceOnUse" color-interpolation-filters="sRGB">
<feFlood flood-opacity="0" result="BackgroundImageFix"/>
<feBlend mode="normal" in="SourceGraphic" in2="BackgroundImageFix" result="shape"/>
<feGaussianBlur stdDeviation="18" result="effect1_foregroundBlur_349_15759"/>
</filter>
<filter id="filter5_d_349_15759" x="159.5" y="65.5" width="269" height="509" filterUnits="userSpaceOnUse" color-interpolation-filters="sRGB">
<feFlood flood-opacity="0" result="BackgroundImageFix"/>
<feColorMatrix in="SourceAlpha" type="matrix" values="0 0 0 0 0 0 0 0 0 0 0 0 0 0 0 0 0 0 127 0" result="hardAlpha"/>
<feOffset dy="2"/>
<feGaussianBlur stdDeviation="7"/>
<feColorMatrix type="matrix" values="0 0 0 0 0 0 0 0 0 0 0 0 0 0 0 0 0 0 0.15 0"/>
<feBlend mode="normal" in2="BackgroundImageFix" result="effect1_dropShadow_349_15759"/>
<feBlend mode="normal" in="SourceGraphic" in2="effect1_dropShadow_349_15759" result="shape"/>
</filter>
<filter id="filter6_d_349_15759" x="192.553" y="88.9383" width="19.3914" height="18.9971" filterUnits="userSpaceOnUse" color-interpolation-filters="sRGB">
<feFlood flood-opacity="0" result="BackgroundImageFix"/>
<feColorMatrix in="SourceAlpha" type="matrix" values="0 0 0 0 0 0 0 0 0 0 0 0 0 0 0 0 0 0 127 0" result="hardAlpha"/>
<feOffset dy="0.484848"/>
<feGaussianBlur stdDeviation="1.69697"/>
<feColorMatrix type="matrix" values="0 0 0 0 0 0 0 0 0 0 0 0 0 0 0 0 0 0 0.15 0"/>
<feBlend mode="normal" in2="BackgroundImageFix" result="effect1_dropShadow_349_15759"/>
<feBlend mode="normal" in="SourceGraphic" in2="effect1_dropShadow_349_15759" result="shape"/>
</filter>
<filter id="filter7_d_349_15759" x="191.458" y="87.6624" width="19.0838" height="18.731" filterUnits="userSpaceOnUse" color-interpolation-filters="sRGB">
<feFlood flood-opacity="0" result="BackgroundImageFix"/>
<feColorMatrix in="SourceAlpha" type="matrix" values="0 0 0 0 0 0 0 0 0 0 0 0 0 0 0 0 0 0 127 0" result="hardAlpha"/>
<feOffset dy="0.484848"/>
<feGaussianBlur stdDeviation="1.69697"/>
<feColorMatrix type="matrix" values="0 0 0 0 0 0 0 0 0 0 0 0 0 0 0 0 0 0 0.15 0"/>
<feBlend mode="normal" in2="BackgroundImageFix" result="effect1_dropShadow_349_15759"/>
<feBlend mode="normal" in="SourceGraphic" in2="effect1_dropShadow_349_15759" result="shape"/>
</filter>
<filter id="filter8_d_349_15759" x="190.154" y="86.1956" width="19.1919" height="18.8162" filterUnits="userSpaceOnUse" color-interpolation-filters="sRGB">
<feFlood flood-opacity="0" result="BackgroundImageFix"/>
<feColorMatrix in="SourceAlpha" type="matrix" values="0 0 0 0 0 0 0 0 0 0 0 0 0 0 0 0 0 0 127 0" result="hardAlpha"/>
<feOffset dy="0.484848"/>
<feGaussianBlur stdDeviation="1.69697"/>
<feColorMatrix type="matrix" values="0 0 0 0 0 0 0 0 0 0 0 0 0 0 0 0 0 0 0.15 0"/>
<feBlend mode="normal" in2="BackgroundImageFix" result="effect1_dropShadow_349_15759"/>
<feBlend mode="normal" in="SourceGraphic" in2="effect1_dropShadow_349_15759" result="shape"/>
</filter>
<linearGradient id="paint0_linear_349_15759" x1="203.809" y1="92.0737" x2="206.65" y2="104.74" gradientUnits="userSpaceOnUse">
<stop stop-color="#55F5FF"/>
<stop offset="1" stop-color="#18AEB8"/>
</linearGradient>
<linearGradient id="paint1_linear_349_15759" x1="202.97" y1="92.1934" x2="201.576" y2="103.748" gradientUnits="userSpaceOnUse">
<stop offset="0.0001" stop-color="white" stop-opacity="0.32"/>
<stop offset="1" stop-color="white" stop-opacity="0"/>
</linearGradient>
<linearGradient id="paint2_linear_349_15759" x1="201.304" y1="90.733" x2="200.695" y2="102.353" gradientUnits="userSpaceOnUse">
<stop stop-color="#FFCD4B"/>
<stop offset="1" stop-color="#E7AF21"/>
</linearGradient>
<linearGradient id="paint3_linear_349_15759" x1="201.304" y1="90.733" x2="200.695" y2="102.353" gradientUnits="userSpaceOnUse">
<stop offset="0.0001" stop-color="white" stop-opacity="0.32"/>
<stop offset="1" stop-color="white" stop-opacity="0"/>
</linearGradient>
<linearGradient id="paint4_linear_349_15759" x1="199.331" y1="89.3148" x2="200.118" y2="100.926" gradientUnits="userSpaceOnUse">
<stop stop-color="#A586FF"/>
<stop offset="1" stop-color="#6139D1"/>
</linearGradient>
<linearGradient id="paint5_linear_349_15759" x1="199.331" y1="89.3148" x2="200.118" y2="100.926" gradientUnits="userSpaceOnUse">
<stop offset="0.0001" stop-color="white" stop-opacity="0.32"/>
<stop offset="1" stop-color="white" stop-opacity="0"/>
</linearGradient>
<clipPath id="clip0_349_15759">
<rect x="1" y="1" width="588" height="283" rx="8" fill="white"/>
</clipPath>
<clipPath id="clip1_349_15759">
<rect x="174" y="78" width="240" height="480" rx="2" fill="white"/>
</clipPath>
</defs>
</svg>
