<svg width="590" height="286" viewBox="0 0 590 286" fill="none" xmlns="http://www.w3.org/2000/svg">
<g filter="url(#filter0_dii_349_15759)">
<g clip-path="url(#clip0_349_15759)">
<rect x="1" y="1.07886" width="588" height="283" rx="8" fill="white"/>
<g filter="url(#filter1_f_349_15759)">
<path d="M53.6333 -50.9211L152.496 53.7794L178.604 93.0813L140.862 64.7641L41.9999 -39.9364L53.6333 -50.9211Z" fill="#E7C8FF"/>
</g>
<g filter="url(#filter2_f_349_15759)">
<path d="M-6.3667 -90.9211L92.4959 13.7794L118.604 53.0813L80.8625 24.7641L-18.0001 -79.9364L-6.3667 -90.9211Z" fill="#FFE8BB"/>
</g>
<g filter="url(#filter3_f_349_15759)">
<path d="M105.633 -33.9211L204.496 70.7794L230.604 110.081L192.862 81.7641L93.9999 -22.9364L105.633 -33.9211Z" fill="#C1C8FF"/>
</g>
<g filter="url(#filter4_f_349_15759)">
<path d="M179.633 -90.9211L278.496 13.7794L304.604 53.0813L266.862 24.7641L168 -79.9364L179.633 -90.9211Z" fill="#A3E3FF"/>
</g>
<g filter="url(#filter5_d_349_15759)">
<g clip-path="url(#clip1_349_15759)">
<rect x="174" y="78.0789" width="240" height="480" rx="2" fill="white"/>
<rect width="240" height="40" transform="translate(174 78.0789)" fill="white"/>
<g clip-path="url(#clip2_349_15759)">
<g filter="url(#filter6_d_349_15759)">
<path d="M196.437 96.173C196.639 94.5561 196.74 93.7477 197.142 93.1692C197.495 92.6604 198.006 92.2737 198.601 92.0645C199.278 91.8267 200.111 91.9273 201.779 92.1285L204.162 92.416C205.829 92.6172 206.663 92.7178 207.261 93.1093C207.787 93.4537 208.187 93.9503 208.405 94.528C208.652 95.1848 208.551 95.9932 208.349 97.6101L208.108 99.5349C207.889 101.286 207.78 102.162 207.345 102.789C206.962 103.34 206.409 103.759 205.764 103.986C205.031 104.243 204.128 104.134 202.321 103.916L200.336 103.677C198.668 103.476 197.834 103.375 197.236 102.984C196.711 102.639 196.31 102.142 196.093 101.565C195.845 100.908 195.946 100.1 196.148 98.4827L196.437 96.173Z" fill="url(#paint0_linear_349_15759)"/>
<path d="M196.437 96.173C196.639 94.5561 196.74 93.7477 197.142 93.1692C197.495 92.6604 198.006 92.2737 198.601 92.0645C199.278 91.8267 200.111 91.9273 201.779 92.1285L204.162 92.416C205.829 92.6172 206.663 92.7178 207.261 93.1093C207.787 93.4537 208.187 93.9503 208.405 94.528C208.652 95.1848 208.551 95.9932 208.349 97.6101L208.108 99.5349C207.889 101.286 207.78 102.162 207.345 102.789C206.962 103.34 206.409 103.759 205.764 103.986C205.031 104.243 204.128 104.134 202.321 103.916L200.336 103.677C198.668 103.476 197.834 103.375 197.236 102.984C196.711 102.639 196.31 102.142 196.093 101.565C195.845 100.908 195.946 100.1 196.148 98.4827L196.437 96.173Z" fill="url(#paint1_linear_349_15759)"/>
</g>
<g filter="url(#filter7_d_349_15759)">
<path d="M204.3 90.9688L198.308 90.6548C196.654 90.5681 195.244 91.7985 195.16 93.4029L194.856 99.2131C194.771 100.818 196.045 102.189 197.699 102.275L203.691 102.589C205.346 102.676 206.755 101.446 206.839 99.8411L207.144 94.0309C207.228 92.4265 205.955 91.0555 204.3 90.9688Z" fill="url(#paint2_linear_349_15759)"/>
<path d="M204.3 90.9688L198.308 90.6548C196.654 90.5681 195.244 91.7985 195.16 93.4029L194.856 99.2131C194.771 100.818 196.045 102.189 197.699 102.275L203.691 102.589C205.346 102.676 206.755 101.446 206.839 99.8411L207.144 94.0309C207.228 92.4265 205.955 91.0555 204.3 90.9688Z" fill="url(#paint3_linear_349_15759)"/>
</g>
<g filter="url(#filter8_d_349_15759)">
<path d="M202.324 89.1908L196.338 89.5966C194.686 89.7087 193.439 91.0988 193.555 92.7016L193.974 98.5056C194.089 100.108 195.523 101.317 197.175 101.205L203.161 100.799C204.814 100.687 206.06 99.2966 205.944 97.6939L205.526 91.8899C205.41 90.2871 203.977 89.0787 202.324 89.1908Z" fill="url(#paint4_linear_349_15759)"/>
<path d="M202.324 89.1908L196.338 89.5966C194.686 89.7087 193.439 91.0988 193.555 92.7016L193.974 98.5056C194.089 100.108 195.523 101.317 197.175 101.205L203.161 100.799C204.814 100.687 206.06 99.2966 205.944 97.6939L205.526 91.8899C205.41 90.2871 203.977 89.0787 202.324 89.1908Z" fill="url(#paint5_linear_349_15759)"/>
</g>
<path d="M197.702 92.6815C197.74 92.1472 197.325 91.6839 196.774 91.6465C196.223 91.6091 195.745 92.0119 195.707 92.5462C195.668 93.0804 196.083 93.5438 196.634 93.5812C197.185 93.6185 197.663 93.2157 197.702 92.6815Z" fill="white" fill-opacity="0.8"/>
<path d="M202.357 93.7004L196.136 94.2907C195.861 94.3167 195.658 94.5541 195.682 94.8208C195.706 95.0876 195.949 95.2826 196.224 95.2566L202.445 94.6663C202.72 94.6402 202.923 94.4028 202.899 94.1361C202.875 93.8694 202.632 93.6743 202.357 93.7004Z" fill="white" fill-opacity="0.4"/>
<path d="M200.696 95.8734L196.467 96.2886C196.192 96.3155 195.989 96.5536 196.014 96.8202C196.039 97.0868 196.282 97.2811 196.557 97.2542L200.786 96.839C201.061 96.812 201.263 96.574 201.238 96.3073C201.213 96.0407 200.97 95.8464 200.696 95.8734Z" fill="white" fill-opacity="0.4"/>
</g>
<path d="M225.116 98.4425C225.116 99.219 224.974 99.8866 224.69 100.445C224.406 101.002 224.017 101.43 223.522 101.731C223.03 102.029 222.47 102.178 221.842 102.178C221.213 102.178 220.65 102.029 220.156 101.731C219.663 101.43 219.275 101 218.991 100.442C218.707 99.8831 218.565 99.2166 218.565 98.4425C218.565 97.666 218.707 96.9995 218.991 96.4432C219.275 95.8845 219.663 95.456 220.156 95.1577C220.65 94.857 221.213 94.7067 221.842 94.7067C222.47 94.7067 223.03 94.857 223.522 95.1577C224.017 95.456 224.406 95.8845 224.69 96.4432C224.974 96.9995 225.116 97.666 225.116 98.4425ZM224.03 98.4425C224.03 97.8506 223.934 97.3523 223.742 96.9475C223.553 96.5403 223.292 96.2325 222.961 96.0242C222.632 95.8135 222.259 95.7081 221.842 95.7081C221.423 95.7081 221.049 95.8135 220.72 96.0242C220.391 96.2325 220.131 96.5403 219.939 96.9475C219.75 97.3523 219.655 97.8506 219.655 98.4425C219.655 99.0343 219.75 99.5339 219.939 99.9411C220.131 100.346 220.391 100.654 220.72 100.864C221.049 101.073 221.423 101.177 221.842 101.177C222.259 101.177 222.632 101.073 222.961 100.864C223.292 100.654 223.553 100.346 223.742 99.9411C223.934 99.5339 224.03 99.0343 224.03 98.4425ZM226.199 102.079V96.6243H227.226V97.4908H227.282C227.382 97.1972 227.557 96.9664 227.808 96.7983C228.061 96.6279 228.348 96.5426 228.667 96.5426C228.734 96.5426 228.812 96.545 228.902 96.5497C228.994 96.5545 229.066 96.5604 229.118 96.5675V97.5831C229.076 97.5713 229 97.5583 228.891 97.5441C228.782 97.5275 228.673 97.5192 228.564 97.5192C228.313 97.5192 228.09 97.5725 227.893 97.679C227.699 97.7832 227.545 97.9288 227.432 98.1158C227.318 98.3004 227.261 98.5111 227.261 98.7479V102.079H226.199ZM231.929 104.238C231.496 104.238 231.123 104.181 230.81 104.067C230.5 103.954 230.247 103.804 230.05 103.616C229.854 103.429 229.707 103.225 229.61 103.002L230.523 102.626C230.587 102.73 230.672 102.84 230.778 102.956C230.887 103.074 231.034 103.175 231.219 103.258C231.406 103.341 231.646 103.382 231.939 103.382C232.342 103.382 232.675 103.284 232.937 103.087C233.2 102.893 233.332 102.583 233.332 102.157V101.085H233.264C233.2 101.201 233.108 101.33 232.987 101.472C232.869 101.614 232.705 101.737 232.497 101.841C232.289 101.945 232.018 101.997 231.684 101.997C231.253 101.997 230.865 101.897 230.519 101.695C230.176 101.492 229.904 101.192 229.702 100.797C229.503 100.399 229.404 99.9103 229.404 99.3303C229.404 98.7503 229.502 98.2531 229.699 97.8388C229.898 97.4245 230.17 97.1073 230.515 96.8871C230.861 96.6646 231.253 96.5533 231.691 96.5533C232.029 96.5533 232.303 96.6101 232.511 96.7237C232.72 96.835 232.882 96.9652 232.998 97.1144C233.116 97.2635 233.207 97.3949 233.271 97.5085H233.349V96.6243H234.39V102.2C234.39 102.668 234.281 103.053 234.063 103.354C233.845 103.654 233.551 103.877 233.179 104.021C232.81 104.166 232.393 104.238 231.929 104.238ZM231.918 101.116C232.224 101.116 232.482 101.045 232.692 100.903C232.905 100.759 233.066 100.553 233.175 100.286C233.287 100.016 233.342 99.6925 233.342 99.3161C233.342 98.9491 233.288 98.626 233.179 98.3466C233.07 98.0673 232.91 97.8495 232.699 97.6932C232.489 97.5346 232.228 97.4553 231.918 97.4553C231.599 97.4553 231.332 97.5381 231.119 97.7039C230.906 97.8672 230.745 98.0897 230.636 98.3715C230.53 98.6532 230.476 98.9681 230.476 99.3161C230.476 99.6736 230.531 99.9872 230.64 100.257C230.749 100.527 230.91 100.738 231.123 100.889C231.338 101.041 231.603 101.116 231.918 101.116ZM237.201 102.2C236.855 102.2 236.543 102.136 236.264 102.008C235.984 101.878 235.763 101.689 235.6 101.443C235.439 101.197 235.358 100.895 235.358 100.538C235.358 100.23 235.417 99.9766 235.536 99.7777C235.654 99.5789 235.814 99.4214 236.015 99.3054C236.216 99.1894 236.441 99.1018 236.69 99.0426C236.938 98.9835 237.192 98.9385 237.45 98.9077C237.776 98.8698 238.042 98.839 238.245 98.8154C238.449 98.7893 238.597 98.7479 238.689 98.6911C238.781 98.6343 238.828 98.5419 238.828 98.4141V98.3892C238.828 98.0791 238.74 97.8388 238.565 97.6683C238.392 97.4979 238.134 97.4127 237.791 97.4127C237.433 97.4127 237.151 97.492 236.945 97.6506C236.742 97.8068 236.601 97.9808 236.523 98.1726L235.525 97.9453C235.643 97.6139 235.816 97.3464 236.043 97.1428C236.273 96.9368 236.537 96.7877 236.835 96.6953C237.134 96.6006 237.447 96.5533 237.776 96.5533C237.994 96.5533 238.225 96.5793 238.469 96.6314C238.715 96.6811 238.945 96.7735 239.158 96.9084C239.373 97.0433 239.55 97.2363 239.687 97.4872C239.824 97.7358 239.893 98.059 239.893 98.4567V102.079H238.856V101.333H238.813C238.745 101.47 238.642 101.605 238.504 101.738C238.367 101.871 238.191 101.981 237.975 102.068C237.76 102.156 237.502 102.2 237.201 102.2ZM237.432 101.347C237.726 101.347 237.976 101.289 238.185 101.173C238.396 101.057 238.555 100.906 238.664 100.719C238.775 100.529 238.831 100.327 238.831 100.112V99.4084C238.793 99.4463 238.72 99.4818 238.611 99.5149C238.504 99.5457 238.382 99.5729 238.245 99.5966C238.108 99.6179 237.974 99.638 237.844 99.657C237.714 99.6736 237.605 99.6878 237.517 99.6996C237.311 99.7256 237.123 99.7694 236.953 99.831C236.784 99.8925 236.65 99.9813 236.548 100.097C236.448 100.211 236.399 100.362 236.399 100.552C236.399 100.815 236.496 101.014 236.69 101.148C236.884 101.281 237.131 101.347 237.432 101.347ZM242.169 98.8402V102.079H241.107V96.6243H242.126V97.5121H242.194C242.319 97.2233 242.516 96.9913 242.783 96.8161C243.053 96.6409 243.393 96.5533 243.802 96.5533C244.174 96.5533 244.5 96.6314 244.779 96.7877C245.058 96.9415 245.275 97.1712 245.429 97.4766C245.583 97.782 245.66 98.1596 245.66 98.6094V102.079H244.598V98.7372C244.598 98.3419 244.495 98.0329 244.289 97.8104C244.083 97.5855 243.8 97.473 243.44 97.473C243.194 97.473 242.975 97.5263 242.783 97.6328C242.594 97.7394 242.444 97.8956 242.332 98.1016C242.223 98.3052 242.169 98.5514 242.169 98.8402ZM246.884 102.079V96.6243H247.945V102.079H246.884ZM247.42 95.7827C247.235 95.7827 247.077 95.7211 246.944 95.598C246.814 95.4726 246.749 95.3234 246.749 95.1506C246.749 94.9754 246.814 94.8263 246.944 94.7031C247.077 94.5777 247.235 94.5149 247.42 94.5149C247.605 94.5149 247.762 94.5777 247.892 94.7031C248.025 94.8263 248.091 94.9754 248.091 95.1506C248.091 95.3234 248.025 95.4726 247.892 95.598C247.762 95.7211 247.605 95.7827 247.42 95.7827ZM253.261 97.956L252.299 98.1264C252.259 98.0033 252.195 97.8861 252.107 97.7749C252.022 97.6636 251.906 97.5725 251.759 97.5014C251.612 97.4304 251.429 97.3949 251.209 97.3949C250.908 97.3949 250.657 97.4624 250.456 97.5973C250.255 97.7299 250.154 97.9015 250.154 98.1122C250.154 98.2945 250.222 98.4413 250.356 98.5526C250.491 98.6638 250.709 98.755 251.01 98.826L251.876 99.0249C252.378 99.1409 252.752 99.3196 252.999 99.5611C253.245 99.8026 253.368 100.116 253.368 100.502C253.368 100.829 253.273 101.12 253.084 101.376C252.897 101.629 252.635 101.828 252.299 101.972C251.965 102.117 251.578 102.189 251.138 102.189C250.527 102.189 250.029 102.059 249.643 101.798C249.257 101.536 249.02 101.163 248.932 100.68L249.959 100.523C250.023 100.791 250.154 100.993 250.353 101.131C250.552 101.266 250.811 101.333 251.131 101.333C251.479 101.333 251.757 101.261 251.965 101.116C252.173 100.97 252.278 100.791 252.278 100.58C252.278 100.41 252.214 100.267 252.086 100.151C251.96 100.035 251.767 99.947 251.507 99.8878L250.584 99.6854C250.075 99.5694 249.698 99.3847 249.454 99.1314C249.213 98.8781 249.092 98.5573 249.092 98.1691C249.092 97.8471 249.182 97.5654 249.362 97.3239C249.542 97.0824 249.791 96.8942 250.108 96.7593C250.425 96.6219 250.789 96.5533 251.198 96.5533C251.788 96.5533 252.252 96.6811 252.59 96.9368C252.929 97.1901 253.152 97.5299 253.261 97.956ZM256.686 102.189C256.149 102.189 255.686 102.074 255.298 101.844C254.912 101.612 254.613 101.287 254.403 100.868C254.194 100.447 254.09 99.9529 254.09 99.3871C254.09 98.8284 254.194 98.336 254.403 97.9098C254.613 97.4837 254.907 97.1511 255.283 96.912C255.662 96.6728 256.105 96.5533 256.612 96.5533C256.919 96.5533 257.218 96.6042 257.506 96.706C257.795 96.8078 258.054 96.9676 258.284 97.1854C258.514 97.4032 258.695 97.6861 258.827 98.0341C258.96 98.3798 259.026 98.8 259.026 99.2948V99.6712H254.69V98.8757H257.986C257.986 98.5964 257.929 98.349 257.815 98.1335C257.702 97.9157 257.542 97.7441 257.336 97.6186C257.132 97.4932 256.893 97.4304 256.619 97.4304C256.32 97.4304 256.06 97.5038 255.837 97.6506C255.617 97.795 255.447 97.9844 255.326 98.2188C255.208 98.4508 255.148 98.7029 255.148 98.9752V99.5966C255.148 99.9612 255.212 100.271 255.34 100.527C255.47 100.783 255.652 100.978 255.884 101.113C256.116 101.246 256.387 101.312 256.697 101.312C256.898 101.312 257.081 101.283 257.247 101.227C257.413 101.167 257.556 101.08 257.677 100.964C257.798 100.848 257.89 100.705 257.954 100.534L258.959 100.715C258.878 101.011 258.734 101.27 258.526 101.493C258.32 101.713 258.06 101.885 257.748 102.008C257.438 102.129 257.084 102.189 256.686 102.189ZM263.96 102.079L261.943 94.8061H263.097L264.514 100.438H264.582L266.055 94.8061H267.199L268.672 100.442H268.74L270.153 94.8061H271.311L269.29 102.079H268.186L266.655 96.6314H266.599L265.068 102.079H263.96ZM272.026 102.079V96.6243H273.088V102.079H272.026ZM272.562 95.7827C272.378 95.7827 272.219 95.7211 272.087 95.598C271.956 95.4726 271.891 95.3234 271.891 95.1506C271.891 94.9754 271.956 94.8263 272.087 94.7031C272.219 94.5777 272.378 94.5149 272.562 94.5149C272.747 94.5149 272.905 94.5777 273.035 94.7031C273.167 94.8263 273.234 94.9754 273.234 95.1506C273.234 95.3234 273.167 95.4726 273.035 95.598C272.905 95.7211 272.747 95.7827 272.562 95.7827ZM274.203 102.079V101.351L277.157 97.5973V97.5476H274.299V96.6243H278.482V97.3985L275.641 101.106V101.156H278.581V102.079H274.203Z" fill="black" fill-opacity="0.8"/>
<path d="M394.765 102.314C394.802 102.348 394.831 102.39 394.852 102.436C394.872 102.482 394.883 102.531 394.884 102.582C394.885 102.632 394.876 102.682 394.857 102.729C394.838 102.775 394.81 102.818 394.774 102.853C394.739 102.889 394.696 102.917 394.65 102.936C394.603 102.955 394.553 102.964 394.503 102.963C394.452 102.962 394.403 102.951 394.357 102.931C394.311 102.91 394.269 102.881 394.235 102.844L390 98.6094L385.765 102.844C385.694 102.91 385.6 102.946 385.503 102.944C385.406 102.943 385.313 102.903 385.244 102.835C385.175 102.766 385.136 102.673 385.134 102.576C385.133 102.479 385.169 102.385 385.235 102.314L389.469 98.0788L385.235 93.8438C385.169 93.7727 385.133 93.6787 385.134 93.5815C385.136 93.4844 385.175 93.3917 385.244 93.323C385.313 93.2543 385.406 93.2149 385.503 93.2132C385.6 93.2115 385.694 93.2475 385.765 93.3138L390 97.5482L394.235 93.3138C394.306 93.2475 394.4 93.2115 394.497 93.2132C394.594 93.2149 394.687 93.2543 394.756 93.323C394.824 93.3917 394.864 93.4844 394.866 93.5815C394.867 93.6787 394.831 93.7727 394.765 93.8438L390.531 98.0788L394.765 102.314Z" fill="#343330"/>
<mask id="path-19-outside-1_349_15759" maskUnits="userSpaceOnUse" x="174" y="117.079" width="240" height="41" fill="black">
<rect fill="white" x="174" y="117.079" width="240" height="41"/>
<path d="M174 118.079H414V158.079H174V118.079Z"/>
</mask>
<path d="M174 118.079H414V158.079H174V118.079Z" fill="white"/>
<path d="M197.637 137.278H196.176C196.134 137.038 196.057 136.826 195.945 136.641C195.833 136.454 195.694 136.295 195.527 136.165C195.361 136.035 195.171 135.937 194.957 135.872C194.746 135.804 194.518 135.77 194.273 135.77C193.839 135.77 193.453 135.88 193.117 136.098C192.781 136.315 192.518 136.632 192.328 137.052C192.138 137.468 192.043 137.977 192.043 138.579C192.043 139.191 192.138 139.706 192.328 140.126C192.521 140.542 192.784 140.858 193.117 141.071C193.453 141.282 193.837 141.387 194.27 141.387C194.509 141.387 194.733 141.356 194.941 141.294C195.152 141.229 195.341 141.134 195.508 141.009C195.677 140.884 195.819 140.73 195.934 140.548C196.051 140.365 196.132 140.157 196.176 139.923L197.637 139.93C197.582 140.311 197.464 140.667 197.281 141.001C197.102 141.334 196.866 141.628 196.574 141.884C196.283 142.136 195.941 142.334 195.551 142.477C195.16 142.618 194.727 142.688 194.25 142.688C193.547 142.688 192.919 142.525 192.367 142.2C191.815 141.874 191.38 141.404 191.063 140.79C190.745 140.175 190.586 139.438 190.586 138.579C190.586 137.717 190.746 136.98 191.066 136.368C191.387 135.753 191.823 135.283 192.375 134.958C192.927 134.632 193.552 134.469 194.25 134.469C194.695 134.469 195.109 134.532 195.492 134.657C195.875 134.782 196.216 134.966 196.516 135.208C196.815 135.447 197.061 135.742 197.254 136.091C197.449 136.437 197.577 136.833 197.637 137.278ZM202.506 140.055V136.579H203.92V142.579H202.549V141.512H202.486C202.351 141.848 202.128 142.123 201.818 142.337C201.511 142.55 201.132 142.657 200.681 142.657C200.288 142.657 199.94 142.57 199.638 142.395C199.339 142.218 199.105 141.962 198.935 141.626C198.766 141.287 198.681 140.878 198.681 140.399V136.579H200.095V140.18C200.095 140.561 200.2 140.863 200.408 141.087C200.616 141.311 200.89 141.423 201.228 141.423C201.437 141.423 201.638 141.372 201.834 141.27C202.029 141.169 202.189 141.018 202.314 140.817C202.442 140.614 202.506 140.36 202.506 140.055ZM209.896 138.165L208.607 138.305C208.57 138.175 208.507 138.053 208.415 137.938C208.327 137.824 208.207 137.731 208.056 137.661C207.905 137.591 207.72 137.555 207.501 137.555C207.207 137.555 206.96 137.619 206.759 137.747C206.561 137.874 206.464 138.04 206.466 138.243C206.464 138.417 206.527 138.559 206.658 138.669C206.79 138.778 207.009 138.868 207.314 138.938L208.337 139.157C208.905 139.279 209.327 139.473 209.603 139.739C209.882 140.005 210.022 140.352 210.025 140.782C210.022 141.16 209.912 141.493 209.693 141.782C209.477 142.068 209.176 142.292 208.79 142.454C208.405 142.615 207.962 142.696 207.462 142.696C206.728 142.696 206.137 142.542 205.689 142.235C205.241 141.925 204.974 141.494 204.888 140.942L206.267 140.809C206.33 141.08 206.462 141.285 206.665 141.423C206.869 141.561 207.133 141.63 207.458 141.63C207.794 141.63 208.064 141.561 208.267 141.423C208.473 141.285 208.576 141.114 208.576 140.911C208.576 140.739 208.509 140.597 208.376 140.485C208.246 140.373 208.043 140.287 207.767 140.227L206.744 140.012C206.168 139.893 205.742 139.691 205.466 139.407C205.19 139.121 205.053 138.759 205.056 138.321C205.053 137.951 205.154 137.631 205.357 137.36C205.563 137.087 205.848 136.876 206.212 136.727C206.58 136.576 207.003 136.501 207.482 136.501C208.185 136.501 208.738 136.65 209.142 136.95C209.548 137.249 209.8 137.654 209.896 138.165ZM213.967 136.579V137.673H210.518V136.579H213.967ZM211.369 135.141H212.783V140.774C212.783 140.964 212.812 141.11 212.869 141.212C212.929 141.311 213.007 141.378 213.104 141.415C213.2 141.451 213.307 141.469 213.424 141.469C213.513 141.469 213.593 141.463 213.666 141.45C213.742 141.437 213.799 141.425 213.838 141.415L214.076 142.52C214.001 142.546 213.893 142.575 213.752 142.606C213.614 142.637 213.445 142.656 213.244 142.661C212.89 142.671 212.571 142.618 212.287 142.501C212.003 142.381 211.778 142.196 211.611 141.946C211.447 141.696 211.367 141.384 211.369 141.009V135.141ZM217.482 142.696C216.896 142.696 216.389 142.567 215.959 142.309C215.529 142.052 215.196 141.691 214.959 141.227C214.724 140.764 214.607 140.222 214.607 139.602C214.607 138.983 214.724 138.44 214.959 137.973C215.196 137.507 215.529 137.145 215.959 136.887C216.389 136.63 216.896 136.501 217.482 136.501C218.068 136.501 218.576 136.63 219.006 136.887C219.435 137.145 219.767 137.507 220.002 137.973C220.239 138.44 220.357 138.983 220.357 139.602C220.357 140.222 220.239 140.764 220.002 141.227C219.767 141.691 219.435 142.052 219.006 142.309C218.576 142.567 218.068 142.696 217.482 142.696ZM217.49 141.563C217.808 141.563 218.073 141.476 218.287 141.302C218.501 141.124 218.659 140.887 218.764 140.591C218.87 140.294 218.924 139.963 218.924 139.598C218.924 139.231 218.87 138.899 218.764 138.602C218.659 138.303 218.501 138.065 218.287 137.887C218.073 137.71 217.808 137.622 217.49 137.622C217.165 137.622 216.894 137.71 216.678 137.887C216.464 138.065 216.304 138.303 216.197 138.602C216.093 138.899 216.041 139.231 216.041 139.598C216.041 139.963 216.093 140.294 216.197 140.591C216.304 140.887 216.464 141.124 216.678 141.302C216.894 141.476 217.165 141.563 217.49 141.563ZM221.337 142.579V136.579H222.689V137.598H222.759C222.884 137.255 223.091 136.986 223.38 136.794C223.67 136.598 224.015 136.501 224.416 136.501C224.822 136.501 225.164 136.6 225.443 136.798C225.724 136.993 225.922 137.26 226.037 137.598H226.099C226.232 137.265 226.456 136.999 226.771 136.802C227.089 136.601 227.465 136.501 227.9 136.501C228.452 136.501 228.903 136.675 229.252 137.024C229.601 137.373 229.775 137.882 229.775 138.552V142.579H228.357V138.77C228.357 138.398 228.258 138.126 228.06 137.954C227.862 137.779 227.62 137.692 227.334 137.692C226.992 137.692 226.726 137.799 226.533 138.012C226.343 138.223 226.248 138.498 226.248 138.837V142.579H224.861V138.712C224.861 138.402 224.767 138.154 224.58 137.969C224.395 137.785 224.153 137.692 223.853 137.692C223.65 137.692 223.465 137.744 223.298 137.848C223.132 137.95 222.999 138.094 222.9 138.282C222.801 138.467 222.752 138.683 222.752 138.93V142.579H221.337Z" fill="black" fill-opacity="0.8"/>
<path d="M247.484 135.618V134.579H253.676V135.618H251.18V142.579H249.977V135.618H247.484ZM256.446 142.7C255.855 142.7 255.346 142.574 254.919 142.321C254.494 142.066 254.166 141.708 253.934 141.247C253.705 140.783 253.591 140.24 253.591 139.618C253.591 139.003 253.705 138.462 253.934 137.993C254.166 137.524 254.489 137.158 254.903 136.895C255.32 136.632 255.807 136.501 256.364 136.501C256.703 136.501 257.031 136.557 257.348 136.669C257.666 136.781 257.951 136.956 258.204 137.196C258.456 137.436 258.656 137.747 258.801 138.13C258.947 138.51 259.02 138.972 259.02 139.516V139.93H254.251V139.055H257.876C257.876 138.748 257.813 138.476 257.688 138.239C257.563 137.999 257.387 137.811 257.161 137.673C256.937 137.535 256.674 137.466 256.372 137.466C256.044 137.466 255.757 137.546 255.512 137.708C255.27 137.867 255.083 138.075 254.95 138.333C254.82 138.588 254.755 138.865 254.755 139.165V139.848C254.755 140.249 254.825 140.591 254.966 140.872C255.109 141.153 255.308 141.368 255.563 141.516C255.818 141.662 256.117 141.735 256.458 141.735C256.679 141.735 256.881 141.704 257.063 141.641C257.245 141.576 257.403 141.48 257.536 141.352C257.669 141.225 257.77 141.067 257.841 140.88L258.946 141.079C258.857 141.404 258.699 141.69 258.469 141.934C258.243 142.177 257.958 142.365 257.614 142.501C257.273 142.634 256.884 142.7 256.446 142.7ZM260.096 142.579V136.579H261.217V137.555H261.291C261.416 137.225 261.621 136.967 261.905 136.782C262.189 136.594 262.528 136.501 262.924 136.501C263.325 136.501 263.661 136.594 263.932 136.782C264.206 136.969 264.407 137.227 264.538 137.555H264.6C264.743 137.235 264.971 136.98 265.284 136.79C265.596 136.597 265.969 136.501 266.401 136.501C266.945 136.501 267.389 136.671 267.733 137.012C268.079 137.354 268.252 137.868 268.252 138.555V142.579H267.084V138.665C267.084 138.259 266.974 137.964 266.752 137.782C266.531 137.6 266.267 137.509 265.959 137.509C265.579 137.509 265.284 137.626 265.073 137.86C264.862 138.092 264.756 138.39 264.756 138.755V142.579H263.592V138.591C263.592 138.265 263.491 138.003 263.288 137.805C263.084 137.608 262.82 137.509 262.495 137.509C262.273 137.509 262.069 137.567 261.881 137.684C261.696 137.799 261.547 137.959 261.432 138.165C261.32 138.371 261.264 138.609 261.264 138.88V142.579H260.096ZM269.598 144.829V136.579H270.738V137.552H270.836C270.904 137.427 271.001 137.282 271.129 137.118C271.257 136.954 271.434 136.811 271.66 136.688C271.887 136.563 272.186 136.501 272.559 136.501C273.043 136.501 273.475 136.623 273.856 136.868C274.236 137.113 274.534 137.466 274.75 137.927C274.969 138.387 275.078 138.942 275.078 139.591C275.078 140.239 274.97 140.795 274.754 141.259C274.538 141.719 274.241 142.075 273.863 142.325C273.486 142.572 273.055 142.696 272.57 142.696C272.206 142.696 271.908 142.635 271.676 142.512C271.447 142.39 271.267 142.247 271.137 142.083C271.007 141.919 270.906 141.773 270.836 141.645H270.766V144.829H269.598ZM270.742 139.579C270.742 140.001 270.804 140.371 270.926 140.688C271.048 141.006 271.225 141.255 271.457 141.434C271.689 141.611 271.973 141.7 272.309 141.7C272.658 141.7 272.949 141.608 273.184 141.423C273.418 141.235 273.595 140.981 273.715 140.661C273.837 140.341 273.899 139.98 273.899 139.579C273.899 139.183 273.839 138.828 273.719 138.512C273.602 138.197 273.425 137.949 273.188 137.766C272.953 137.584 272.66 137.493 272.309 137.493C271.97 137.493 271.684 137.58 271.449 137.755C271.218 137.929 271.042 138.173 270.922 138.485C270.802 138.798 270.742 139.162 270.742 139.579ZM277.335 134.579V142.579H276.167V134.579H277.335ZM280.432 142.712C280.052 142.712 279.708 142.641 279.401 142.501C279.094 142.358 278.85 142.15 278.671 141.88C278.493 141.609 278.405 141.277 278.405 140.884C278.405 140.545 278.47 140.266 278.6 140.048C278.73 139.829 278.906 139.656 279.128 139.528C279.349 139.4 279.596 139.304 279.87 139.239C280.143 139.174 280.422 139.124 280.706 139.091C281.065 139.049 281.357 139.015 281.581 138.989C281.805 138.96 281.967 138.915 282.069 138.852C282.171 138.79 282.221 138.688 282.221 138.548V138.52C282.221 138.179 282.125 137.915 281.932 137.727C281.742 137.54 281.458 137.446 281.081 137.446C280.687 137.446 280.378 137.533 280.151 137.708C279.927 137.88 279.772 138.071 279.686 138.282L278.588 138.032C278.719 137.667 278.909 137.373 279.159 137.149C279.411 136.923 279.702 136.759 280.03 136.657C280.358 136.553 280.703 136.501 281.065 136.501C281.305 136.501 281.559 136.529 281.827 136.587C282.098 136.641 282.35 136.743 282.585 136.891C282.822 137.04 283.016 137.252 283.167 137.528C283.318 137.802 283.393 138.157 283.393 138.594V142.579H282.253V141.759H282.206C282.13 141.91 282.017 142.058 281.866 142.204C281.715 142.35 281.521 142.471 281.284 142.567C281.047 142.663 280.763 142.712 280.432 142.712ZM280.686 141.774C281.009 141.774 281.285 141.71 281.514 141.583C281.746 141.455 281.922 141.288 282.042 141.083C282.164 140.874 282.225 140.652 282.225 140.415V139.641C282.184 139.683 282.103 139.722 281.983 139.759C281.866 139.792 281.732 139.822 281.581 139.848C281.43 139.872 281.282 139.894 281.139 139.915C280.996 139.933 280.876 139.949 280.78 139.962C280.553 139.99 280.346 140.038 280.159 140.106C279.974 140.174 279.825 140.272 279.713 140.399C279.604 140.524 279.549 140.691 279.549 140.899C279.549 141.188 279.656 141.407 279.87 141.555C280.083 141.701 280.355 141.774 280.686 141.774ZM287.53 136.579V137.516H284.252V136.579H287.53ZM285.131 135.141H286.299V140.817C286.299 141.044 286.333 141.214 286.401 141.329C286.468 141.441 286.556 141.518 286.662 141.559C286.772 141.598 286.89 141.618 287.018 141.618C287.112 141.618 287.194 141.611 287.264 141.598C287.334 141.585 287.389 141.575 287.428 141.567L287.639 142.532C287.571 142.558 287.475 142.584 287.35 142.61C287.225 142.639 287.069 142.654 286.881 142.657C286.574 142.662 286.287 142.608 286.022 142.493C285.756 142.378 285.541 142.201 285.377 141.962C285.213 141.722 285.131 141.421 285.131 141.059V135.141ZM291.123 142.7C290.532 142.7 290.023 142.574 289.596 142.321C289.171 142.066 288.843 141.708 288.611 141.247C288.382 140.783 288.268 140.24 288.268 139.618C288.268 139.003 288.382 138.462 288.611 137.993C288.843 137.524 289.166 137.158 289.58 136.895C289.997 136.632 290.484 136.501 291.041 136.501C291.38 136.501 291.708 136.557 292.025 136.669C292.343 136.781 292.628 136.956 292.881 137.196C293.134 137.436 293.333 137.747 293.479 138.13C293.624 138.51 293.697 138.972 293.697 139.516V139.93H288.928V139.055H292.553C292.553 138.748 292.49 138.476 292.365 138.239C292.24 137.999 292.064 137.811 291.838 137.673C291.614 137.535 291.351 137.466 291.049 137.466C290.721 137.466 290.434 137.546 290.189 137.708C289.947 137.867 289.76 138.075 289.627 138.333C289.497 138.588 289.432 138.865 289.432 139.165V139.848C289.432 140.249 289.502 140.591 289.643 140.872C289.786 141.153 289.985 141.368 290.24 141.516C290.495 141.662 290.794 141.735 291.135 141.735C291.356 141.735 291.558 141.704 291.74 141.641C291.923 141.576 292.08 141.48 292.213 141.352C292.346 141.225 292.447 141.067 292.518 140.88L293.623 141.079C293.535 141.404 293.376 141.69 293.147 141.934C292.92 142.177 292.635 142.365 292.291 142.501C291.95 142.634 291.561 142.7 291.123 142.7ZM299.269 138.044L298.211 138.231C298.166 138.096 298.096 137.967 298 137.844C297.906 137.722 297.778 137.622 297.617 137.544C297.455 137.466 297.254 137.427 297.011 137.427C296.681 137.427 296.405 137.501 296.183 137.649C295.962 137.795 295.851 137.984 295.851 138.216C295.851 138.416 295.926 138.578 296.074 138.7C296.222 138.822 296.462 138.923 296.793 139.001L297.746 139.219C298.298 139.347 298.709 139.544 298.98 139.809C299.251 140.075 299.386 140.42 299.386 140.844C299.386 141.204 299.282 141.524 299.074 141.805C298.868 142.084 298.58 142.303 298.211 142.462C297.844 142.621 297.418 142.7 296.933 142.7C296.261 142.7 295.713 142.557 295.289 142.27C294.864 141.981 294.604 141.571 294.508 141.04L295.636 140.868C295.707 141.162 295.851 141.385 296.07 141.536C296.289 141.684 296.574 141.759 296.926 141.759C297.308 141.759 297.614 141.679 297.844 141.52C298.073 141.359 298.187 141.162 298.187 140.93C298.187 140.743 298.117 140.585 297.976 140.458C297.838 140.33 297.626 140.234 297.34 140.169L296.324 139.946C295.764 139.818 295.35 139.615 295.082 139.337C294.816 139.058 294.683 138.705 294.683 138.278C294.683 137.924 294.782 137.614 294.98 137.348C295.178 137.083 295.452 136.876 295.801 136.727C296.15 136.576 296.549 136.501 297 136.501C297.648 136.501 298.159 136.641 298.531 136.923C298.903 137.201 299.15 137.575 299.269 138.044Z" fill="black" fill-opacity="0.3"/>
<path d="M306 132.329C305.357 132.329 304.729 132.519 304.194 132.877C303.66 133.234 303.243 133.741 302.997 134.335C302.751 134.929 302.687 135.582 302.812 136.213C302.938 136.843 303.247 137.422 303.702 137.877C304.156 138.331 304.736 138.641 305.366 138.766C305.996 138.892 306.65 138.827 307.244 138.581C307.838 138.335 308.345 137.919 308.702 137.384C309.059 136.85 309.25 136.222 309.25 135.579C309.249 134.717 308.906 133.891 308.297 133.282C307.688 132.672 306.862 132.33 306 132.329ZM306 138.329C305.456 138.329 304.924 138.168 304.472 137.865C304.02 137.563 303.667 137.134 303.459 136.631C303.251 136.129 303.197 135.576 303.303 135.042C303.409 134.509 303.671 134.019 304.055 133.634C304.44 133.25 304.93 132.988 305.464 132.882C305.997 132.776 306.55 132.83 307.052 133.038C307.555 133.246 307.984 133.599 308.287 134.051C308.589 134.503 308.75 135.035 308.75 135.579C308.749 136.308 308.459 137.007 307.944 137.522C307.428 138.038 306.729 138.328 306 138.329ZM306.5 137.079C306.5 137.145 306.474 137.209 306.427 137.256C306.38 137.303 306.316 137.329 306.25 137.329C306.117 137.329 305.99 137.276 305.896 137.182C305.803 137.089 305.75 136.961 305.75 136.829V135.579C305.684 135.579 305.62 135.553 305.573 135.506C305.526 135.459 305.5 135.395 305.5 135.329C305.5 135.263 305.526 135.199 305.573 135.152C305.62 135.105 305.684 135.079 305.75 135.079C305.883 135.079 306.01 135.132 306.104 135.225C306.197 135.319 306.25 135.446 306.25 135.579V136.829C306.316 136.829 306.38 136.855 306.427 136.902C306.474 136.949 306.5 137.013 306.5 137.079ZM305.5 134.204C305.5 134.13 305.522 134.057 305.563 133.996C305.604 133.934 305.663 133.886 305.731 133.857C305.8 133.829 305.875 133.822 305.948 133.836C306.021 133.851 306.088 133.886 306.14 133.939C306.193 133.991 306.228 134.058 306.243 134.131C306.257 134.203 306.25 134.279 306.221 134.347C306.193 134.416 306.145 134.474 306.083 134.516C306.022 134.557 305.949 134.579 305.875 134.579C305.776 134.579 305.68 134.539 305.61 134.469C305.54 134.399 305.5 134.303 305.5 134.204Z" fill="#3F8AE2"/>
<path d="M174 119.079H414V117.079H174V119.079Z" fill="black" fill-opacity="0.1" mask="url(#path-19-outside-1_349_15759)"/>
<mask id="path-24-outside-2_349_15759" maskUnits="userSpaceOnUse" x="174" y="159.079" width="240" height="41" fill="black">
<rect fill="white" x="174" y="159.079" width="240" height="41"/>
<path d="M174 160.079H414V200.079H174V160.079Z"/>
</mask>
<path d="M174 160.079H414V200.079H174V160.079Z" fill="white"/>
<path d="M190.789 184.579V176.579H193.789C194.404 176.579 194.919 176.693 195.336 176.923C195.755 177.152 196.072 177.467 196.285 177.868C196.501 178.266 196.609 178.719 196.609 179.227C196.609 179.74 196.501 180.196 196.285 180.594C196.069 180.993 195.75 181.307 195.328 181.536C194.906 181.762 194.387 181.876 193.77 181.876H191.781V180.684H193.574C193.934 180.684 194.228 180.622 194.457 180.497C194.686 180.372 194.855 180.2 194.965 179.981C195.077 179.762 195.133 179.511 195.133 179.227C195.133 178.943 195.077 178.693 194.965 178.477C194.855 178.261 194.685 178.093 194.453 177.973C194.224 177.851 193.928 177.79 193.566 177.79H192.238V184.579H190.789ZM199.205 184.7C198.825 184.7 198.482 184.632 198.177 184.497C197.875 184.359 197.636 184.156 197.459 183.887C197.284 183.619 197.197 183.288 197.197 182.895C197.197 182.557 197.259 182.277 197.384 182.055C197.509 181.834 197.68 181.657 197.896 181.524C198.112 181.391 198.356 181.291 198.627 181.223C198.9 181.153 199.183 181.102 199.474 181.071C199.826 181.035 200.111 181.002 200.33 180.973C200.549 180.942 200.707 180.895 200.806 180.833C200.908 180.768 200.959 180.667 200.959 180.532V180.509C200.959 180.214 200.871 179.986 200.697 179.825C200.523 179.663 200.271 179.583 199.943 179.583C199.597 179.583 199.322 179.658 199.119 179.809C198.918 179.96 198.783 180.139 198.713 180.344L197.392 180.157C197.496 179.792 197.668 179.488 197.908 179.243C198.148 178.996 198.44 178.811 198.787 178.688C199.133 178.563 199.516 178.501 199.935 178.501C200.224 178.501 200.512 178.535 200.799 178.602C201.085 178.67 201.347 178.782 201.584 178.938C201.821 179.092 202.011 179.302 202.154 179.567C202.3 179.833 202.373 180.165 202.373 180.563V184.579H201.013V183.755H200.967C200.881 183.921 200.759 184.078 200.603 184.223C200.45 184.367 200.256 184.483 200.021 184.571C199.789 184.657 199.517 184.7 199.205 184.7ZM199.572 183.661C199.856 183.661 200.102 183.605 200.31 183.493C200.519 183.378 200.679 183.227 200.791 183.04C200.905 182.852 200.963 182.648 200.963 182.427V181.719C200.918 181.756 200.843 181.79 200.736 181.821C200.632 181.852 200.515 181.88 200.384 181.903C200.254 181.927 200.125 181.947 199.998 181.966C199.87 181.984 199.759 181.999 199.666 182.012C199.455 182.041 199.266 182.088 199.099 182.153C198.933 182.218 198.801 182.309 198.705 182.427C198.608 182.541 198.56 182.69 198.56 182.872C198.56 183.132 198.655 183.329 198.845 183.462C199.036 183.594 199.278 183.661 199.572 183.661ZM206.184 186.954C205.676 186.954 205.24 186.885 204.875 186.747C204.511 186.611 204.218 186.429 203.997 186.2C203.775 185.971 203.622 185.717 203.536 185.438L204.809 185.13C204.866 185.247 204.95 185.363 205.059 185.477C205.168 185.594 205.316 185.691 205.5 185.766C205.688 185.844 205.924 185.884 206.207 185.884C206.609 185.884 206.941 185.786 207.204 185.591C207.467 185.398 207.598 185.08 207.598 184.637V183.501H207.528C207.455 183.647 207.348 183.796 207.207 183.95C207.069 184.104 206.886 184.233 206.657 184.337C206.43 184.441 206.145 184.493 205.801 184.493C205.34 184.493 204.922 184.385 204.547 184.169C204.175 183.95 203.878 183.624 203.657 183.192C203.438 182.757 203.329 182.213 203.329 181.559C203.329 180.9 203.438 180.344 203.657 179.891C203.878 179.436 204.176 179.091 204.551 178.856C204.926 178.619 205.344 178.501 205.805 178.501C206.157 178.501 206.446 178.561 206.672 178.68C206.901 178.798 207.084 178.94 207.219 179.106C207.355 179.27 207.457 179.425 207.528 179.571H207.606V178.579H209V184.677C209 185.19 208.878 185.614 208.633 185.95C208.388 186.286 208.054 186.537 207.629 186.704C207.205 186.871 206.723 186.954 206.184 186.954ZM206.196 183.384C206.495 183.384 206.75 183.311 206.961 183.165C207.172 183.019 207.332 182.809 207.442 182.536C207.551 182.262 207.606 181.934 207.606 181.552C207.606 181.174 207.551 180.843 207.442 180.559C207.335 180.275 207.176 180.055 206.965 179.899C206.757 179.74 206.5 179.661 206.196 179.661C205.881 179.661 205.618 179.743 205.407 179.907C205.196 180.071 205.037 180.296 204.93 180.583C204.823 180.867 204.77 181.19 204.77 181.552C204.77 181.919 204.823 182.24 204.93 182.516C205.039 182.79 205.2 183.003 205.411 183.157C205.624 183.308 205.886 183.384 206.196 183.384ZM212.886 184.696C212.284 184.696 211.765 184.571 211.327 184.321C210.892 184.068 210.558 183.712 210.323 183.251C210.089 182.787 209.972 182.242 209.972 181.614C209.972 180.997 210.089 180.455 210.323 179.989C210.56 179.52 210.891 179.156 211.316 178.895C211.74 178.632 212.239 178.501 212.812 178.501C213.181 178.501 213.53 178.561 213.859 178.68C214.189 178.798 214.481 178.98 214.734 179.227C214.989 179.475 215.189 179.79 215.335 180.173C215.481 180.553 215.554 181.006 215.554 181.532V181.966H210.636V181.012H214.198C214.196 180.742 214.137 180.501 214.023 180.29C213.908 180.076 213.748 179.908 213.542 179.786C213.339 179.663 213.102 179.602 212.831 179.602C212.542 179.602 212.288 179.673 212.069 179.813C211.851 179.951 211.68 180.134 211.558 180.36C211.438 180.584 211.377 180.83 211.374 181.098V181.93C211.374 182.279 211.438 182.579 211.566 182.829C211.693 183.076 211.872 183.266 212.101 183.399C212.33 183.529 212.598 183.594 212.905 183.594C213.111 183.594 213.297 183.566 213.464 183.509C213.631 183.449 213.775 183.361 213.898 183.247C214.02 183.132 214.112 182.99 214.175 182.821L215.495 182.969C215.412 183.318 215.253 183.623 215.019 183.884C214.787 184.141 214.49 184.342 214.128 184.485C213.766 184.626 213.352 184.696 212.886 184.696ZM221.272 180.165L219.983 180.305C219.947 180.175 219.883 180.053 219.792 179.938C219.703 179.824 219.584 179.731 219.433 179.661C219.281 179.591 219.097 179.555 218.878 179.555C218.584 179.555 218.336 179.619 218.136 179.747C217.938 179.874 217.84 180.04 217.843 180.243C217.84 180.417 217.904 180.559 218.034 180.669C218.167 180.778 218.386 180.868 218.69 180.938L219.714 181.157C220.281 181.279 220.703 181.473 220.979 181.739C221.258 182.005 221.399 182.352 221.401 182.782C221.399 183.16 221.288 183.493 221.069 183.782C220.853 184.068 220.552 184.292 220.167 184.454C219.781 184.615 219.339 184.696 218.839 184.696C218.104 184.696 217.513 184.542 217.065 184.235C216.617 183.925 216.35 183.494 216.265 182.942L217.643 182.809C217.706 183.08 217.839 183.285 218.042 183.423C218.245 183.561 218.509 183.63 218.835 183.63C219.171 183.63 219.44 183.561 219.643 183.423C219.849 183.285 219.952 183.114 219.952 182.911C219.952 182.739 219.886 182.597 219.753 182.485C219.623 182.373 219.419 182.287 219.143 182.227L218.12 182.012C217.544 181.893 217.119 181.691 216.843 181.407C216.567 181.121 216.43 180.759 216.433 180.321C216.43 179.951 216.53 179.631 216.733 179.36C216.939 179.087 217.224 178.876 217.589 178.727C217.956 178.576 218.379 178.501 218.858 178.501C219.561 178.501 220.115 178.65 220.518 178.95C220.925 179.249 221.176 179.654 221.272 180.165Z" fill="black" fill-opacity="0.8"/>
<path d="M392 180.079C392 180.211 391.947 180.339 391.854 180.432C391.76 180.526 391.633 180.579 391.5 180.579H386.5V185.579C386.5 185.711 386.447 185.839 386.354 185.932C386.26 186.026 386.133 186.079 386 186.079C385.867 186.079 385.74 186.026 385.646 185.932C385.553 185.839 385.5 185.711 385.5 185.579V180.579H380.5C380.367 180.579 380.24 180.526 380.146 180.432C380.053 180.339 380 180.211 380 180.079C380 179.946 380.053 179.819 380.146 179.725C380.24 179.632 380.367 179.579 380.5 179.579H385.5V174.579C385.5 174.446 385.553 174.319 385.646 174.225C385.74 174.132 385.867 174.079 386 174.079C386.133 174.079 386.26 174.132 386.354 174.225C386.447 174.319 386.5 174.446 386.5 174.579V179.579H391.5C391.633 179.579 391.76 179.632 391.854 179.725C391.947 179.819 392 179.946 392 180.079Z" fill="black" fill-opacity="0.8"/>
<path d="M174 161.079H414V159.079H174V161.079Z" fill="black" fill-opacity="0.1" mask="url(#path-24-outside-2_349_15759)"/>
<rect width="240" height="50" transform="translate(174 202.079)" fill="white"/>
<path d="M192.5 222.829C192.5 222.977 192.456 223.122 192.374 223.246C192.291 223.369 192.174 223.465 192.037 223.522C191.9 223.579 191.749 223.593 191.604 223.564C191.458 223.536 191.325 223.464 191.22 223.359C191.115 223.254 191.043 223.121 191.014 222.975C190.985 222.83 191 222.679 191.057 222.542C191.114 222.405 191.21 222.288 191.333 222.205C191.457 222.123 191.602 222.079 191.75 222.079C191.949 222.079 192.14 222.158 192.28 222.299C192.421 222.439 192.5 222.63 192.5 222.829ZM196.25 223.579C196.398 223.579 196.543 223.535 196.667 223.452C196.79 223.37 196.886 223.253 196.943 223.116C197 222.979 197.015 222.828 196.986 222.683C196.957 222.537 196.885 222.403 196.78 222.299C196.675 222.194 196.542 222.122 196.396 222.093C196.251 222.064 196.1 222.079 195.963 222.136C195.826 222.193 195.709 222.289 195.626 222.412C195.544 222.536 195.5 222.681 195.5 222.829C195.5 223.028 195.579 223.219 195.72 223.359C195.86 223.5 196.051 223.579 196.25 223.579ZM191.75 226.329C191.602 226.329 191.457 226.373 191.333 226.455C191.21 226.538 191.114 226.655 191.057 226.792C191 226.929 190.985 227.08 191.014 227.225C191.043 227.371 191.115 227.504 191.22 227.609C191.325 227.714 191.458 227.786 191.604 227.814C191.749 227.843 191.9 227.829 192.037 227.772C192.174 227.715 192.291 227.619 192.374 227.496C192.456 227.372 192.5 227.227 192.5 227.079C192.5 226.88 192.421 226.689 192.28 226.549C192.14 226.408 191.949 226.329 191.75 226.329ZM196.25 226.329C196.102 226.329 195.957 226.373 195.833 226.455C195.71 226.538 195.614 226.655 195.557 226.792C195.5 226.929 195.485 227.08 195.514 227.225C195.543 227.371 195.615 227.504 195.72 227.609C195.825 227.714 195.958 227.786 196.104 227.814C196.249 227.843 196.4 227.829 196.537 227.772C196.674 227.715 196.791 227.619 196.874 227.496C196.956 227.372 197 227.227 197 227.079C197 226.88 196.921 226.689 196.78 226.549C196.64 226.408 196.449 226.329 196.25 226.329ZM191.75 230.579C191.602 230.579 191.457 230.623 191.333 230.705C191.21 230.788 191.114 230.905 191.057 231.042C191 231.179 190.985 231.33 191.014 231.475C191.043 231.621 191.115 231.754 191.22 231.859C191.325 231.964 191.458 232.036 191.604 232.064C191.749 232.093 191.9 232.079 192.037 232.022C192.174 231.965 192.291 231.869 192.374 231.746C192.456 231.622 192.5 231.477 192.5 231.329C192.5 231.13 192.421 230.939 192.28 230.799C192.14 230.658 191.949 230.579 191.75 230.579ZM196.25 230.579C196.102 230.579 195.957 230.623 195.833 230.705C195.71 230.788 195.614 230.905 195.557 231.042C195.5 231.179 195.485 231.33 195.514 231.475C195.543 231.621 195.615 231.754 195.72 231.859C195.825 231.964 195.958 232.036 196.104 232.064C196.249 232.093 196.4 232.079 196.537 232.022C196.674 231.965 196.791 231.869 196.874 231.746C196.956 231.622 197 231.477 197 231.329C197 231.13 196.921 230.939 196.78 230.799C196.64 230.658 196.449 230.579 196.25 230.579Z" fill="black" fill-opacity="0.3"/>
<path d="M214.969 231.079V223.079H217.672C218.299 223.079 218.813 223.192 219.211 223.419C219.612 223.643 219.909 223.946 220.102 224.329C220.294 224.712 220.391 225.139 220.391 225.61C220.391 226.081 220.294 226.51 220.102 226.895C219.911 227.281 219.617 227.588 219.219 227.817C218.82 228.044 218.31 228.157 217.688 228.157H215.75V227.298H217.656C218.086 227.298 218.431 227.223 218.691 227.075C218.952 226.927 219.141 226.726 219.258 226.473C219.378 226.218 219.438 225.93 219.438 225.61C219.438 225.29 219.378 225.003 219.258 224.751C219.141 224.498 218.951 224.3 218.688 224.157C218.424 224.011 218.076 223.938 217.641 223.938H215.938V231.079H214.969ZM223.647 231.219C223.267 231.219 222.922 231.148 222.612 231.005C222.302 230.859 222.056 230.649 221.873 230.376C221.691 230.1 221.6 229.766 221.6 229.376C221.6 229.032 221.668 228.753 221.803 228.54C221.938 228.324 222.119 228.154 222.346 228.032C222.573 227.91 222.823 227.818 223.096 227.759C223.372 227.696 223.649 227.647 223.928 227.61C224.293 227.563 224.588 227.528 224.815 227.505C225.044 227.479 225.211 227.436 225.315 227.376C225.422 227.316 225.475 227.212 225.475 227.063V227.032C225.475 226.647 225.369 226.347 225.159 226.134C224.95 225.92 224.634 225.813 224.209 225.813C223.769 225.813 223.424 225.91 223.174 226.102C222.924 226.295 222.748 226.501 222.647 226.719L221.772 226.407C221.928 226.042 222.136 225.759 222.397 225.555C222.66 225.35 222.946 225.206 223.256 225.126C223.569 225.042 223.876 225.001 224.178 225.001C224.371 225.001 224.592 225.024 224.842 225.071C225.095 225.115 225.338 225.208 225.573 225.348C225.81 225.489 226.006 225.701 226.162 225.985C226.319 226.269 226.397 226.649 226.397 227.126V231.079H225.475V230.266H225.428C225.366 230.397 225.261 230.536 225.116 230.684C224.97 230.833 224.776 230.959 224.534 231.063C224.291 231.167 223.996 231.219 223.647 231.219ZM223.787 230.391C224.152 230.391 224.459 230.32 224.709 230.177C224.962 230.033 225.152 229.848 225.28 229.622C225.41 229.395 225.475 229.157 225.475 228.907V228.063C225.436 228.11 225.35 228.153 225.217 228.192C225.087 228.229 224.936 228.261 224.764 228.29C224.595 228.316 224.429 228.339 224.268 228.36C224.109 228.378 223.98 228.394 223.881 228.407C223.642 228.438 223.418 228.489 223.209 228.559C223.004 228.627 222.837 228.73 222.709 228.868C222.584 229.003 222.522 229.188 222.522 229.423C222.522 229.743 222.64 229.985 222.877 230.149C223.117 230.311 223.42 230.391 223.787 230.391ZM230.556 233.454C230.111 233.454 229.728 233.397 229.408 233.282C229.088 233.17 228.821 233.022 228.607 232.837C228.396 232.654 228.228 232.459 228.103 232.251L228.838 231.735C228.921 231.844 229.026 231.969 229.154 232.11C229.282 232.253 229.456 232.377 229.677 232.481C229.901 232.588 230.194 232.641 230.556 232.641C231.041 232.641 231.44 232.524 231.756 232.29C232.071 232.055 232.228 231.688 232.228 231.188V229.969H232.15C232.082 230.079 231.986 230.214 231.861 230.376C231.739 230.535 231.561 230.677 231.33 230.802C231.101 230.924 230.791 230.985 230.4 230.985C229.916 230.985 229.481 230.871 229.095 230.641C228.713 230.412 228.409 230.079 228.185 229.641C227.964 229.204 227.853 228.673 227.853 228.048C227.853 227.433 227.961 226.898 228.177 226.442C228.394 225.984 228.694 225.63 229.08 225.38C229.465 225.127 229.91 225.001 230.416 225.001C230.806 225.001 231.116 225.066 231.345 225.196C231.577 225.324 231.754 225.469 231.877 225.634C232.002 225.795 232.098 225.928 232.166 226.032H232.259V225.079H233.15V231.251C233.15 231.766 233.033 232.186 232.798 232.509C232.567 232.834 232.254 233.072 231.861 233.223C231.47 233.377 231.035 233.454 230.556 233.454ZM230.525 230.157C230.895 230.157 231.207 230.072 231.463 229.903C231.718 229.734 231.912 229.49 232.045 229.173C232.177 228.855 232.244 228.475 232.244 228.032C232.244 227.6 232.179 227.218 232.048 226.887C231.918 226.557 231.726 226.298 231.47 226.11C231.215 225.923 230.9 225.829 230.525 225.829C230.134 225.829 229.809 225.928 229.548 226.126C229.291 226.324 229.097 226.589 228.966 226.923C228.839 227.256 228.775 227.626 228.775 228.032C228.775 228.449 228.84 228.817 228.97 229.137C229.103 229.455 229.298 229.705 229.556 229.887C229.817 230.067 230.14 230.157 230.525 230.157ZM237.408 231.204C236.83 231.204 236.331 231.076 235.912 230.821C235.495 230.563 235.174 230.204 234.947 229.743C234.723 229.279 234.611 228.74 234.611 228.126C234.611 227.511 234.723 226.969 234.947 226.501C235.174 226.029 235.489 225.662 235.893 225.399C236.299 225.134 236.773 225.001 237.314 225.001C237.627 225.001 237.936 225.053 238.24 225.157C238.545 225.261 238.822 225.43 239.072 225.665C239.322 225.897 239.521 226.204 239.67 226.587C239.818 226.969 239.893 227.441 239.893 228.001V228.391H235.268V227.594H238.955C238.955 227.256 238.887 226.954 238.752 226.688C238.619 226.423 238.429 226.213 238.182 226.059C237.937 225.906 237.648 225.829 237.314 225.829C236.947 225.829 236.63 225.92 236.361 226.102C236.096 226.282 235.891 226.516 235.748 226.805C235.605 227.094 235.533 227.404 235.533 227.735V228.266C235.533 228.719 235.611 229.104 235.768 229.419C235.926 229.731 236.146 229.969 236.428 230.134C236.709 230.295 237.036 230.376 237.408 230.376C237.65 230.376 237.869 230.342 238.064 230.274C238.262 230.204 238.433 230.1 238.576 229.962C238.719 229.821 238.83 229.647 238.908 229.438L239.799 229.688C239.705 229.99 239.547 230.256 239.326 230.485C239.105 230.712 238.831 230.889 238.506 231.016C238.18 231.141 237.814 231.204 237.408 231.204ZM244.186 223.938V223.079H250.186V223.938H247.671V231.079H246.702V223.938H244.186ZM251.611 231.079V225.079H252.533V231.079H251.611ZM252.08 224.079C251.9 224.079 251.745 224.018 251.615 223.895C251.488 223.773 251.424 223.626 251.424 223.454C251.424 223.282 251.488 223.135 251.615 223.012C251.745 222.89 251.9 222.829 252.08 222.829C252.26 222.829 252.413 222.89 252.541 223.012C252.671 223.135 252.736 223.282 252.736 223.454C252.736 223.626 252.671 223.773 252.541 223.895C252.413 224.018 252.26 224.079 252.08 224.079ZM256.886 225.079V225.86H253.777V225.079H256.886ZM254.683 223.641H255.605V229.36C255.605 229.621 255.642 229.816 255.718 229.946C255.796 230.074 255.895 230.16 256.015 230.204C256.137 230.246 256.266 230.266 256.402 230.266C256.503 230.266 256.586 230.261 256.652 230.251C256.717 230.238 256.769 230.227 256.808 230.219L256.995 231.048C256.933 231.071 256.846 231.094 256.734 231.118C256.622 231.144 256.48 231.157 256.308 231.157C256.047 231.157 255.792 231.101 255.542 230.989C255.295 230.877 255.089 230.706 254.925 230.477C254.764 230.248 254.683 229.959 254.683 229.61V223.641ZM259.378 223.079V231.079H258.457V223.079H259.378ZM263.638 231.204C263.059 231.204 262.561 231.076 262.141 230.821C261.725 230.563 261.403 230.204 261.177 229.743C260.953 229.279 260.841 228.74 260.841 228.126C260.841 227.511 260.953 226.969 261.177 226.501C261.403 226.029 261.718 225.662 262.122 225.399C262.528 225.134 263.002 225.001 263.544 225.001C263.856 225.001 264.165 225.053 264.47 225.157C264.774 225.261 265.052 225.43 265.302 225.665C265.552 225.897 265.751 226.204 265.899 226.587C266.048 226.969 266.122 227.441 266.122 228.001V228.391H261.497V227.594H265.184C265.184 227.256 265.117 226.954 264.981 226.688C264.849 226.423 264.658 226.213 264.411 226.059C264.166 225.906 263.877 225.829 263.544 225.829C263.177 225.829 262.859 225.92 262.591 226.102C262.325 226.282 262.121 226.516 261.977 226.805C261.834 227.094 261.763 227.404 261.763 227.735V228.266C261.763 228.719 261.841 229.104 261.997 229.419C262.156 229.731 262.376 229.969 262.657 230.134C262.938 230.295 263.265 230.376 263.638 230.376C263.88 230.376 264.099 230.342 264.294 230.274C264.492 230.204 264.662 230.1 264.806 229.962C264.949 229.821 265.059 229.647 265.138 229.438L266.028 229.688C265.934 229.99 265.777 230.256 265.556 230.485C265.334 230.712 265.061 230.889 264.735 231.016C264.41 231.141 264.044 231.204 263.638 231.204Z" fill="black" fill-opacity="0.3"/>
<rect x="206.5" y="212.579" width="167" height="29" rx="1.5" stroke="black" stroke-opacity="0.1"/>
<path d="M395.5 222.579H393V222.079C393 221.681 392.842 221.3 392.561 221.018C392.279 220.737 391.898 220.579 391.5 220.579H388.5C388.102 220.579 387.721 220.737 387.439 221.018C387.158 221.3 387 221.681 387 222.079V222.579H384.5C384.367 222.579 384.24 222.632 384.146 222.725C384.053 222.819 384 222.946 384 223.079C384 223.211 384.053 223.339 384.146 223.432C384.24 223.526 384.367 223.579 384.5 223.579H385V232.579C385 232.844 385.105 233.098 385.293 233.286C385.48 233.474 385.735 233.579 386 233.579H394C394.265 233.579 394.52 233.474 394.707 233.286C394.895 233.098 395 232.844 395 232.579V223.579H395.5C395.633 223.579 395.76 223.526 395.854 223.432C395.947 223.339 396 223.211 396 223.079C396 222.946 395.947 222.819 395.854 222.725C395.76 222.632 395.633 222.579 395.5 222.579ZM388 222.079C388 221.946 388.053 221.819 388.146 221.725C388.24 221.632 388.367 221.579 388.5 221.579H391.5C391.633 221.579 391.76 221.632 391.854 221.725C391.947 221.819 392 221.946 392 222.079V222.579H388V222.079ZM394 232.579H386V223.579H394V232.579ZM389 226.079V230.079C389 230.211 388.947 230.339 388.854 230.432C388.76 230.526 388.633 230.579 388.5 230.579C388.367 230.579 388.24 230.526 388.146 230.432C388.053 230.339 388 230.211 388 230.079V226.079C388 225.946 388.053 225.819 388.146 225.725C388.24 225.632 388.367 225.579 388.5 225.579C388.633 225.579 388.76 225.632 388.854 225.725C388.947 225.819 389 225.946 389 226.079ZM392 226.079V230.079C392 230.211 391.947 230.339 391.854 230.432C391.76 230.526 391.633 230.579 391.5 230.579C391.367 230.579 391.24 230.526 391.146 230.432C391.053 230.339 391 230.211 391 230.079V226.079C391 225.946 391.053 225.819 391.146 225.725C391.24 225.632 391.367 225.579 391.5 225.579C391.633 225.579 391.76 225.632 391.854 225.725C391.947 225.819 392 225.946 392 226.079Z" fill="black" fill-opacity="0.3"/>
<rect width="240" height="50" transform="translate(174 252.079)" fill="white"/>
<path d="M192.5 272.829C192.5 272.977 192.456 273.122 192.374 273.246C192.291 273.369 192.174 273.465 192.037 273.522C191.9 273.579 191.749 273.593 191.604 273.564C191.458 273.536 191.325 273.464 191.22 273.359C191.115 273.254 191.043 273.121 191.014 272.975C190.985 272.83 191 272.679 191.057 272.542C191.114 272.405 191.21 272.288 191.333 272.205C191.457 272.123 191.602 272.079 191.75 272.079C191.949 272.079 192.14 272.158 192.28 272.299C192.421 272.439 192.5 272.63 192.5 272.829ZM196.25 273.579C196.398 273.579 196.543 273.535 196.667 273.452C196.79 273.37 196.886 273.253 196.943 273.116C197 272.979 197.015 272.828 196.986 272.683C196.957 272.537 196.885 272.403 196.78 272.299C196.675 272.194 196.542 272.122 196.396 272.093C196.251 272.064 196.1 272.079 195.963 272.136C195.826 272.193 195.709 272.289 195.626 272.412C195.544 272.536 195.5 272.681 195.5 272.829C195.5 273.028 195.579 273.219 195.72 273.359C195.86 273.5 196.051 273.579 196.25 273.579ZM191.75 276.329C191.602 276.329 191.457 276.373 191.333 276.455C191.21 276.538 191.114 276.655 191.057 276.792C191 276.929 190.985 277.08 191.014 277.225C191.043 277.371 191.115 277.504 191.22 277.609C191.325 277.714 191.458 277.786 191.604 277.814C191.749 277.843 191.9 277.829 192.037 277.772C192.174 277.715 192.291 277.619 192.374 277.496C192.456 277.372 192.5 277.227 192.5 277.079C192.5 276.88 192.421 276.689 192.28 276.549C192.14 276.408 191.949 276.329 191.75 276.329ZM196.25 276.329C196.102 276.329 195.957 276.373 195.833 276.455C195.71 276.538 195.614 276.655 195.557 276.792C195.5 276.929 195.485 277.08 195.514 277.225C195.543 277.371 195.615 277.504 195.72 277.609C195.825 277.714 195.958 277.786 196.104 277.814C196.249 277.843 196.4 277.829 196.537 277.772C196.674 277.715 196.791 277.619 196.874 277.496C196.956 277.372 197 277.227 197 277.079C197 276.88 196.921 276.689 196.78 276.549C196.64 276.408 196.449 276.329 196.25 276.329ZM191.75 280.579C191.602 280.579 191.457 280.623 191.333 280.705C191.21 280.788 191.114 280.905 191.057 281.042C191 281.179 190.985 281.33 191.014 281.475C191.043 281.621 191.115 281.754 191.22 281.859C191.325 281.964 191.458 282.036 191.604 282.064C191.749 282.093 191.9 282.079 192.037 282.022C192.174 281.965 192.291 281.869 192.374 281.746C192.456 281.622 192.5 281.477 192.5 281.329C192.5 281.13 192.421 280.939 192.28 280.799C192.14 280.658 191.949 280.579 191.75 280.579ZM196.25 280.579C196.102 280.579 195.957 280.623 195.833 280.705C195.71 280.788 195.614 280.905 195.557 281.042C195.5 281.179 195.485 281.33 195.514 281.475C195.543 281.621 195.615 281.754 195.72 281.859C195.825 281.964 195.958 282.036 196.104 282.064C196.249 282.093 196.4 282.079 196.537 282.022C196.674 281.965 196.791 281.869 196.874 281.746C196.956 281.622 197 281.477 197 281.329C197 281.13 196.921 280.939 196.78 280.799C196.64 280.658 196.449 280.579 196.25 280.579Z" fill="black" fill-opacity="0.3"/>
<path d="M214.969 281.079V273.079H217.672C218.299 273.079 218.813 273.192 219.211 273.419C219.612 273.643 219.909 273.946 220.102 274.329C220.294 274.712 220.391 275.139 220.391 275.61C220.391 276.081 220.294 276.51 220.102 276.895C219.911 277.281 219.617 277.588 219.219 277.817C218.82 278.044 218.31 278.157 217.688 278.157H215.75V277.298H217.656C218.086 277.298 218.431 277.223 218.691 277.075C218.952 276.927 219.141 276.726 219.258 276.473C219.378 276.218 219.438 275.93 219.438 275.61C219.438 275.29 219.378 275.003 219.258 274.751C219.141 274.498 218.951 274.3 218.688 274.157C218.424 274.011 218.076 273.938 217.641 273.938H215.938V281.079H214.969ZM223.647 281.219C223.267 281.219 222.922 281.148 222.612 281.005C222.302 280.859 222.056 280.649 221.873 280.376C221.691 280.1 221.6 279.766 221.6 279.376C221.6 279.032 221.668 278.753 221.803 278.54C221.938 278.324 222.119 278.154 222.346 278.032C222.573 277.91 222.823 277.818 223.096 277.759C223.372 277.696 223.649 277.647 223.928 277.61C224.293 277.563 224.588 277.528 224.815 277.505C225.044 277.479 225.211 277.436 225.315 277.376C225.422 277.316 225.475 277.212 225.475 277.063V277.032C225.475 276.647 225.369 276.347 225.159 276.134C224.95 275.92 224.634 275.813 224.209 275.813C223.769 275.813 223.424 275.91 223.174 276.102C222.924 276.295 222.748 276.501 222.647 276.719L221.772 276.407C221.928 276.042 222.136 275.759 222.397 275.555C222.66 275.35 222.946 275.206 223.256 275.126C223.569 275.042 223.876 275.001 224.178 275.001C224.371 275.001 224.592 275.024 224.842 275.071C225.095 275.115 225.338 275.208 225.573 275.348C225.81 275.489 226.006 275.701 226.162 275.985C226.319 276.269 226.397 276.649 226.397 277.126V281.079H225.475V280.266H225.428C225.366 280.397 225.261 280.536 225.116 280.684C224.97 280.833 224.776 280.959 224.534 281.063C224.291 281.167 223.996 281.219 223.647 281.219ZM223.787 280.391C224.152 280.391 224.459 280.32 224.709 280.177C224.962 280.033 225.152 279.848 225.28 279.622C225.41 279.395 225.475 279.157 225.475 278.907V278.063C225.436 278.11 225.35 278.153 225.217 278.192C225.087 278.229 224.936 278.261 224.764 278.29C224.595 278.316 224.429 278.339 224.268 278.36C224.109 278.378 223.98 278.394 223.881 278.407C223.642 278.438 223.418 278.489 223.209 278.559C223.004 278.627 222.837 278.73 222.709 278.868C222.584 279.003 222.522 279.188 222.522 279.423C222.522 279.743 222.64 279.985 222.877 280.149C223.117 280.311 223.42 280.391 223.787 280.391ZM230.556 283.454C230.111 283.454 229.728 283.397 229.408 283.282C229.088 283.17 228.821 283.022 228.607 282.837C228.396 282.654 228.228 282.459 228.103 282.251L228.838 281.735C228.921 281.844 229.026 281.969 229.154 282.11C229.282 282.253 229.456 282.377 229.677 282.481C229.901 282.588 230.194 282.641 230.556 282.641C231.041 282.641 231.44 282.524 231.756 282.29C232.071 282.055 232.228 281.688 232.228 281.188V279.969H232.15C232.082 280.079 231.986 280.214 231.861 280.376C231.739 280.535 231.561 280.677 231.33 280.802C231.101 280.924 230.791 280.985 230.4 280.985C229.916 280.985 229.481 280.871 229.095 280.641C228.713 280.412 228.409 280.079 228.185 279.641C227.964 279.204 227.853 278.673 227.853 278.048C227.853 277.433 227.961 276.898 228.177 276.442C228.394 275.984 228.694 275.63 229.08 275.38C229.465 275.127 229.91 275.001 230.416 275.001C230.806 275.001 231.116 275.066 231.345 275.196C231.577 275.324 231.754 275.469 231.877 275.634C232.002 275.795 232.098 275.928 232.166 276.032H232.259V275.079H233.15V281.251C233.15 281.766 233.033 282.186 232.798 282.509C232.567 282.834 232.254 283.072 231.861 283.223C231.47 283.377 231.035 283.454 230.556 283.454ZM230.525 280.157C230.895 280.157 231.207 280.072 231.463 279.903C231.718 279.734 231.912 279.49 232.045 279.173C232.177 278.855 232.244 278.475 232.244 278.032C232.244 277.6 232.179 277.218 232.048 276.887C231.918 276.557 231.726 276.298 231.47 276.11C231.215 275.923 230.9 275.829 230.525 275.829C230.134 275.829 229.809 275.928 229.548 276.126C229.291 276.324 229.097 276.589 228.966 276.923C228.839 277.256 228.775 277.626 228.775 278.032C228.775 278.449 228.84 278.817 228.97 279.137C229.103 279.455 229.298 279.705 229.556 279.887C229.817 280.067 230.14 280.157 230.525 280.157ZM237.408 281.204C236.83 281.204 236.331 281.076 235.912 280.821C235.495 280.563 235.174 280.204 234.947 279.743C234.723 279.279 234.611 278.74 234.611 278.126C234.611 277.511 234.723 276.969 234.947 276.501C235.174 276.029 235.489 275.662 235.893 275.399C236.299 275.134 236.773 275.001 237.314 275.001C237.627 275.001 237.936 275.053 238.24 275.157C238.545 275.261 238.822 275.43 239.072 275.665C239.322 275.897 239.521 276.204 239.67 276.587C239.818 276.969 239.893 277.441 239.893 278.001V278.391H235.268V277.594H238.955C238.955 277.256 238.887 276.954 238.752 276.688C238.619 276.423 238.429 276.213 238.182 276.059C237.937 275.906 237.648 275.829 237.314 275.829C236.947 275.829 236.63 275.92 236.361 276.102C236.096 276.282 235.891 276.516 235.748 276.805C235.605 277.094 235.533 277.404 235.533 277.735V278.266C235.533 278.719 235.611 279.104 235.768 279.419C235.926 279.731 236.146 279.969 236.428 280.134C236.709 280.295 237.036 280.376 237.408 280.376C237.65 280.376 237.869 280.342 238.064 280.274C238.262 280.204 238.433 280.1 238.576 279.962C238.719 279.821 238.83 279.647 238.908 279.438L239.799 279.688C239.705 279.99 239.547 280.256 239.326 280.485C239.105 280.712 238.831 280.889 238.506 281.016C238.18 281.141 237.814 281.204 237.408 281.204ZM244.186 273.938V273.079H250.186V273.938H247.671V281.079H246.702V273.938H244.186ZM251.611 281.079V275.079H252.533V281.079H251.611ZM252.08 274.079C251.9 274.079 251.745 274.018 251.615 273.895C251.488 273.773 251.424 273.626 251.424 273.454C251.424 273.282 251.488 273.135 251.615 273.012C251.745 272.89 251.9 272.829 252.08 272.829C252.26 272.829 252.413 272.89 252.541 273.012C252.671 273.135 252.736 273.282 252.736 273.454C252.736 273.626 252.671 273.773 252.541 273.895C252.413 274.018 252.26 274.079 252.08 274.079ZM256.886 275.079V275.86H253.777V275.079H256.886ZM254.683 273.641H255.605V279.36C255.605 279.621 255.642 279.816 255.718 279.946C255.796 280.074 255.895 280.16 256.015 280.204C256.137 280.246 256.266 280.266 256.402 280.266C256.503 280.266 256.586 280.261 256.652 280.251C256.717 280.238 256.769 280.227 256.808 280.219L256.995 281.048C256.933 281.071 256.846 281.094 256.734 281.118C256.622 281.144 256.48 281.157 256.308 281.157C256.047 281.157 255.792 281.101 255.542 280.989C255.295 280.877 255.089 280.706 254.925 280.477C254.764 280.248 254.683 279.959 254.683 279.61V273.641ZM259.378 273.079V281.079H258.457V273.079H259.378ZM263.638 281.204C263.059 281.204 262.561 281.076 262.141 280.821C261.725 280.563 261.403 280.204 261.177 279.743C260.953 279.279 260.841 278.74 260.841 278.126C260.841 277.511 260.953 276.969 261.177 276.501C261.403 276.029 261.718 275.662 262.122 275.399C262.528 275.134 263.002 275.001 263.544 275.001C263.856 275.001 264.165 275.053 264.47 275.157C264.774 275.261 265.052 275.43 265.302 275.665C265.552 275.897 265.751 276.204 265.899 276.587C266.048 276.969 266.122 277.441 266.122 278.001V278.391H261.497V277.594H265.184C265.184 277.256 265.117 276.954 264.981 276.688C264.849 276.423 264.658 276.213 264.411 276.059C264.166 275.906 263.877 275.829 263.544 275.829C263.177 275.829 262.859 275.92 262.591 276.102C262.325 276.282 262.121 276.516 261.977 276.805C261.834 277.094 261.763 277.404 261.763 277.735V278.266C261.763 278.719 261.841 279.104 261.997 279.419C262.156 279.731 262.376 279.969 262.657 280.134C262.938 280.295 263.265 280.376 263.638 280.376C263.88 280.376 264.099 280.342 264.294 280.274C264.492 280.204 264.662 280.1 264.806 279.962C264.949 279.821 265.059 279.647 265.138 279.438L266.028 279.688C265.934 279.99 265.777 280.256 265.556 280.485C265.334 280.712 265.061 280.889 264.735 281.016C264.41 281.141 264.044 281.204 263.638 281.204Z" fill="black" fill-opacity="0.3"/>
<rect x="206.5" y="262.579" width="167" height="29" rx="1.5" stroke="black" stroke-opacity="0.1"/>
<path d="M395.5 272.579H393V272.079C393 271.681 392.842 271.3 392.561 271.018C392.279 270.737 391.898 270.579 391.5 270.579H388.5C388.102 270.579 387.721 270.737 387.439 271.018C387.158 271.3 387 271.681 387 272.079V272.579H384.5C384.367 272.579 384.24 272.632 384.146 272.725C384.053 272.819 384 272.946 384 273.079C384 273.211 384.053 273.339 384.146 273.432C384.24 273.526 384.367 273.579 384.5 273.579H385V282.579C385 282.844 385.105 283.098 385.293 283.286C385.48 283.474 385.735 283.579 386 283.579H394C394.265 283.579 394.52 283.474 394.707 283.286C394.895 283.098 395 282.844 395 282.579V273.579H395.5C395.633 273.579 395.76 273.526 395.854 273.432C395.947 273.339 396 273.211 396 273.079C396 272.946 395.947 272.819 395.854 272.725C395.76 272.632 395.633 272.579 395.5 272.579ZM388 272.079C388 271.946 388.053 271.819 388.146 271.725C388.24 271.632 388.367 271.579 388.5 271.579H391.5C391.633 271.579 391.76 271.632 391.854 271.725C391.947 271.819 392 271.946 392 272.079V272.579H388V272.079ZM394 282.579H386V273.579H394V282.579ZM389 276.079V280.079C389 280.211 388.947 280.339 388.854 280.432C388.76 280.526 388.633 280.579 388.5 280.579C388.367 280.579 388.24 280.526 388.146 280.432C388.053 280.339 388 280.211 388 280.079V276.079C388 275.946 388.053 275.819 388.146 275.725C388.24 275.632 388.367 275.579 388.5 275.579C388.633 275.579 388.76 275.632 388.854 275.725C388.947 275.819 389 275.946 389 276.079ZM392 276.079V280.079C392 280.211 391.947 280.339 391.854 280.432C391.76 280.526 391.633 280.579 391.5 280.579C391.367 280.579 391.24 280.526 391.146 280.432C391.053 280.339 391 280.211 391 280.079V276.079C391 275.946 391.053 275.819 391.146 275.725C391.24 275.632 391.367 275.579 391.5 275.579C391.633 275.579 391.76 275.632 391.854 275.725C391.947 275.819 392 275.946 392 276.079Z" fill="black" fill-opacity="0.3"/>
</g>
<rect x="173.75" y="77.8289" width="240.5" height="480.5" rx="2.25" stroke="black" stroke-opacity="0.2" stroke-width="0.5"/>
</g>
</g>
</g>
<defs>
<filter id="filter0_dii_349_15759" x="0" y="0.0788574" width="590" height="286" filterUnits="userSpaceOnUse" color-interpolation-filters="sRGB">
<feFlood flood-opacity="0" result="BackgroundImageFix"/>
<feColorMatrix in="SourceAlpha" type="matrix" values="0 0 0 0 0 0 0 0 0 0 0 0 0 0 0 0 0 0 127 0" result="hardAlpha"/>
<feMorphology radius="1" operator="dilate" in="SourceAlpha" result="effect1_dropShadow_349_15759"/>
<feOffset/>
<feComposite in2="hardAlpha" operator="out"/>
<feColorMatrix type="matrix" values="0 0 0 0 0.988235 0 0 0 0 0.988235 0 0 0 0 0.988235 0 0 0 0.32 0"/>
<feBlend mode="normal" in2="BackgroundImageFix" result="effect1_dropShadow_349_15759"/>
<feBlend mode="normal" in="SourceGraphic" in2="effect1_dropShadow_349_15759" result="shape"/>
<feColorMatrix in="SourceAlpha" type="matrix" values="0 0 0 0 0 0 0 0 0 0 0 0 0 0 0 0 0 0 127 0" result="hardAlpha"/>
<feOffset dy="2"/>
<feGaussianBlur stdDeviation="2"/>
<feComposite in2="hardAlpha" operator="arithmetic" k2="-1" k3="1"/>
<feColorMatrix type="matrix" values="0 0 0 0 0 0 0 0 0 0 0 0 0 0 0 0 0 0 0.16 0"/>
<feBlend mode="normal" in2="shape" result="effect2_innerShadow_349_15759"/>
<feColorMatrix in="SourceAlpha" type="matrix" values="0 0 0 0 0 0 0 0 0 0 0 0 0 0 0 0 0 0 127 0" result="hardAlpha"/>
<feOffset dy="1"/>
<feGaussianBlur stdDeviation="0.5"/>
<feComposite in2="hardAlpha" operator="arithmetic" k2="-1" k3="1"/>
<feColorMatrix type="matrix" values="0 0 0 0 0 0 0 0 0 0 0 0 0 0 0 0 0 0 0.12 0"/>
<feBlend mode="normal" in2="effect2_innerShadow_349_15759" result="effect3_innerShadow_349_15759"/>
</filter>
<filter id="filter1_f_349_15759" x="6" y="-86.9211" width="208.604" height="216.002" filterUnits="userSpaceOnUse" color-interpolation-filters="sRGB">
<feFlood flood-opacity="0" result="BackgroundImageFix"/>
<feBlend mode="normal" in="SourceGraphic" in2="BackgroundImageFix" result="shape"/>
<feGaussianBlur stdDeviation="18" result="effect1_foregroundBlur_349_15759"/>
</filter>
<filter id="filter2_f_349_15759" x="-54" y="-126.921" width="208.604" height="216.002" filterUnits="userSpaceOnUse" color-interpolation-filters="sRGB">
<feFlood flood-opacity="0" result="BackgroundImageFix"/>
<feBlend mode="normal" in="SourceGraphic" in2="BackgroundImageFix" result="shape"/>
<feGaussianBlur stdDeviation="18" result="effect1_foregroundBlur_349_15759"/>
</filter>
<filter id="filter3_f_349_15759" x="58" y="-69.9211" width="208.604" height="216.002" filterUnits="userSpaceOnUse" color-interpolation-filters="sRGB">
<feFlood flood-opacity="0" result="BackgroundImageFix"/>
<feBlend mode="normal" in="SourceGraphic" in2="BackgroundImageFix" result="shape"/>
<feGaussianBlur stdDeviation="18" result="effect1_foregroundBlur_349_15759"/>
</filter>
<filter id="filter4_f_349_15759" x="132" y="-126.921" width="208.604" height="216.002" filterUnits="userSpaceOnUse" color-interpolation-filters="sRGB">
<feFlood flood-opacity="0" result="BackgroundImageFix"/>
<feBlend mode="normal" in="SourceGraphic" in2="BackgroundImageFix" result="shape"/>
<feGaussianBlur stdDeviation="18" result="effect1_foregroundBlur_349_15759"/>
</filter>
<filter id="filter5_d_349_15759" x="159.5" y="65.5789" width="269" height="509" filterUnits="userSpaceOnUse" color-interpolation-filters="sRGB">
<feFlood flood-opacity="0" result="BackgroundImageFix"/>
<feColorMatrix in="SourceAlpha" type="matrix" values="0 0 0 0 0 0 0 0 0 0 0 0 0 0 0 0 0 0 127 0" result="hardAlpha"/>
<feOffset dy="2"/>
<feGaussianBlur stdDeviation="7"/>
<feColorMatrix type="matrix" values="0 0 0 0 0 0 0 0 0 0 0 0 0 0 0 0 0 0 0.15 0"/>
<feBlend mode="normal" in2="BackgroundImageFix" result="effect1_dropShadow_349_15759"/>
<feBlend mode="normal" in="SourceGraphic" in2="effect1_dropShadow_349_15759" result="shape"/>
</filter>
<filter id="filter6_d_349_15759" x="192.553" y="89.0172" width="19.3914" height="18.9971" filterUnits="userSpaceOnUse" color-interpolation-filters="sRGB">
<feFlood flood-opacity="0" result="BackgroundImageFix"/>
<feColorMatrix in="SourceAlpha" type="matrix" values="0 0 0 0 0 0 0 0 0 0 0 0 0 0 0 0 0 0 127 0" result="hardAlpha"/>
<feOffset dy="0.484848"/>
<feGaussianBlur stdDeviation="1.69697"/>
<feColorMatrix type="matrix" values="0 0 0 0 0 0 0 0 0 0 0 0 0 0 0 0 0 0 0.15 0"/>
<feBlend mode="normal" in2="BackgroundImageFix" result="effect1_dropShadow_349_15759"/>
<feBlend mode="normal" in="SourceGraphic" in2="effect1_dropShadow_349_15759" result="shape"/>
</filter>
<filter id="filter7_d_349_15759" x="191.458" y="87.7413" width="19.0838" height="18.731" filterUnits="userSpaceOnUse" color-interpolation-filters="sRGB">
<feFlood flood-opacity="0" result="BackgroundImageFix"/>
<feColorMatrix in="SourceAlpha" type="matrix" values="0 0 0 0 0 0 0 0 0 0 0 0 0 0 0 0 0 0 127 0" result="hardAlpha"/>
<feOffset dy="0.484848"/>
<feGaussianBlur stdDeviation="1.69697"/>
<feColorMatrix type="matrix" values="0 0 0 0 0 0 0 0 0 0 0 0 0 0 0 0 0 0 0.15 0"/>
<feBlend mode="normal" in2="BackgroundImageFix" result="effect1_dropShadow_349_15759"/>
<feBlend mode="normal" in="SourceGraphic" in2="effect1_dropShadow_349_15759" result="shape"/>
</filter>
<filter id="filter8_d_349_15759" x="190.154" y="86.2745" width="19.1919" height="18.8162" filterUnits="userSpaceOnUse" color-interpolation-filters="sRGB">
<feFlood flood-opacity="0" result="BackgroundImageFix"/>
<feColorMatrix in="SourceAlpha" type="matrix" values="0 0 0 0 0 0 0 0 0 0 0 0 0 0 0 0 0 0 127 0" result="hardAlpha"/>
<feOffset dy="0.484848"/>
<feGaussianBlur stdDeviation="1.69697"/>
<feColorMatrix type="matrix" values="0 0 0 0 0 0 0 0 0 0 0 0 0 0 0 0 0 0 0.15 0"/>
<feBlend mode="normal" in2="BackgroundImageFix" result="effect1_dropShadow_349_15759"/>
<feBlend mode="normal" in="SourceGraphic" in2="effect1_dropShadow_349_15759" result="shape"/>
</filter>
<linearGradient id="paint0_linear_349_15759" x1="203.809" y1="92.1525" x2="206.65" y2="104.819" gradientUnits="userSpaceOnUse">
<stop stop-color="#55F5FF"/>
<stop offset="1" stop-color="#18AEB8"/>
</linearGradient>
<linearGradient id="paint1_linear_349_15759" x1="202.97" y1="92.2723" x2="201.576" y2="103.827" gradientUnits="userSpaceOnUse">
<stop offset="0.0001" stop-color="white" stop-opacity="0.32"/>
<stop offset="1" stop-color="white" stop-opacity="0"/>
</linearGradient>
<linearGradient id="paint2_linear_349_15759" x1="201.304" y1="90.8118" x2="200.695" y2="102.432" gradientUnits="userSpaceOnUse">
<stop stop-color="#FFCD4B"/>
<stop offset="1" stop-color="#E7AF21"/>
</linearGradient>
<linearGradient id="paint3_linear_349_15759" x1="201.304" y1="90.8118" x2="200.695" y2="102.432" gradientUnits="userSpaceOnUse">
<stop offset="0.0001" stop-color="white" stop-opacity="0.32"/>
<stop offset="1" stop-color="white" stop-opacity="0"/>
</linearGradient>
<linearGradient id="paint4_linear_349_15759" x1="199.331" y1="89.3937" x2="200.118" y2="101.005" gradientUnits="userSpaceOnUse">
<stop stop-color="#A586FF"/>
<stop offset="1" stop-color="#6139D1"/>
</linearGradient>
<linearGradient id="paint5_linear_349_15759" x1="199.331" y1="89.3937" x2="200.118" y2="101.005" gradientUnits="userSpaceOnUse">
<stop offset="0.0001" stop-color="white" stop-opacity="0.32"/>
<stop offset="1" stop-color="white" stop-opacity="0"/>
</linearGradient>
<clipPath id="clip0_349_15759">
<rect x="1" y="1.07886" width="588" height="283" rx="8" fill="white"/>
</clipPath>
<clipPath id="clip1_349_15759">
<rect x="174" y="78.0789" width="240" height="480" rx="2" fill="white"/>
</clipPath>
<clipPath id="clip2_349_15759">
<rect width="24" height="24" fill="white" transform="translate(190 86.0789)"/>
</clipPath>
</defs>
</svg>
