<svg width="262" height="570" viewBox="0 0 262 570" fill="none" xmlns="http://www.w3.org/2000/svg">
<g clip-path="url(#clip0_342_8286)">
<rect x="1" y="1" width="260" height="568" rx="16" fill="#58BC6B"/>
<path d="M86.12 115.717C82.152 115.717 78.536 114.245 76.264 111.845L80.296 108.037C82.152 109.797 84.552 110.565 86.568 110.565C89.064 110.565 90.248 109.381 90.248 108.421C90.248 107.717 89.64 107.653 87.112 107.013C82.92 105.957 79.624 105.093 79.624 100.997C79.624 96.4854 83.656 92.9654 89.736 92.9654C93.064 92.9654 96.136 94.0214 98.344 96.1014L94.632 100.197C92.808 98.6294 90.568 98.1174 89.16 98.1174C87.016 98.1174 85.96 99.3334 85.96 100.261C85.96 101.061 86.728 101.221 89.128 101.765C94.248 102.949 96.552 104.165 96.552 107.653C96.552 112.549 91.944 115.717 86.12 115.717ZM111.607 98.4054C115.511 98.4054 117.943 101.125 117.943 105.157C117.943 110.629 114.103 115.717 108.791 115.717C106.487 115.717 104.695 114.725 103.639 113.061L102.039 120.837H95.8628L100.439 98.7894H106.615L106.263 100.485C107.735 99.2054 109.559 98.4054 111.607 98.4054ZM107.127 110.597C109.783 110.597 112.055 108.261 112.055 105.861C112.055 104.421 111.063 103.525 109.399 103.525C106.839 103.525 104.727 105.989 104.727 108.325C104.727 109.733 105.623 110.597 107.127 110.597ZM127.056 101.413C128.496 99.5254 130.448 98.4054 132.656 98.4054L131.984 103.525C128.784 103.525 126.288 105.509 125.584 108.421L124.144 115.333H117.968L121.424 98.7894H127.6L127.056 101.413ZM140.786 115.717C136.114 115.717 132.786 112.421 132.786 108.229C132.786 102.789 138.29 98.4054 143.602 98.4054C148.242 98.4054 151.57 101.701 151.57 105.861C151.57 111.269 146.098 115.717 140.786 115.717ZM141.074 110.597C143.474 110.597 145.906 108.133 145.906 105.957C145.906 104.549 144.85 103.525 143.346 103.525C140.882 103.525 138.45 105.925 138.45 108.133C138.45 109.541 139.538 110.597 141.074 110.597ZM165.674 98.7894H171.85L168.394 115.333H162.218L162.506 114.021C161.322 115.109 159.722 115.717 157.93 115.717C154.698 115.717 152.682 113.573 152.682 110.597C152.682 109.381 152.938 108.549 154.986 98.7894H160.874C158.922 108.037 158.826 108.453 158.826 108.933C158.826 110.021 159.466 110.597 160.49 110.597C162.09 110.597 163.53 109.285 163.786 107.813L165.674 98.7894ZM183.625 103.653H180.361C179.273 108.805 179.177 109.317 179.177 109.733C179.177 110.373 179.465 110.597 179.977 110.597C180.681 110.597 181.481 110.213 181.801 109.925L182.281 114.181C181.129 115.109 179.433 115.717 177.833 115.717C174.985 115.717 173.065 113.797 173.065 111.109C173.065 110.309 173.225 109.573 174.473 103.653H172.393L173.417 98.7894H175.497L176.457 94.2454H182.345L181.385 98.7894H184.649L183.625 103.653Z" fill="white"/>
<line x1="121.333" y1="128.333" x2="144" y2="128.333" stroke="white" stroke-width="0.333333"/>
<path d="M148.757 127.179C149.323 127.179 149.776 127.669 149.776 128.283C149.776 129.221 149.019 130.064 148.171 130.064C147.755 130.064 147.419 129.803 147.28 129.408L147.157 130H146.827L147.6 126.272H147.931L147.616 127.781C147.904 127.413 148.309 127.179 148.757 127.179ZM148.208 129.76C148.853 129.76 149.435 129.077 149.435 128.309C149.435 127.845 149.109 127.483 148.693 127.483C148 127.483 147.413 128.155 147.413 128.949C147.413 129.419 147.755 129.76 148.208 129.76ZM150.228 130.96C150.063 130.96 149.914 130.923 149.796 130.864L149.919 130.581C150.01 130.635 150.127 130.656 150.234 130.656C150.442 130.656 150.612 130.571 150.751 130.389L150.996 130.043L150.372 127.243H150.73L151.242 129.648L152.714 127.243H153.076L151.162 130.352C150.895 130.789 150.591 130.96 150.228 130.96Z" fill="white"/>
<g clip-path="url(#clip1_342_8286)">
<path d="M160.707 127.014L160.682 127.825L158.52 130.123C159.423 130.123 159.996 130.115 160.326 130.097C160.23 130.533 160.152 130.889 160.074 131.424C159.64 131.388 158.963 131.379 158.285 131.379C157.53 131.379 156.87 131.388 156.341 131.424L156.358 130.604L158.52 128.315C157.574 128.315 157.226 128.324 156.836 128.333C156.922 127.923 156.983 127.469 157.044 127.014C157.73 127.041 157.999 127.05 158.893 127.05C159.718 127.05 160.186 127.041 160.707 127.014ZM163.164 126.774C161.758 126.774 160.682 128.003 160.682 129.473C160.682 130.578 161.333 131.424 162.6 131.424C164.015 131.424 165.083 130.194 165.083 128.715C165.083 127.62 164.449 126.774 163.164 126.774ZM162.739 130.242C162.426 130.242 162.244 129.966 162.244 129.422C162.244 128.612 162.583 127.962 163 127.962C163.303 127.962 163.486 128.229 163.486 128.781C163.485 129.583 163.156 130.242 162.739 130.242ZM183.048 126.713C181.623 126.713 180.533 127.958 180.533 129.447C180.533 130.566 181.192 131.424 182.476 131.424C183.91 131.424 184.992 130.178 184.992 128.68C184.992 127.57 184.35 126.713 183.048 126.713ZM182.59 130.238C182.277 130.238 182.095 129.961 182.095 129.418C182.095 128.607 182.434 127.957 182.851 127.957C183.154 127.957 183.337 128.224 183.337 128.776C183.337 129.578 183.007 130.238 182.59 130.238ZM172.384 128.377C172.497 127.62 172.436 126.934 171.577 126.934C170.952 126.934 170.274 127.451 169.797 128.315C169.901 127.602 169.84 126.934 168.99 126.934C168.347 126.934 167.653 127.478 167.175 128.377C167.297 127.789 167.271 127.121 167.236 126.979C166.741 127.059 166.307 127.103 165.699 127.121C165.717 127.531 165.691 128.065 165.613 128.573L165.413 129.909C165.335 130.435 165.248 131.041 165.161 131.424H166.776C166.785 131.192 166.845 130.827 166.889 130.506L167.028 129.589C167.14 128.992 167.627 128.288 168 128.288C168.217 128.288 168.208 128.493 168.147 128.876L167.991 129.909C167.913 130.435 167.826 131.041 167.739 131.424H169.371C169.38 131.192 169.432 130.827 169.476 130.506L169.614 129.589C169.727 128.992 170.214 128.288 170.587 128.288C170.804 128.288 170.795 128.484 170.76 128.751L170.37 131.424H171.86L172.384 128.377ZM180.183 130.025L180.009 131.077C179.74 131.219 179.236 131.424 178.655 131.424C177.665 131.424 177.466 130.907 177.622 129.812L177.873 128.048H177.386L177.524 126.906L178.056 126.881L178.255 126.053L179.757 125.5L179.566 126.881H180.599C180.565 127.023 180.443 127.808 180.409 128.048H179.401L179.175 129.678C179.115 130.097 179.15 130.248 179.444 130.248C179.662 130.248 179.983 130.123 180.183 130.025ZM174.486 130.593C175.033 130.527 175.409 130.012 175.499 129.497L175.515 129.36C175.28 129.308 174.94 129.269 174.611 129.309C174.298 129.346 174.037 129.473 173.897 129.658C173.791 129.79 173.738 129.949 173.761 130.138C173.797 130.421 174.117 130.637 174.486 130.593ZM174.021 131.407C173.25 131.5 172.742 131.201 172.589 130.519C172.494 130.091 172.626 129.602 172.859 129.311C173.17 128.93 173.677 128.686 174.296 128.612C174.794 128.551 175.213 128.581 175.606 128.654L175.622 128.588C175.633 128.483 175.644 128.378 175.629 128.252C175.588 127.929 175.328 127.737 174.685 127.814C174.251 127.866 173.838 128.019 173.518 128.194L173.206 127.273C173.64 127.029 174.188 126.843 174.814 126.768C176.011 126.624 176.852 126.997 176.96 127.856C176.988 128.084 176.992 128.326 176.962 128.545C176.809 129.606 176.71 130.405 176.667 130.94C176.66 131.023 176.661 131.165 176.668 131.367L175.183 131.365C175.215 131.282 175.243 131.168 175.268 131.026C175.285 130.932 175.297 130.814 175.304 130.671C174.99 131.093 174.559 131.343 174.021 131.407Z" fill="white"/>
</g>
<path fill-rule="evenodd" clip-rule="evenodd" d="M-37.0002 326.36C-37.0002 366.273 -22.3432 400.459 -1.5426 414.675C8.66319 440.429 26.1461 457.411 45.9997 457.411C57.7173 457.411 68.6091 451.496 77.6663 441.353C86.7236 451.496 97.6154 457.411 109.333 457.411C120.853 457.411 131.575 451.693 140.54 441.862C150.639 457.075 164.007 466.333 178.666 466.333C188.705 466.333 198.138 461.992 206.33 454.369C210.911 456.354 215.715 457.411 220.666 457.411C237.758 457.411 253.093 444.826 263.54 424.892C285.396 411.55 301 376.465 301 335.283C301 282.617 275.48 239.923 244 239.923C226.908 239.923 211.574 252.508 201.126 272.441C198.308 274.162 195.593 276.244 193.002 278.654C192.81 278.571 192.617 278.489 192.424 278.409C182.034 255.052 165.406 239.923 146.666 239.923C131.259 239.923 117.28 250.15 107.021 266.767C96.1837 267.491 86.125 273.276 77.6663 282.748C74.5012 279.204 71.1121 276.176 67.5421 273.736C57.3363 247.981 39.8534 231 19.9998 231C-11.4805 231 -37.0002 273.694 -37.0002 326.36Z" fill="#DCF1F8"/>
<path d="M55.8295 299.88C66.2589 311.902 3.22966 310.375 15.181 299.88C19.11 296.429 21.6887 293.346 26.9065 293.441C29.7073 293.492 33.7855 295.482 33.7855 295.482C33.7855 295.482 42.3808 291.747 47.5434 293.441C51.4323 294.717 53.1416 296.782 55.8295 299.88Z" fill="#ECF8FC"/>
<path d="M120.496 319.88C130.925 331.902 67.8962 330.375 79.8475 319.88C83.7765 316.43 86.3552 313.346 91.573 313.441C94.3738 313.492 98.452 315.482 98.452 315.482C98.452 315.482 107.047 311.747 112.21 313.441C116.099 314.717 117.808 316.782 120.496 319.88Z" fill="#ECF8FC"/>
<path d="M189.163 284.546C199.592 296.568 136.563 295.042 148.514 284.546C152.443 281.096 155.022 278.013 160.24 278.107C163.041 278.158 167.119 280.149 167.119 280.149C167.119 280.149 175.714 276.413 180.877 278.107C184.766 279.384 186.475 281.448 189.163 284.546Z" fill="#ECF8FC"/>
<path d="M278.496 312.546C288.925 324.568 225.896 323.042 237.847 312.546C241.776 309.096 244.355 306.013 249.573 306.107C252.374 306.158 256.452 308.149 256.452 308.149C256.452 308.149 265.047 304.413 270.21 306.107C274.099 307.384 275.808 309.448 278.496 312.546Z" fill="#ECF8FC"/>
<rect x="-6.3335" y="357.125" width="16" height="65.875" fill="#CAEAF4"/>
<rect x="-5.66675" y="403" width="13.3333" height="4" fill="#C2E5F0"/>
<rect x="-5.66675" y="398.333" width="13.3333" height="4" fill="#C2E5F0"/>
<rect x="-5.66675" y="393.667" width="13.3333" height="4" fill="#C2E5F0"/>
<rect x="-5.66675" y="389" width="13.3333" height="4" fill="#C2E5F0"/>
<rect x="-5.66675" y="384.333" width="13.3333" height="4" fill="#C2E5F0"/>
<rect x="-5.66675" y="379.667" width="13.3333" height="4" fill="#C2E5F0"/>
<rect x="-5.66675" y="375" width="13.3333" height="4" fill="#C2E5F0"/>
<rect x="-5.66675" y="370.333" width="13.3333" height="4" fill="#C2E5F0"/>
<rect x="-5.66675" y="365.667" width="13.3333" height="4" fill="#C2E5F0"/>
<rect x="-5.66675" y="361" width="13.3333" height="4" fill="#C2E5F0"/>
<rect x="9.66626" y="377.792" width="16" height="45.2083" fill="#CAEAF4"/>
<rect x="10.9998" y="379" width="13.3333" height="4" fill="#C2E5F0"/>
<rect x="10.9998" y="385" width="13.3333" height="4" fill="#C2E5F0"/>
<rect x="10.9998" y="391" width="13.3333" height="4" fill="#C2E5F0"/>
<rect x="10.9998" y="397" width="13.3333" height="4" fill="#C2E5F0"/>
<rect x="10.9998" y="403" width="13.3333" height="4" fill="#C2E5F0"/>
<rect x="25.6665" y="340.333" width="16" height="82.6667" fill="#CAEAF4"/>
<rect x="27" y="356.333" width="13.3333" height="4" fill="#C2E5F0"/>
<rect x="27" y="363" width="13.3333" height="4" fill="#C2E5F0"/>
<rect x="27" y="369.667" width="13.3333" height="4" fill="#C2E5F0"/>
<rect x="27" y="376.333" width="13.3333" height="4" fill="#C2E5F0"/>
<rect x="27" y="383" width="13.3333" height="4" fill="#C2E5F0"/>
<rect x="27" y="389.667" width="13.3333" height="4" fill="#C2E5F0"/>
<rect x="27" y="396.333" width="13.3333" height="4" fill="#C2E5F0"/>
<rect x="27" y="403" width="13.3333" height="4" fill="#C2E5F0"/>
<rect x="41.6663" y="392" width="16" height="31" fill="#CAEAF4"/>
<rect x="42.9998" y="393.667" width="13.3333" height="4" fill="#C2E5F0"/>
<rect x="42.9998" y="400.333" width="13.3333" height="4" fill="#C2E5F0"/>
<rect x="42.9998" y="407" width="13.3333" height="4" fill="#C2E5F0"/>
<rect x="42.9998" y="413.667" width="13.3333" height="4" fill="#C2E5F0"/>
<rect x="57.6665" y="377.792" width="16" height="45.2083" fill="#CAEAF4"/>
<rect x="59" y="379.667" width="13.3333" height="4" fill="#C2E5F0"/>
<rect x="59" y="386.333" width="13.3333" height="4" fill="#C2E5F0"/>
<rect x="59" y="393" width="13.3333" height="4" fill="#C2E5F0"/>
<rect x="59" y="399.667" width="13.3333" height="4" fill="#C2E5F0"/>
<rect x="73.6663" y="367.458" width="16" height="55.5417" fill="#CAEAF4"/>
<rect x="74.9998" y="409.667" width="13.3333" height="4" fill="#C2E5F0"/>
<rect x="74.9998" y="376.333" width="13.3333" height="4" fill="#C2E5F0"/>
<rect x="74.9998" y="369.667" width="13.3333" height="4" fill="#C2E5F0"/>
<rect x="74.9998" y="383" width="13.3333" height="4" fill="#C2E5F0"/>
<rect x="74.9998" y="389.667" width="13.3333" height="4" fill="#C2E5F0"/>
<rect x="74.9998" y="396.333" width="13.3333" height="4" fill="#C2E5F0"/>
<rect x="74.9998" y="403" width="13.3333" height="4" fill="#C2E5F0"/>
<rect x="89.6665" y="384.25" width="16" height="38.75" fill="#CAEAF4"/>
<rect x="90.9998" y="386.333" width="13.3333" height="4" fill="#C2E5F0"/>
<rect x="90.9998" y="393" width="13.3333" height="4" fill="#C2E5F0"/>
<rect x="90.9998" y="399.667" width="13.3333" height="4" fill="#C2E5F0"/>
<rect x="90.9998" y="406.333" width="13.3333" height="4" fill="#C2E5F0"/>
<rect x="90.9998" y="413" width="13.3333" height="4" fill="#C2E5F0"/>
<rect x="105.666" y="357.125" width="16" height="65.875" fill="#CAEAF4"/>
<rect x="107" y="359" width="13.3333" height="4" fill="#C2E5F0"/>
<rect x="107" y="365.667" width="13.3333" height="4" fill="#C2E5F0"/>
<rect x="107" y="372.333" width="13.3333" height="4" fill="#C2E5F0"/>
<rect x="107" y="379" width="13.3333" height="4" fill="#C2E5F0"/>
<rect x="107" y="385.667" width="13.3333" height="4" fill="#C2E5F0"/>
<rect x="107" y="392.333" width="13.3333" height="4" fill="#C2E5F0"/>
<rect x="107" y="399" width="13.3333" height="4" fill="#C2E5F0"/>
<rect x="107" y="405.667" width="13.3333" height="4" fill="#C2E5F0"/>
<rect x="121.667" y="377.792" width="16" height="45.2083" fill="#CAEAF4"/>
<rect x="123" y="379" width="13.3333" height="2" fill="#C2E5F0"/>
<rect x="123" y="383.667" width="13.3333" height="2" fill="#C2E5F0"/>
<rect x="123" y="388.333" width="13.3333" height="2" fill="#C2E5F0"/>
<rect x="123" y="393" width="13.3333" height="2" fill="#C2E5F0"/>
<rect x="123" y="397.667" width="13.3333" height="2" fill="#C2E5F0"/>
<rect x="123" y="402.333" width="13.3333" height="2" fill="#C2E5F0"/>
<rect x="123" y="407" width="13.3333" height="2" fill="#C2E5F0"/>
<rect x="137.666" y="340.333" width="16" height="82.6667" fill="#CAEAF4"/>
<rect x="139" y="343" width="13.3333" height="4" fill="#C2E5F0"/>
<rect x="139" y="349.667" width="13.3333" height="4" fill="#C2E5F0"/>
<rect x="139" y="356.333" width="13.3333" height="4" fill="#C2E5F0"/>
<rect x="139" y="363" width="13.3333" height="4" fill="#C2E5F0"/>
<rect x="139" y="369.667" width="13.3333" height="4" fill="#C2E5F0"/>
<rect x="139" y="376.333" width="13.3333" height="4" fill="#C2E5F0"/>
<rect x="139" y="383" width="13.3333" height="4" fill="#C2E5F0"/>
<rect x="139" y="389.667" width="13.3333" height="4" fill="#C2E5F0"/>
<rect x="139" y="396.333" width="13.3333" height="4" fill="#C2E5F0"/>
<rect x="139" y="403" width="13.3333" height="4" fill="#C2E5F0"/>
<rect x="139" y="409.667" width="13.3333" height="4" fill="#C2E5F0"/>
<rect x="139" y="416.333" width="13.3333" height="4" fill="#C2E5F0"/>
<rect x="153.667" y="392" width="16" height="31" fill="#CAEAF4"/>
<rect x="155" y="394.333" width="13.3333" height="4" fill="#C2E5F0"/>
<rect x="155" y="401" width="13.3333" height="4" fill="#C2E5F0"/>
<rect x="155" y="407.667" width="13.3333" height="4" fill="#C2E5F0"/>
<rect x="155" y="414.333" width="13.3333" height="4" fill="#C2E5F0"/>
<rect x="169.667" y="377.792" width="16" height="45.2083" fill="#CAEAF4"/>
<rect x="171" y="379.667" width="13.3333" height="4" fill="#C2E5F0"/>
<rect x="171" y="386.333" width="13.3333" height="4" fill="#C2E5F0"/>
<rect x="171" y="393" width="13.3333" height="4" fill="#C2E5F0"/>
<rect x="171" y="399.667" width="13.3333" height="4" fill="#C2E5F0"/>
<rect x="171" y="406.333" width="13.3333" height="4" fill="#C2E5F0"/>
<rect x="171" y="413" width="13.3333" height="4" fill="#C2E5F0"/>
<rect x="171" y="419.667" width="13.3333" height="4" fill="#C2E5F0"/>
<rect x="185.667" y="367.458" width="16" height="55.5417" fill="#CAEAF4"/>
<rect x="187" y="370.333" width="13.3333" height="4" fill="#C2E5F0"/>
<rect x="187" y="376.333" width="13.3333" height="4" fill="#C2E5F0"/>
<rect x="187" y="382.333" width="13.3333" height="4" fill="#C2E5F0"/>
<rect x="187" y="388.333" width="13.3333" height="4" fill="#C2E5F0"/>
<rect x="187" y="394.333" width="13.3333" height="4" fill="#C2E5F0"/>
<rect x="187" y="400.333" width="13.3333" height="4" fill="#C2E5F0"/>
<rect x="187" y="406.333" width="13.3333" height="4" fill="#C2E5F0"/>
<rect x="187" y="412.333" width="13.3333" height="4" fill="#C2E5F0"/>
<rect x="187" y="418.333" width="13.3333" height="4" fill="#C2E5F0"/>
<rect x="201.667" y="397.167" width="16" height="25.8333" fill="#CAEAF4"/>
<rect x="203" y="399" width="13.3333" height="4" fill="#C2E5F0"/>
<rect x="203" y="404.333" width="13.3333" height="4" fill="#C2E5F0"/>
<rect x="203" y="409.667" width="13.3333" height="4" fill="#C2E5F0"/>
<rect x="203" y="415" width="13.3333" height="4" fill="#C2E5F0"/>
<rect x="217.666" y="351.958" width="16" height="71.0417" fill="#CAEAF4"/>
<rect x="219" y="354.333" width="13.3333" height="4" fill="#C2E5F0"/>
<rect x="219" y="360.333" width="13.3333" height="4" fill="#C2E5F0"/>
<rect x="219" y="366.333" width="13.3333" height="4" fill="#C2E5F0"/>
<rect x="219" y="372.333" width="13.3333" height="4" fill="#C2E5F0"/>
<rect x="219" y="378.333" width="13.3333" height="4" fill="#C2E5F0"/>
<rect x="219" y="384.333" width="13.3333" height="4" fill="#C2E5F0"/>
<rect x="219" y="390.333" width="13.3333" height="4" fill="#C2E5F0"/>
<rect x="219" y="396.333" width="13.3333" height="4" fill="#C2E5F0"/>
<rect x="219" y="402.333" width="13.3333" height="4" fill="#C2E5F0"/>
<rect x="219" y="408.333" width="13.3333" height="4" fill="#C2E5F0"/>
<rect x="219" y="414.333" width="13.3333" height="4" fill="#C2E5F0"/>
<rect x="233.667" y="377.792" width="16" height="45.2083" fill="#CAEAF4"/>
<rect x="235" y="379.667" width="13.3333" height="4" fill="#C2E5F0"/>
<rect x="235" y="386.333" width="13.3333" height="4" fill="#C2E5F0"/>
<rect x="235" y="393" width="13.3333" height="4" fill="#C2E5F0"/>
<rect x="235" y="399.667" width="13.3333" height="4" fill="#C2E5F0"/>
<rect x="235" y="406.333" width="13.3333" height="4" fill="#C2E5F0"/>
<rect x="235" y="413" width="13.3333" height="4" fill="#C2E5F0"/>
<rect x="249.666" y="363.583" width="16" height="59.4167" fill="#CAEAF4"/>
<rect x="251" y="365.667" width="13.3333" height="4" fill="#C2E5F0"/>
<rect x="251" y="371.667" width="13.3333" height="4" fill="#C2E5F0"/>
<rect x="251" y="377.667" width="13.3333" height="4" fill="#C2E5F0"/>
<rect x="251" y="383.667" width="13.3333" height="4" fill="#C2E5F0"/>
<rect x="251" y="389.667" width="13.3333" height="4" fill="#C2E5F0"/>
<rect x="251" y="395.667" width="13.3333" height="4" fill="#C2E5F0"/>
<rect x="251" y="401.667" width="13.3333" height="4" fill="#C2E5F0"/>
<rect x="251" y="407.667" width="13.3333" height="4" fill="#C2E5F0"/>
<rect x="251" y="413.667" width="13.3333" height="4" fill="#C2E5F0"/>
<path d="M0.999756 408.374V423H261V405.561C261 405.561 253.174 412.021 247.544 412.312C242.656 412.564 240.283 408.374 235.39 408.374C230.498 408.374 228.12 411.914 223.237 412.312C216.7 412.844 213.16 406.677 206.743 408.374C200.385 410.054 199.036 417.64 192.853 420.187C181.638 424.808 175.058 410.946 163.337 412.312C157.972 412.937 155.268 416.207 149.881 416.249C140.815 416.32 137.089 407.733 128.178 405.561C112.557 401.753 103.625 414.387 87.8111 412.312C75.5334 410.7 69.7676 401.035 57.4271 401.061C49.6796 401.077 45.6421 405.6 37.8946 405.561C30.3139 405.523 26.359 400.389 18.7961 401.061C11.5223 401.707 0.999756 408.374 0.999756 408.374Z" fill="#8ED18F"/>
<path d="M13.3333 416V361L17.6667 359L20.3333 361V416L22.3333 423H11L13.3333 416Z" fill="#685450"/>
<path d="M0.129416 368.21C6.24413 364.352 10.796 361.544 16.796 360.877C22.7961 360.21 37.7961 370.877 37.7961 370.877C37.7961 370.877 47.7961 380.127 49.4628 380.544C51.1294 380.96 51.2887 368.877 41.4627 360.877C35.0878 355.687 21.1294 357.21 21.1294 357.21C21.1294 357.21 28.4626 352.21 36.1294 349.21C43.7961 346.21 50.4628 347.21 51.4628 344.877C52.4628 342.544 39.4627 336.877 29.1294 341.544C23.9568 343.88 18.7961 350.21 18.7961 350.21C18.7961 350.21 13.9188 340.605 8.4627 337.877C2.46275 334.877 -4.20392 335.21 -5.20392 337.21C-6.20392 339.21 -0.224726 341.506 2.79604 344.21C4.99497 346.179 8.4627 349.21 8.4627 349.21C8.4627 349.21 0.129436 344.544 -9.53725 347.21C-19.2039 349.877 -20.8706 356.21 -20.2039 357.21C-19.5372 358.21 -17.8706 357.544 -10.5373 356.544C-3.20392 355.544 2.79604 356.877 2.79604 356.877C2.79604 356.877 -8.20402 359.544 -12.8706 366.877C-17.5373 374.21 -15.5373 380.877 -14.2039 380.877C-12.8706 380.877 -6.18806 372.197 0.129416 368.21Z" fill="#97C457"/>
<path d="M-1.00008 418.262C-6.23856 420.534 -11.6667 428.929 -11.6667 428.929L30.6666 429.929C30.6666 429.929 28.4739 426.376 26.3332 424.929C23.245 422.841 20.6294 424.336 17.3333 422.595C14.3986 421.045 13.7353 418.526 10.6666 417.262C6.43839 415.52 3.19519 416.443 -1.00008 418.262Z" fill="#D6DF6E"/>
<path d="M2.33301 422.667C0.406743 424.721 -1.66699 428.667 -1.66699 428.667L31.9997 429.667C31.9997 429.667 28.771 425.07 25.6663 423.667C22.9149 422.423 20.7996 423.797 17.9997 422.667C14.7382 421.35 12.9997 417 10.9997 417C8.99967 417 5.09904 419.717 2.33301 422.667Z" fill="#97C457"/>
<path d="M39.9998 416V361L44.3332 359L46.9998 361V416L48.9998 423H37.6665L39.9998 416Z" fill="#685450"/>
<path d="M26.7962 368.21C32.9109 364.352 37.4627 361.544 43.4628 360.877C49.4628 360.21 64.4628 370.877 64.4628 370.877C64.4628 370.877 74.4628 380.127 76.1295 380.544C77.7962 380.96 77.9554 368.877 68.1294 360.877C61.7545 355.687 47.7962 357.21 47.7962 357.21C47.7962 357.21 55.1294 352.21 62.7961 349.21C70.4628 346.21 77.1295 347.21 78.1295 344.877C79.1295 342.544 66.1295 336.877 55.7962 341.544C50.6235 343.88 45.4628 350.21 45.4628 350.21C45.4628 350.21 40.5856 340.605 35.1295 337.877C29.1295 334.877 22.4628 335.21 21.4628 337.21C20.4628 339.21 26.442 341.506 29.4628 344.21C31.6617 346.179 35.1295 349.21 35.1295 349.21C35.1295 349.21 26.7962 344.544 17.1295 347.21C7.46281 349.877 5.79614 356.21 6.46282 357.21C7.1295 358.21 8.79616 357.544 16.1295 356.544C23.4628 355.544 29.4628 356.877 29.4628 356.877C29.4628 356.877 18.4627 359.544 13.7961 366.877C9.1295 374.21 11.1295 380.877 12.4628 380.877C13.7962 380.877 20.4787 372.197 26.7962 368.21Z" fill="#D2DE5D"/>
<path d="M25.6667 412.929C20.4282 415.201 15 423.595 15 423.595L57.3333 424.595C57.3333 424.595 55.1407 421.042 53 419.595C49.9118 417.508 47.2962 419.003 44 417.262C41.0653 415.712 40.402 413.193 37.3333 411.929C33.1051 410.187 29.8619 411.109 25.6667 412.929Z" fill="#D6DF6E"/>
<path d="M29 417.333C27.0737 419.388 25 423.333 25 423.333L58.6667 424.333C58.6667 424.333 55.438 419.736 52.3333 418.333C49.5819 417.09 47.4666 418.463 44.6667 417.333C41.4051 416.017 39.6667 411.667 37.6667 411.667C35.6667 411.667 31.766 414.383 29 417.333Z" fill="#97C457"/>
<g clip-path="url(#clip2_342_8286)">
<rect width="260" height="146.667" transform="translate(1 422.333)" fill="#F9FEFF"/>
<g filter="url(#filter0_d_342_8286)">
<g clip-path="url(#clip3_342_8286)">
<rect x="8.99976" y="447.667" width="244" height="38.6667" rx="9.33333" fill="#3C7B43"/>
<g filter="url(#filter1_d_342_8286)">
<rect x="9.66626" y="448.333" width="242.667" height="37.3333" rx="8.66667" fill="#4FAF5A" shape-rendering="crispEdges"/>
<g filter="url(#filter2_d_342_8286)">
<path d="M114.466 470.617C113.208 470.617 112.141 470.191 111.33 469.433L112.098 468.484C112.77 469.092 113.549 469.476 114.509 469.476C115.416 469.476 115.885 469.028 115.885 468.505C115.885 467.897 115.362 467.695 114.189 467.417C112.674 467.065 111.618 466.628 111.618 465.252C111.618 463.972 112.706 463.033 114.253 463.033C115.416 463.033 116.29 463.428 117.026 464.057L116.301 465.039C115.661 464.484 114.925 464.175 114.2 464.175C113.464 464.175 112.962 464.623 112.962 465.135C112.962 465.732 113.506 465.945 114.669 466.212C116.194 466.553 117.218 467.044 117.218 468.377C117.218 469.689 116.216 470.617 114.466 470.617ZM118.839 464.153C118.423 464.153 118.093 463.801 118.093 463.407C118.093 463.012 118.423 462.671 118.839 462.671C119.245 462.671 119.575 463.012 119.575 463.407C119.575 463.801 119.245 464.153 118.839 464.153ZM118.178 470.5V464.985H119.479V470.5H118.178ZM124.811 464.985H126.112V469.913C126.112 471.332 124.918 472.335 123.232 472.335C122.283 472.335 121.408 472.025 120.864 471.599L121.344 470.649C121.728 471.001 122.39 471.225 123.04 471.225C124.128 471.225 124.811 470.703 124.811 469.871V469.156C124.374 469.743 123.712 470.095 122.923 470.095C121.494 470.095 120.438 469.007 120.438 467.471C120.438 465.935 121.494 464.857 122.923 464.857C123.702 464.857 124.416 465.22 124.811 465.807V464.985ZM123.296 468.985C124.182 468.985 124.811 468.356 124.811 467.471C124.811 466.596 124.182 465.967 123.296 465.967C122.422 465.967 121.792 466.596 121.792 467.471C121.792 468.356 122.422 468.985 123.296 468.985ZM130.363 464.857C131.569 464.857 132.411 465.743 132.411 466.991V470.5H131.153V467.247C131.153 466.5 130.673 465.967 129.99 465.967C129.307 465.967 128.742 466.425 128.657 467.012V470.5H127.355V464.985H128.657V465.721C128.998 465.209 129.638 464.857 130.363 464.857ZM139.714 470.628C137.826 470.628 136.482 469.284 136.482 467.375V463.172H137.816V467.332C137.816 468.548 138.605 469.423 139.714 469.423C140.834 469.423 141.624 468.548 141.624 467.332V463.172H142.946V467.375C142.946 469.284 141.613 470.628 139.714 470.628ZM147.479 464.857C148.941 464.857 150.007 466.052 150.007 467.737C150.007 469.433 148.941 470.628 147.479 470.628C146.658 470.628 145.997 470.255 145.559 469.625V472.335H144.258V464.985H145.559V465.86C145.997 465.231 146.658 464.857 147.479 464.857ZM147.127 469.519C148.055 469.519 148.717 468.772 148.717 467.737C148.717 466.703 148.055 465.967 147.127 465.967C146.21 465.967 145.57 466.703 145.57 467.737C145.57 468.772 146.21 469.519 147.127 469.519Z" fill="white"/>
</g>
<rect x="9.99959" y="448.667" width="242" height="36.6667" rx="8.33333" stroke="url(#paint0_linear_342_8286)" stroke-width="0.666667" shape-rendering="crispEdges"/>
</g>
</g>
</g>
<g filter="url(#filter3_d_342_8286)">
<g clip-path="url(#clip4_342_8286)">
<rect x="8.99976" y="497" width="244" height="38.6667" rx="9.33333" fill="#D0D4D9"/>
<g filter="url(#filter4_d_342_8286)">
<rect x="9.66626" y="497.667" width="242.667" height="37.3333" rx="8.66667" fill="white" shape-rendering="crispEdges"/>
<g filter="url(#filter5_d_342_8286)">
<path d="M117.016 518.617H120.781V519.833H115.693V512.505H117.016V518.617ZM124.272 519.961C122.672 519.961 121.317 518.639 121.317 517.071C121.317 515.503 122.672 514.191 124.272 514.191C125.872 514.191 127.226 515.503 127.226 517.071C127.226 518.639 125.872 519.961 124.272 519.961ZM124.272 518.852C125.178 518.852 125.946 518.041 125.946 517.071C125.946 516.111 125.178 515.3 124.272 515.3C123.354 515.3 122.586 516.111 122.586 517.071C122.586 518.041 123.354 518.852 124.272 518.852ZM132.248 514.319H133.55V519.247C133.55 520.665 132.355 521.668 130.67 521.668C129.72 521.668 128.846 521.359 128.302 520.932L128.782 519.983C129.166 520.335 129.827 520.559 130.478 520.559C131.566 520.559 132.248 520.036 132.248 519.204V518.489C131.811 519.076 131.15 519.428 130.36 519.428C128.931 519.428 127.875 518.34 127.875 516.804C127.875 515.268 128.931 514.191 130.36 514.191C131.139 514.191 131.854 514.553 132.248 515.14V514.319ZM130.734 518.319C131.619 518.319 132.248 517.689 132.248 516.804C132.248 515.929 131.619 515.3 130.734 515.3C129.859 515.3 129.23 515.929 129.23 516.804C129.23 517.689 129.859 518.319 130.734 518.319ZM137.664 519.833V512.505H138.987V519.833H137.664ZM143.27 514.191C144.475 514.191 145.318 515.076 145.318 516.324V519.833H144.059V516.58C144.059 515.833 143.579 515.3 142.897 515.3C142.214 515.3 141.649 515.759 141.563 516.345V519.833H140.262V514.319H141.563V515.055C141.905 514.543 142.545 514.191 143.27 514.191Z" fill="#23523B"/>
</g>
</g>
</g>
</g>
<rect x="86.3333" y="559.667" width="89.3333" height="3.33333" rx="1.66667" fill="black"/>
</g>
<path d="M105.777 362.348C105.777 362.348 104.502 361.528 105.455 360.519C106.408 359.51 110.515 354.799 111.15 354.555C111.784 354.31 114.155 354.801 114.814 355.702C115.473 356.604 112.374 361.474 105.777 362.348Z" fill="#89C147"/>
<path d="M123.153 352.384C123.153 352.384 123.932 350.934 125.261 352.02C132.748 358.136 132.784 358.427 132.167 359.52L128.823 362.723C128.823 362.723 123.153 353.44 123.153 352.384Z" fill="#89C147"/>
<path d="M130.455 359.979C130.442 359.999 130.427 360.018 130.413 360.038C130.244 360.257 130.055 360.494 129.849 360.748C129.191 361.553 128.352 362.516 127.417 363.557C124.611 366.678 120.928 369.961 118.594 372.361C118.5 372.458 118.407 372.552 118.318 372.644C118.174 372.791 118.037 372.931 117.906 373.065C117.631 373.347 117.385 373.599 117.173 373.814C116.694 374.303 115.922 374.34 115.398 373.901L104.908 365.119C104.34 364.643 104.278 363.792 104.77 363.238L105.188 362.767L105.796 362.083L117.689 349.253L118.299 348.567L118.311 348.553C118.808 347.995 119.668 347.963 120.204 348.485L130.285 358.297C130.746 358.744 130.814 359.456 130.455 359.979Z" fill="#ABD661"/>
<path d="M130.455 359.979C130.441 359.999 130.427 360.018 130.413 360.038C130.244 360.257 129.532 361.141 129.325 361.394C125.112 357.734 120.75 354.188 116.861 350.188L118.3 348.568C122.19 352.539 126.245 356.347 130.455 359.979Z" fill="#89C147"/>
<path d="M127.417 363.557C124.611 366.678 120.928 369.961 118.593 372.361C118.5 372.458 118.407 372.552 118.317 372.644C116.105 371.232 113.075 369.702 111.842 367.547C111.842 367.547 119.21 362.565 121.001 360.939C122.128 359.916 124.474 361.421 127.417 363.557Z" fill="#89C147"/>
<path d="M119.003 371.934C118.758 372.185 118.119 372.848 117.907 373.065C113.527 369.808 109.285 366.372 105.189 362.767L106.206 361.635C110.328 365.236 114.597 368.685 119.003 371.934Z" fill="#89C147"/>
<path d="M121.146 391.131L119.965 391.731L115.095 382.134L116.292 381.567L121.146 391.131Z" fill="#BACEE2"/>
<path d="M144.941 380.442L143.593 380.81L146.399 389.245L147.723 388.804L144.941 380.442Z" fill="#BACEE2"/>
<path d="M129.217 398.812L128.236 406.923L129.324 407.055L130.305 398.944L129.217 398.812Z" fill="#BDC7E0"/>
<path d="M120.817 380.173C120.543 381.708 127.286 384.11 130.394 384.266C130.952 384.295 130.598 384.493 130.315 385.179C129.316 387.603 129.148 388.16 128.647 390.145C128.146 392.13 127.388 394.398 127.388 394.398L130.841 395.356C130.841 395.356 134.33 389.059 136.559 384.25C137.346 382.552 136.796 381.029 135.503 380.291C132.952 378.836 128.409 377.069 124.806 375.406L120.817 380.173Z" fill="#1E1E30"/>
<path d="M131.406 401.173C131.367 401.169 131.328 401.161 131.289 401.15L128.417 400.288C128.093 400.191 127.909 399.847 128.005 399.523C128.089 399.242 128.362 399.059 128.654 399.088C128.693 399.092 128.732 399.099 128.77 399.111L131.641 399.972C131.798 400.019 131.927 400.125 132.005 400.269C132.083 400.414 132.1 400.58 132.053 400.737C131.969 401.018 131.697 401.202 131.406 401.173Z" fill="#BACEE2"/>
<path d="M127.944 394.545C127.67 395.376 127.461 396.011 127.461 396.011L130.004 397.071C130.004 397.071 130.159 396.567 130.688 395.316L127.944 394.545Z" fill="#EBB29E"/>
<path d="M133.434 399.823C133.254 400.235 132.646 400.498 130.405 399.788C129.23 399.416 128.266 398.815 128.266 398.815C127.993 398.696 127.842 399.024 126.614 398.442C126.37 398.326 126.216 398.077 126.255 397.809C126.295 397.531 126.355 397.295 126.43 397.089C126.677 396.413 127.095 396.052 127.542 395.557C128.296 395.975 129.346 396.26 130.32 396.285C130.32 396.285 130.899 396.929 132.28 398.039C133.196 398.775 133.47 399.212 133.491 399.527C133.498 399.637 133.473 399.734 133.434 399.823Z" fill="#ABD661"/>
<path d="M130.049 396.648C130.049 396.648 130.187 395.95 130.561 395.777C130.934 395.604 131.033 396.146 131.225 396.507C131.417 396.869 131.99 398.103 131.99 398.103L130.049 396.648Z" fill="#ABD661"/>
<path d="M131.484 398.075C131.458 398.068 131.434 398.052 131.419 398.028C131.397 397.995 131.396 397.953 131.415 397.918L131.571 397.627L130.926 397.635C130.886 397.636 130.849 397.615 130.83 397.58C130.81 397.544 130.812 397.502 130.834 397.468L131.21 396.886C130.985 396.88 130.602 396.879 130.31 396.923C130.25 396.932 130.195 396.891 130.186 396.832C130.177 396.773 130.218 396.717 130.277 396.708C130.738 396.638 131.383 396.675 131.411 396.676C131.449 396.679 131.484 396.701 131.501 396.735C131.518 396.77 131.516 396.811 131.495 396.843L131.125 397.416L131.752 397.408C131.791 397.407 131.826 397.427 131.846 397.46C131.866 397.493 131.867 397.534 131.849 397.568L131.699 397.847L132.175 397.813C132.235 397.808 132.287 397.853 132.291 397.913C132.296 397.973 132.251 398.025 132.191 398.029L131.518 398.078C131.506 398.078 131.495 398.077 131.484 398.075Z" fill="white"/>
<path d="M133.434 399.823C133.254 400.235 132.646 400.498 130.405 399.788C129.23 399.416 128.266 398.816 128.266 398.816C127.993 398.696 127.842 399.024 126.614 398.442C126.37 398.326 126.216 398.077 126.255 397.809C126.295 397.531 126.355 397.295 126.43 397.089C126.694 397.286 127.434 397.82 127.778 397.853C128.2 397.893 128.387 397.458 129.692 398.341C130.951 399.194 132.368 400.01 133.49 399.527C133.498 399.637 133.473 399.734 133.434 399.823Z" fill="#2E294E"/>
<path d="M113.106 381.231C113.106 381.231 114.018 383.972 115.508 383.726C116.998 383.479 118.19 382.735 120.28 382.735C121.651 382.735 121.707 380.712 120.506 380.712C118.317 380.712 116.515 380.514 115.378 380.471C114.242 380.429 113.135 380.467 113.106 381.231Z" fill="#2E294E"/>
<path d="M106.731 421.353C98.9639 421.353 92.6448 415.024 92.6448 407.244C92.6448 399.464 98.9639 393.135 106.731 393.135C114.498 393.135 120.817 399.464 120.817 407.244C120.817 415.024 114.498 421.353 106.731 421.353ZM106.731 394.944C99.9598 394.944 94.4508 400.462 94.4508 407.244C94.4508 414.026 99.9593 419.544 106.731 419.544C113.502 419.544 119.011 414.026 119.011 407.244C119.011 400.461 113.502 394.944 106.731 394.944Z" fill="#BACEE2"/>
<path d="M106.731 422.333C98.4243 422.333 91.666 415.564 91.666 407.243C91.666 398.923 98.4243 392.154 106.731 392.154C115.038 392.154 121.797 398.923 121.797 407.243C121.797 415.564 115.038 422.333 106.731 422.333ZM106.731 394.086C99.4879 394.086 93.5951 399.988 93.5951 407.243C93.5951 414.499 99.4879 420.401 106.731 420.401C113.975 420.401 119.868 414.499 119.868 407.243C119.868 399.988 113.975 394.086 106.731 394.086Z" fill="#2E294E"/>
<g opacity="0.6">
<g opacity="0.5">
<path d="M153.232 406.999L153.449 406.951L150.769 394.919L150.553 394.968L153.232 406.999Z" fill="#BACEE2"/>
</g>
<g opacity="0.5">
<path d="M152.593 394.697L152.373 394.72L153.655 406.981L153.876 406.958L152.593 394.697Z" fill="#BACEE2"/>
</g>
<g opacity="0.5">
<path d="M156.072 394.966L155.855 394.917L153.176 406.949L153.393 406.997L156.072 394.966Z" fill="#BACEE2"/>
</g>
<g opacity="0.5">
<path d="M152.745 406.953L152.966 406.976L154.248 394.716L154.028 394.692L152.745 406.953Z" fill="#BACEE2"/>
</g>
<g opacity="0.5">
<path d="M153.093 407.067L153.24 406.9L144.013 398.742L143.867 398.909L153.093 407.067Z" fill="#BACEE2"/>
</g>
<g opacity="0.5">
<path d="M145.352 397.491L145.188 397.64L153.42 406.803L153.585 406.654L145.352 397.491Z" fill="#BACEE2"/>
</g>
<path d="M148.33 395.663L148.127 395.752L153.022 407.062L153.225 406.974L148.33 395.663Z" fill="#BACEE2"/>
<g opacity="0.5">
<path d="M152.679 407.314L152.871 407.203L146.712 396.529L146.52 396.641L152.679 407.314Z" fill="#BACEE2"/>
</g>
<g opacity="0.5">
<path d="M153.024 407.205L153.045 406.984L140.793 405.815L140.772 406.036L153.024 407.205Z" fill="#BACEE2"/>
</g>
<g opacity="0.5">
<path d="M141.141 404.009L141.095 404.227L153.133 406.792L153.179 406.575L141.141 404.009Z" fill="#BACEE2"/>
</g>
<g opacity="0.5">
<path d="M142.482 400.777L142.369 400.969L152.965 407.239L153.078 407.048L142.482 400.777Z" fill="#BACEE2"/>
</g>
<g opacity="0.5">
<path d="M152.832 407.649L152.922 407.446L141.678 402.434L141.588 402.637L152.832 407.649Z" fill="#BACEE2"/>
</g>
<g opacity="0.5">
<path d="M153.052 407.355L152.939 407.164L142.342 413.434L142.455 413.625L153.052 407.355Z" fill="#BACEE2"/>
</g>
<g opacity="0.5">
<path d="M141.561 411.765L141.651 411.968L152.896 406.959L152.806 406.756L141.561 411.765Z" fill="#BACEE2"/>
</g>
<g opacity="0.5">
<path d="M140.743 408.366L140.764 408.587L153.016 407.421L152.995 407.2L140.743 408.366Z" fill="#BACEE2"/>
</g>
<g opacity="0.5">
<path d="M153.154 407.834L153.108 407.616L141.07 410.179L141.116 410.396L153.154 407.834Z" fill="#BACEE2"/>
</g>
<g opacity="0.5">
<path d="M153.151 407.462L152.948 407.374L148.053 418.684L148.256 418.773L153.151 407.462Z" fill="#BACEE2"/>
</g>
<g opacity="0.5">
<path d="M146.453 417.793L146.645 417.904L152.804 407.231L152.612 407.12L146.453 417.793Z" fill="#BACEE2"/>
</g>
<g opacity="0.5">
<path d="M143.798 415.521L143.945 415.687L153.174 407.532L153.027 407.365L143.798 415.521Z" fill="#BACEE2"/>
</g>
<g opacity="0.5">
<path d="M153.515 407.78L153.35 407.631L145.118 416.794L145.283 416.943L153.515 407.78Z" fill="#BACEE2"/>
</g>
<g opacity="0.5">
<path d="M153.306 407.485L153.089 407.533L155.77 419.564L155.986 419.516L153.306 407.485Z" fill="#BACEE2"/>
</g>
<g opacity="0.5">
<path d="M153.944 419.797L154.165 419.774L152.88 407.515L152.66 407.538L153.944 419.797Z" fill="#BACEE2"/>
</g>
<g opacity="0.5">
<path d="M150.465 419.516L150.682 419.565L153.362 407.533L153.146 407.485L150.465 419.516Z" fill="#BACEE2"/>
</g>
<g opacity="0.5">
<path d="M153.783 407.531L153.562 407.508L152.277 419.768L152.498 419.791L153.783 407.531Z" fill="#BACEE2"/>
</g>
<g opacity="0.5">
<path d="M153.442 407.414L153.295 407.581L162.523 415.737L162.67 415.571L153.442 407.414Z" fill="#BACEE2"/>
</g>
<g opacity="0.5">
<path d="M161.176 416.998L161.341 416.849L153.109 407.685L152.944 407.834L161.176 416.998Z" fill="#BACEE2"/>
</g>
<g opacity="0.5">
<path d="M158.201 418.821L158.405 418.733L153.511 407.422L153.308 407.51L158.201 418.821Z" fill="#BACEE2"/>
</g>
<g opacity="0.5">
<path d="M153.857 407.169L153.665 407.28L159.821 417.954L160.013 417.843L153.857 407.169Z" fill="#BACEE2"/>
</g>
<g opacity="0.5">
<path d="M153.507 407.282L153.486 407.503L165.738 408.669L165.759 408.448L153.507 407.282Z" fill="#BACEE2"/>
</g>
<g opacity="0.5">
<path d="M165.393 410.477L165.439 410.26L153.402 407.694L153.355 407.912L165.393 410.477Z" fill="#BACEE2"/>
</g>
<g opacity="0.5">
<path d="M164.058 413.705L164.171 413.513L153.574 407.246L153.461 407.438L164.058 413.705Z" fill="#BACEE2"/>
</g>
<g opacity="0.5">
<path d="M153.705 406.837L153.615 407.04L164.86 412.051L164.95 411.848L153.705 406.837Z" fill="#BACEE2"/>
</g>
<g opacity="0.5">
<path d="M153.484 407.132L153.597 407.324L164.193 401.054L164.08 400.863L153.484 407.132Z" fill="#BACEE2"/>
</g>
<g opacity="0.5">
<path d="M164.973 402.722L164.883 402.519L153.638 407.528L153.728 407.731L164.973 402.722Z" fill="#BACEE2"/>
</g>
<g opacity="0.5">
<path d="M165.791 406.121L165.77 405.899L153.518 407.066L153.539 407.287L165.791 406.121Z" fill="#BACEE2"/>
</g>
<g opacity="0.5">
<path d="M153.383 406.657L153.429 406.875L165.467 404.307L165.42 404.09L153.383 406.657Z" fill="#BACEE2"/>
</g>
<g opacity="0.5">
<path d="M153.382 407.024L153.585 407.112L158.478 395.801L158.274 395.713L153.382 407.024Z" fill="#BACEE2"/>
</g>
<g opacity="0.5">
<path d="M160.087 396.695L159.895 396.584L153.737 407.258L153.929 407.369L160.087 396.695Z" fill="#BACEE2"/>
</g>
<g opacity="0.5">
<path d="M162.738 398.959L162.592 398.792L153.365 406.949L153.512 407.116L162.738 398.959Z" fill="#BACEE2"/>
</g>
<g opacity="0.5">
<path d="M153.017 406.701L153.182 406.85L161.415 397.687L161.251 397.538L153.017 406.701Z" fill="#BACEE2"/>
</g>
</g>
<g opacity="0.6">
<g opacity="0.5">
<path d="M106.696 407L106.913 406.952L104.233 394.92L104.017 394.968L106.696 407Z" fill="#BACEE2"/>
</g>
<g opacity="0.5">
<path d="M106.055 394.697L105.835 394.72L107.117 406.981L107.338 406.957L106.055 394.697Z" fill="#BACEE2"/>
</g>
<g opacity="0.5">
<path d="M109.536 394.967L109.32 394.919L106.64 406.951L106.857 406.999L109.536 394.967Z" fill="#BACEE2"/>
</g>
<g opacity="0.5">
<path d="M106.212 406.952L106.433 406.976L107.715 394.715L107.494 394.692L106.212 406.952Z" fill="#BACEE2"/>
</g>
<g opacity="0.5">
<path d="M106.557 407.071L106.704 406.904L97.4768 398.746L97.33 398.912L106.557 407.071Z" fill="#BACEE2"/>
</g>
<g opacity="0.5">
<path d="M98.817 397.489L98.6521 397.638L106.884 406.801L107.049 406.652L98.817 397.489Z" fill="#BACEE2"/>
</g>
<path d="M101.794 395.663L101.591 395.751L106.485 407.062L106.689 406.973L101.794 395.663Z" fill="#BACEE2"/>
<g opacity="0.5">
<path d="M106.141 407.316L106.333 407.205L100.175 396.532L99.9826 396.643L106.141 407.316Z" fill="#BACEE2"/>
</g>
<g opacity="0.5">
<path d="M106.488 407.205L106.51 406.984L94.2576 405.815L94.2365 406.036L106.488 407.205Z" fill="#BACEE2"/>
</g>
<g opacity="0.5">
<path d="M94.6057 404.012L94.5596 404.229L106.597 406.794L106.644 406.577L94.6057 404.012Z" fill="#BACEE2"/>
</g>
<g opacity="0.5">
<path d="M95.9441 400.782L95.8313 400.973L106.427 407.244L106.54 407.052L95.9441 400.782Z" fill="#BACEE2"/>
</g>
<g opacity="0.5">
<path d="M106.297 407.648L106.387 407.445L95.143 402.433L95.0528 402.636L106.297 407.648Z" fill="#BACEE2"/>
</g>
<g opacity="0.5">
<path d="M106.51 407.355L106.398 407.164L95.7999 413.432L95.9126 413.624L106.51 407.355Z" fill="#BACEE2"/>
</g>
<g opacity="0.5">
<path d="M95.0248 411.766L95.115 411.969L106.36 406.959L106.27 406.756L95.0248 411.766Z" fill="#BACEE2"/>
</g>
<g opacity="0.5">
<path d="M94.2095 408.366L94.2305 408.587L106.482 407.42L106.461 407.199L94.2095 408.366Z" fill="#BACEE2"/>
</g>
<g opacity="0.5">
<path d="M106.618 407.827L106.572 407.609L94.5349 410.173L94.5811 410.391L106.618 407.827Z" fill="#BACEE2"/>
</g>
<g opacity="0.5">
<path d="M106.621 407.462L106.417 407.374L101.523 418.684L101.726 418.773L106.621 407.462Z" fill="#BACEE2"/>
</g>
<g opacity="0.5">
<path d="M99.9147 417.794L100.107 417.905L106.265 407.232L106.073 407.121L99.9147 417.794Z" fill="#BACEE2"/>
</g>
<g opacity="0.5">
<path d="M97.2602 415.522L97.407 415.689L106.635 407.532L106.488 407.365L97.2602 415.522Z" fill="#BACEE2"/>
</g>
<g opacity="0.5">
<path d="M106.981 407.786L106.816 407.637L98.584 416.801L98.7489 416.95L106.981 407.786Z" fill="#BACEE2"/>
</g>
<g opacity="0.5">
<path d="M106.765 407.488L106.549 407.536L109.228 419.567L109.444 419.519L106.765 407.488Z" fill="#BACEE2"/>
</g>
<g opacity="0.5">
<path d="M107.407 419.796L107.627 419.773L106.342 407.513L106.122 407.536L107.407 419.796Z" fill="#BACEE2"/>
</g>
<g opacity="0.5">
<path d="M103.93 419.518L104.146 419.566L106.827 407.535L106.61 407.487L103.93 419.518Z" fill="#BACEE2"/>
</g>
<g opacity="0.5">
<path d="M107.25 407.531L107.03 407.507L105.745 419.767L105.965 419.79L107.25 407.531Z" fill="#BACEE2"/>
</g>
<g opacity="0.5">
<path d="M106.901 407.417L106.754 407.584L115.98 415.741L116.127 415.574L106.901 407.417Z" fill="#BACEE2"/>
</g>
<g opacity="0.5">
<path d="M114.641 416.996L114.806 416.847L106.574 407.683L106.409 407.831L114.641 416.996Z" fill="#BACEE2"/>
</g>
<g opacity="0.5">
<path d="M111.664 418.824L111.867 418.736L106.974 407.424L106.771 407.513L111.664 418.824Z" fill="#BACEE2"/>
</g>
<g opacity="0.5">
<path d="M107.318 407.174L107.125 407.285L113.282 417.959L113.474 417.848L107.318 407.174Z" fill="#BACEE2"/>
</g>
<g opacity="0.5">
<path d="M106.973 407.284L106.952 407.505L119.204 408.673L119.225 408.452L106.973 407.284Z" fill="#BACEE2"/>
</g>
<g opacity="0.5">
<path d="M118.856 410.474L118.902 410.257L106.864 407.692L106.818 407.909L118.856 410.474Z" fill="#BACEE2"/>
</g>
<g opacity="0.5">
<path d="M117.519 413.705L117.631 413.514L107.034 407.245L106.921 407.437L117.519 413.705Z" fill="#BACEE2"/>
</g>
<g opacity="0.5">
<path d="M107.166 406.841L107.076 407.044L118.32 412.056L118.41 411.853L107.166 406.841Z" fill="#BACEE2"/>
</g>
<g opacity="0.5">
<path d="M106.949 407.132L107.062 407.323L117.658 401.053L117.546 400.862L106.949 407.132Z" fill="#BACEE2"/>
</g>
<g opacity="0.5">
<path d="M118.437 402.721L118.346 402.518L107.102 407.528L107.192 407.731L118.437 402.721Z" fill="#BACEE2"/>
</g>
<g opacity="0.5">
<path d="M119.253 406.119L119.232 405.898L106.98 407.064L107.001 407.285L119.253 406.119Z" fill="#BACEE2"/>
</g>
<g opacity="0.5">
<path d="M106.847 406.659L106.893 406.876L118.931 404.309L118.885 404.091L106.847 406.659Z" fill="#BACEE2"/>
</g>
<g opacity="0.5">
<path d="M106.845 407.025L107.048 407.113L111.94 395.802L111.737 395.713L106.845 407.025Z" fill="#BACEE2"/>
</g>
<g opacity="0.5">
<path d="M113.549 396.691L113.357 396.58L107.2 407.252L107.392 407.364L113.549 396.691Z" fill="#BACEE2"/>
</g>
<g opacity="0.5">
<path d="M116.2 398.965L116.053 398.798L106.824 406.954L106.97 407.12L116.2 398.965Z" fill="#BACEE2"/>
</g>
<g opacity="0.5">
<path d="M106.48 406.706L106.645 406.855L114.877 397.692L114.713 397.543L106.48 406.706Z" fill="#BACEE2"/>
</g>
</g>
<path d="M153.267 421.353C145.5 421.353 139.181 415.024 139.181 407.244C139.181 399.464 145.5 393.135 153.267 393.135C161.034 393.135 167.354 399.464 167.354 407.244C167.354 415.024 161.034 421.353 153.267 421.353ZM153.267 394.944C146.496 394.944 140.987 400.462 140.987 407.244C140.987 414.026 146.496 419.544 153.267 419.544C160.039 419.544 165.548 414.026 165.548 407.244C165.547 400.461 160.039 394.944 153.267 394.944Z" fill="#BACEE2"/>
<path d="M153.267 422.333C144.96 422.333 138.202 415.564 138.202 407.243C138.202 398.923 144.96 392.154 153.267 392.154C161.574 392.154 168.332 398.923 168.332 407.243C168.332 415.564 161.574 422.333 153.267 422.333ZM153.267 394.086C146.024 394.086 140.131 399.988 140.131 407.243C140.131 414.499 146.024 420.401 153.267 420.401C160.511 420.401 166.403 414.499 166.403 407.243C166.403 399.988 160.511 394.086 153.267 394.086Z" fill="#2E294E"/>
<path d="M148.747 379.056C148.747 379.056 147.931 380.063 148.948 380.342C149.964 380.621 151.423 380.543 151.524 380.509C151.623 380.476 150.222 377.603 148.747 379.056Z" fill="#EBB29E"/>
<path d="M150.69 383.044C150.427 383.044 150.178 382.926 150.008 382.719C149.74 382.393 149.758 381.886 150.049 381.566C150.405 381.173 150.573 380.647 150.51 380.121C150.453 379.646 150.16 379.381 149.991 379.265C149.849 379.169 149.618 379.055 149.315 379.055C149.212 379.055 149.107 379.069 149.005 379.096L145.596 379.994C145.456 380.031 145.337 380.125 145.268 380.253C145.2 380.38 145.187 380.532 145.234 380.669L145.244 380.698C145.249 380.713 145.245 380.726 145.241 380.734C145.236 380.742 145.228 380.753 145.212 380.757L143.606 381.199C143.604 381.199 143.602 381.199 143.6 381.199C143.575 381.199 143.557 381.189 143.551 381.169L143.394 380.707C143.238 380.246 143.281 379.736 143.511 379.307C143.741 378.878 144.142 378.561 144.613 378.437L148.491 377.414C148.774 377.339 149.058 377.302 149.336 377.302C149.634 377.302 149.921 377.345 150.189 377.43C151.304 377.784 152.113 378.758 152.252 379.912C152.376 380.95 152.043 381.988 151.337 382.759C151.171 382.941 150.936 383.044 150.69 383.044Z" fill="#2E294E"/>
<path d="M128.564 406.633L128.472 406.918H108.345L108.721 406.293C114.164 397.234 123.256 390.937 133.451 388.93C137.274 388.177 143.243 387.853 146.192 387.774L146.146 386.666H140.649C126.474 386.666 113.434 394.399 106.617 406.848C106.432 407.185 106.439 407.601 106.635 407.932C106.831 408.264 107.192 408.47 107.576 408.47H129.666L129.814 407.885C131.468 401.353 139.209 394.076 147.54 391.166L147.053 389.693C138.525 392.659 130.789 399.729 128.564 406.633Z" fill="#68AD3B"/>
<path d="M121.389 392.05L120.054 392.843L127.422 407.36L128.803 406.658L121.389 392.05Z" fill="#68AD3B"/>
<path d="M119.345 390.432L120.471 389.898C120.546 389.863 120.636 389.893 120.673 389.968L128.932 406.24L128.131 406.814L120.007 392.163L119.273 390.638C119.236 390.56 119.268 390.468 119.345 390.432Z" fill="#89C147"/>
<path d="M153.267 408.02C152.935 408.02 152.64 407.808 152.533 407.492L144.909 384.961L146.387 384.495L154 406.995C154.067 407.191 154.053 407.401 153.961 407.587C153.87 407.772 153.711 407.911 153.515 407.978C153.435 408.006 153.351 408.02 153.267 408.02Z" fill="#89C147"/>
<path d="M128.258 406.183L128.166 406.468H108.04L108.415 405.843C113.972 396.595 123.599 390.044 134.153 388.17C137.318 387.608 139.805 387.429 145.912 387.213V385.477C145.025 385.516 143.908 385.565 142.514 385.628C126.167 386.36 113.129 393.949 106.312 406.397C106.127 406.735 106.133 407.15 106.329 407.482C106.525 407.813 106.886 408.019 107.27 408.019H129.361L129.509 407.434C131.163 400.903 138.903 393.626 147.235 390.716L146.747 389.243C138.219 392.209 130.483 399.279 128.258 406.183Z" fill="#89C147"/>
<path d="M133.255 409.289C134.383 406.8 133.282 403.866 130.797 402.737C128.312 401.607 125.384 402.71 124.256 405.199C123.128 407.688 124.229 410.621 126.714 411.751C129.199 412.88 132.128 411.778 133.255 409.289Z" fill="#BACEE2"/>
<path d="M132.958 406.775C133.216 409.097 131.546 411.189 129.228 411.447C126.911 411.706 124.822 410.033 124.564 407.712C124.306 405.39 125.976 403.298 128.294 403.04C130.612 402.781 132.7 404.454 132.958 406.775Z" fill="#EDEFF7"/>
<path d="M128.757 412.589C128.504 412.589 110.02 410.83 106.706 410.579C104.876 410.572 103.39 409.078 103.39 407.244C103.39 405.41 104.876 403.916 106.706 403.909C110.02 403.658 128.504 401.899 128.757 401.899C131.7 401.899 134.094 404.297 134.094 407.244C134.094 410.191 131.7 412.589 128.757 412.589ZM106.72 404.623C105.277 404.623 104.104 405.799 104.104 407.243C104.104 408.688 105.277 409.864 106.72 409.864L106.747 409.865C113.453 410.373 128.323 411.778 128.763 411.797C131.267 411.794 133.304 409.752 133.304 407.243C133.304 404.733 131.264 402.69 128.758 402.69C128.398 402.704 113.471 404.113 106.747 404.622L106.72 404.623Z" fill="#BACEE2"/>
<path d="M109.844 407.243C109.844 408.972 108.445 410.374 106.719 410.374C104.993 410.374 103.594 408.972 103.594 407.243C103.594 405.515 104.993 404.113 106.719 404.113C108.445 404.113 109.844 405.515 109.844 407.243Z" fill="#BACEE2"/>
<path d="M107.45 407.244C107.45 407.647 107.123 407.975 106.72 407.975C106.317 407.975 105.99 407.647 105.99 407.244C105.99 406.84 106.317 406.512 106.72 406.512C107.123 406.512 107.45 406.84 107.45 407.244Z" fill="#EDEFF7"/>
<path d="M127.186 415.523L128.115 407.456C128.143 407.211 128.334 407.021 128.578 406.993C128.618 406.989 128.659 406.989 128.7 406.994C128.986 407.029 129.192 407.29 129.159 407.576L128.228 415.65L127.186 415.523Z" fill="#BACEE2"/>
<path d="M129.883 416.05C129.845 416.055 129.807 416.057 129.769 416.055L126.94 415.917C126.616 415.901 126.365 415.623 126.381 415.297C126.396 415.016 126.608 414.783 126.886 414.743C126.924 414.738 126.962 414.736 127 414.738L129.829 414.876C129.986 414.884 130.131 414.952 130.237 415.07C130.342 415.187 130.396 415.338 130.388 415.495C130.373 415.777 130.16 416.01 129.883 416.05Z" fill="#BACEE2"/>
<path d="M137.303 358.793C137.303 358.793 137.063 359.193 136.789 359.712C136.519 360.224 136.215 360.853 136.077 361.332C135.861 362.079 132.294 360.142 132.422 359.501C132.422 359.501 134.391 355.388 134.866 354.453C135.148 353.896 135.996 355.319 136.613 356.694C137.032 357.627 137.344 358.537 137.303 358.793Z" fill="#EBB29E"/>
<path d="M137.303 358.793C137.303 358.793 137.063 359.193 136.789 359.712C135.446 358.895 135.064 357.976 135.063 356.694H136.612C137.031 357.627 137.344 358.537 137.303 358.793Z" fill="#D78377"/>
<path d="M140.064 357.192C139.963 358.106 138.877 359.295 138.591 359.25C138.363 359.215 138.152 359.169 137.957 359.11C137.394 358.941 136.818 358.801 135.822 358.009C134.764 357.168 134.692 355.84 134.692 355.84C133.416 355.766 134.603 355.065 134.235 354.254C133.867 353.443 134.898 352.386 135.388 351.894C135.879 351.402 139.796 352.197 140.331 352.878C141.381 354.212 140.266 355.343 140.064 357.192Z" fill="#EBB29E"/>
<path d="M141.176 352.039C140.976 351.011 139.732 349.377 137.509 349.475C135.286 349.573 133.312 350.111 132.854 352.53C132.495 354.429 132.809 356.144 133.624 356.978C133.737 357.093 134.784 356.649 134.94 356.356C135.077 356.097 135.23 355.814 135.144 355.737C134.662 355.308 134.796 354.349 135.242 354.066C135.536 353.879 136.126 354.081 136.175 354.431C136.198 354.592 136.198 354.841 136.166 355.232C136.159 355.32 136.648 355.606 136.648 355.606C137.637 353.195 138.758 353.561 139.653 353.716C140.766 353.907 140.91 353.508 140.91 353.508C141.194 353.175 141.313 352.743 141.176 352.039Z" fill="#6A3735"/>
<path d="M136.634 368.009C137.597 373.187 148.07 378.114 148.07 378.114L150.913 377.387C146.612 374.838 139.477 364.554 137.864 362.264C137.362 361.552 136.634 368.009 136.634 368.009Z" fill="#2E294E"/>
<path d="M127.29 372.758C127.189 369.531 125.924 366.908 123.75 367.181C122.414 369.62 119.379 371.099 119.235 371.447C118.522 373.167 119.164 373.901 119.337 373.953C119.467 373.991 123.043 374.696 124.77 375.435C124.996 375.532 125.221 375.522 125.604 375.156C126.712 374.099 126.727 373.565 127.29 372.758Z" fill="#EBB29E"/>
<path d="M124.457 408.607C124.377 408.776 124.503 412.361 124.503 412.361L127.225 412.782C127.225 412.782 127.599 410.165 127.599 408.825C127.599 407.485 125.001 407.454 124.457 408.607Z" fill="#EBB29E"/>
<path d="M131.212 414.633C131.136 415.076 130.607 415.477 128.263 415.325C127.032 415.245 125.953 414.892 125.953 414.892C125.659 414.842 125.591 415.196 124.26 414.925C123.995 414.871 123.786 414.666 123.76 414.396C123.732 414.117 123.734 413.874 123.757 413.655C123.836 412.94 124.155 412.489 124.471 411.901C125.303 412.127 126.391 412.152 127.343 411.943C127.343 411.943 128.058 412.429 129.664 413.177C130.73 413.672 131.1 414.031 131.195 414.331C131.229 414.437 131.228 414.537 131.212 414.633Z" fill="#ABD661"/>
<path d="M127.167 412.361C127.167 412.361 126.991 411.54 127.312 411.283C127.633 411.026 128.002 411.637 128.275 411.943C128.548 412.248 129.399 413.31 129.399 413.31L127.167 412.361Z" fill="#ABD661"/>
<path d="M128.901 413.402C128.874 413.402 128.847 413.392 128.827 413.373C128.798 413.346 128.787 413.305 128.796 413.267L128.879 412.946L128.255 413.109C128.216 413.119 128.175 413.107 128.148 413.078C128.121 413.049 128.112 413.007 128.125 412.969L128.352 412.313C128.132 412.361 127.76 412.452 127.486 412.565C127.431 412.588 127.368 412.562 127.345 412.506C127.322 412.451 127.349 412.387 127.404 412.365C127.835 412.186 128.47 412.067 128.497 412.062C128.535 412.055 128.574 412.068 128.599 412.098C128.624 412.127 128.632 412.168 128.619 412.204L128.396 412.849L129.003 412.691C129.04 412.681 129.08 412.692 129.107 412.719C129.134 412.747 129.145 412.786 129.135 412.823L129.056 413.131L129.511 412.983C129.568 412.964 129.629 412.995 129.647 413.052C129.665 413.109 129.634 413.171 129.577 413.189L128.935 413.398C128.924 413.4 128.913 413.402 128.901 413.402Z" fill="white"/>
<path d="M131.212 414.633C131.136 415.076 130.607 415.477 128.263 415.325C127.032 415.245 125.953 414.893 125.953 414.893C125.659 414.842 125.591 415.196 124.26 414.925C123.995 414.871 123.786 414.666 123.76 414.396C123.732 414.117 123.734 413.874 123.757 413.656C124.061 413.784 124.907 414.125 125.249 414.075C125.669 414.012 125.747 413.545 127.224 414.09C128.65 414.616 130.221 415.07 131.195 414.331C131.229 414.437 131.228 414.537 131.212 414.633Z" fill="#2E294E"/>
<path d="M122.977 394.929C122.554 396.833 122.861 399.612 123.109 402.151C123.298 404.083 123.22 407.539 123.321 409.619C124.383 409.991 125.832 410.177 127.598 410.211C127.835 407.219 128.761 395.196 128.085 389.773C127.38 384.124 125.302 381.235 125.706 378.429C125.945 376.771 127.207 375.213 127.207 375.213C127.207 375.213 122.918 372.79 119.292 371.381C117.481 373.461 115.695 375.44 115.7 377.595C115.706 380.661 117.425 380.573 117.813 382.094C119.603 389.108 123.628 391.996 122.977 394.929Z" fill="#252438"/>
<path d="M118.266 372.604C117.757 372.159 123.768 366.862 125.389 365.107C127.465 362.859 128.278 361.805 130.371 359.998C131.424 359.089 132.891 358.53 132.891 358.53C132.945 359.338 135.835 360.257 136.846 361.089C137.517 361.641 138.605 362.894 138.096 363.891C137.588 364.888 136.621 367.929 136.416 368.881C136.262 369.598 129.986 373.55 127.878 375.564C126.842 376.553 126.664 377.246 125.377 376.612C123.412 375.645 119.551 373.727 118.266 372.604Z" fill="#383860"/>
<path d="M139.713 357.561C139.713 357.561 140.128 357.639 140.365 357.64C140.579 357.64 140.629 357.344 140.564 357.076C140.454 356.622 140.281 355.821 140.349 355.538C140.443 355.144 139.401 357.057 139.713 357.561Z" fill="#EBB29E"/>
<path d="M139.871 358.261L138.543 357.498C138.543 357.498 136.954 358.632 139.871 358.261Z" fill="white"/>
<path d="M140.275 355.72C140.032 355.932 139.799 355.966 139.592 355.91C139.121 355.783 138.787 355.191 138.787 355.191C139.15 355.157 139.47 355.188 139.726 355.281C139.976 355.37 140.165 355.517 140.275 355.72Z" fill="white"/>
<path d="M140.275 355.72C140.032 355.932 139.798 355.966 139.592 355.91C139.517 355.823 139.479 355.705 139.498 355.582C139.52 355.445 139.609 355.335 139.726 355.281C139.976 355.37 140.165 355.517 140.275 355.72Z" fill="#2E294E"/>
<path d="M140.376 355.341C140.337 355.327 140.303 355.3 140.282 355.262C139.966 354.695 139.443 354.641 139.307 354.631C139.181 354.621 139.104 354.599 139.11 354.505C139.115 354.411 139.216 354.375 139.31 354.371C139.497 354.364 140.196 354.349 140.605 355.084C140.651 355.167 140.596 355.282 140.514 355.328C140.47 355.352 140.42 355.355 140.376 355.341Z" fill="#2E294E"/>
<path d="M135.543 366.493C132.492 367.912 124.645 368.255 122.084 368.33L122.093 368.927C127.482 370.586 136.223 367.928 136.223 367.928C136.223 367.928 136.061 367.006 136.402 366.742L136.427 366.104C136.195 366.198 135.904 366.325 135.543 366.493Z" fill="#2E294E"/>
<path d="M136.668 365.819C136.426 365.928 136.274 365.628 135.881 365.773C125.615 369.535 120.903 367.385 120.903 367.385C120.903 367.385 120.11 368.417 119.264 368.502V369.129C119.679 369.13 120.158 368.722 120.67 368.835C126.222 370.05 136.348 366.791 136.348 366.791C136.348 366.791 136.321 366.317 136.668 366.025V365.819V365.819Z" fill="#89C147"/>
<path d="M146.654 377.981C146.49 377.946 146.187 378.394 144.909 378.726C142.114 378.065 133.749 376.658 133.326 376.233C132.866 375.772 132.588 374.754 132.363 370.734C132.213 368.049 132.528 365.591 132.311 364.768C132.173 364.245 134.007 362.68 135.848 361.885C137.219 361.293 138.44 361.971 138.378 364.451C138.368 364.882 138.256 365.479 138.273 366.062C138.321 367.807 138.068 372.285 138.068 372.285C138.068 372.285 145.81 374.957 147.991 376.049C148.248 376.178 149.417 378.564 146.654 377.981Z" fill="#383860"/>
<path d="M147.863 376.371C147.863 376.371 150.918 376.55 151.78 377.175C152.641 377.8 151.948 378.917 151.948 378.917C151.948 378.917 151.379 377.854 149.886 379.131C148.956 379.928 149.106 378.397 146.192 377.957C146.596 377.261 147.121 376.697 147.863 376.371Z" fill="#EBB29E"/>
<path d="M98.1912 364.426H107.571" stroke="white" stroke-width="0.407801" stroke-linecap="round"/>
<path d="M93.2974 367.688L107.163 367.688" stroke="white" stroke-width="0.407801" stroke-linecap="round"/>
<path d="M91.6665 361.163L107.163 361.163" stroke="white" stroke-width="0.407801" stroke-linecap="round"/>
<path d="M139 356.471C139.089 356.264 138.618 355.864 138.411 355.775C138.204 355.686 137.59 355.622 137.501 355.829C137.412 356.036 137.883 356.436 138.09 356.525C138.297 356.613 138.912 356.678 139 356.471Z" fill="#E19A8B"/>
<path d="M88.333 410.333H95.9997" stroke="white" stroke-width="0.333333" stroke-linecap="round"/>
<path d="M84.333 413L95.6663 413" stroke="white" stroke-width="0.333333" stroke-linecap="round"/>
<path d="M82.9998 407.667L95.6664 407.667" stroke="white" stroke-width="0.333333" stroke-linecap="round"/>
<path d="M12.5952 12.2945C12.9432 12.2969 13.2817 12.3584 13.6108 12.4792C13.9423 12.5975 14.2405 12.7917 14.5057 13.0616C14.7709 13.3291 14.9816 13.6877 15.1378 14.1375C15.2941 14.5874 15.3722 15.1437 15.3722 15.8066C15.3745 16.4316 15.3083 16.9903 15.1733 17.4827C15.0407 17.9728 14.8502 18.3871 14.6016 18.7256C14.353 19.0642 14.0535 19.3222 13.7031 19.4998C13.3528 19.6773 12.9586 19.7661 12.5206 19.7661C12.0613 19.7661 11.6541 19.6761 11.299 19.4962C10.9463 19.3163 10.661 19.0701 10.4432 18.7576C10.2254 18.4451 10.0916 18.0876 10.0419 17.6851H11.3381C11.4044 17.974 11.5393 18.2036 11.7429 18.3741C11.9489 18.5421 12.2081 18.6262 12.5206 18.6262C13.0249 18.6262 13.4131 18.4072 13.6854 17.9692C13.9576 17.5312 14.0938 16.9228 14.0938 16.1439H14.0441C13.928 16.3523 13.7777 16.5322 13.5931 16.6837C13.4084 16.8329 13.1989 16.9477 12.9645 17.0282C12.7325 17.1087 12.4863 17.1489 12.2259 17.1489C11.7997 17.1489 11.4162 17.0471 11.0753 16.8435C10.7368 16.6399 10.4681 16.3606 10.2692 16.0054C10.0727 15.6503 9.97327 15.2443 9.9709 14.7874C9.9709 14.3139 10.0798 13.889 10.2976 13.5125C10.5178 13.1338 10.8244 12.8355 11.2173 12.6177C11.6103 12.3975 12.0696 12.2898 12.5952 12.2945ZM12.5987 13.3598C12.3431 13.3598 12.1122 13.4226 11.9063 13.5481C11.7027 13.6712 11.5417 13.8392 11.4233 14.0523C11.3073 14.263 11.2493 14.4986 11.2493 14.759C11.2517 15.017 11.3097 15.2514 11.4233 15.4621C11.5393 15.6728 11.6968 15.8397 11.8956 15.9628C12.0968 16.0859 12.3265 16.1475 12.5845 16.1475C12.7763 16.1475 12.955 16.1108 13.1208 16.0374C13.2865 15.964 13.4309 15.8622 13.554 15.732C13.6795 15.5994 13.7765 15.4491 13.8452 15.281C13.9162 15.1129 13.9505 14.9354 13.9482 14.7483C13.9482 14.4998 13.889 14.2701 13.7706 14.0594C13.6546 13.8487 13.4948 13.6794 13.2912 13.5516C13.09 13.4238 12.8592 13.3598 12.5987 13.3598ZM17.1608 18.7931C16.9454 18.7931 16.7607 18.7173 16.6068 18.5658C16.453 18.4119 16.3772 18.2273 16.3796 18.0118C16.3772 17.7988 16.453 17.6165 16.6068 17.465C16.7607 17.3134 16.9454 17.2377 17.1608 17.2377C17.3691 17.2377 17.5503 17.3134 17.7041 17.465C17.8604 17.6165 17.9397 17.7988 17.9421 18.0118C17.9397 18.1562 17.9018 18.2876 17.8284 18.406C17.7574 18.5244 17.6627 18.6191 17.5443 18.6901C17.4283 18.7588 17.3005 18.7931 17.1608 18.7931ZM17.1608 15.1887C16.9454 15.1887 16.7607 15.1129 16.6068 14.9614C16.453 14.8075 16.3772 14.6229 16.3796 14.4074C16.3772 14.1944 16.453 14.0121 16.6068 13.8606C16.7607 13.7067 16.9454 13.6297 17.1608 13.6297C17.3691 13.6297 17.5503 13.7067 17.7041 13.8606C17.8604 14.0121 17.9397 14.1944 17.9421 14.4074C17.9397 14.5495 17.9018 14.6797 17.8284 14.7981C17.7574 14.9164 17.6627 15.0111 17.5443 15.0821C17.4283 15.1532 17.3005 15.1887 17.1608 15.1887ZM18.9237 18.3172V17.2696L22.0096 12.3939H22.8832V13.8854H22.3506L20.2731 17.1773V17.2341H24.5807V18.3172H18.9237ZM22.3932 19.6667V17.9976L22.4074 17.5289V12.3939H23.6503V19.6667H22.3932ZM28.3757 12.3939V19.6667H27.0582V13.6759H27.0156L25.3146 14.7625V13.5552L27.1221 12.3939H28.3757Z" fill="white"/>
<rect opacity="0.35" x="237.115" y="12.2231" width="14" height="6.88889" rx="1.44444" stroke="white" stroke-width="0.666667"/>
<path opacity="0.4" d="M252.115 14.3342V17.0009C252.651 16.775 253 16.2496 253 15.6675C253 15.0855 252.651 14.5601 252.115 14.3342" fill="white"/>
<rect x="238.115" y="13.2231" width="12" height="4.88889" rx="0.888889" fill="white"/>
<path fill-rule="evenodd" clip-rule="evenodd" d="M228.338 13.411C229.821 13.411 231.247 13.9804 232.322 15.0015C232.403 15.0803 232.533 15.0793 232.612 14.9993L233.386 14.2191C233.426 14.1784 233.449 14.1234 233.449 14.0662C233.448 14.009 233.425 13.9542 233.384 13.9141C230.563 11.2126 226.112 11.2126 223.291 13.9141C223.25 13.9542 223.227 14.0089 223.226 14.0662C223.226 14.1234 223.248 14.1784 223.289 14.2191L224.063 14.9993C224.142 15.0795 224.272 15.0805 224.353 15.0015C225.428 13.9804 226.854 13.411 228.338 13.411ZM228.338 15.9494C229.152 15.9493 229.938 16.2519 230.542 16.7985C230.624 16.876 230.753 16.8743 230.832 16.7947L231.605 16.0144C231.646 15.9735 231.668 15.918 231.668 15.8603C231.667 15.8026 231.644 15.7476 231.602 15.7075C229.763 13.9979 226.914 13.9979 225.075 15.7075C225.033 15.7476 225.009 15.8027 225.009 15.8604C225.008 15.9181 225.031 15.9736 225.072 16.0144L225.844 16.7947C225.924 16.8743 226.053 16.876 226.134 16.7985C226.738 16.2523 227.523 15.9497 228.338 15.9494ZM229.886 17.6572C229.887 17.7151 229.864 17.7708 229.823 17.8114L228.486 19.1594C228.447 19.199 228.393 19.2213 228.338 19.2213C228.282 19.2213 228.228 19.199 228.189 19.1594L226.852 17.8114C226.811 17.7708 226.788 17.715 226.789 17.6572C226.79 17.5993 226.816 17.5445 226.859 17.5057C227.712 16.7842 228.963 16.7842 229.817 17.5057C229.859 17.5445 229.884 17.5993 229.886 17.6572Z" fill="white"/>
<path fill-rule="evenodd" clip-rule="evenodd" d="M219.226 12.1119H218.559C218.191 12.1119 217.893 12.4104 217.893 12.7786V18.5564C217.893 18.9246 218.191 19.2231 218.559 19.2231H219.226C219.594 19.2231 219.893 18.9246 219.893 18.5564V12.7786C219.893 12.4104 219.594 12.1119 219.226 12.1119ZM215.448 13.6675H216.115C216.483 13.6675 216.781 13.9659 216.781 14.3341V18.5564C216.781 18.9245 216.483 19.223 216.115 19.223H215.448C215.08 19.223 214.781 18.9245 214.781 18.5564V14.3341C214.781 13.9659 215.08 13.6675 215.448 13.6675ZM213.004 15.2231H212.338C211.969 15.2231 211.671 15.5215 211.671 15.8897V18.5564C211.671 18.9246 211.969 19.2231 212.338 19.2231H213.004C213.373 19.2231 213.671 18.9246 213.671 18.5564V15.8897C213.671 15.5215 213.373 15.2231 213.004 15.2231ZM209.893 16.5564H209.226C208.858 16.5564 208.56 16.8549 208.56 17.2231V18.5564C208.56 18.9246 208.858 19.2231 209.226 19.2231H209.893C210.261 19.2231 210.56 18.9246 210.56 18.5564V17.2231C210.56 16.8549 210.261 16.5564 209.893 16.5564Z" fill="white"/>
</g>
<rect x="1" y="1" width="260" height="568" rx="16" stroke="#1A1B1F" stroke-width="2"/>
<defs>
<filter id="filter0_d_342_8286" x="7.66642" y="447" width="246.667" height="41.3334" filterUnits="userSpaceOnUse" color-interpolation-filters="sRGB">
<feFlood flood-opacity="0" result="BackgroundImageFix"/>
<feColorMatrix in="SourceAlpha" type="matrix" values="0 0 0 0 0 0 0 0 0 0 0 0 0 0 0 0 0 0 127 0" result="hardAlpha"/>
<feOffset dy="0.666667"/>
<feGaussianBlur stdDeviation="0.666667"/>
<feComposite in2="hardAlpha" operator="out"/>
<feColorMatrix type="matrix" values="0 0 0 0 0 0 0 0 0 0 0 0 0 0 0 0 0 0 0.15 0"/>
<feBlend mode="normal" in2="BackgroundImageFix" result="effect1_dropShadow_342_8286"/>
<feBlend mode="normal" in="SourceGraphic" in2="effect1_dropShadow_342_8286" result="shape"/>
</filter>
<filter id="filter1_d_342_8286" x="8.99959" y="448.333" width="244" height="38.6666" filterUnits="userSpaceOnUse" color-interpolation-filters="sRGB">
<feFlood flood-opacity="0" result="BackgroundImageFix"/>
<feColorMatrix in="SourceAlpha" type="matrix" values="0 0 0 0 0 0 0 0 0 0 0 0 0 0 0 0 0 0 127 0" result="hardAlpha"/>
<feOffset dy="0.666667"/>
<feGaussianBlur stdDeviation="0.333333"/>
<feComposite in2="hardAlpha" operator="out"/>
<feColorMatrix type="matrix" values="0 0 0 0 0 0 0 0 0 0 0 0 0 0 0 0 0 0 0.12 0"/>
<feBlend mode="normal" in2="BackgroundImageFix" result="effect1_dropShadow_342_8286"/>
<feBlend mode="normal" in="SourceGraphic" in2="effect1_dropShadow_342_8286" result="shape"/>
</filter>
<filter id="filter2_d_342_8286" x="110.663" y="462.671" width="40.0103" height="10.9973" filterUnits="userSpaceOnUse" color-interpolation-filters="sRGB">
<feFlood flood-opacity="0" result="BackgroundImageFix"/>
<feColorMatrix in="SourceAlpha" type="matrix" values="0 0 0 0 0 0 0 0 0 0 0 0 0 0 0 0 0 0 127 0" result="hardAlpha"/>
<feOffset dy="0.666667"/>
<feGaussianBlur stdDeviation="0.333333"/>
<feComposite in2="hardAlpha" operator="out"/>
<feColorMatrix type="matrix" values="0 0 0 0 0 0 0 0 0 0 0 0 0 0 0 0 0 0 0.15 0"/>
<feBlend mode="normal" in2="BackgroundImageFix" result="effect1_dropShadow_342_8286"/>
<feBlend mode="normal" in="SourceGraphic" in2="effect1_dropShadow_342_8286" result="shape"/>
</filter>
<filter id="filter3_d_342_8286" x="7.66642" y="496.333" width="246.667" height="41.3334" filterUnits="userSpaceOnUse" color-interpolation-filters="sRGB">
<feFlood flood-opacity="0" result="BackgroundImageFix"/>
<feColorMatrix in="SourceAlpha" type="matrix" values="0 0 0 0 0 0 0 0 0 0 0 0 0 0 0 0 0 0 127 0" result="hardAlpha"/>
<feOffset dy="0.666667"/>
<feGaussianBlur stdDeviation="0.666667"/>
<feComposite in2="hardAlpha" operator="out"/>
<feColorMatrix type="matrix" values="0 0 0 0 0 0 0 0 0 0 0 0 0 0 0 0 0 0 0.15 0"/>
<feBlend mode="normal" in2="BackgroundImageFix" result="effect1_dropShadow_342_8286"/>
<feBlend mode="normal" in="SourceGraphic" in2="effect1_dropShadow_342_8286" result="shape"/>
</filter>
<filter id="filter4_d_342_8286" x="8.99959" y="497.667" width="244" height="38.6666" filterUnits="userSpaceOnUse" color-interpolation-filters="sRGB">
<feFlood flood-opacity="0" result="BackgroundImageFix"/>
<feColorMatrix in="SourceAlpha" type="matrix" values="0 0 0 0 0 0 0 0 0 0 0 0 0 0 0 0 0 0 127 0" result="hardAlpha"/>
<feOffset dy="0.666667"/>
<feGaussianBlur stdDeviation="0.333333"/>
<feComposite in2="hardAlpha" operator="out"/>
<feColorMatrix type="matrix" values="0 0 0 0 0 0 0 0 0 0 0 0 0 0 0 0 0 0 0.12 0"/>
<feBlend mode="normal" in2="BackgroundImageFix" result="effect1_dropShadow_342_8286"/>
<feBlend mode="normal" in="SourceGraphic" in2="effect1_dropShadow_342_8286" result="shape"/>
</filter>
<filter id="filter5_d_342_8286" x="115.026" y="512.505" width="30.9586" height="10.496" filterUnits="userSpaceOnUse" color-interpolation-filters="sRGB">
<feFlood flood-opacity="0" result="BackgroundImageFix"/>
<feColorMatrix in="SourceAlpha" type="matrix" values="0 0 0 0 0 0 0 0 0 0 0 0 0 0 0 0 0 0 127 0" result="hardAlpha"/>
<feOffset dy="0.666667"/>
<feGaussianBlur stdDeviation="0.333333"/>
<feComposite in2="hardAlpha" operator="out"/>
<feColorMatrix type="matrix" values="0 0 0 0 0 0 0 0 0 0 0 0 0 0 0 0 0 0 0.15 0"/>
<feBlend mode="normal" in2="BackgroundImageFix" result="effect1_dropShadow_342_8286"/>
<feBlend mode="normal" in="SourceGraphic" in2="effect1_dropShadow_342_8286" result="shape"/>
</filter>
<linearGradient id="paint0_linear_342_8286" x1="131" y1="448.333" x2="131" y2="485.667" gradientUnits="userSpaceOnUse">
<stop stop-color="white" stop-opacity="0.4"/>
<stop offset="1" stop-color="white" stop-opacity="0.08"/>
</linearGradient>
<clipPath id="clip0_342_8286">
<rect x="1" y="1" width="260" height="568" rx="16" fill="white"/>
</clipPath>
<clipPath id="clip1_342_8286">
<rect width="28.6667" height="6" fill="white" transform="translate(156.333 125.5)"/>
</clipPath>
<clipPath id="clip2_342_8286">
<rect width="260" height="146.667" fill="white" transform="translate(1 422.333)"/>
</clipPath>
<clipPath id="clip3_342_8286">
<rect x="8.99976" y="447.667" width="244" height="38.6667" rx="9.33333" fill="white"/>
</clipPath>
<clipPath id="clip4_342_8286">
<rect x="8.99976" y="497" width="244" height="38.6667" rx="9.33333" fill="white"/>
</clipPath>
</defs>
</svg>
