<svg width="48" height="48" viewBox="0 0 48 48" fill="none" xmlns="http://www.w3.org/2000/svg">
<g clip-path="url(#clip0_216_6114)">
<rect width="48" height="48" rx="12" fill="white" style="fill:white;fill-opacity:1;"/>
<rect width="48" height="48" rx="12" fill="url(#paint0_linear_216_6114)" style=""/>
<path fill-rule="evenodd" clip-rule="evenodd" d="M23.9997 3.05791C12.4338 3.05791 3.05791 12.4338 3.05791 23.9997C3.05791 35.5655 12.4338 44.9414 23.9997 44.9414C35.5655 44.9414 44.9414 35.5655 44.9414 23.9997C44.9414 12.4338 35.5655 3.05791 23.9997 3.05791ZM2.94141 23.9997C2.94141 12.3695 12.3695 2.94141 23.9997 2.94141C35.6298 2.94141 45.0579 12.3695 45.0579 23.9997C45.0579 35.6298 35.6298 45.0579 23.9997 45.0579C12.3695 45.0579 2.94141 35.6298 2.94141 23.9997Z" fill="#D0D5DD" style="fill:#D0D5DD;fill:color(display-p3 0.8144 0.8349 0.8656);fill-opacity:1;"/>
<path fill-rule="evenodd" clip-rule="evenodd" d="M24 18.1165C20.7506 18.1165 18.1165 20.7506 18.1165 24C18.1165 27.2494 20.7506 29.8835 24 29.8835C27.2494 29.8835 29.8835 27.2494 29.8835 24C29.8835 20.7506 27.2494 18.1165 24 18.1165ZM18 24C18 20.6863 20.6863 18 24 18C27.3137 18 30 20.6863 30 24C30 27.3137 27.3137 30 24 30C20.6863 30 18 27.3137 18 24Z" fill="#D0D5DD" style="fill:#D0D5DD;fill:color(display-p3 0.8144 0.8349 0.8656);fill-opacity:1;"/>
<path fill-rule="evenodd" clip-rule="evenodd" d="M23.9992 19.9798C21.7793 19.9798 19.9798 21.7793 19.9798 23.9992C19.9798 26.2191 21.7793 28.0186 23.9992 28.0186C26.2191 28.0186 28.0186 26.2191 28.0186 23.9992C28.0186 21.7793 26.2191 19.9798 23.9992 19.9798ZM19.8633 23.9992C19.8633 21.715 21.715 19.8633 23.9992 19.8633C26.2834 19.8633 28.1351 21.715 28.1351 23.9992C28.1351 26.2834 26.2834 28.1351 23.9992 28.1351C21.715 28.1351 19.8633 26.2834 19.8633 23.9992Z" fill="#D0D5DD" style="fill:#D0D5DD;fill:color(display-p3 0.8144 0.8349 0.8656);fill-opacity:1;"/>
<path d="M23.9414 0H24.0579V48H23.9414V0Z" fill="#D0D5DD" style="fill:#D0D5DD;fill:color(display-p3 0.8144 0.8349 0.8656);fill-opacity:1;"/>
<path d="M48 23.9414L48 24.0579L-5.09259e-09 24.0579L0 23.9414L48 23.9414Z" fill="#D0D5DD" style="fill:#D0D5DD;fill:color(display-p3 0.8144 0.8349 0.8656);fill-opacity:1;"/>
<path d="M39.9023 0H40.0188V48H39.9023V0Z" fill="#D0D5DD" style="fill:#D0D5DD;fill:color(display-p3 0.8144 0.8349 0.8656);fill-opacity:1;"/>
<path d="M15.9609 0H16.0774V48H15.9609V0Z" fill="#D0D5DD" style="fill:#D0D5DD;fill:color(display-p3 0.8144 0.8349 0.8656);fill-opacity:1;"/>
<path d="M31.9219 0H32.0384V48H31.9219V0Z" fill="#D0D5DD" style="fill:#D0D5DD;fill:color(display-p3 0.8144 0.8349 0.8656);fill-opacity:1;"/>
<path d="M7.98047 0H8.09697V48H7.98047V0Z" fill="#D0D5DD" style="fill:#D0D5DD;fill:color(display-p3 0.8144 0.8349 0.8656);fill-opacity:1;"/>
<path d="M48 39.9023L48 40.0188L-5.09259e-09 40.0188L0 39.9023L48 39.9023Z" fill="#D0D5DD" style="fill:#D0D5DD;fill:color(display-p3 0.8144 0.8349 0.8656);fill-opacity:1;"/>
<path d="M48 15.9609L48 16.0774L-5.09259e-09 16.0774L0 15.9609L48 15.9609Z" fill="#D0D5DD" style="fill:#D0D5DD;fill:color(display-p3 0.8144 0.8349 0.8656);fill-opacity:1;"/>
<path d="M48 31.9219L48 32.0384L-5.09259e-09 32.0384L0 31.9219L48 31.9219Z" fill="#D0D5DD" style="fill:#D0D5DD;fill:color(display-p3 0.8144 0.8349 0.8656);fill-opacity:1;"/>
<path d="M48 7.98047L48 8.09697L-5.09259e-09 8.09697L0 7.98047L48 7.98047Z" fill="#D0D5DD" style="fill:#D0D5DD;fill:color(display-p3 0.8144 0.8349 0.8656);fill-opacity:1;"/>
<path d="M36.0737 20.6445L20.3237 37.5195C20.1568 37.6976 19.9365 37.8167 19.696 37.8586C19.4555 37.9005 19.2079 37.8631 18.9906 37.7519C18.7732 37.6408 18.5979 37.462 18.4911 37.2425C18.3843 37.023 18.3518 36.7747 18.3985 36.5352L20.4601 26.2231L12.3559 23.18C12.1818 23.1149 12.0266 23.0077 11.9041 22.868C11.7816 22.7282 11.6956 22.5603 11.6538 22.3793C11.612 22.1982 11.6157 22.0096 11.6646 21.8303C11.7135 21.651 11.8061 21.4867 11.934 21.3519L27.684 4.47686C27.8509 4.29874 28.0712 4.17974 28.3117 4.13781C28.5521 4.09589 28.7997 4.13331 29.0171 4.24444C29.2344 4.35557 29.4097 4.53437 29.5165 4.75387C29.6233 4.97337 29.6558 5.22164 29.6091 5.46124L27.542 15.7845L35.6462 18.8234C35.8189 18.889 35.9729 18.9961 36.0945 19.1352C36.216 19.2744 36.3014 19.4414 36.3431 19.6214C36.3848 19.8014 36.3815 19.9889 36.3336 20.1674C36.2856 20.3458 36.1944 20.5097 36.068 20.6445H36.0737Z" fill="#205049" style="fill:#205049;fill:color(display-p3 0.1255 0.3137 0.2863);fill-opacity:1;"/>
<g filter="url(#filter0_b_216_6114)">
<path d="M0 26H48V28.8C48 35.5206 48 38.8809 46.6921 41.4479C45.5416 43.7058 43.7058 45.5416 41.4479 46.6921C38.8809 48 35.5206 48 28.8 48H19.2C12.4794 48 9.11905 48 6.55211 46.6921C4.29417 45.5416 2.4584 43.7058 1.30792 41.4479C0 38.8809 0 35.5206 0 28.8V26Z" fill="white" fill-opacity="0.2" style="fill:white;fill-opacity:0.2;"/>
</g>
</g>
<rect x="0.15" y="0.15" width="47.7" height="47.7" rx="11.85" stroke="#D0D5DD" style="stroke:#D0D5DD;stroke:color(display-p3 0.8144 0.8349 0.8656);stroke-opacity:1;" stroke-width="0.3"/>
<defs>
<filter id="filter0_b_216_6114" x="-7.5" y="18.5" width="63" height="37" filterUnits="userSpaceOnUse" color-interpolation-filters="sRGB">
<feFlood flood-opacity="0" result="BackgroundImageFix"/>
<feGaussianBlur in="BackgroundImageFix" stdDeviation="3.75"/>
<feComposite in2="SourceAlpha" operator="in" result="effect1_backgroundBlur_216_6114"/>
<feBlend mode="normal" in="SourceGraphic" in2="effect1_backgroundBlur_216_6114" result="shape"/>
</filter>
<linearGradient id="paint0_linear_216_6114" x1="24" y1="0" x2="24" y2="48" gradientUnits="userSpaceOnUse">
<stop stop-color="white" style="stop-color:white;stop-opacity:1;"/>
<stop offset="1" stop-color="#D0D5DD" style="stop-color:#D0D5DD;stop-color:color(display-p3 0.8144 0.8349 0.8656);stop-opacity:1;"/>
</linearGradient>
<clipPath id="clip0_216_6114">
<rect width="48" height="48" rx="12" fill="white" style="fill:white;fill-opacity:1;"/>
</clipPath>
</defs>
</svg>
