<svg width="338" height="180" viewBox="0 0 338 180" fill="none" xmlns="http://www.w3.org/2000/svg">
<g filter="url(#filter0_dd_209_3552)">
<rect x="5" y="1" width="328" height="170" rx="16" fill="#E8F1ED" style="fill:#E8F1ED;fill:color(display-p3 0.9098 0.9451 0.9294);fill-opacity:1;"/>
<rect x="5.5" y="1.5" width="327" height="169" rx="15.5" stroke="#205049" stroke-opacity="0.1" style="stroke:#205049;stroke:color(display-p3 0.1255 0.3137 0.2863);stroke-opacity:0.1;"/>
<path d="M23.9723 35H21.4411L26.0497 21.9091H28.9773L33.5923 35H31.0611L27.5646 24.5938H27.4624L23.9723 35ZM24.0554 29.8672H30.9588V31.772H24.0554V29.8672ZM35.2143 35V25.1818H37.4579V26.8182H37.5602C37.7392 26.2514 38.046 25.8146 38.4806 25.5078C38.9196 25.1967 39.4203 25.0412 39.9828 25.0412C40.1106 25.0412 40.2534 25.0476 40.411 25.0604C40.573 25.0689 40.7072 25.0838 40.8137 25.1051V27.2337C40.7157 27.1996 40.5602 27.1697 40.3471 27.1442C40.1383 27.1143 39.9359 27.0994 39.7399 27.0994C39.318 27.0994 38.9387 27.1911 38.6021 27.3743C38.2697 27.5533 38.0076 27.8026 37.8159 28.1222C37.6241 28.4418 37.5282 28.8104 37.5282 29.228V35H35.2143ZM46.2933 35.1918C45.3089 35.1918 44.4588 34.9872 43.7429 34.5781C43.0313 34.1648 42.4837 33.581 42.1001 32.8267C41.7166 32.0682 41.5249 31.1754 41.5249 30.1484C41.5249 29.1385 41.7166 28.2521 42.1001 27.4893C42.4879 26.7223 43.0291 26.1257 43.7237 25.6996C44.4183 25.2692 45.2344 25.054 46.1719 25.054C46.777 25.054 47.348 25.152 47.8849 25.348C48.4261 25.5398 48.9034 25.8381 49.3168 26.2429C49.7344 26.6477 50.0625 27.1634 50.3011 27.7898C50.5398 28.4119 50.6591 29.1534 50.6591 30.0142V30.7237H42.6115V29.1641H48.4411C48.4368 28.7209 48.3409 28.3267 48.1534 27.9815C47.9659 27.6321 47.7038 27.3572 47.3672 27.157C47.0348 26.9567 46.647 26.8565 46.2038 26.8565C45.7308 26.8565 45.3153 26.9716 44.9574 27.2017C44.5994 27.4276 44.3203 27.7259 44.12 28.0966C43.924 28.4631 43.8239 28.8658 43.8196 29.3047V30.6662C43.8196 31.2372 43.924 31.7273 44.1328 32.1364C44.3416 32.5412 44.6335 32.8523 45.0085 33.0696C45.3835 33.2827 45.8224 33.3892 46.3253 33.3892C46.6619 33.3892 46.9666 33.3423 47.2393 33.2486C47.5121 33.1506 47.7486 33.0078 47.9489 32.8203C48.1491 32.6328 48.3004 32.4006 48.4027 32.1236L50.5632 32.3665C50.4268 32.9375 50.1669 33.4361 49.7834 33.8622C49.4041 34.2841 48.9183 34.6122 48.326 34.8466C47.7337 35.0767 47.0561 35.1918 46.2933 35.1918ZM58.5197 38.6818C58.2044 38.6818 57.9125 38.6563 57.644 38.6051C57.3798 38.5582 57.1689 38.5028 57.0112 38.4389L57.5481 36.6364C57.8848 36.7344 58.1852 36.7813 58.4494 36.777C58.7136 36.7727 58.9458 36.6896 59.1461 36.5277C59.3507 36.37 59.5233 36.1058 59.6639 35.7351L59.862 35.2045L56.3017 25.1818H58.7562L61.019 32.5966H61.1213L63.3904 25.1818H65.8514L61.9203 36.1889C61.737 36.7088 61.4941 37.1541 61.1916 37.5249C60.889 37.8999 60.5183 38.1854 60.0794 38.3814C59.6447 38.5817 59.1248 38.6818 58.5197 38.6818ZM71.4013 35.1918C70.4425 35.1918 69.6115 34.9808 68.9084 34.5589C68.2053 34.1371 67.6598 33.5469 67.272 32.7884C66.8885 32.0298 66.6967 31.1435 66.6967 30.1293C66.6967 29.1151 66.8885 28.2266 67.272 27.4638C67.6598 26.701 68.2053 26.1087 68.9084 25.6868C69.6115 25.2649 70.4425 25.054 71.4013 25.054C72.3601 25.054 73.1911 25.2649 73.8942 25.6868C74.5973 26.1087 75.1406 26.701 75.5241 27.4638C75.9119 28.2266 76.1058 29.1151 76.1058 30.1293C76.1058 31.1435 75.9119 32.0298 75.5241 32.7884C75.1406 33.5469 74.5973 34.1371 73.8942 34.5589C73.1911 34.9808 72.3601 35.1918 71.4013 35.1918ZM71.4141 33.3381C71.9339 33.3381 72.3686 33.1953 72.718 32.9098C73.0675 32.62 73.3274 32.2322 73.4979 31.7464C73.6726 31.2607 73.7599 30.7195 73.7599 30.1229C73.7599 29.522 73.6726 28.9787 73.4979 28.4929C73.3274 28.0028 73.0675 27.6129 72.718 27.3232C72.3686 27.0334 71.9339 26.8885 71.4141 26.8885C70.8814 26.8885 70.4382 27.0334 70.0845 27.3232C69.7351 27.6129 69.473 28.0028 69.2983 28.4929C69.1278 28.9787 69.0426 29.522 69.0426 30.1229C69.0426 30.7195 69.1278 31.2607 69.2983 31.7464C69.473 32.2322 69.7351 32.62 70.0845 32.9098C70.4382 33.1953 70.8814 33.3381 71.4141 33.3381ZM84.3276 30.8707V25.1818H86.6415V35H84.3979V33.255H84.2956C84.074 33.8047 83.7097 34.2543 83.2026 34.6037C82.6998 34.9531 82.0797 35.1278 81.3425 35.1278C80.699 35.1278 80.1301 34.9851 79.6358 34.6996C79.1458 34.4098 78.7623 33.9901 78.4853 33.4403C78.2083 32.8864 78.0698 32.2173 78.0698 31.4332V25.1818H80.3837V31.0753C80.3837 31.6974 80.5542 32.1918 80.8951 32.5582C81.236 32.9247 81.6834 33.108 82.2374 33.108C82.5783 33.108 82.9086 33.0249 83.2282 32.8587C83.5478 32.6925 83.8098 32.4453 84.0144 32.1172C84.2232 31.7848 84.3276 31.3693 84.3276 30.8707ZM98.4588 25.1818V26.9716H92.6548V25.1818H98.4588ZM94.1058 35V24.255C94.1058 23.5945 94.2422 23.0447 94.5149 22.6058C94.7919 22.1669 95.1626 21.8388 95.6271 21.6214C96.0916 21.4041 96.6072 21.2955 97.174 21.2955C97.5746 21.2955 97.9304 21.3274 98.2415 21.3913C98.5526 21.4553 98.7827 21.5128 98.9318 21.5639L98.4716 23.3537C98.3736 23.3239 98.25 23.294 98.1009 23.2642C97.9517 23.2301 97.7855 23.2131 97.6023 23.2131C97.1719 23.2131 96.8672 23.3175 96.6882 23.5263C96.5135 23.7308 96.4261 24.0249 96.4261 24.4084V35H94.1058ZM104.248 35.1918C103.264 35.1918 102.414 34.9872 101.698 34.5781C100.986 34.1648 100.439 33.581 100.055 32.8267C99.6717 32.0682 99.4799 31.1754 99.4799 30.1484C99.4799 29.1385 99.6717 28.2521 100.055 27.4893C100.443 26.7223 100.984 26.1257 101.679 25.6996C102.373 25.2692 103.189 25.054 104.127 25.054C104.732 25.054 105.303 25.152 105.84 25.348C106.381 25.5398 106.858 25.8381 107.272 26.2429C107.689 26.6477 108.018 27.1634 108.256 27.7898C108.495 28.4119 108.614 29.1534 108.614 30.0142V30.7237H100.567V29.1641H106.396C106.392 28.7209 106.296 28.3267 106.108 27.9815C105.921 27.6321 105.659 27.3572 105.322 27.157C104.99 26.9567 104.602 26.8565 104.159 26.8565C103.686 26.8565 103.27 26.9716 102.912 27.2017C102.555 27.4276 102.275 27.7259 102.075 28.0966C101.879 28.4631 101.779 28.8658 101.775 29.3047V30.6662C101.775 31.2372 101.879 31.7273 102.088 32.1364C102.297 32.5412 102.589 32.8523 102.964 33.0696C103.339 33.2827 103.778 33.3892 104.28 33.3892C104.617 33.3892 104.922 33.3423 105.194 33.2486C105.467 33.1506 105.704 33.0078 105.904 32.8203C106.104 32.6328 106.256 32.4006 106.358 32.1236L108.518 32.3665C108.382 32.9375 108.122 33.4361 107.738 33.8622C107.359 34.2841 106.873 34.6122 106.281 34.8466C105.689 35.0767 105.011 35.1918 104.248 35.1918ZM114.918 35.1918C113.934 35.1918 113.084 34.9872 112.368 34.5781C111.656 34.1648 111.109 33.581 110.725 32.8267C110.342 32.0682 110.15 31.1754 110.15 30.1484C110.15 29.1385 110.342 28.2521 110.725 27.4893C111.113 26.7223 111.654 26.1257 112.349 25.6996C113.043 25.2692 113.859 25.054 114.797 25.054C115.402 25.054 115.973 25.152 116.51 25.348C117.051 25.5398 117.528 25.8381 117.942 26.2429C118.359 26.6477 118.688 27.1634 118.926 27.7898C119.165 28.4119 119.284 29.1534 119.284 30.0142V30.7237H111.237V29.1641H117.066C117.062 28.7209 116.966 28.3267 116.778 27.9815C116.591 27.6321 116.329 27.3572 115.992 27.157C115.66 26.9567 115.272 26.8565 114.829 26.8565C114.356 26.8565 113.94 26.9716 113.582 27.2017C113.224 27.4276 112.945 27.7259 112.745 28.0966C112.549 28.4631 112.449 28.8658 112.445 29.3047V30.6662C112.445 31.2372 112.549 31.7273 112.758 32.1364C112.967 32.5412 113.259 32.8523 113.634 33.0696C114.009 33.2827 114.447 33.3892 114.95 33.3892C115.287 33.3892 115.592 33.3423 115.864 33.2486C116.137 33.1506 116.374 33.0078 116.574 32.8203C116.774 32.6328 116.925 32.4006 117.028 32.1236L119.188 32.3665C119.052 32.9375 118.792 33.4361 118.408 33.8622C118.029 34.2841 117.543 34.6122 116.951 34.8466C116.359 35.0767 115.681 35.1918 114.918 35.1918ZM123.556 21.9091V35H121.242V21.9091H123.556ZM125.935 35V25.1818H128.249V35H125.935ZM127.098 23.7884C126.732 23.7884 126.417 23.6669 126.152 23.424C125.888 23.1768 125.756 22.8807 125.756 22.5355C125.756 22.1861 125.888 21.8899 126.152 21.647C126.417 21.3999 126.732 21.2763 127.098 21.2763C127.469 21.2763 127.784 21.3999 128.044 21.647C128.309 21.8899 128.441 22.1861 128.441 22.5355C128.441 22.8807 128.309 23.1768 128.044 23.424C127.784 23.6669 127.469 23.7884 127.098 23.7884ZM132.942 29.2472V35H130.628V25.1818H132.84V26.8501H132.955C133.181 26.3004 133.541 25.8636 134.035 25.5398C134.534 25.2159 135.15 25.054 135.883 25.054C136.56 25.054 137.15 25.1989 137.653 25.4886C138.16 25.7784 138.552 26.1982 138.829 26.7479C139.111 27.2976 139.249 27.9645 139.245 28.7486V35H136.931V29.1065C136.931 28.4503 136.76 27.9368 136.42 27.5661C136.083 27.1953 135.616 27.0099 135.02 27.0099C134.615 27.0099 134.255 27.0994 133.939 27.2784C133.628 27.4531 133.383 27.7067 133.204 28.0391C133.03 28.3714 132.942 28.7741 132.942 29.2472ZM145.867 38.8864C145.036 38.8864 144.322 38.7734 143.726 38.5476C143.129 38.326 142.65 38.0277 142.287 37.6527C141.925 37.2777 141.674 36.8622 141.533 36.4062L143.617 35.9013C143.711 36.093 143.847 36.2827 144.026 36.4702C144.205 36.6619 144.446 36.8196 144.748 36.9432C145.055 37.071 145.441 37.1349 145.905 37.1349C146.562 37.1349 147.105 36.9751 147.535 36.6555C147.966 36.3402 148.181 35.8203 148.181 35.0959V33.2358H148.066C147.947 33.4744 147.772 33.7195 147.542 33.9709C147.316 34.2223 147.015 34.4332 146.64 34.6037C146.27 34.7741 145.803 34.8594 145.241 34.8594C144.486 34.8594 143.802 34.6825 143.189 34.3288C142.579 33.9709 142.094 33.4382 141.731 32.7308C141.373 32.0192 141.194 31.1286 141.194 30.0589C141.194 28.9808 141.373 28.071 141.731 27.3295C142.094 26.5838 142.581 26.0192 143.195 25.6357C143.809 25.2479 144.493 25.054 145.247 25.054C145.822 25.054 146.295 25.152 146.666 25.348C147.041 25.5398 147.339 25.772 147.561 26.0447C147.782 26.3132 147.951 26.5668 148.066 26.8054H148.194V25.1818H150.476V35.1598C150.476 35.9993 150.275 36.6939 149.875 37.2436C149.474 37.7933 148.927 38.2045 148.232 38.4773C147.537 38.75 146.749 38.8864 145.867 38.8864ZM145.886 33.044C146.376 33.044 146.794 32.9247 147.139 32.6861C147.484 32.4474 147.746 32.1044 147.925 31.657C148.104 31.2095 148.194 30.6726 148.194 30.0462C148.194 29.4283 148.104 28.8871 147.925 28.4226C147.751 27.9581 147.491 27.598 147.145 27.3423C146.805 27.0824 146.385 26.9524 145.886 26.9524C145.371 26.9524 144.94 27.0866 144.595 27.3551C144.25 27.6236 143.99 27.9922 143.815 28.4609C143.64 28.9254 143.553 29.4538 143.553 30.0462C143.553 30.647 143.64 31.1733 143.815 31.625C143.994 32.0724 144.256 32.4219 144.601 32.6733C144.951 32.9205 145.379 33.044 145.886 33.044ZM165.072 27.777L162.963 28.0071C162.903 27.794 162.798 27.5938 162.649 27.4062C162.504 27.2188 162.308 27.0675 162.061 26.9524C161.814 26.8374 161.512 26.7798 161.154 26.7798C160.672 26.7798 160.267 26.8842 159.939 27.093C159.615 27.3018 159.455 27.5724 159.46 27.9048C159.455 28.1903 159.56 28.4226 159.773 28.6016C159.99 28.7805 160.348 28.9276 160.847 29.0426L162.521 29.4006C163.45 29.6009 164.141 29.9183 164.593 30.353C165.048 30.7876 165.279 31.3565 165.283 32.0597C165.279 32.6776 165.097 33.223 164.74 33.696C164.386 34.1648 163.894 34.5312 163.263 34.7955C162.632 35.0597 161.908 35.1918 161.09 35.1918C159.888 35.1918 158.921 34.9403 158.188 34.4375C157.455 33.9304 157.018 33.2251 156.877 32.3217L159.134 32.1044C159.236 32.5476 159.453 32.8821 159.786 33.108C160.118 33.3338 160.551 33.4467 161.083 33.4467C161.633 33.4467 162.074 33.3338 162.406 33.108C162.743 32.8821 162.911 32.603 162.911 32.2706C162.911 31.9893 162.803 31.7571 162.585 31.5739C162.372 31.3906 162.04 31.25 161.588 31.152L159.914 30.8004C158.972 30.6044 158.275 30.2741 157.823 29.8097C157.372 29.3409 157.148 28.7486 157.152 28.0327C157.148 27.4276 157.312 26.9034 157.644 26.4602C157.981 26.0128 158.448 25.6676 159.044 25.4247C159.645 25.1776 160.338 25.054 161.122 25.054C162.272 25.054 163.178 25.299 163.838 25.7891C164.503 26.2791 164.914 26.9418 165.072 27.777ZM172.094 25.1818V26.9716H166.449V25.1818H172.094ZM167.843 22.8295H170.157V32.0469C170.157 32.358 170.204 32.5966 170.297 32.7628C170.395 32.9247 170.523 33.0355 170.681 33.0952C170.839 33.1548 171.013 33.1847 171.205 33.1847C171.35 33.1847 171.482 33.174 171.601 33.1527C171.725 33.1314 171.819 33.1122 171.883 33.0952L172.273 34.9041C172.149 34.9467 171.972 34.9936 171.742 35.0447C171.516 35.0959 171.239 35.1257 170.911 35.1342C170.331 35.1513 169.809 35.0639 169.345 34.8722C168.881 34.6761 168.512 34.3736 168.239 33.9645C167.971 33.5554 167.839 33.044 167.843 32.4304V22.8295ZM180.287 30.8707V25.1818H182.6V35H180.357V33.255H180.255C180.033 33.8047 179.669 34.2543 179.162 34.6037C178.659 34.9531 178.039 35.1278 177.301 35.1278C176.658 35.1278 176.089 34.9851 175.595 34.6996C175.105 34.4098 174.721 33.9901 174.444 33.4403C174.167 32.8864 174.029 32.2173 174.029 31.4332V25.1818H176.343V31.0753C176.343 31.6974 176.513 32.1918 176.854 32.5582C177.195 32.9247 177.642 33.108 178.196 33.108C178.537 33.108 178.868 33.0249 179.187 32.8587C179.507 32.6925 179.769 32.4453 179.973 32.1172C180.182 31.7848 180.287 31.3693 180.287 30.8707ZM189.263 35.1918C188.282 35.1918 187.441 34.9766 186.738 34.5462C186.039 34.1158 185.5 33.5213 185.121 32.7628C184.746 32 184.558 31.1222 184.558 30.1293C184.558 29.1321 184.75 28.2521 185.133 27.4893C185.517 26.7223 186.058 26.1257 186.757 25.6996C187.46 25.2692 188.291 25.054 189.25 25.054C190.047 25.054 190.752 25.201 191.366 25.495C191.983 25.7848 192.476 26.196 192.842 26.7287C193.209 27.2571 193.417 27.875 193.469 28.5824H191.257C191.167 28.1094 190.954 27.7152 190.618 27.3999C190.285 27.0803 189.84 26.9205 189.282 26.9205C188.809 26.9205 188.393 27.0483 188.035 27.304C187.677 27.5554 187.398 27.9176 187.198 28.3906C187.002 28.8636 186.904 29.4304 186.904 30.0909C186.904 30.7599 187.002 31.3352 187.198 31.8168C187.394 32.294 187.669 32.6626 188.023 32.9226C188.381 33.1783 188.8 33.3061 189.282 33.3061C189.623 33.3061 189.927 33.2422 190.196 33.1143C190.469 32.9822 190.697 32.7926 190.88 32.5455C191.063 32.2983 191.189 31.9979 191.257 31.6442H193.469C193.413 32.3388 193.209 32.9545 192.855 33.4915C192.501 34.0241 192.02 34.4418 191.41 34.7443C190.801 35.0426 190.085 35.1918 189.263 35.1918ZM197.478 31.919L197.472 29.1257H197.842L201.371 25.1818H204.075L199.734 30.0142H199.255L197.478 31.919ZM195.369 35V21.9091H197.683V35H195.369ZM201.531 35L198.335 30.532L199.894 28.902L204.298 35H201.531ZM207.828 31.152V30.9858C207.833 30.2145 207.905 29.6009 208.046 29.1449C208.191 28.6889 208.395 28.3224 208.659 28.0455C208.923 27.7642 209.245 27.5064 209.624 27.272C209.884 27.1101 210.117 26.9332 210.321 26.7415C210.53 26.5455 210.694 26.3281 210.813 26.0895C210.933 25.8466 210.992 25.576 210.992 25.2777C210.992 24.9411 210.914 24.6491 210.756 24.402C210.598 24.1548 210.385 23.9631 210.117 23.8267C209.852 23.6903 209.556 23.6222 209.228 23.6222C208.926 23.6222 208.638 23.6882 208.365 23.8203C208.097 23.9482 207.873 24.1442 207.694 24.4084C207.519 24.6683 207.421 24.9986 207.4 25.3991H205.124C205.146 24.5895 205.342 23.9119 205.713 23.3665C206.088 22.821 206.582 22.4119 207.195 22.1392C207.813 21.8665 208.495 21.7301 209.241 21.7301C210.055 21.7301 210.771 21.8729 211.389 22.1584C212.011 22.4439 212.494 22.8509 212.84 23.3793C213.189 23.9034 213.364 24.5256 213.364 25.2457C213.364 25.7315 213.285 26.1662 213.127 26.5497C212.974 26.9332 212.754 27.2741 212.469 27.5724C212.183 27.8707 211.845 28.1371 211.453 28.3714C211.107 28.5845 210.824 28.8061 210.602 29.0362C210.385 29.2663 210.223 29.5369 210.117 29.848C210.014 30.1548 209.961 30.5341 209.957 30.9858V31.152H207.828ZM208.941 35.1406C208.557 35.1406 208.227 35.0043 207.95 34.7315C207.673 34.4588 207.534 34.1264 207.534 33.7344C207.534 33.3509 207.673 33.0227 207.95 32.75C208.227 32.4773 208.557 32.3409 208.941 32.3409C209.32 32.3409 209.648 32.4773 209.925 32.75C210.206 33.0227 210.347 33.3509 210.347 33.7344C210.347 33.9943 210.281 34.2308 210.149 34.4439C210.021 34.657 209.85 34.8274 209.637 34.9553C209.428 35.0788 209.196 35.1406 208.941 35.1406ZM33.9886 50.4545C33.9886 51.8651 33.7244 53.0732 33.196 54.0788C32.6719 55.0803 31.956 55.8473 31.0483 56.38C30.1449 56.9126 29.12 57.179 27.9737 57.179C26.8274 57.179 25.8004 56.9126 24.8928 56.38C23.9893 55.843 23.2734 55.0739 22.745 54.0724C22.2209 53.0668 21.9588 51.8608 21.9588 50.4545C21.9588 49.044 22.2209 47.8381 22.745 46.8366C23.2734 45.831 23.9893 45.0618 24.8928 44.5291C25.8004 43.9964 26.8274 43.7301 27.9737 43.7301C29.12 43.7301 30.1449 43.9964 31.0483 44.5291C31.956 45.0618 32.6719 45.831 33.196 46.8366C33.7244 47.8381 33.9886 49.044 33.9886 50.4545ZM31.6044 50.4545C31.6044 49.4616 31.4489 48.6243 31.1378 47.9425C30.831 47.2564 30.4048 46.7386 29.8594 46.3892C29.3139 46.0355 28.6854 45.8587 27.9737 45.8587C27.2621 45.8587 26.6335 46.0355 26.0881 46.3892C25.5426 46.7386 25.1143 47.2564 24.8033 47.9425C24.4964 48.6243 24.343 49.4616 24.343 50.4545C24.343 51.4474 24.4964 52.2869 24.8033 52.973C25.1143 53.6548 25.5426 54.1726 26.0881 54.5263C26.6335 54.8757 27.2621 55.0504 27.9737 55.0504C28.6854 55.0504 29.3139 54.8757 29.8594 54.5263C30.4048 54.1726 30.831 53.6548 31.1378 52.973C31.4489 52.2869 31.6044 51.4474 31.6044 50.4545ZM42.3862 52.8707V47.1818H44.7001V57H42.4565V55.255H42.3542C42.1326 55.8047 41.7683 56.2543 41.2612 56.6037C40.7583 56.9531 40.1383 57.1278 39.4011 57.1278C38.7576 57.1278 38.1887 56.9851 37.6944 56.6996C37.2044 56.4098 36.8208 55.9901 36.5439 55.4403C36.2669 54.8864 36.1284 54.2173 36.1284 53.4332V47.1818H38.4423V53.0753C38.4423 53.6974 38.6127 54.1918 38.9537 54.5582C39.2946 54.9247 39.742 55.108 40.296 55.108C40.6369 55.108 40.9672 55.0249 41.2868 54.8587C41.6064 54.6925 41.8684 54.4453 42.073 54.1172C42.2818 53.7848 42.3862 53.3693 42.3862 52.8707ZM47.0795 57V47.1818H49.3232V48.8182H49.4254C49.6044 48.2514 49.9112 47.8146 50.3459 47.5078C50.7848 47.1967 51.2855 47.0412 51.848 47.0412C51.9759 47.0412 52.1186 47.0476 52.2763 47.0604C52.4382 47.0689 52.5724 47.0838 52.679 47.1051V49.2337C52.581 49.1996 52.4254 49.1697 52.2124 49.1442C52.0036 49.1143 51.8011 49.0994 51.6051 49.0994C51.1832 49.0994 50.804 49.1911 50.4673 49.3743C50.1349 49.5533 49.8729 49.8026 49.6811 50.1222C49.4893 50.4418 49.3935 50.8104 49.3935 51.228V57H47.0795ZM63.6541 47.1818V48.9716H57.8501V47.1818H63.6541ZM59.3011 57V46.255C59.3011 45.5945 59.4375 45.0447 59.7102 44.6058C59.9872 44.1669 60.358 43.8388 60.8224 43.6214C61.2869 43.4041 61.8026 43.2955 62.3693 43.2955C62.7699 43.2955 63.1257 43.3274 63.4368 43.3913C63.7479 43.4553 63.978 43.5128 64.1271 43.5639L63.6669 45.3537C63.5689 45.3239 63.4453 45.294 63.2962 45.2642C63.147 45.2301 62.9808 45.2131 62.7976 45.2131C62.3672 45.2131 62.0625 45.3175 61.8835 45.5263C61.7088 45.7308 61.6214 46.0249 61.6214 46.4084V57H59.3011ZM65.4663 57V47.1818H67.7099V48.8182H67.8121C67.9911 48.2514 68.2979 47.8146 68.7326 47.5078C69.1715 47.1967 69.6722 47.0412 70.2347 47.0412C70.3626 47.0412 70.5053 47.0476 70.663 47.0604C70.8249 47.0689 70.9592 47.0838 71.0657 47.1051V49.2337C70.9677 49.1996 70.8121 49.1697 70.5991 49.1442C70.3903 49.1143 70.1879 49.0994 69.9918 49.0994C69.57 49.0994 69.1907 49.1911 68.854 49.3743C68.5217 49.5533 68.2596 49.8026 68.0678 50.1222C67.8761 50.4418 67.7802 50.8104 67.7802 51.228V57H65.4663ZM72.603 57V47.1818H74.9169V57H72.603ZM73.7663 45.7884C73.3999 45.7884 73.0845 45.6669 72.8203 45.424C72.5561 45.1768 72.424 44.8807 72.424 44.5355C72.424 44.1861 72.5561 43.8899 72.8203 43.647C73.0845 43.3999 73.3999 43.2763 73.7663 43.2763C74.1371 43.2763 74.4524 43.3999 74.7124 43.647C74.9766 43.8899 75.1087 44.1861 75.1087 44.5355C75.1087 44.8807 74.9766 45.1768 74.7124 45.424C74.4524 45.6669 74.1371 45.7884 73.7663 45.7884ZM81.6429 57.1918C80.6586 57.1918 79.8084 56.9872 79.0925 56.5781C78.3809 56.1648 77.8333 55.581 77.4498 54.8267C77.0662 54.0682 76.8745 53.1754 76.8745 52.1484C76.8745 51.1385 77.0662 50.2521 77.4498 49.4893C77.8375 48.7223 78.3787 48.1257 79.0733 47.6996C79.7679 47.2692 80.584 47.054 81.5215 47.054C82.1266 47.054 82.6976 47.152 83.2346 47.348C83.7757 47.5398 84.253 47.8381 84.6664 48.2429C85.084 48.6477 85.4121 49.1634 85.6507 49.7898C85.8894 50.4119 86.0087 51.1534 86.0087 52.0142V52.7237H77.9611V51.1641H83.7907C83.7864 50.7209 83.6905 50.3267 83.503 49.9815C83.3155 49.6321 83.0534 49.3572 82.7168 49.157C82.3844 48.9567 81.9966 48.8565 81.5534 48.8565C81.0804 48.8565 80.665 48.9716 80.307 49.2017C79.949 49.4276 79.6699 49.7259 79.4696 50.0966C79.2736 50.4631 79.1735 50.8658 79.1692 51.3047V52.6662C79.1692 53.2372 79.2736 53.7273 79.4824 54.1364C79.6912 54.5412 79.9831 54.8523 80.3581 55.0696C80.7331 55.2827 81.1721 55.3892 81.6749 55.3892C82.0115 55.3892 82.3162 55.3423 82.589 55.2486C82.8617 55.1506 83.0982 55.0078 83.2985 54.8203C83.4988 54.6328 83.65 54.4006 83.7523 54.1236L85.9128 54.3665C85.7765 54.9375 85.5165 55.4361 85.133 55.8622C84.7537 56.2841 84.2679 56.6122 83.6756 56.8466C83.0833 57.0767 82.4057 57.1918 81.6429 57.1918ZM90.2802 51.2472V57H87.9663V47.1818H90.1779V48.8501H90.293C90.5188 48.3004 90.8789 47.8636 91.3732 47.5398C91.8718 47.2159 92.4876 47.054 93.2205 47.054C93.8981 47.054 94.4883 47.1989 94.9911 47.4886C95.4982 47.7784 95.8903 48.1982 96.1673 48.7479C96.4485 49.2976 96.587 49.9645 96.5827 50.7486V57H94.2688V51.1065C94.2688 50.4503 94.0984 49.9368 93.7575 49.5661C93.4208 49.1953 92.9542 49.0099 92.3576 49.0099C91.9528 49.0099 91.5927 49.0994 91.2773 49.2784C90.9663 49.4531 90.7212 49.7067 90.5423 50.0391C90.3675 50.3714 90.2802 50.7741 90.2802 51.2472ZM102.578 57.1726C101.807 57.1726 101.117 56.9744 100.507 56.5781C99.8981 56.1818 99.4165 55.6065 99.0629 54.8523C98.7092 54.098 98.5323 53.1818 98.5323 52.1037C98.5323 51.0128 98.7113 50.0923 99.0692 49.3423C99.4315 48.5881 99.9194 48.0192 100.533 47.6357C101.147 47.2479 101.831 47.054 102.585 47.054C103.16 47.054 103.633 47.152 104.004 47.348C104.375 47.5398 104.669 47.772 104.886 48.0447C105.103 48.3132 105.272 48.5668 105.391 48.8054H105.487V43.9091H107.807V57H105.532V55.4531H105.391C105.272 55.6918 105.099 55.9453 104.873 56.2138C104.647 56.478 104.349 56.7038 103.978 56.8913C103.608 57.0788 103.141 57.1726 102.578 57.1726ZM103.224 55.2741C103.714 55.2741 104.132 55.142 104.477 54.8778C104.822 54.6094 105.084 54.2365 105.263 53.7592C105.442 53.282 105.532 52.7259 105.532 52.0909C105.532 51.456 105.442 50.9041 105.263 50.4354C105.088 49.9666 104.828 49.6023 104.483 49.3423C104.142 49.0824 103.723 48.9524 103.224 48.9524C102.708 48.9524 102.278 49.0866 101.933 49.3551C101.588 49.6236 101.328 49.9943 101.153 50.4673C100.978 50.9403 100.891 51.4815 100.891 52.0909C100.891 52.7045 100.978 53.2521 101.153 53.7337C101.332 54.2109 101.594 54.5881 101.939 54.8651C102.289 55.1378 102.717 55.2741 103.224 55.2741ZM112.587 43.9091V57H110.273V43.9091H112.587ZM116.404 60.6818C116.089 60.6818 115.797 60.6563 115.529 60.6051C115.265 60.5582 115.054 60.5028 114.896 60.4389L115.433 58.6364C115.77 58.7344 116.07 58.7813 116.334 58.777C116.598 58.7727 116.831 58.6896 117.031 58.5277C117.235 58.37 117.408 58.1058 117.549 57.7351L117.747 57.2045L114.186 47.1818H116.641L118.904 54.5966H119.006L121.275 47.1818H123.736L119.805 58.1889C119.622 58.7088 119.379 59.1541 119.076 59.5249C118.774 59.8999 118.403 60.1854 117.964 60.3814C117.529 60.5817 117.01 60.6818 116.404 60.6818ZM132.627 57.1982C132.005 57.1982 131.445 57.0874 130.946 56.8658C130.452 56.6399 130.06 56.3075 129.77 55.8686C129.485 55.4297 129.342 54.8885 129.342 54.245C129.342 53.6911 129.444 53.233 129.649 52.8707C129.853 52.5085 130.132 52.2188 130.486 52.0014C130.84 51.7841 131.238 51.62 131.681 51.5092C132.129 51.3942 132.591 51.3111 133.069 51.2599C133.644 51.2003 134.11 51.147 134.468 51.1001C134.826 51.049 135.086 50.9723 135.248 50.87C135.414 50.7635 135.498 50.5994 135.498 50.3778V50.3395C135.498 49.858 135.355 49.4851 135.069 49.2209C134.784 48.9567 134.373 48.8246 133.836 48.8246C133.269 48.8246 132.819 48.9482 132.487 49.1953C132.159 49.4425 131.937 49.7344 131.822 50.071L129.662 49.7642C129.832 49.1676 130.113 48.669 130.505 48.2685C130.897 47.8636 131.377 47.5611 131.944 47.3608C132.51 47.1562 133.137 47.054 133.823 47.054C134.296 47.054 134.767 47.1094 135.235 47.2202C135.704 47.331 136.132 47.5142 136.52 47.7699C136.908 48.0213 137.219 48.3643 137.453 48.799C137.692 49.2337 137.811 49.777 137.811 50.429V57H135.587V55.6513H135.51C135.37 55.924 135.172 56.1797 134.916 56.4183C134.664 56.6527 134.347 56.8423 133.963 56.9872C133.584 57.1278 133.139 57.1982 132.627 57.1982ZM133.228 55.4979C133.693 55.4979 134.096 55.4062 134.436 55.223C134.777 55.0355 135.039 54.7884 135.223 54.4815C135.41 54.1747 135.504 53.8402 135.504 53.478V52.321C135.431 52.3807 135.308 52.4361 135.133 52.4872C134.963 52.5384 134.771 52.5831 134.558 52.6214C134.345 52.6598 134.134 52.6939 133.925 52.7237C133.716 52.7536 133.535 52.7791 133.382 52.8004C133.037 52.8473 132.728 52.924 132.455 53.0305C132.182 53.1371 131.967 53.2862 131.809 53.478C131.652 53.6655 131.573 53.9084 131.573 54.2067C131.573 54.6328 131.728 54.9545 132.039 55.1719C132.35 55.3892 132.747 55.4979 133.228 55.4979ZM147.898 49.777L145.789 50.0071C145.729 49.794 145.625 49.5938 145.475 49.4062C145.331 49.2188 145.135 49.0675 144.887 48.9524C144.64 48.8374 144.338 48.7798 143.98 48.7798C143.498 48.7798 143.093 48.8842 142.765 49.093C142.441 49.3018 142.282 49.5724 142.286 49.9048C142.282 50.1903 142.386 50.4226 142.599 50.6016C142.816 50.7805 143.174 50.9276 143.673 51.0426L145.348 51.4006C146.277 51.6009 146.967 51.9183 147.419 52.353C147.875 52.7876 148.105 53.3565 148.109 54.0597C148.105 54.6776 147.924 55.223 147.566 55.696C147.212 56.1648 146.72 56.5312 146.089 56.7955C145.458 57.0597 144.734 57.1918 143.916 57.1918C142.714 57.1918 141.747 56.9403 141.014 56.4375C140.281 55.9304 139.844 55.2251 139.703 54.3217L141.96 54.1044C142.062 54.5476 142.279 54.8821 142.612 55.108C142.944 55.3338 143.377 55.4467 143.909 55.4467C144.459 55.4467 144.9 55.3338 145.233 55.108C145.569 54.8821 145.738 54.603 145.738 54.2706C145.738 53.9893 145.629 53.7571 145.412 53.5739C145.199 53.3906 144.866 53.25 144.414 53.152L142.74 52.8004C141.798 52.6044 141.101 52.2741 140.65 51.8097C140.198 51.3409 139.974 50.7486 139.978 50.0327C139.974 49.4276 140.138 48.9034 140.471 48.4602C140.807 48.0128 141.274 47.6676 141.87 47.4247C142.471 47.1776 143.164 47.054 143.948 47.054C145.098 47.054 146.004 47.299 146.664 47.7891C147.329 48.2791 147.74 48.9418 147.898 49.777ZM157.777 49.777L155.668 50.0071C155.608 49.794 155.504 49.5938 155.354 49.4062C155.21 49.2188 155.013 49.0675 154.766 48.9524C154.519 48.8374 154.217 48.7798 153.859 48.7798C153.377 48.7798 152.972 48.8842 152.644 49.093C152.32 49.3018 152.161 49.5724 152.165 49.9048C152.161 50.1903 152.265 50.4226 152.478 50.6016C152.695 50.7805 153.053 50.9276 153.552 51.0426L155.227 51.4006C156.156 51.6009 156.846 51.9183 157.298 52.353C157.754 52.7876 157.984 53.3565 157.988 54.0597C157.984 54.6776 157.803 55.223 157.445 55.696C157.091 56.1648 156.599 56.5312 155.968 56.7955C155.337 57.0597 154.613 57.1918 153.795 57.1918C152.593 57.1918 151.626 56.9403 150.893 56.4375C150.16 55.9304 149.723 55.2251 149.582 54.3217L151.839 54.1044C151.941 54.5476 152.158 54.8821 152.491 55.108C152.823 55.3338 153.256 55.4467 153.788 55.4467C154.338 55.4467 154.779 55.3338 155.112 55.108C155.448 54.8821 155.616 54.603 155.616 54.2706C155.616 53.9893 155.508 53.7571 155.29 53.5739C155.077 53.3906 154.745 53.25 154.293 53.152L152.619 52.8004C151.677 52.6044 150.98 52.2741 150.528 51.8097C150.077 51.3409 149.853 50.7486 149.857 50.0327C149.853 49.4276 150.017 48.9034 150.349 48.4602C150.686 48.0128 151.153 47.6676 151.749 47.4247C152.35 47.1776 153.043 47.054 153.827 47.054C154.977 47.054 155.883 47.299 156.543 47.7891C157.208 48.2791 157.619 48.9418 157.777 49.777ZM159.896 57V47.1818H162.21V57H159.896ZM161.059 45.7884C160.693 45.7884 160.377 45.6669 160.113 45.424C159.849 45.1768 159.717 44.8807 159.717 44.5355C159.717 44.1861 159.849 43.8899 160.113 43.647C160.377 43.3999 160.693 43.2763 161.059 43.2763C161.43 43.2763 161.745 43.3999 162.005 43.647C162.27 43.8899 162.402 44.1861 162.402 44.5355C162.402 44.8807 162.27 45.1768 162.005 45.424C161.745 45.6669 161.43 45.7884 161.059 45.7884ZM172.349 49.777L170.24 50.0071C170.18 49.794 170.076 49.5938 169.927 49.4062C169.782 49.2188 169.586 49.0675 169.339 48.9524C169.091 48.8374 168.789 48.7798 168.431 48.7798C167.949 48.7798 167.545 48.8842 167.216 49.093C166.893 49.3018 166.733 49.5724 166.737 49.9048C166.733 50.1903 166.837 50.4226 167.05 50.6016C167.268 50.7805 167.626 50.9276 168.124 51.0426L169.799 51.4006C170.728 51.6009 171.418 51.9183 171.87 52.353C172.326 52.7876 172.556 53.3565 172.56 54.0597C172.556 54.6776 172.375 55.223 172.017 55.696C171.663 56.1648 171.171 56.5312 170.54 56.7955C169.91 57.0597 169.185 57.1918 168.367 57.1918C167.165 57.1918 166.198 56.9403 165.465 56.4375C164.732 55.9304 164.295 55.2251 164.155 54.3217L166.411 54.1044C166.513 54.5476 166.731 54.8821 167.063 55.108C167.395 55.3338 167.828 55.4467 168.361 55.4467C168.91 55.4467 169.351 55.3338 169.684 55.108C170.02 54.8821 170.189 54.603 170.189 54.2706C170.189 53.9893 170.08 53.7571 169.863 53.5739C169.65 53.3906 169.317 53.25 168.866 53.152L167.191 52.8004C166.249 52.6044 165.552 52.2741 165.101 51.8097C164.649 51.3409 164.425 50.7486 164.43 50.0327C164.425 49.4276 164.589 48.9034 164.922 48.4602C165.258 48.0128 165.725 47.6676 166.322 47.4247C166.922 47.1776 167.615 47.054 168.399 47.054C169.55 47.054 170.455 47.299 171.116 47.7891C171.78 48.2791 172.192 48.9418 172.349 49.777ZM179.371 47.1818V48.9716H173.727V47.1818H179.371ZM175.12 44.8295H177.434V54.0469C177.434 54.358 177.481 54.5966 177.575 54.7628C177.673 54.9247 177.801 55.0355 177.958 55.0952C178.116 55.1548 178.291 55.1847 178.482 55.1847C178.627 55.1847 178.759 55.174 178.879 55.1527C179.002 55.1314 179.096 55.1122 179.16 55.0952L179.55 56.9041C179.426 56.9467 179.249 56.9936 179.019 57.0447C178.794 57.0959 178.517 57.1257 178.188 57.1342C177.609 57.1513 177.087 57.0639 176.622 56.8722C176.158 56.6761 175.789 56.3736 175.517 55.9645C175.248 55.5554 175.116 55.044 175.12 54.4304V44.8295ZM184.131 57.1982C183.509 57.1982 182.949 57.0874 182.45 56.8658C181.956 56.6399 181.564 56.3075 181.274 55.8686C180.989 55.4297 180.846 54.8885 180.846 54.245C180.846 53.6911 180.948 53.233 181.153 52.8707C181.357 52.5085 181.636 52.2188 181.99 52.0014C182.344 51.7841 182.742 51.62 183.185 51.5092C183.633 51.3942 184.095 51.3111 184.572 51.2599C185.148 51.2003 185.614 51.147 185.972 51.1001C186.33 51.049 186.59 50.9723 186.752 50.87C186.918 50.7635 187.001 50.5994 187.001 50.3778V50.3395C187.001 49.858 186.859 49.4851 186.573 49.2209C186.288 48.9567 185.876 48.8246 185.339 48.8246C184.773 48.8246 184.323 48.9482 183.991 49.1953C183.663 49.4425 183.441 49.7344 183.326 50.071L181.165 49.7642C181.336 49.1676 181.617 48.669 182.009 48.2685C182.401 47.8636 182.881 47.5611 183.447 47.3608C184.014 47.1562 184.641 47.054 185.327 47.054C185.8 47.054 186.271 47.1094 186.739 47.2202C187.208 47.331 187.636 47.5142 188.024 47.7699C188.412 48.0213 188.723 48.3643 188.957 48.799C189.196 49.2337 189.315 49.777 189.315 50.429V57H187.091V55.6513H187.014C186.874 55.924 186.675 56.1797 186.42 56.4183C186.168 56.6527 185.851 56.8423 185.467 56.9872C185.088 57.1278 184.643 57.1982 184.131 57.1982ZM184.732 55.4979C185.197 55.4979 185.599 55.4062 185.94 55.223C186.281 55.0355 186.543 54.7884 186.727 54.4815C186.914 54.1747 187.008 53.8402 187.008 53.478V52.321C186.935 52.3807 186.812 52.4361 186.637 52.4872C186.467 52.5384 186.275 52.5831 186.062 52.6214C185.849 52.6598 185.638 52.6939 185.429 52.7237C185.22 52.7536 185.039 52.7791 184.886 52.8004C184.54 52.8473 184.232 52.924 183.959 53.0305C183.686 53.1371 183.471 53.2862 183.313 53.478C183.156 53.6655 183.077 53.9084 183.077 54.2067C183.077 54.6328 183.232 54.9545 183.543 55.1719C183.854 55.3892 184.251 55.4979 184.732 55.4979ZM193.956 51.2472V57H191.642V47.1818H193.854V48.8501H193.969C194.195 48.3004 194.555 47.8636 195.049 47.5398C195.548 47.2159 196.163 47.054 196.896 47.054C197.574 47.054 198.164 47.1989 198.667 47.4886C199.174 47.7784 199.566 48.1982 199.843 48.7479C200.124 49.2976 200.263 49.9645 200.259 50.7486V57H197.945V51.1065C197.945 50.4503 197.774 49.9368 197.433 49.5661C197.097 49.1953 196.63 49.0099 196.033 49.0099C195.629 49.0099 195.268 49.0994 194.953 49.2784C194.642 49.4531 194.397 49.7067 194.218 50.0391C194.043 50.3714 193.956 50.7741 193.956 51.2472ZM207.513 47.1818V48.9716H201.869V47.1818H207.513ZM203.263 44.8295H205.577V54.0469C205.577 54.358 205.624 54.5966 205.717 54.7628C205.815 54.9247 205.943 55.0355 206.101 55.0952C206.259 55.1548 206.433 55.1847 206.625 55.1847C206.77 55.1847 206.902 55.174 207.021 55.1527C207.145 55.1314 207.239 55.1122 207.303 55.0952L207.692 56.9041C207.569 56.9467 207.392 56.9936 207.162 57.0447C206.936 57.0959 206.659 57.1257 206.331 57.1342C205.751 57.1513 205.229 57.0639 204.765 56.8722C204.3 56.6761 203.932 56.3736 203.659 55.9645C203.391 55.5554 203.259 55.044 203.263 54.4304V44.8295ZM213.914 57V47.1818H216.227V57H213.914ZM215.077 45.7884C214.71 45.7884 214.395 45.6669 214.131 45.424C213.867 45.1768 213.735 44.8807 213.735 44.5355C213.735 44.1861 213.867 43.8899 214.131 43.647C214.395 43.3999 214.71 43.2763 215.077 43.2763C215.448 43.2763 215.763 43.3999 216.023 43.647C216.287 43.8899 216.419 44.1861 216.419 44.5355C216.419 44.8807 216.287 45.1768 216.023 45.424C215.763 45.6669 215.448 45.7884 215.077 45.7884ZM226.367 49.777L224.257 50.0071C224.198 49.794 224.093 49.5938 223.944 49.4062C223.799 49.2188 223.603 49.0675 223.356 48.9524C223.109 48.8374 222.806 48.7798 222.449 48.7798C221.967 48.7798 221.562 48.8842 221.234 49.093C220.91 49.3018 220.75 49.5724 220.755 49.9048C220.75 50.1903 220.855 50.4226 221.068 50.6016C221.285 50.7805 221.643 50.9276 222.142 51.0426L223.816 51.4006C224.745 51.6009 225.436 51.9183 225.887 52.353C226.343 52.7876 226.574 53.3565 226.578 54.0597C226.574 54.6776 226.392 55.223 226.034 55.696C225.681 56.1648 225.189 56.5312 224.558 56.7955C223.927 57.0597 223.203 57.1918 222.385 57.1918C221.183 57.1918 220.216 56.9403 219.483 56.4375C218.75 55.9304 218.313 55.2251 218.172 54.3217L220.429 54.1044C220.531 54.5476 220.748 54.8821 221.081 55.108C221.413 55.3338 221.846 55.4467 222.378 55.4467C222.928 55.4467 223.369 55.3338 223.701 55.108C224.038 54.8821 224.206 54.603 224.206 54.2706C224.206 53.9893 224.098 53.7571 223.88 53.5739C223.667 53.3906 223.335 53.25 222.883 53.152L221.208 52.8004C220.267 52.6044 219.57 52.2741 219.118 51.8097C218.667 51.3409 218.443 50.7486 218.447 50.0327C218.443 49.4276 218.607 48.9034 218.939 48.4602C219.276 48.0128 219.743 47.6676 220.339 47.4247C220.94 47.1776 221.632 47.054 222.417 47.054C223.567 47.054 224.473 47.299 225.133 47.7891C225.798 48.2791 226.209 48.9418 226.367 49.777ZM235.265 51.2472V57H232.951V43.9091H235.213V48.8501H235.328C235.559 48.2962 235.914 47.8594 236.396 47.5398C236.882 47.2159 237.5 47.054 238.25 47.054C238.931 47.054 239.526 47.1967 240.033 47.4822C240.54 47.7678 240.932 48.1854 241.209 48.7351C241.49 49.2848 241.631 49.956 241.631 50.7486V57H239.317V51.1065C239.317 50.446 239.147 49.9325 238.806 49.5661C238.469 49.1953 237.996 49.0099 237.387 49.0099C236.978 49.0099 236.611 49.0994 236.287 49.2784C235.968 49.4531 235.716 49.7067 235.533 50.0391C235.354 50.3714 235.265 50.7741 235.265 51.2472ZM248.336 57.1918C247.352 57.1918 246.502 56.9872 245.786 56.5781C245.074 56.1648 244.527 55.581 244.143 54.8267C243.76 54.0682 243.568 53.1754 243.568 52.1484C243.568 51.1385 243.76 50.2521 244.143 49.4893C244.531 48.7223 245.072 48.1257 245.767 47.6996C246.461 47.2692 247.277 47.054 248.215 47.054C248.82 47.054 249.391 47.152 249.928 47.348C250.469 47.5398 250.946 47.8381 251.36 48.2429C251.777 48.6477 252.105 49.1634 252.344 49.7898C252.583 50.4119 252.702 51.1534 252.702 52.0142V52.7237H244.654V51.1641H250.484C250.48 50.7209 250.384 50.3267 250.196 49.9815C250.009 49.6321 249.747 49.3572 249.41 49.157C249.078 48.9567 248.69 48.8565 248.247 48.8565C247.774 48.8565 247.358 48.9716 247 49.2017C246.642 49.4276 246.363 49.7259 246.163 50.0966C245.967 50.4631 245.867 50.8658 245.863 51.3047V52.6662C245.863 53.2372 245.967 53.7273 246.176 54.1364C246.385 54.5412 246.676 54.8523 247.051 55.0696C247.426 55.2827 247.865 55.3892 248.368 55.3892C248.705 55.3892 249.01 55.3423 249.282 55.2486C249.555 55.1506 249.792 55.0078 249.992 54.8203C250.192 54.6328 250.343 54.4006 250.446 54.1236L252.606 54.3665C252.47 54.9375 252.21 55.4361 251.826 55.8622C251.447 56.2841 250.961 56.6122 250.369 56.8466C249.777 57.0767 249.099 57.1918 248.336 57.1918ZM254.66 57V47.1818H256.903V48.8182H257.006C257.184 48.2514 257.491 47.8146 257.926 47.5078C258.365 47.1967 258.866 47.0412 259.428 47.0412C259.556 47.0412 259.699 47.0476 259.856 47.0604C260.018 47.0689 260.153 47.0838 260.259 47.1051V49.2337C260.161 49.1996 260.006 49.1697 259.792 49.1442C259.584 49.1143 259.381 49.0994 259.185 49.0994C258.763 49.0994 258.384 49.1911 258.047 49.3743C257.715 49.5533 257.453 49.8026 257.261 50.1222C257.069 50.4418 256.974 50.8104 256.974 51.228V57H254.66ZM265.739 57.1918C264.754 57.1918 263.904 56.9872 263.188 56.5781C262.477 56.1648 261.929 55.581 261.545 54.8267C261.162 54.0682 260.97 53.1754 260.97 52.1484C260.97 51.1385 261.162 50.2521 261.545 49.4893C261.933 48.7223 262.474 48.1257 263.169 47.6996C263.864 47.2692 264.68 47.054 265.617 47.054C266.222 47.054 266.793 47.152 267.33 47.348C267.871 47.5398 268.349 47.8381 268.762 48.2429C269.18 48.6477 269.508 49.1634 269.746 49.7898C269.985 50.4119 270.104 51.1534 270.104 52.0142V52.7237H262.057V51.1641H267.886C267.882 50.7209 267.786 50.3267 267.599 49.9815C267.411 49.6321 267.149 49.3572 266.812 49.157C266.48 48.9567 266.092 48.8565 265.649 48.8565C265.176 48.8565 264.761 48.9716 264.403 49.2017C264.045 49.4276 263.766 49.7259 263.565 50.0966C263.369 50.4631 263.269 50.8658 263.265 51.3047V52.6662C263.265 53.2372 263.369 53.7273 263.578 54.1364C263.787 54.5412 264.079 54.8523 264.454 55.0696C264.829 55.2827 265.268 55.3892 265.771 55.3892C266.107 55.3892 266.412 55.3423 266.685 55.2486C266.957 55.1506 267.194 55.0078 267.394 54.8203C267.594 54.6328 267.746 54.4006 267.848 54.1236L270.009 54.3665C269.872 54.9375 269.612 55.4361 269.229 55.8622C268.849 56.2841 268.364 56.6122 267.771 56.8466C267.179 57.0767 266.501 57.1918 265.739 57.1918Z" fill="#205049" style="fill:#205049;fill:color(display-p3 0.1255 0.3137 0.2863);fill-opacity:1;"/>
<path d="M29.1932 76C29.0838 75.6652 28.9396 75.3653 28.7607 75.1001C28.585 74.8317 28.3745 74.603 28.1293 74.4141C27.8873 74.2251 27.6122 74.081 27.304 73.9815C26.9957 73.8821 26.6577 73.8324 26.2898 73.8324C25.6866 73.8324 25.138 73.9882 24.6442 74.2997C24.1503 74.6113 23.7576 75.0703 23.4659 75.6768C23.1742 76.2834 23.0284 77.0275 23.0284 77.9091C23.0284 78.7907 23.1759 79.5348 23.4709 80.1413C23.7659 80.7479 24.1652 81.2069 24.669 81.5185C25.1728 81.83 25.7396 81.9858 26.3693 81.9858C26.9527 81.9858 27.4664 81.8615 27.9105 81.6129C28.358 81.361 28.706 81.0064 28.9545 80.549C29.2064 80.0883 29.3324 79.5464 29.3324 78.9233L29.7102 79.0028H26.6477V77.9091H30.5256V79.0028C30.5256 79.8414 30.3466 80.5705 29.9886 81.1903C29.634 81.8101 29.1435 82.2907 28.517 82.6321C27.8939 82.9702 27.178 83.1392 26.3693 83.1392C25.4678 83.1392 24.6757 82.9271 23.9929 82.5028C23.3134 82.0786 22.7831 81.4754 22.402 80.6932C22.0241 79.911 21.8352 78.983 21.8352 77.9091C21.8352 77.1037 21.9429 76.3795 22.1584 75.7365C22.3771 75.0902 22.6854 74.54 23.0831 74.0859C23.4808 73.6319 23.9515 73.2839 24.495 73.0419C25.0386 72.8 25.6368 72.679 26.2898 72.679C26.8267 72.679 27.3272 72.7602 27.7912 72.9226C28.2585 73.0817 28.6745 73.3087 29.0391 73.6037C29.407 73.8954 29.7135 74.245 29.9588 74.6527C30.2041 75.0571 30.3731 75.5062 30.4659 76H29.1932ZM35.3999 83.1591C34.6641 83.1591 34.0294 82.9967 33.4957 82.6719C32.9654 82.3438 32.5561 81.8864 32.2678 81.2997C31.9827 80.7098 31.8402 80.0237 31.8402 79.2415C31.8402 78.4593 31.9827 77.7699 32.2678 77.1733C32.5561 76.5734 32.9572 76.1061 33.4709 75.7713C33.9879 75.4332 34.5912 75.2642 35.2805 75.2642C35.6783 75.2642 36.071 75.3305 36.4588 75.4631C36.8466 75.5956 37.1996 75.8111 37.5178 76.1094C37.8359 76.4044 38.0895 76.7955 38.2784 77.2827C38.4673 77.7699 38.5618 78.3698 38.5618 79.0824V79.5795H32.6754V78.5653H37.3686C37.3686 78.1345 37.2824 77.75 37.1101 77.4119C36.9411 77.0739 36.6991 76.8071 36.3842 76.6115C36.0727 76.416 35.7048 76.3182 35.2805 76.3182C34.8132 76.3182 34.4089 76.4342 34.0675 76.6662C33.7294 76.8949 33.4692 77.1932 33.2869 77.5611C33.1046 77.929 33.0135 78.3234 33.0135 78.7443V79.4205C33.0135 79.9972 33.1129 80.486 33.3118 80.8871C33.514 81.2848 33.794 81.5881 34.152 81.7969C34.51 82.0024 34.9259 82.1051 35.3999 82.1051C35.7081 82.1051 35.9865 82.062 36.2351 81.9759C36.487 81.8864 36.7041 81.7538 36.8864 81.5781C37.0687 81.3991 37.2095 81.1771 37.309 80.9119L38.4425 81.2301C38.3232 81.6146 38.1226 81.9527 37.8409 82.2443C37.5592 82.5327 37.2112 82.758 36.7969 82.9205C36.3826 83.0795 35.9169 83.1591 35.3999 83.1591ZM43.3876 75.3636V76.358H39.4302V75.3636H43.3876ZM40.5836 73.5341H41.7569V80.8125C41.7569 81.1439 41.805 81.3925 41.9011 81.5582C42.0005 81.7206 42.1265 81.83 42.279 81.8864C42.4347 81.9394 42.5988 81.9659 42.7711 81.9659C42.9004 81.9659 43.0065 81.9593 43.0893 81.946C43.1722 81.9295 43.2385 81.9162 43.2882 81.9062L43.5268 82.9602C43.4473 82.9901 43.3362 83.0199 43.1937 83.0497C43.0512 83.0829 42.8706 83.0994 42.6518 83.0994C42.3204 83.0994 41.9956 83.0282 41.6774 82.8857C41.3625 82.7431 41.1007 82.526 40.8919 82.2344C40.6864 81.9427 40.5836 81.5748 40.5836 81.1307V73.5341ZM48.53 83V75.3636H49.7033V83H48.53ZM49.1266 74.0909C48.8979 74.0909 48.7007 74.013 48.535 73.8572C48.3726 73.7015 48.2914 73.5142 48.2914 73.2955C48.2914 73.0767 48.3726 72.8894 48.535 72.7337C48.7007 72.5779 48.8979 72.5 49.1266 72.5C49.3553 72.5 49.5509 72.5779 49.7133 72.7337C49.879 72.8894 49.9619 73.0767 49.9619 73.2955C49.9619 73.5142 49.879 73.7015 49.7133 73.8572C49.5509 74.013 49.3553 74.0909 49.1266 74.0909ZM52.7456 78.4062V83H51.5723V75.3636H52.7058V76.5568H52.8053C52.9842 76.169 53.256 75.8575 53.6206 75.6222C53.9852 75.3835 54.4558 75.2642 55.0325 75.2642C55.5496 75.2642 56.002 75.3703 56.3898 75.5824C56.7776 75.7912 57.0792 76.1094 57.2946 76.5369C57.51 76.9612 57.6178 77.4981 57.6178 78.1477V83H56.4445V78.2273C56.4445 77.6274 56.2887 77.16 55.9771 76.8253C55.6656 76.4872 55.238 76.3182 54.6945 76.3182C54.3199 76.3182 53.9852 76.3994 53.6902 76.5618C53.3985 76.7242 53.1682 76.9612 52.9991 77.2727C52.8301 77.5843 52.7456 77.9621 52.7456 78.4062ZM64.8908 77.0739L63.8369 77.3722C63.7706 77.1965 63.6728 77.0258 63.5435 76.8601C63.4176 76.6911 63.2452 76.5518 63.0265 76.4425C62.8077 76.3331 62.5277 76.2784 62.1863 76.2784C61.719 76.2784 61.3295 76.3861 61.018 76.6016C60.7097 76.8137 60.5556 77.0838 60.5556 77.4119C60.5556 77.7036 60.6617 77.9339 60.8738 78.103C61.0859 78.272 61.4174 78.4129 61.8681 78.5256L63.0016 78.804C63.6844 78.9697 64.1932 79.2232 64.5279 79.5646C64.8627 79.9027 65.03 80.3385 65.03 80.8722C65.03 81.3097 64.9041 81.7008 64.6522 82.0455C64.4036 82.3902 64.0556 82.6619 63.6082 82.8608C63.1607 83.0597 62.6404 83.1591 62.0471 83.1591C61.2682 83.1591 60.6236 82.9901 60.1131 82.652C59.6027 82.3139 59.2796 81.8201 59.1437 81.1705L60.2573 80.892C60.3634 81.303 60.5639 81.6113 60.8589 81.8168C61.1572 82.0223 61.5466 82.125 62.0272 82.125C62.5741 82.125 63.0083 82.009 63.3298 81.777C63.6546 81.5417 63.817 81.2599 63.817 80.9318C63.817 80.6667 63.7242 80.4446 63.5386 80.2656C63.353 80.0833 63.0679 79.9474 62.6835 79.858L61.4107 79.5597C60.7114 79.3939 60.1977 79.1371 59.8695 78.7891C59.5447 78.4377 59.3823 77.9986 59.3823 77.4716C59.3823 77.0407 59.5033 76.6596 59.7452 76.3281C59.9905 75.9967 60.3236 75.7365 60.7445 75.5476C61.1688 75.3587 61.6494 75.2642 62.1863 75.2642C62.942 75.2642 63.5353 75.4299 63.9661 75.7614C64.4003 76.0928 64.7086 76.5303 64.8908 77.0739ZM69.8372 75.3636V76.358H65.8798V75.3636H69.8372ZM67.0333 73.5341H68.2065V80.8125C68.2065 81.1439 68.2546 81.3925 68.3507 81.5582C68.4502 81.7206 68.5761 81.83 68.7286 81.8864C68.8843 81.9394 69.0484 81.9659 69.2208 81.9659C69.35 81.9659 69.4561 81.9593 69.5389 81.946C69.6218 81.9295 69.6881 81.9162 69.7378 81.9062L69.9764 82.9602C69.8969 82.9901 69.7859 83.0199 69.6433 83.0497C69.5008 83.0829 69.3202 83.0994 69.1014 83.0994C68.77 83.0994 68.4452 83.0282 68.127 82.8857C67.8121 82.7431 67.5503 82.526 67.3415 82.2344C67.136 81.9427 67.0333 81.5748 67.0333 81.1307V73.5341ZM73.5693 83.179C73.0854 83.179 72.6462 83.0878 72.2518 82.9055C71.8574 82.7199 71.5442 82.4531 71.3122 82.1051C71.0802 81.7538 70.9642 81.3295 70.9642 80.8324C70.9642 80.3949 71.0504 80.0402 71.2227 79.7685C71.3951 79.4934 71.6254 79.2779 71.9138 79.1222C72.2021 78.9664 72.5203 78.8504 72.8683 78.7741C73.2196 78.6946 73.5726 78.6316 73.9273 78.5852C74.3913 78.5256 74.7675 78.4808 75.0558 78.451C75.3475 78.4179 75.5596 78.3632 75.6922 78.2869C75.8281 78.2107 75.896 78.0781 75.896 77.8892V77.8494C75.896 77.3589 75.7618 76.9777 75.4933 76.706C75.2282 76.4342 74.8255 76.2983 74.2852 76.2983C73.7251 76.2983 73.2859 76.4209 72.9677 76.6662C72.6496 76.9115 72.4258 77.1733 72.2966 77.4517L71.1829 77.054C71.3818 76.59 71.647 76.2287 71.9784 75.9702C72.3131 75.7083 72.6777 75.526 73.0721 75.4233C73.4699 75.3172 73.861 75.2642 74.2454 75.2642C74.4907 75.2642 74.7724 75.294 75.0906 75.3537C75.4121 75.41 75.722 75.5277 76.0203 75.7067C76.3219 75.8857 76.5721 76.1558 76.771 76.517C76.9699 76.8783 77.0693 77.3622 77.0693 77.9688V83H75.896V81.9659H75.8363C75.7568 82.1316 75.6242 82.3089 75.4386 82.4979C75.253 82.6868 75.0061 82.8475 74.6979 82.9801C74.3896 83.1127 74.0134 83.179 73.5693 83.179ZM73.7483 82.125C74.2123 82.125 74.6034 82.0339 74.9216 81.8516C75.2431 81.6693 75.485 81.4339 75.6474 81.1456C75.8131 80.8572 75.896 80.554 75.896 80.2358V79.1619C75.8463 79.2216 75.7369 79.2763 75.5679 79.326C75.4022 79.3724 75.2099 79.4138 74.9912 79.4503C74.7757 79.4834 74.5653 79.5133 74.3598 79.5398C74.1576 79.563 73.9935 79.5829 73.8676 79.5994C73.5627 79.6392 73.2776 79.7038 73.0125 79.7933C72.7506 79.8795 72.5385 80.0104 72.3761 80.1861C72.217 80.3584 72.1375 80.5937 72.1375 80.892C72.1375 81.2997 72.2883 81.608 72.5899 81.8168C72.8948 82.0223 73.281 82.125 73.7483 82.125ZM80.1041 78.4062V83H78.9308V75.3636H80.0643V76.5568H80.1638C80.3427 76.169 80.6145 75.8575 80.9791 75.6222C81.3437 75.3835 81.8143 75.2642 82.391 75.2642C82.9081 75.2642 83.3605 75.3703 83.7483 75.5824C84.1361 75.7912 84.4377 76.1094 84.6531 76.5369C84.8686 76.9612 84.9763 77.4981 84.9763 78.1477V83H83.803V78.2273C83.803 77.6274 83.6472 77.16 83.3356 76.8253C83.0241 76.4872 82.5965 76.3182 82.053 76.3182C81.6784 76.3182 81.3437 76.3994 81.0487 76.5618C80.757 76.7242 80.5267 76.9612 80.3577 77.2727C80.1886 77.5843 80.1041 77.9621 80.1041 78.4062ZM90.1613 75.3636V76.358H86.2039V75.3636H90.1613ZM87.3573 73.5341H88.5306V80.8125C88.5306 81.1439 88.5787 81.3925 88.6748 81.5582C88.7742 81.7206 88.9002 81.83 89.0526 81.8864C89.2084 81.9394 89.3725 81.9659 89.5448 81.9659C89.6741 81.9659 89.7801 81.9593 89.863 81.946C89.9459 81.9295 90.0121 81.9162 90.0619 81.9062L90.3005 82.9602C90.2209 82.9901 90.1099 83.0199 89.9674 83.0497C89.8249 83.0829 89.6442 83.0994 89.4255 83.0994C89.0941 83.0994 88.7692 83.0282 88.4511 82.8857C88.1362 82.7431 87.8744 82.526 87.6656 82.2344C87.4601 81.9427 87.3573 81.5748 87.3573 81.1307V73.5341ZM97.5509 83.179C97.067 83.179 96.6278 83.0878 96.2334 82.9055C95.839 82.7199 95.5258 82.4531 95.2938 82.1051C95.0618 81.7538 94.9458 81.3295 94.9458 80.8324C94.9458 80.3949 95.0319 80.0402 95.2043 79.7685C95.3766 79.4934 95.607 79.2779 95.8953 79.1222C96.1837 78.9664 96.5019 78.8504 96.8499 78.7741C97.2012 78.6946 97.5542 78.6316 97.9088 78.5852C98.3728 78.5256 98.749 78.4808 99.0374 78.451C99.329 78.4179 99.5412 78.3632 99.6737 78.2869C99.8096 78.2107 99.8776 78.0781 99.8776 77.8892V77.8494C99.8776 77.3589 99.7433 76.9777 99.4749 76.706C99.2097 76.4342 98.807 76.2983 98.2668 76.2983C97.7066 76.2983 97.2675 76.4209 96.9493 76.6662C96.6311 76.9115 96.4074 77.1733 96.2781 77.4517L95.1645 77.054C95.3634 76.59 95.6285 76.2287 95.96 75.9702C96.2947 75.7083 96.6593 75.526 97.0537 75.4233C97.4514 75.3172 97.8425 75.2642 98.227 75.2642C98.4723 75.2642 98.754 75.294 99.0722 75.3537C99.3937 75.41 99.7036 75.5277 100.002 75.7067C100.303 75.8857 100.554 76.1558 100.753 76.517C100.951 76.8783 101.051 77.3622 101.051 77.9688V83H99.8776V81.9659H99.8179C99.7384 82.1316 99.6058 82.3089 99.4202 82.4979C99.2346 82.6868 98.9877 82.8475 98.6794 82.9801C98.3712 83.1127 97.995 83.179 97.5509 83.179ZM97.7298 82.125C98.1939 82.125 98.585 82.0339 98.9031 81.8516C99.2246 81.6693 99.4666 81.4339 99.629 81.1456C99.7947 80.8572 99.8776 80.554 99.8776 80.2358V79.1619C99.8279 79.2216 99.7185 79.2763 99.5494 79.326C99.3837 79.3724 99.1915 79.4138 98.9727 79.4503C98.7573 79.4834 98.5468 79.5133 98.3413 79.5398C98.1392 79.563 97.9751 79.5829 97.8492 79.5994C97.5442 79.6392 97.2592 79.7038 96.994 79.7933C96.7322 79.8795 96.5201 80.0104 96.3577 80.1861C96.1986 80.3584 96.119 80.5937 96.119 80.892C96.119 81.2997 96.2699 81.608 96.5715 81.8168C96.8764 82.0223 97.2625 82.125 97.7298 82.125ZM104.086 78.4062V83H102.912V75.3636H104.046V76.5568H104.145C104.324 76.169 104.596 75.8575 104.961 75.6222C105.325 75.3835 105.796 75.2642 106.373 75.2642C106.89 75.2642 107.342 75.3703 107.73 75.5824C108.118 75.7912 108.419 76.1094 108.635 76.5369C108.85 76.9612 108.958 77.4981 108.958 78.1477V83H107.785V78.2273C107.785 77.6274 107.629 77.16 107.317 76.8253C107.006 76.4872 106.578 76.3182 106.035 76.3182C105.66 76.3182 105.325 76.3994 105.03 76.5618C104.739 76.7242 104.508 76.9612 104.339 77.2727C104.17 77.5843 104.086 77.9621 104.086 78.4062ZM116.231 77.0739L115.177 77.3722C115.111 77.1965 115.013 77.0258 114.884 76.8601C114.758 76.6911 114.585 76.5518 114.367 76.4425C114.148 76.3331 113.868 76.2784 113.526 76.2784C113.059 76.2784 112.67 76.3861 112.358 76.6016C112.05 76.8137 111.896 77.0838 111.896 77.4119C111.896 77.7036 112.002 77.9339 112.214 78.103C112.426 78.272 112.757 78.4129 113.208 78.5256L114.342 78.804C115.024 78.9697 115.533 79.2232 115.868 79.5646C116.203 79.9027 116.37 80.3385 116.37 80.8722C116.37 81.3097 116.244 81.7008 115.992 82.0455C115.744 82.3902 115.396 82.6619 114.948 82.8608C114.501 83.0597 113.98 83.1591 113.387 83.1591C112.608 83.1591 111.964 82.9901 111.453 82.652C110.943 82.3139 110.62 81.8201 110.484 81.1705L111.597 80.892C111.703 81.303 111.904 81.6113 112.199 81.8168C112.497 82.0223 112.887 82.125 113.367 82.125C113.914 82.125 114.348 82.009 114.67 81.777C114.995 81.5417 115.157 81.2599 115.157 80.9318C115.157 80.6667 115.064 80.4446 114.879 80.2656C114.693 80.0833 114.408 79.9474 114.024 79.858L112.751 79.5597C112.051 79.3939 111.538 79.1371 111.21 78.7891C110.885 78.4377 110.722 77.9986 110.722 77.4716C110.722 77.0407 110.843 76.6596 111.085 76.3281C111.331 75.9967 111.664 75.7365 112.085 75.5476C112.509 75.3587 112.989 75.2642 113.526 75.2642C114.282 75.2642 114.875 75.4299 115.306 75.7614C115.74 76.0928 116.049 76.5303 116.231 77.0739ZM119.586 83L117.26 75.3636H118.493L120.143 81.2102H120.223L121.853 75.3636H123.106L124.717 81.1903H124.797L126.447 75.3636H127.68L125.353 83H124.2L122.53 77.1335H122.41L120.74 83H119.586ZM131.893 83.1591C131.157 83.1591 130.523 82.9967 129.989 82.6719C129.459 82.3438 129.049 81.8864 128.761 81.2997C128.476 80.7098 128.334 80.0237 128.334 79.2415C128.334 78.4593 128.476 77.7699 128.761 77.1733C129.049 76.5734 129.451 76.1061 129.964 75.7713C130.481 75.4332 131.085 75.2642 131.774 75.2642C132.172 75.2642 132.564 75.3305 132.952 75.4631C133.34 75.5956 133.693 75.8111 134.011 76.1094C134.329 76.4044 134.583 76.7955 134.772 77.2827C134.961 77.7699 135.055 78.3698 135.055 79.0824V79.5795H129.169V78.5653H133.862C133.862 78.1345 133.776 77.75 133.603 77.4119C133.434 77.0739 133.192 76.8071 132.878 76.6115C132.566 76.416 132.198 76.3182 131.774 76.3182C131.307 76.3182 130.902 76.4342 130.561 76.6662C130.223 76.8949 129.963 77.1932 129.78 77.5611C129.598 77.929 129.507 78.3234 129.507 78.7443V79.4205C129.507 79.9972 129.606 80.486 129.805 80.8871C130.007 81.2848 130.287 81.5881 130.645 81.7969C131.003 82.0024 131.419 82.1051 131.893 82.1051C132.201 82.1051 132.48 82.062 132.728 81.9759C132.98 81.8864 133.197 81.7538 133.38 81.5781C133.562 81.3991 133.703 81.1771 133.802 80.9119L134.936 81.2301C134.817 81.6146 134.616 81.9527 134.334 82.2443C134.053 82.5327 133.705 82.758 133.29 82.9205C132.876 83.0795 132.41 83.1591 131.893 83.1591ZM136.56 83V75.3636H137.693V76.517H137.773C137.912 76.1392 138.164 75.8326 138.529 75.5973C138.893 75.362 139.304 75.2443 139.762 75.2443C139.848 75.2443 139.956 75.246 140.085 75.2493C140.214 75.2526 140.312 75.2576 140.378 75.2642V76.4574C140.338 76.4474 140.247 76.4325 140.105 76.4126C139.965 76.3894 139.818 76.3778 139.662 76.3778C139.291 76.3778 138.96 76.4557 138.668 76.6115C138.38 76.764 138.151 76.9761 137.982 77.2479C137.816 77.5163 137.733 77.8229 137.733 78.1676V83H136.56ZM146.898 77.0739L145.844 77.3722C145.778 77.1965 145.68 77.0258 145.551 76.8601C145.425 76.6911 145.252 76.5518 145.034 76.4425C144.815 76.3331 144.535 76.2784 144.193 76.2784C143.726 76.2784 143.337 76.3861 143.025 76.6016C142.717 76.8137 142.563 77.0838 142.563 77.4119C142.563 77.7036 142.669 77.9339 142.881 78.103C143.093 78.272 143.425 78.4129 143.875 78.5256L145.009 78.804C145.692 78.9697 146.2 79.2232 146.535 79.5646C146.87 79.9027 147.037 80.3385 147.037 80.8722C147.037 81.3097 146.911 81.7008 146.659 82.0455C146.411 82.3902 146.063 82.6619 145.615 82.8608C145.168 83.0597 144.648 83.1591 144.054 83.1591C143.275 83.1591 142.631 82.9901 142.12 82.652C141.61 82.3139 141.287 81.8201 141.151 81.1705L142.265 80.892C142.371 81.303 142.571 81.6113 142.866 81.8168C143.164 82.0223 143.554 82.125 144.034 82.125C144.581 82.125 145.015 82.009 145.337 81.777C145.662 81.5417 145.824 81.2599 145.824 80.9318C145.824 80.6667 145.731 80.4446 145.546 80.2656C145.36 80.0833 145.075 79.9474 144.691 79.858L143.418 79.5597C142.719 79.3939 142.205 79.1371 141.877 78.7891C141.552 78.4377 141.39 77.9986 141.39 77.4716C141.39 77.0407 141.51 76.6596 141.752 76.3281C141.998 75.9967 142.331 75.7365 142.752 75.5476C143.176 75.3587 143.657 75.2642 144.193 75.2642C144.949 75.2642 145.542 75.4299 145.973 75.7614C146.408 76.0928 146.716 76.5303 146.898 77.0739ZM155.502 75.3636V76.358H151.545V75.3636H155.502ZM152.698 73.5341H153.871V80.8125C153.871 81.1439 153.919 81.3925 154.015 81.5582C154.115 81.7206 154.241 81.83 154.393 81.8864C154.549 81.9394 154.713 81.9659 154.885 81.9659C155.015 81.9659 155.121 81.9593 155.204 81.946C155.286 81.9295 155.353 81.9162 155.402 81.9062L155.641 82.9602C155.562 82.9901 155.451 83.0199 155.308 83.0497C155.166 83.0829 154.985 83.0994 154.766 83.0994C154.435 83.0994 154.11 83.0282 153.792 82.8857C153.477 82.7431 153.215 82.526 153.006 82.2344C152.801 81.9427 152.698 81.5748 152.698 81.1307V73.5341ZM160.007 83.1591C159.318 83.1591 158.713 82.995 158.192 82.6669C157.675 82.3388 157.271 81.8797 156.979 81.2898C156.691 80.6998 156.547 80.0104 156.547 79.2216C156.547 78.4261 156.691 77.7318 156.979 77.1385C157.271 76.5452 157.675 76.0845 158.192 75.7564C158.713 75.4283 159.318 75.2642 160.007 75.2642C160.696 75.2642 161.3 75.4283 161.817 75.7564C162.337 76.0845 162.741 76.5452 163.03 77.1385C163.321 77.7318 163.467 78.4261 163.467 79.2216C163.467 80.0104 163.321 80.6998 163.03 81.2898C162.741 81.8797 162.337 82.3388 161.817 82.6669C161.3 82.995 160.696 83.1591 160.007 83.1591ZM160.007 82.1051C160.531 82.1051 160.962 81.9709 161.3 81.7024C161.638 81.4339 161.888 81.081 162.05 80.6435C162.213 80.206 162.294 79.732 162.294 79.2216C162.294 78.7112 162.213 78.2356 162.05 77.7947C161.888 77.3539 161.638 76.9976 161.3 76.7259C160.962 76.4541 160.531 76.3182 160.007 76.3182C159.483 76.3182 159.053 76.4541 158.714 76.7259C158.376 76.9976 158.126 77.3539 157.964 77.7947C157.801 78.2356 157.72 78.7112 157.72 79.2216C157.72 79.732 157.801 80.206 157.964 80.6435C158.126 81.081 158.376 81.4339 158.714 81.7024C159.053 81.9709 159.483 82.1051 160.007 82.1051ZM169.391 85.8636C169.193 85.8636 169.015 85.8471 168.86 85.8139C168.704 85.7841 168.596 85.7543 168.536 85.7244L168.835 84.6903C169.12 84.7633 169.372 84.7898 169.59 84.7699C169.809 84.75 170.003 84.6522 170.172 84.4766C170.344 84.3042 170.502 84.0241 170.644 83.6364L170.863 83.0398L168.039 75.3636H169.312L171.42 81.4489H171.499L173.607 75.3636H174.88L171.639 84.1136C171.493 84.508 171.312 84.8345 171.097 85.093C170.881 85.3549 170.631 85.5488 170.346 85.6747C170.064 85.8007 169.746 85.8636 169.391 85.8636ZM178.978 83.1591C178.288 83.1591 177.683 82.995 177.163 82.6669C176.646 82.3388 176.242 81.8797 175.95 81.2898C175.662 80.6998 175.517 80.0104 175.517 79.2216C175.517 78.4261 175.662 77.7318 175.95 77.1385C176.242 76.5452 176.646 76.0845 177.163 75.7564C177.683 75.4283 178.288 75.2642 178.978 75.2642C179.667 75.2642 180.27 75.4283 180.787 75.7564C181.308 76.0845 181.712 76.5452 182 77.1385C182.292 77.7318 182.438 78.4261 182.438 79.2216C182.438 80.0104 182.292 80.6998 182 81.2898C181.712 81.8797 181.308 82.3388 180.787 82.6669C180.27 82.995 179.667 83.1591 178.978 83.1591ZM178.978 82.1051C179.501 82.1051 179.932 81.9709 180.27 81.7024C180.608 81.4339 180.859 81.081 181.021 80.6435C181.183 80.206 181.265 79.732 181.265 79.2216C181.265 78.7112 181.183 78.2356 181.021 77.7947C180.859 77.3539 180.608 76.9976 180.27 76.7259C179.932 76.4541 179.501 76.3182 178.978 76.3182C178.454 76.3182 178.023 76.4541 177.685 76.7259C177.347 76.9976 177.097 77.3539 176.934 77.7947C176.772 78.2356 176.691 78.7112 176.691 79.2216C176.691 79.732 176.772 80.206 176.934 80.6435C177.097 81.081 177.347 81.4339 177.685 81.7024C178.023 81.9709 178.454 82.1051 178.978 82.1051ZM188.761 79.8778V75.3636H189.935V83H188.761V81.7074H188.682C188.503 82.0952 188.224 82.425 187.847 82.6967C187.469 82.9652 186.991 83.0994 186.415 83.0994C185.938 83.0994 185.513 82.995 185.142 82.7862C184.771 82.5741 184.479 82.2559 184.267 81.8317C184.055 81.4041 183.949 80.8655 183.949 80.2159V75.3636H185.122V80.1364C185.122 80.6932 185.278 81.1373 185.589 81.4688C185.904 81.8002 186.305 81.9659 186.793 81.9659C187.084 81.9659 187.381 81.8913 187.683 81.7422C187.987 81.593 188.243 81.3643 188.448 81.0561C188.657 80.7479 188.761 80.3551 188.761 79.8778ZM191.804 83V75.3636H192.937V76.517H193.017C193.156 76.1392 193.408 75.8326 193.772 75.5973C194.137 75.362 194.548 75.2443 195.005 75.2443C195.092 75.2443 195.199 75.246 195.328 75.2493C195.458 75.2526 195.556 75.2576 195.622 75.2642V76.4574C195.582 76.4474 195.491 76.4325 195.348 76.4126C195.209 76.3894 195.062 76.3778 194.906 76.3778C194.535 76.3778 194.203 76.4557 193.912 76.6115C193.623 76.764 193.395 76.9761 193.226 77.2479C193.06 77.5163 192.977 77.8229 192.977 78.1676V83H191.804ZM205.6 85.8636V81.8267H205.501C205.415 81.9659 205.292 82.1416 205.133 82.3537C204.974 82.5625 204.747 82.7498 204.452 82.9155C204.157 83.0779 203.764 83.1591 203.274 83.1591C202.637 83.1591 202.075 82.9983 201.588 82.6768C201.101 82.352 200.72 81.8946 200.445 81.3047C200.17 80.7114 200.032 80.0104 200.032 79.2017C200.032 78.3996 200.17 77.7036 200.445 77.1136C200.72 76.5237 201.103 76.0679 201.593 75.7464C202.084 75.425 202.651 75.2642 203.294 75.2642C203.791 75.2642 204.183 75.3471 204.472 75.5128C204.763 75.6752 204.986 75.8608 205.138 76.0696C205.294 76.2751 205.415 76.4441 205.501 76.5767H205.64V75.3636H206.774V85.8636H205.6ZM203.433 82.1051C203.903 82.1051 204.301 81.9825 204.626 81.7372C204.951 81.4886 205.198 81.1456 205.367 80.7081C205.536 80.2673 205.62 79.7585 205.62 79.1818C205.62 78.6117 205.537 78.1129 205.372 77.6854C205.206 77.2545 204.961 76.9197 204.636 76.6811C204.311 76.4392 203.91 76.3182 203.433 76.3182C202.936 76.3182 202.521 76.4458 202.19 76.701C201.862 76.9529 201.615 77.2959 201.449 77.7301C201.287 78.161 201.205 78.6449 201.205 79.1818C201.205 79.7254 201.288 80.2192 201.454 80.6634C201.623 81.1042 201.872 81.4555 202.2 81.7173C202.531 81.9759 202.942 82.1051 203.433 82.1051ZM213.454 79.8778V75.3636H214.627V83H213.454V81.7074H213.374C213.195 82.0952 212.917 82.425 212.539 82.6967C212.161 82.9652 211.684 83.0994 211.107 83.0994C210.63 83.0994 210.206 82.995 209.835 82.7862C209.463 82.5741 209.172 82.2559 208.96 81.8317C208.747 81.4041 208.641 80.8655 208.641 80.2159V75.3636H209.815V80.1364C209.815 80.6932 209.97 81.1373 210.282 81.4688C210.597 81.8002 210.998 81.9659 211.485 81.9659C211.777 81.9659 212.073 81.8913 212.375 81.7422C212.68 81.593 212.935 81.3643 213.141 81.0561C213.349 80.7479 213.454 80.3551 213.454 79.8778ZM219.698 83.1591C218.962 83.1591 218.327 82.9967 217.794 82.6719C217.263 82.3438 216.854 81.8864 216.566 81.2997C216.281 80.7098 216.138 80.0237 216.138 79.2415C216.138 78.4593 216.281 77.7699 216.566 77.1733C216.854 76.5734 217.255 76.1061 217.769 75.7713C218.286 75.4332 218.889 75.2642 219.579 75.2642C219.976 75.2642 220.369 75.3305 220.757 75.4631C221.145 75.5956 221.498 75.8111 221.816 76.1094C222.134 76.4044 222.387 76.7955 222.576 77.2827C222.765 77.7699 222.86 78.3698 222.86 79.0824V79.5795H216.973V78.5653H221.667C221.667 78.1345 221.58 77.75 221.408 77.4119C221.239 77.0739 220.997 76.8071 220.682 76.6115C220.371 76.416 220.003 76.3182 219.579 76.3182C219.111 76.3182 218.707 76.4342 218.365 76.6662C218.027 76.8949 217.767 77.1932 217.585 77.5611C217.403 77.929 217.311 78.3234 217.311 78.7443V79.4205C217.311 79.9972 217.411 80.486 217.61 80.8871C217.812 81.2848 218.092 81.5881 218.45 81.7969C218.808 82.0024 219.224 82.1051 219.698 82.1051C220.006 82.1051 220.284 82.062 220.533 81.9759C220.785 81.8864 221.002 81.7538 221.184 81.5781C221.367 81.3991 221.507 81.1771 221.607 80.9119L222.74 81.2301C222.621 81.6146 222.421 81.9527 222.139 82.2443C221.857 82.5327 221.509 82.758 221.095 82.9205C220.681 83.0795 220.215 83.1591 219.698 83.1591ZM229.774 77.0739L228.72 77.3722C228.653 77.1965 228.556 77.0258 228.426 76.8601C228.3 76.6911 228.128 76.5518 227.909 76.4425C227.691 76.3331 227.411 76.2784 227.069 76.2784C226.602 76.2784 226.212 76.3861 225.901 76.6016C225.593 76.8137 225.438 77.0838 225.438 77.4119C225.438 77.7036 225.544 77.9339 225.757 78.103C225.969 78.272 226.3 78.4129 226.751 78.5256L227.884 78.804C228.567 78.9697 229.076 79.2232 229.411 79.5646C229.745 79.9027 229.913 80.3385 229.913 80.8722C229.913 81.3097 229.787 81.7008 229.535 82.0455C229.286 82.3902 228.938 82.6619 228.491 82.8608C228.044 83.0597 227.523 83.1591 226.93 83.1591C226.151 83.1591 225.506 82.9901 224.996 82.652C224.486 82.3139 224.162 81.8201 224.027 81.1705L225.14 80.892C225.246 81.303 225.447 81.6113 225.742 81.8168C226.04 82.0223 226.429 82.125 226.91 82.125C227.457 82.125 227.891 82.009 228.213 81.777C228.537 81.5417 228.7 81.2599 228.7 80.9318C228.7 80.6667 228.607 80.4446 228.421 80.2656C228.236 80.0833 227.951 79.9474 227.566 79.858L226.294 79.5597C225.594 79.3939 225.08 79.1371 224.752 78.7891C224.428 78.4377 224.265 77.9986 224.265 77.4716C224.265 77.0407 224.386 76.6596 224.628 76.3281C224.873 75.9967 225.206 75.7365 225.627 75.5476C226.052 75.3587 226.532 75.2642 227.069 75.2642C227.825 75.2642 228.418 75.4299 228.849 75.7614C229.283 76.0928 229.591 76.5303 229.774 77.0739ZM234.72 75.3636V76.358H230.763V75.3636H234.72ZM231.916 73.5341H233.089V80.8125C233.089 81.1439 233.137 81.3925 233.234 81.5582C233.333 81.7206 233.459 81.83 233.611 81.8864C233.767 81.9394 233.931 81.9659 234.104 81.9659C234.233 81.9659 234.339 81.9593 234.422 81.946C234.505 81.9295 234.571 81.9162 234.621 81.9062L234.859 82.9602C234.78 82.9901 234.669 83.0199 234.526 83.0497C234.384 83.0829 234.203 83.0994 233.984 83.0994C233.653 83.0994 233.328 83.0282 233.01 82.8857C232.695 82.7431 232.433 82.526 232.224 82.2344C232.019 81.9427 231.916 81.5748 231.916 81.1307V73.5341ZM236.205 83V75.3636H237.378V83H236.205ZM236.802 74.0909C236.573 74.0909 236.376 74.013 236.21 73.8572C236.048 73.7015 235.966 73.5142 235.966 73.2955C235.966 73.0767 236.048 72.8894 236.21 72.7337C236.376 72.5779 236.573 72.5 236.802 72.5C237.03 72.5 237.226 72.5779 237.388 72.7337C237.554 72.8894 237.637 73.0767 237.637 73.2955C237.637 73.5142 237.554 73.7015 237.388 73.8572C237.226 74.013 237.03 74.0909 236.802 74.0909ZM242.349 83.1591C241.66 83.1591 241.055 82.995 240.535 82.6669C240.018 82.3388 239.613 81.8797 239.322 81.2898C239.033 80.6998 238.889 80.0104 238.889 79.2216C238.889 78.4261 239.033 77.7318 239.322 77.1385C239.613 76.5452 240.018 76.0845 240.535 75.7564C241.055 75.4283 241.66 75.2642 242.349 75.2642C243.039 75.2642 243.642 75.4283 244.159 75.7564C244.68 76.0845 245.084 76.5452 245.372 77.1385C245.664 77.7318 245.81 78.4261 245.81 79.2216C245.81 80.0104 245.664 80.6998 245.372 81.2898C245.084 81.8797 244.68 82.3388 244.159 82.6669C243.642 82.995 243.039 83.1591 242.349 83.1591ZM242.349 82.1051C242.873 82.1051 243.304 81.9709 243.642 81.7024C243.98 81.4339 244.23 81.081 244.393 80.6435C244.555 80.206 244.636 79.732 244.636 79.2216C244.636 78.7112 244.555 78.2356 244.393 77.7947C244.23 77.3539 243.98 76.9976 243.642 76.7259C243.304 76.4541 242.873 76.3182 242.349 76.3182C241.826 76.3182 241.395 76.4541 241.057 76.7259C240.719 76.9976 240.469 77.3539 240.306 77.7947C240.144 78.2356 240.063 78.7112 240.063 79.2216C240.063 79.732 240.144 80.206 240.306 80.6435C240.469 81.081 240.719 81.4339 241.057 81.7024C241.395 81.9709 241.826 82.1051 242.349 82.1051ZM248.494 78.4062V83H247.321V75.3636H248.454V76.5568H248.554C248.733 76.169 249.004 75.8575 249.369 75.6222C249.734 75.3835 250.204 75.2642 250.781 75.2642C251.298 75.2642 251.75 75.3703 252.138 75.5824C252.526 75.7912 252.828 76.1094 253.043 76.5369C253.258 76.9612 253.366 77.4981 253.366 78.1477V83H252.193V78.2273C252.193 77.6274 252.037 77.16 251.726 76.8253C251.414 76.4872 250.986 76.3182 250.443 76.3182C250.068 76.3182 249.734 76.3994 249.439 76.5618C249.147 76.7242 248.917 76.9612 248.748 77.2727C248.579 77.5843 248.494 77.9621 248.494 78.4062ZM260.639 77.0739L259.585 77.3722C259.519 77.1965 259.421 77.0258 259.292 76.8601C259.166 76.6911 258.994 76.5518 258.775 76.4425C258.556 76.3331 258.276 76.2784 257.935 76.2784C257.467 76.2784 257.078 76.3861 256.766 76.6016C256.458 76.8137 256.304 77.0838 256.304 77.4119C256.304 77.7036 256.41 77.9339 256.622 78.103C256.834 78.272 257.166 78.4129 257.617 78.5256L258.75 78.804C259.433 78.9697 259.942 79.2232 260.276 79.5646C260.611 79.9027 260.778 80.3385 260.778 80.8722C260.778 81.3097 260.653 81.7008 260.401 82.0455C260.152 82.3902 259.804 82.6619 259.357 82.8608C258.909 83.0597 258.389 83.1591 257.796 83.1591C257.017 83.1591 256.372 82.9901 255.862 82.652C255.351 82.3139 255.028 81.8201 254.892 81.1705L256.006 80.892C256.112 81.303 256.312 81.6113 256.607 81.8168C256.906 82.0223 257.295 82.125 257.776 82.125C258.323 82.125 258.757 82.009 259.078 81.777C259.403 81.5417 259.565 81.2599 259.565 80.9318C259.565 80.6667 259.473 80.4446 259.287 80.2656C259.101 80.0833 258.816 79.9474 258.432 79.858L257.159 79.5597C256.46 79.3939 255.946 79.1371 255.618 78.7891C255.293 78.4377 255.131 77.9986 255.131 77.4716C255.131 77.0407 255.252 76.6596 255.494 76.3281C255.739 75.9967 256.072 75.7365 256.493 75.5476C256.917 75.3587 257.398 75.2642 257.935 75.2642C258.69 75.2642 259.284 75.4299 259.715 75.7614C260.149 76.0928 260.457 76.5303 260.639 77.0739ZM263.12 83.0795C262.874 83.0795 262.664 82.9917 262.488 82.8161C262.313 82.6404 262.225 82.4299 262.225 82.1847C262.225 81.9394 262.313 81.7289 262.488 81.5533C262.664 81.3776 262.874 81.2898 263.12 81.2898C263.365 81.2898 263.575 81.3776 263.751 81.5533C263.927 81.7289 264.015 81.9394 264.015 82.1847C264.015 82.3471 263.973 82.4962 263.89 82.6321C263.811 82.768 263.703 82.8774 263.567 82.9602C263.435 83.0398 263.285 83.0795 263.12 83.0795Z" fill="#205049" fill-opacity="0.8" style="fill:#205049;fill:color(display-p3 0.1255 0.3137 0.2863);fill-opacity:0.8;"/>
<g filter="url(#filter1_dd_209_3552)">
<rect x="21" y="110" width="296" height="45" rx="8" fill="#205049" style="fill:#205049;fill:color(display-p3 0.1255 0.3137 0.2863);fill-opacity:1;"/>
<rect x="21" y="110" width="296" height="45" rx="8" fill="url(#paint0_radial_209_3552)" fill-opacity="0.24" style=""/>
<rect x="21.5" y="110.5" width="295" height="44" rx="7.5" stroke="url(#paint1_linear_209_3552)" style=""/>
<path d="M135.501 133.5C135.502 133.704 135.44 133.903 135.323 134.07C135.207 134.238 135.041 134.365 134.849 134.434L131.621 135.621L130.434 138.847C130.363 139.038 130.236 139.203 130.069 139.319C129.902 139.436 129.704 139.498 129.5 139.498C129.296 139.498 129.098 139.436 128.931 139.319C128.764 139.203 128.637 139.038 128.566 138.847L127.376 135.625L124.149 134.438C123.958 134.367 123.793 134.24 123.677 134.073C123.56 133.906 123.498 133.707 123.498 133.504C123.498 133.3 123.56 133.101 123.677 132.935C123.793 132.768 123.958 132.64 124.149 132.57L127.377 131.383L128.565 128.157C128.635 127.966 128.763 127.801 128.929 127.684C129.096 127.568 129.295 127.506 129.499 127.506C129.702 127.506 129.901 127.568 130.068 127.684C130.235 127.801 130.362 127.966 130.432 128.157L131.62 131.385L134.846 132.573C135.037 132.641 135.203 132.767 135.32 132.933C135.437 133.099 135.5 133.297 135.501 133.5ZM132.001 127.5H133.001V128.5C133.001 128.633 133.053 128.76 133.147 128.854C133.241 128.947 133.368 129 133.501 129C133.633 129 133.76 128.947 133.854 128.854C133.948 128.76 134.001 128.633 134.001 128.5V127.5H135.001C135.133 127.5 135.26 127.447 135.354 127.354C135.448 127.26 135.501 127.133 135.501 127C135.501 126.867 135.448 126.74 135.354 126.646C135.26 126.553 135.133 126.5 135.001 126.5H134.001V125.5C134.001 125.367 133.948 125.24 133.854 125.146C133.76 125.053 133.633 125 133.501 125C133.368 125 133.241 125.053 133.147 125.146C133.053 125.24 133.001 125.367 133.001 125.5V126.5H132.001C131.868 126.5 131.741 126.553 131.647 126.646C131.553 126.74 131.501 126.867 131.501 127C131.501 127.133 131.553 127.26 131.647 127.354C131.741 127.447 131.868 127.5 132.001 127.5ZM137.501 129.5H137.001V129C137.001 128.867 136.948 128.74 136.854 128.646C136.76 128.553 136.633 128.5 136.501 128.5C136.368 128.5 136.241 128.553 136.147 128.646C136.053 128.74 136.001 128.867 136.001 129V129.5H135.501C135.368 129.5 135.241 129.553 135.147 129.646C135.053 129.74 135.001 129.867 135.001 130C135.001 130.133 135.053 130.26 135.147 130.354C135.241 130.447 135.368 130.5 135.501 130.5H136.001V131C136.001 131.133 136.053 131.26 136.147 131.354C136.241 131.447 136.368 131.5 136.501 131.5C136.633 131.5 136.76 131.447 136.854 131.354C136.948 131.26 137.001 131.133 137.001 131V130.5H137.501C137.633 130.5 137.76 130.447 137.854 130.354C137.948 130.26 138.001 130.133 138.001 130C138.001 129.867 137.948 129.74 137.854 129.646C137.76 129.553 137.633 129.5 137.501 129.5Z" fill="white" style="fill:white;fill-opacity:1;"/>
<path d="M148.479 138H146.848L150.512 127.818H152.287L155.951 138H154.32L151.442 129.668H151.362L148.479 138ZM148.752 134.013H154.042V135.305H148.752V134.013ZM162.97 132.228L161.622 132.467C161.566 132.294 161.477 132.13 161.354 131.974C161.235 131.819 161.072 131.691 160.867 131.592C160.661 131.492 160.404 131.442 160.096 131.442C159.675 131.442 159.324 131.537 159.042 131.726C158.76 131.911 158.619 132.152 158.619 132.447C158.619 132.702 158.714 132.907 158.903 133.063C159.092 133.219 159.397 133.347 159.818 133.446L161.031 133.724C161.733 133.887 162.257 134.137 162.602 134.475C162.946 134.813 163.119 135.252 163.119 135.793C163.119 136.25 162.986 136.658 162.721 137.016C162.459 137.37 162.093 137.649 161.622 137.851C161.155 138.053 160.613 138.154 159.997 138.154C159.142 138.154 158.444 137.972 157.904 137.607C157.363 137.239 157.032 136.717 156.909 136.041L158.346 135.822C158.436 136.197 158.619 136.48 158.898 136.673C159.176 136.862 159.539 136.956 159.987 136.956C160.474 136.956 160.863 136.855 161.155 136.653C161.447 136.447 161.593 136.197 161.593 135.902C161.593 135.663 161.503 135.463 161.324 135.3C161.148 135.138 160.878 135.015 160.514 134.933L159.221 134.649C158.508 134.487 157.981 134.228 157.64 133.874C157.302 133.519 157.133 133.07 157.133 132.526C157.133 132.076 157.259 131.681 157.511 131.343C157.763 131.005 158.111 130.741 158.555 130.553C158.999 130.36 159.508 130.264 160.081 130.264C160.906 130.264 161.556 130.443 162.03 130.801C162.504 131.156 162.817 131.631 162.97 132.228ZM166.12 135.41L166.11 133.595H166.369L169.412 130.364H171.191L167.721 134.043H167.488L166.12 135.41ZM164.753 138V127.818H166.24V138H164.753ZM169.576 138L166.841 134.371L167.865 133.332L171.4 138H169.576ZM178.474 138.169C177.99 138.169 177.552 138.08 177.161 137.901C176.77 137.718 176.46 137.455 176.231 137.11C176.006 136.765 175.893 136.343 175.893 135.842C175.893 135.411 175.976 135.057 176.142 134.778C176.308 134.5 176.531 134.28 176.813 134.117C177.095 133.955 177.41 133.832 177.758 133.749C178.106 133.666 178.46 133.603 178.822 133.56C179.279 133.507 179.65 133.464 179.935 133.431C180.22 133.395 180.427 133.337 180.557 133.257C180.686 133.178 180.751 133.048 180.751 132.869V132.835C180.751 132.4 180.628 132.064 180.383 131.825C180.141 131.587 179.779 131.467 179.299 131.467C178.798 131.467 178.404 131.578 178.116 131.8C177.831 132.019 177.633 132.263 177.524 132.531L176.127 132.213C176.293 131.749 176.535 131.375 176.853 131.089C177.174 130.801 177.544 130.592 177.961 130.463C178.379 130.33 178.818 130.264 179.279 130.264C179.584 130.264 179.907 130.301 180.248 130.374C180.593 130.443 180.915 130.572 181.213 130.761C181.515 130.95 181.761 131.22 181.954 131.572C182.146 131.92 182.242 132.372 182.242 132.929V138H180.79V136.956H180.731C180.635 137.148 180.49 137.337 180.298 137.523C180.106 137.708 179.859 137.862 179.557 137.985C179.256 138.108 178.894 138.169 178.474 138.169ZM178.797 136.976C179.208 136.976 179.559 136.895 179.851 136.732C180.146 136.57 180.369 136.358 180.522 136.096C180.678 135.831 180.756 135.547 180.756 135.246V134.261C180.702 134.314 180.6 134.364 180.447 134.411C180.298 134.454 180.127 134.492 179.935 134.525C179.743 134.555 179.556 134.583 179.373 134.609C179.191 134.633 179.039 134.652 178.916 134.669C178.628 134.705 178.364 134.767 178.126 134.853C177.89 134.939 177.701 135.063 177.559 135.226C177.42 135.385 177.35 135.597 177.35 135.862C177.35 136.23 177.486 136.509 177.758 136.697C178.029 136.883 178.376 136.976 178.797 136.976ZM185.877 138L183.63 130.364H185.167L186.663 135.972H186.738L188.239 130.364H189.775L191.267 135.947H191.341L192.828 130.364H194.364L192.122 138H190.605L189.054 132.487H188.94L187.389 138H185.877ZM197.997 138.169C197.513 138.169 197.076 138.08 196.684 137.901C196.293 137.718 195.983 137.455 195.755 137.11C195.529 136.765 195.417 136.343 195.417 135.842C195.417 135.411 195.5 135.057 195.665 134.778C195.831 134.5 196.055 134.28 196.336 134.117C196.618 133.955 196.933 133.832 197.281 133.749C197.629 133.666 197.984 133.603 198.345 133.56C198.802 133.507 199.174 133.464 199.459 133.431C199.744 133.395 199.951 133.337 200.08 133.257C200.209 133.178 200.274 133.048 200.274 132.869V132.835C200.274 132.4 200.151 132.064 199.906 131.825C199.664 131.587 199.303 131.467 198.822 131.467C198.322 131.467 197.927 131.578 197.639 131.8C197.354 132.019 197.157 132.263 197.047 132.531L195.65 132.213C195.816 131.749 196.058 131.375 196.376 131.089C196.698 130.801 197.067 130.592 197.485 130.463C197.903 130.33 198.342 130.264 198.802 130.264C199.107 130.264 199.43 130.301 199.772 130.374C200.117 130.443 200.438 130.572 200.736 130.761C201.038 130.95 201.285 131.22 201.477 131.572C201.669 131.92 201.765 132.372 201.765 132.929V138H200.314V136.956H200.254C200.158 137.148 200.014 137.337 199.822 137.523C199.629 137.708 199.382 137.862 199.081 137.985C198.779 138.108 198.418 138.169 197.997 138.169ZM198.32 136.976C198.731 136.976 199.082 136.895 199.374 136.732C199.669 136.57 199.893 136.358 200.045 136.096C200.201 135.831 200.279 135.547 200.279 135.246V134.261C200.226 134.314 200.123 134.364 199.971 134.411C199.822 134.454 199.651 134.492 199.459 134.525C199.266 134.555 199.079 134.583 198.897 134.609C198.715 134.633 198.562 134.652 198.439 134.669C198.151 134.705 197.888 134.767 197.649 134.853C197.414 134.939 197.225 135.063 197.082 135.226C196.943 135.385 196.873 135.597 196.873 135.862C196.873 136.23 197.009 136.509 197.281 136.697C197.553 136.883 197.899 136.976 198.32 136.976ZM204.412 140.864C204.19 140.864 203.987 140.845 203.805 140.809C203.623 140.776 203.487 140.739 203.397 140.7L203.755 139.482C204.027 139.554 204.269 139.586 204.481 139.576C204.693 139.566 204.881 139.487 205.043 139.337C205.209 139.188 205.355 138.945 205.48 138.607L205.664 138.099L202.87 130.364H204.461L206.395 136.29H206.475L208.409 130.364H210.005L206.858 139.019C206.712 139.417 206.526 139.753 206.301 140.028C206.075 140.307 205.807 140.516 205.495 140.655C205.184 140.794 204.823 140.864 204.412 140.864ZM213.276 127.818L213.147 135.072H211.77L211.64 127.818H213.276ZM212.461 138.094C212.185 138.094 211.95 137.998 211.755 137.806C211.559 137.611 211.463 137.375 211.466 137.1C211.463 136.828 211.559 136.596 211.755 136.404C211.95 136.209 212.185 136.111 212.461 136.111C212.729 136.111 212.961 136.209 213.157 136.404C213.352 136.596 213.452 136.828 213.455 137.1C213.452 137.282 213.404 137.45 213.311 137.602C213.221 137.751 213.102 137.871 212.953 137.96C212.804 138.05 212.64 138.094 212.461 138.094Z" fill="white" style="fill:white;fill-opacity:1;"/>
</g>
</g>
<defs>
<filter id="filter0_dd_209_3552" x="0" y="0" width="338" height="180" filterUnits="userSpaceOnUse" color-interpolation-filters="sRGB">
<feFlood flood-opacity="0" result="BackgroundImageFix"/>
<feColorMatrix in="SourceAlpha" type="matrix" values="0 0 0 0 0 0 0 0 0 0 0 0 0 0 0 0 0 0 127 0" result="hardAlpha"/>
<feMorphology radius="1" operator="erode" in="SourceAlpha" result="effect1_dropShadow_209_3552"/>
<feOffset dy="4"/>
<feGaussianBlur stdDeviation="3"/>
<feComposite in2="hardAlpha" operator="out"/>
<feColorMatrix type="matrix" values="0 0 0 0 0 0 0 0 0 0 0 0 0 0 0 0 0 0 0.1 0"/>
<feBlend mode="normal" in2="BackgroundImageFix" result="effect1_dropShadow_209_3552"/>
<feColorMatrix in="SourceAlpha" type="matrix" values="0 0 0 0 0 0 0 0 0 0 0 0 0 0 0 0 0 0 127 0" result="hardAlpha"/>
<feMorphology radius="2" operator="erode" in="SourceAlpha" result="effect2_dropShadow_209_3552"/>
<feOffset dy="2"/>
<feGaussianBlur stdDeviation="2"/>
<feComposite in2="hardAlpha" operator="out"/>
<feColorMatrix type="matrix" values="0 0 0 0 0 0 0 0 0 0 0 0 0 0 0 0 0 0 0.1 0"/>
<feBlend mode="normal" in2="effect1_dropShadow_209_3552" result="effect2_dropShadow_209_3552"/>
<feBlend mode="normal" in="SourceGraphic" in2="effect2_dropShadow_209_3552" result="shape"/>
</filter>
<filter id="filter1_dd_209_3552" x="19" y="109" width="300" height="49" filterUnits="userSpaceOnUse" color-interpolation-filters="sRGB">
<feFlood flood-opacity="0" result="BackgroundImageFix"/>
<feColorMatrix in="SourceAlpha" type="matrix" values="0 0 0 0 0 0 0 0 0 0 0 0 0 0 0 0 0 0 127 0" result="hardAlpha"/>
<feOffset dy="1"/>
<feGaussianBlur stdDeviation="1"/>
<feColorMatrix type="matrix" values="0 0 0 0 0 0 0 0 0 0 0 0 0 0 0 0 0 0 0.2 0"/>
<feBlend mode="normal" in2="BackgroundImageFix" result="effect1_dropShadow_209_3552"/>
<feColorMatrix in="SourceAlpha" type="matrix" values="0 0 0 0 0 0 0 0 0 0 0 0 0 0 0 0 0 0 127 0" result="hardAlpha"/>
<feMorphology radius="1" operator="dilate" in="SourceAlpha" result="effect2_dropShadow_209_3552"/>
<feOffset/>
<feComposite in2="hardAlpha" operator="out"/>
<feColorMatrix type="matrix" values="0 0 0 0 0.12549 0 0 0 0 0.313726 0 0 0 0 0.286275 0 0 0 1 0"/>
<feBlend mode="normal" in2="effect1_dropShadow_209_3552" result="effect2_dropShadow_209_3552"/>
<feBlend mode="normal" in="SourceGraphic" in2="effect2_dropShadow_209_3552" result="shape"/>
</filter>
<radialGradient id="paint0_radial_209_3552" cx="0" cy="0" r="1" gradientUnits="userSpaceOnUse" gradientTransform="translate(169 102.317) rotate(90) scale(52.6829 288.193)">
<stop stop-color="white" stop-opacity="0.5" style="stop-color:white;stop-opacity:0.5;"/>
<stop offset="0.589221" stop-color="white" stop-opacity="0" style="stop-color:none;stop-opacity:0;"/>
</radialGradient>
<linearGradient id="paint1_linear_209_3552" x1="169" y1="110" x2="169" y2="155" gradientUnits="userSpaceOnUse">
<stop stop-color="white" stop-opacity="0.3" style="stop-color:white;stop-opacity:0.3;"/>
<stop offset="1" stop-color="white" stop-opacity="0" style="stop-color:none;stop-opacity:0;"/>
</linearGradient>
</defs>
</svg>
