<svg width="48" height="33" viewBox="0 0 48 33" fill="none" xmlns="http://www.w3.org/2000/svg">
<path d="M9.46939 0.897959H38.5306C43.2645 0.897959 47.102 4.73552 47.102 9.46939V15.5102C47.102 16.457 46.3345 17.2245 45.3878 17.2245H2.61224C1.66547 17.2245 0.897959 16.457 0.897959 15.5102V9.46939C0.897959 4.73552 4.73552 0.897959 9.46939 0.897959Z" stroke="black" stroke-width="1.79592"/>
<path d="M2.04103 17.2244H45.9594V28.8978C45.9594 30.2955 44.8264 31.4285 43.4288 31.4285H4.57164C3.17402 31.4285 2.04103 30.2955 2.04103 28.8978V17.2244Z" fill="#F9EDE0" stroke="black" stroke-width="1.79592"/>
<path d="M6.36719 21.3877L9.25615 23.0182C9.35756 23.0754 9.36817 23.2174 9.2764 23.2891L6.69372 25.3061" stroke="#6F0000" stroke-width="1.30612" stroke-linecap="round"/>
<path d="M24.3267 21.3877L21.4377 23.0182C21.3363 23.0754 21.3257 23.2174 21.4175 23.2891L24.0001 25.3061" stroke="#6F0000" stroke-width="1.30612" stroke-linecap="round"/>
<path d="M13.2246 24.3264C13.2246 24.3264 13.2598 25.9341 14.0409 26.0947C14.5334 26.1959 15.2654 25.7103 15.2654 25.7103M15.2654 25.7103C15.2654 25.7103 15.6736 26.2485 16.4899 26.0947C17.3062 25.9409 17.4695 24.3264 17.4695 24.3264M15.2654 25.7103V24.3264" stroke="#6F0000" stroke-width="0.816327" stroke-linecap="round"/>
<path d="M27.1021 16.3264H34.1225V30.5305H27.1021V16.3264Z" fill="#75425D"/>
<mask id="mask0_89_150" style="mask-type:alpha" maskUnits="userSpaceOnUse" x="1" y="1" width="46" height="16">
<path d="M1.7959 9.46937C1.7959 5.23143 5.23143 1.7959 9.46937 1.7959H38.5306C42.7685 1.7959 46.2041 5.23143 46.2041 9.46937V15.5102C46.2041 15.961 45.8386 16.3265 45.3877 16.3265H2.61222C2.16138 16.3265 1.7959 15.961 1.7959 15.5102V9.46937Z" fill="black"/>
</mask>
<g mask="url(#mask0_89_150)">
<path d="M-2.35571 0H-0.396524V19.4286H-2.35571V0Z" fill="#FB6542"/>
<path d="M-0.396524 0H0.583067V19.4286H-0.396524V0Z" fill="white"/>
<path d="M-3.3353 0H-2.35571V19.4286H-3.3353V0Z" fill="white"/>
<path d="M-4.80469 0H-3.3353V19.4286H-4.80469V0Z" fill="#FFD8CE"/>
<path d="M0.583067 0H2.05246V19.4286H0.583067V0Z" fill="#FFD8CE"/>
<path d="M4.50171 0H6.4609V19.4286H4.50171V0Z" fill="#FB6542"/>
<path d="M6.4609 0H7.44049V19.4286H6.4609V0Z" fill="white"/>
<path d="M3.52212 0H4.50171V19.4286H3.52212V0Z" fill="white"/>
<path d="M2.05273 0H3.52212V19.4286H2.05273V0Z" fill="#FFD8CE"/>
<path d="M7.44049 0H8.90988V19.4286H7.44049V0Z" fill="#FFD8CE"/>
<path d="M11.3586 0H13.3178V19.4286H11.3586V0Z" fill="#FB6542"/>
<path d="M13.3178 0H14.2974V19.4286H13.3178V0Z" fill="white"/>
<path d="M10.3791 0H11.3586V19.4286H10.3791V0Z" fill="white"/>
<path d="M8.90967 0H10.3791V19.4286H8.90967V0Z" fill="#FFD8CE"/>
<path d="M14.2974 0H15.7668V19.4286H14.2974V0Z" fill="#FFD8CE"/>
<path d="M18.2156 0H20.1748V19.4286H18.2156V0Z" fill="#FB6542"/>
<path d="M20.1748 0H21.1544V19.4286H20.1748V0Z" fill="white"/>
<path d="M17.236 0H18.2156V19.4286H17.236V0Z" fill="white"/>
<path d="M15.7666 0H17.236V19.4286H15.7666V0Z" fill="#FFD8CE"/>
<path d="M21.1544 0H22.6237V19.4286H21.1544V0Z" fill="#FFD8CE"/>
<path d="M25.073 0H27.0322V19.4286H25.073V0Z" fill="#FB6542"/>
<path d="M27.0322 0H28.0118V19.4286H27.0322V0Z" fill="white"/>
<path d="M24.0934 0H25.073V19.4286H24.0934V0Z" fill="white"/>
<path d="M22.624 0H24.0934V19.4286H22.624V0Z" fill="#FFD8CE"/>
<path d="M28.0118 0H29.4812V19.4286H28.0118V0Z" fill="#FFD8CE"/>
<path d="M31.9299 0H33.8891V19.4286H31.9299V0Z" fill="#FB6542"/>
<path d="M33.8891 0H34.8687V19.4286H33.8891V0Z" fill="white"/>
<path d="M30.9503 0H31.9299V19.4286H30.9503V0Z" fill="white"/>
<path d="M29.481 0H30.9503V19.4286H29.481V0Z" fill="#FFD8CE"/>
<path d="M34.8687 0H36.3381V19.4286H34.8687V0Z" fill="#FFD8CE"/>
<path d="M38.7874 0H40.7465V19.4286H38.7874V0Z" fill="#FB6542"/>
<path d="M40.7465 0H41.7261V19.4286H40.7465V0Z" fill="white"/>
<path d="M37.8078 0H38.7874V19.4286H37.8078V0Z" fill="white"/>
<path d="M36.3384 0H37.8078V19.4286H36.3384V0Z" fill="#FFD8CE"/>
<path d="M41.7261 0H43.1955V19.4286H41.7261V0Z" fill="#FFD8CE"/>
<path d="M45.6443 0H47.6035V19.4286H45.6443V0Z" fill="#FB6542"/>
<path d="M47.6035 0H48.5831V19.4286H47.6035V0Z" fill="white"/>
<path d="M44.6647 0H45.6443V19.4286H44.6647V0Z" fill="white"/>
<path d="M43.1953 0H44.6647V19.4286H43.1953V0Z" fill="#FFD8CE"/>
<path d="M48.5831 0H50.0525V19.4286H48.5831V0Z" fill="#FFD8CE"/>
</g>
<rect x="27.2651" y="1.7959" width="6.69388" height="14.5306" fill="#75425D"/>
<ellipse cx="22.7753" cy="28.0816" rx="1.22449" ry="0.489796" fill="#FF3100"/>
<ellipse cx="7.91834" cy="28.0816" rx="1.22449" ry="0.489796" fill="#FF3100"/>
</svg>
